<svg width="304" height="224" viewBox="0 0 304 224" fill="none" xmlns="http://www.w3.org/2000/svg">
<path d="M273.444 208.678H253.323V208.83H273.444V208.678Z" fill="#EBEBEB"/>
<path d="M201.343 210.331H196.064V210.482H201.343V210.331Z" fill="#EBEBEB"/>
<path d="M252.715 203.041H241.057V203.192H252.715V203.041Z" fill="#EBEBEB"/>
<path d="M58.2288 204.061H31.9899V204.213H58.2288V204.061Z" fill="#EBEBEB"/>
<path d="M67.4875 204.061H63.6418V204.213H67.4875V204.061Z" fill="#EBEBEB"/>
<path d="M136.903 206.625H79.9902V206.777H136.903V206.625Z" fill="#EBEBEB"/>
<path d="M144.102 171.808H26.8016C25.8816 171.808 24.9992 171.442 24.3487 170.792C23.6981 170.141 23.3326 169.259 23.3326 168.339V3.43858C23.3407 2.52383 23.7097 1.64927 24.3594 1.00527C25.009 0.361271 25.8868 -3.50699e-05 26.8016 2.55315e-09H144.102C145.022 2.55316e-09 145.905 0.365479 146.555 1.01603C147.206 1.66659 147.571 2.54893 147.571 3.46896V168.339C147.571 169.259 147.206 170.141 146.555 170.792C145.905 171.442 145.022 171.808 144.102 171.808ZM26.8016 0.121505C25.9223 0.123111 25.0796 0.473103 24.4578 1.09483C23.8361 1.71655 23.4861 2.55933 23.4845 3.43858V168.339C23.4861 169.218 23.8361 170.061 24.4578 170.682C25.0796 171.304 25.9223 171.654 26.8016 171.656H144.102C144.981 171.654 145.824 171.304 146.446 170.682C147.068 170.061 147.418 169.218 147.419 168.339V3.43858C147.418 2.55933 147.068 1.71655 146.446 1.09483C145.824 0.473103 144.981 0.123111 144.102 0.121505H26.8016Z" fill="#EBEBEB"/>
<path d="M275.516 171.808H158.203C157.283 171.806 156.402 171.44 155.752 170.79C155.101 170.14 154.735 169.258 154.734 168.339V3.43858C154.743 2.52433 155.113 1.65069 155.762 1.00703C156.412 0.363365 157.288 0.00154815 158.203 0H275.516C276.428 0.00316185 277.303 0.365881 277.95 1.00954C278.597 1.6532 278.964 2.52593 278.972 3.43858V168.339C278.972 169.257 278.609 170.137 277.961 170.787C277.313 171.438 276.433 171.804 275.516 171.808ZM158.203 0.121505C157.324 0.123111 156.481 0.473103 155.859 1.09483C155.237 1.71655 154.887 2.55933 154.886 3.43858V168.339C154.887 169.218 155.237 170.061 155.859 170.682C156.481 171.304 157.324 171.654 158.203 171.656H275.516C276.395 171.654 277.238 171.304 277.859 170.682C278.481 170.061 278.831 169.218 278.833 168.339V3.43858C278.831 2.55933 278.481 1.71655 277.859 1.09483C277.238 0.473103 276.395 0.123111 275.516 0.121505H158.203Z" fill="#EBEBEB"/>
<path d="M303.881 198.903H0.119141V199.055H303.881V198.903Z" fill="#EBEBEB"/>
<path d="M214.733 45.5643C200.705 44.9993 161.064 44.5254 161.326 28.2377C161.587 11.95 179.685 27.3082 179.685 27.3082C179.685 27.3082 186.823 7.86746 197.236 10.3583C207.649 12.8492 210.128 29.5257 210.128 29.5257C210.128 29.5257 215.182 11.221 227.442 18.5295C236.61 23.9972 233.287 37.6847 233.287 37.6847C233.287 37.6847 246.585 32.9278 247.497 40.2667C248.408 47.6056 223.02 45.8863 214.733 45.5643Z" fill="#F5F5F5"/>
<path d="M56.4001 84.7129C50.3248 84.4698 33.0833 84.2633 33.1927 77.1856C33.302 70.108 41.1755 76.7847 41.1755 76.7847C41.1755 76.7847 44.2739 68.3279 48.7999 69.4154C53.326 70.5029 54.4013 77.7628 54.4013 77.7628C54.4013 77.7628 56.5884 69.8164 61.9224 72.9937C65.9078 75.3631 64.4619 81.3168 64.4619 81.3168C64.4619 81.3168 70.2455 79.2451 70.6404 82.4346C71.0353 85.6241 60.0027 84.8587 56.4001 84.7129Z" fill="#F5F5F5"/>
<path d="M264.939 70.4301C252.837 76.5054 212.285 74.3729 214.18 62.429C216.075 50.4851 225.176 62.429 225.176 62.429C225.176 62.429 225.978 50.0538 234.453 49.6224C242.928 49.1911 244.398 60.9345 244.398 60.9345C244.398 60.9345 246.354 51.2628 251.567 53.6929C256.78 56.1229 256.3 63.9296 256.3 63.9296C256.3 63.9296 260.473 60.9467 263.177 62.429C265.88 63.9114 266.773 69.5128 264.939 70.4301Z" fill="#F5F5F5"/>
<path d="M263.699 190.471C266.688 185.398 266.482 179.566 262.903 176.619C261.408 175.434 259.537 174.824 257.63 174.9C257.843 169.973 256.233 165.489 252.77 162.616C247.91 158.624 240.747 158.77 234.228 162.318C226.725 151.51 214.381 146.845 205.608 151.881C202.623 153.652 200.295 156.345 198.974 159.554C186.392 155.083 173.458 158.606 169.369 167.986C168.31 170.429 167.902 173.104 168.184 175.751C164.497 174.967 160.961 175.799 158.877 178.332C156.277 181.479 156.69 186.321 159.485 190.447L263.699 190.471Z" fill="#F0F0F0"/>
<path d="M226.677 168.454C226.677 168.454 224.192 174.128 232.023 175.137C232.023 175.125 235.134 169.997 226.677 168.454Z" fill="#E0E0E0"/>
<path d="M226.677 168.454C226.677 168.454 231.154 170.769 232.023 175.137C232.023 175.125 235.134 169.997 226.677 168.454Z" fill="#FAFAFA"/>
<path d="M238.019 173.588C238.019 173.588 235.753 178.752 242.879 179.663C242.892 179.657 245.723 174.967 238.019 173.588Z" fill="#E0E0E0"/>
<path d="M238.019 173.588C238.019 173.588 242.102 175.696 242.879 179.663C242.892 179.657 245.723 174.967 238.019 173.588Z" fill="#FAFAFA"/>
<path d="M238.317 167.786C238.317 167.786 234.38 169.323 237.679 173.588C237.661 173.588 241.652 172.609 238.317 167.786Z" fill="#E0E0E0"/>
<path d="M238.317 167.786C238.317 167.786 239.356 171.066 237.679 173.588C237.661 173.588 241.652 172.609 238.317 167.786Z" fill="#FAFAFA"/>
<path d="M245.079 169.9C245.079 169.9 241.209 168.205 240.534 173.545C240.534 173.551 244.028 175.672 245.079 169.9Z" fill="#E0E0E0"/>
<path d="M245.079 169.9C245.079 169.9 243.505 172.938 240.534 173.545C240.534 173.551 244.028 175.671 245.079 169.9Z" fill="#FAFAFA"/>
<path d="M183.13 175.216C183.13 175.216 185.62 180.89 177.783 181.899C177.783 181.886 174.673 176.789 183.13 175.216Z" fill="#E0E0E0"/>
<path d="M183.13 175.216C183.13 175.216 178.652 177.53 177.783 181.899C177.783 181.886 174.673 176.789 183.13 175.216Z" fill="#FAFAFA"/>
<path d="M194.108 172.452C194.108 172.452 188.439 169.967 187.425 177.798C187.443 177.798 192.564 180.908 194.108 172.452Z" fill="#E0E0E0"/>
<path d="M194.108 172.452C194.108 172.452 191.793 176.929 187.425 177.798C187.443 177.798 192.564 180.908 194.108 172.452Z" fill="#FAFAFA"/>
<path d="M189.697 168.94C189.697 168.94 187.953 174.311 182.018 170.24C182.018 170.24 182.984 164.87 189.697 168.94Z" fill="#E0E0E0"/>
<path d="M189.697 168.94C189.697 168.94 185.25 167.804 182.018 170.24C182.018 170.24 182.984 164.87 189.697 168.94Z" fill="#FAFAFA"/>
<path d="M195.906 171.188C195.906 171.188 199.776 169.493 200.456 174.833C200.456 174.839 196.957 176.96 195.906 171.188Z" fill="#E0E0E0"/>
<path d="M195.906 171.188C195.906 171.188 197.485 174.226 200.456 174.833C200.456 174.839 196.957 176.959 195.906 171.188Z" fill="#FAFAFA"/>
<path d="M190.183 164.639C190.183 164.639 194.053 162.938 194.733 168.284C194.733 168.284 191.234 170.392 190.183 164.639Z" fill="#E0E0E0"/>
<path d="M190.183 164.639C190.183 164.639 191.762 167.676 194.733 168.284C194.733 168.284 191.234 170.392 190.183 164.639Z" fill="#FAFAFA"/>
<path d="M209.539 152.737C209.539 152.737 207.048 158.412 214.885 159.42C214.885 159.408 217.995 154.311 209.539 152.737Z" fill="#E0E0E0"/>
<path d="M209.539 152.737C209.539 152.737 214.01 155.052 214.885 159.42C214.885 159.408 217.995 154.311 209.539 152.737Z" fill="#FAFAFA"/>
<path d="M215.79 160.775C215.79 160.775 213.524 165.945 220.65 166.85C220.65 166.85 223.487 162.209 215.79 160.775Z" fill="#E0E0E0"/>
<path d="M215.79 160.775C215.79 160.775 219.867 162.883 220.65 166.85C220.65 166.85 223.487 162.209 215.79 160.775Z" fill="#FAFAFA"/>
<path d="M216.537 159.111C216.537 159.111 219.915 163.631 224.222 157.896C224.222 157.865 221.555 153.096 216.537 159.111Z" fill="#E0E0E0"/>
<path d="M216.537 159.111C216.537 159.111 220.383 156.602 224.222 157.896C224.222 157.865 221.555 153.096 216.537 159.111Z" fill="#FAFAFA"/>
<path d="M213.712 160.082C213.712 160.082 209.842 158.387 209.162 163.727C209.162 163.733 212.661 165.854 213.712 160.082Z" fill="#E0E0E0"/>
<path d="M213.712 160.082C213.712 160.082 212.133 163.12 209.162 163.728C209.162 163.734 212.661 165.854 213.712 160.082Z" fill="#FAFAFA"/>
<path d="M122.231 188.527C125.943 181.564 124.935 173.424 119.455 169.329C118.674 168.749 117.826 168.268 116.928 167.895C117.159 164.657 116.187 161.741 113.89 160.046C112.472 159.017 110.742 158.513 108.993 158.618C110.816 149.305 107.529 140.66 100.798 138.37C93.1917 135.775 84.0971 142.27 80.4884 152.877C79.0085 152.227 77.3533 152.091 75.7874 152.492C74.2214 152.893 72.8349 153.807 71.8494 155.089C66.4121 151.006 59.9298 150.174 55.8473 153.527C52.2507 156.486 51.4853 161.911 53.3807 167.354C51.5331 167.754 49.8068 168.587 48.3444 169.785C43.2108 174.001 42.4696 181.838 46.1269 188.502L122.231 188.527Z" fill="#F0F0F0"/>
<path d="M56.8679 168.473C56.8679 168.473 58.9578 173.223 52.3905 174.062C52.3662 174.062 49.7842 169.767 56.8679 168.473Z" fill="#E0E0E0"/>
<path d="M56.8679 168.473C56.8679 168.473 53.1195 170.411 52.3905 174.062C52.3662 174.062 49.7842 169.767 56.8679 168.473Z" fill="#FAFAFA"/>
<path d="M89.7411 143.819C89.7411 143.819 87.6573 148.576 94.2246 149.408C94.2246 149.408 96.8309 145.113 89.7411 143.819Z" fill="#E0E0E0"/>
<path d="M89.741 143.819C89.741 143.819 93.4955 145.757 94.2245 149.408C94.2245 149.408 96.8308 145.113 89.741 143.819Z" fill="#FAFAFA"/>
<path d="M99.2488 148.12C99.2488 148.12 97.3472 152.452 103.331 153.211C103.331 153.211 105.707 149.299 99.2488 148.12Z" fill="#E0E0E0"/>
<path d="M99.2488 148.12C99.2488 148.12 102.669 149.888 103.331 153.211C103.331 153.211 105.707 149.299 99.2488 148.12Z" fill="#FAFAFA"/>
<path d="M99.4917 143.26C99.4917 143.26 96.1929 144.548 98.9632 148.12C98.9632 148.12 102.292 147.306 99.4917 143.26Z" fill="#E0E0E0"/>
<path d="M99.4918 143.26C99.4918 143.26 100.367 146.006 98.9633 148.12C98.9633 148.12 102.292 147.306 99.4918 143.26Z" fill="#FAFAFA"/>
<path d="M105.166 145.034C105.166 145.034 101.922 143.612 101.351 148.071C101.351 148.09 104.285 149.87 105.166 145.034Z" fill="#E0E0E0"/>
<path d="M105.166 145.034C105.166 145.034 103.842 147.592 101.351 148.072C101.351 148.09 104.285 149.87 105.166 145.034Z" fill="#FAFAFA"/>
<path d="M111.569 171.267C111.569 171.267 109.486 176.018 116.053 176.856C116.053 176.856 118.659 172.537 111.569 171.267Z" fill="#E0E0E0"/>
<path d="M111.569 171.267C111.569 171.267 115.324 173.205 116.053 176.856C116.053 176.856 118.659 172.537 111.569 171.267Z" fill="#FAFAFA"/>
<path d="M102.371 168.946C102.371 168.946 107.128 166.862 107.961 173.43C107.961 173.43 103.665 176.036 102.371 168.946Z" fill="#E0E0E0"/>
<path d="M102.371 168.946C102.371 168.946 104.309 172.701 107.961 173.43C107.961 173.43 103.665 176.036 102.371 168.946Z" fill="#FAFAFA"/>
<path d="M106.071 166.006C106.071 166.006 107.529 170.508 112.505 167.093C112.511 167.069 111.673 162.591 106.071 166.006Z" fill="#E0E0E0"/>
<path d="M106.071 166.006C106.071 166.006 109.795 165.052 112.505 167.093C112.511 167.069 111.673 162.591 106.071 166.006Z" fill="#FAFAFA"/>
<path d="M100.865 167.889C100.865 167.889 97.6266 166.468 97.0555 170.927C97.0555 170.945 99.9838 172.725 100.865 167.889Z" fill="#E0E0E0"/>
<path d="M100.865 167.889C100.865 167.889 99.5464 170.447 97.0555 170.927C97.0555 170.945 99.9838 172.725 100.865 167.889Z" fill="#FAFAFA"/>
<path d="M105.664 162.385C105.664 162.385 102.42 160.963 101.849 165.423C101.849 165.447 104.783 167.227 105.664 162.385Z" fill="#E0E0E0"/>
<path d="M105.664 162.385C105.664 162.385 104.34 164.949 101.849 165.423C101.849 165.447 104.783 167.227 105.664 162.385Z" fill="#FAFAFA"/>
<path d="M58.3806 161.735C58.3806 161.735 56.2968 166.486 62.8641 167.318C62.8641 167.318 65.4643 163.023 58.3806 161.735Z" fill="#E0E0E0"/>
<path d="M58.3806 161.735C58.3806 161.735 62.129 163.673 62.8641 167.318C62.8641 167.318 65.4643 163.023 58.3806 161.735Z" fill="#FAFAFA"/>
<path d="M63.6176 168.466C63.6176 168.466 61.716 172.798 67.7001 173.557C67.7001 173.557 70.0755 169.645 63.6176 168.466Z" fill="#E0E0E0"/>
<path d="M63.6176 168.466C63.6176 168.466 67.0318 170.234 67.7001 173.557C67.7001 173.557 70.0755 169.645 63.6176 168.466Z" fill="#FAFAFA"/>
<path d="M64.2432 167.069C64.2432 167.069 67.0742 170.86 70.689 166.03C70.689 166.03 68.4533 162.033 64.2432 167.069Z" fill="#E0E0E0"/>
<path d="M64.2432 167.069C64.2432 167.069 67.4691 164.967 70.689 166.03C70.689 166.03 68.4533 162.033 64.2432 167.069Z" fill="#FAFAFA"/>
<path d="M61.8799 167.889C61.8799 167.889 58.6358 166.468 58.0647 170.927C58.0647 170.945 60.999 172.725 61.8799 167.889Z" fill="#E0E0E0"/>
<path d="M61.8799 167.889C61.8799 167.889 60.5555 170.447 58.0647 170.927C58.0647 170.945 60.999 172.725 61.8799 167.889Z" fill="#FAFAFA"/>
<path d="M214.35 198.8H240.231L240.656 193.782C240.743 192.779 240.612 191.769 240.273 190.821C239.933 189.872 239.393 189.009 238.69 188.288C237.986 187.568 237.136 187.008 236.196 186.647C235.256 186.285 234.249 186.131 233.244 186.194L220.28 187.002C219.312 187.062 218.367 187.323 217.505 187.767C216.644 188.211 215.883 188.829 215.273 189.583C214.663 190.336 214.215 191.208 213.959 192.143C213.703 193.078 213.644 194.056 213.785 195.015L214.35 198.8Z" fill="#F5F5F5"/>
<path d="M63.1862 198.8H31.2062L30.4954 192.809C30.4114 192.065 30.4814 191.31 30.7012 190.594C30.921 189.877 31.2857 189.213 31.7729 188.643C32.26 188.074 32.8591 187.61 33.5329 187.282C34.2067 186.953 34.9408 186.767 35.6897 186.734L58.648 185.835C59.4501 185.808 60.2483 185.958 60.9858 186.275C61.7234 186.591 62.3823 187.066 62.9158 187.665C63.4493 188.265 63.8442 188.974 64.0726 189.744C64.301 190.513 64.3572 191.323 64.2372 192.117L63.1862 198.8Z" fill="#E6E6E6"/>
<path d="M117.219 198.8H83.1494L82.6148 193.94C82.5075 192.981 82.606 192.01 82.9037 191.092C83.2014 190.174 83.6915 189.33 84.3412 188.617C84.9909 187.903 85.7853 187.336 86.6714 186.954C87.5576 186.572 88.515 186.383 89.4798 186.4L111.588 186.801C112.601 186.82 113.597 187.065 114.503 187.518C115.409 187.972 116.202 188.622 116.824 189.422C117.446 190.222 117.882 191.151 118.098 192.141C118.315 193.13 118.307 194.156 118.076 195.143L117.219 198.8Z" fill="#E6E6E6"/>
<path d="M86.3874 198.8H60.4887L59.9419 193.806C59.8697 193.137 59.9402 192.46 60.149 191.82C60.3578 191.18 60.7001 190.592 61.1532 190.094C61.6062 189.596 62.1598 189.2 62.7773 188.932C63.3948 188.664 64.0622 188.53 64.7353 188.539L82.4993 188.788C83.1851 188.798 83.8607 188.956 84.4797 189.251C85.0987 189.546 85.6466 189.972 86.0857 190.499C86.5249 191.026 86.8449 191.641 87.0239 192.303C87.2028 192.965 87.2365 193.658 87.1225 194.335L86.3874 198.8Z" fill="#F5F5F5"/>
<path d="M137.043 198.8H111.168L110.737 193.782C110.65 192.779 110.781 191.769 111.12 190.821C111.46 189.872 111.999 189.009 112.703 188.288C113.407 187.568 114.257 187.008 115.197 186.647C116.137 186.285 117.144 186.131 118.149 186.194L131.113 187.002C132.081 187.062 133.026 187.323 133.887 187.767C134.749 188.211 135.509 188.829 136.12 189.583C136.73 190.336 137.178 191.208 137.434 192.143C137.69 193.078 137.749 194.056 137.608 195.015L137.043 198.8Z" fill="#F5F5F5"/>
<path d="M266.555 198.8H234.575L233.87 192.81C233.786 192.065 233.856 191.311 234.076 190.594C234.295 189.877 234.66 189.213 235.147 188.644C235.634 188.074 236.234 187.61 236.907 187.282C237.581 186.954 238.315 186.767 239.064 186.734L262.016 185.835C262.819 185.808 263.618 185.957 264.356 186.273C265.095 186.589 265.754 187.063 266.288 187.663C266.823 188.263 267.218 188.973 267.447 189.742C267.675 190.512 267.732 191.323 267.612 192.117L266.555 198.8Z" fill="#E6E6E6"/>
<path d="M188.622 198.8H220.602L221.306 192.81C221.39 192.065 221.32 191.311 221.1 190.594C220.881 189.877 220.516 189.213 220.029 188.644C219.542 188.074 218.943 187.61 218.269 187.282C217.595 186.954 216.861 186.767 216.112 186.734L193.16 185.835C192.357 185.808 191.558 185.957 190.82 186.273C190.082 186.589 189.422 187.063 188.888 187.663C188.354 188.263 187.958 188.973 187.729 189.742C187.501 190.512 187.444 191.323 187.564 192.117L188.622 198.8Z" fill="#E6E6E6"/>
<path d="M134.588 198.8H168.658L169.193 193.94C169.298 192.982 169.198 192.012 168.9 191.096C168.601 190.179 168.111 189.337 167.462 188.625C166.812 187.913 166.018 187.347 165.133 186.966C164.248 186.584 163.292 186.396 162.328 186.413L140.22 186.814C139.207 186.832 138.211 187.077 137.305 187.531C136.399 187.984 135.606 188.635 134.983 189.434C134.361 190.234 133.926 191.163 133.709 192.153C133.493 193.143 133.501 194.168 133.732 195.155L134.588 198.8Z" fill="#E6E6E6"/>
<path d="M165.445 198.8H191.319L191.866 193.806C191.938 193.137 191.867 192.46 191.659 191.82C191.45 191.18 191.108 190.592 190.654 190.094C190.201 189.596 189.648 189.2 189.03 188.932C188.413 188.664 187.745 188.53 187.072 188.539L169.308 188.788C168.623 188.798 167.947 188.956 167.328 189.251C166.709 189.546 166.161 189.972 165.722 190.499C165.283 191.026 164.963 191.641 164.784 192.303C164.605 192.965 164.571 193.658 164.685 194.335L165.445 198.8Z" fill="#F5F5F5"/>
<path d="M106.053 56.1228C93.9451 62.1981 53.3929 60.0657 55.2884 48.1278C57.1839 36.19 66.2846 48.1278 66.2846 48.1278C66.2846 48.1278 67.0865 35.7526 75.5615 35.3151C84.0364 34.8777 85.5066 46.6272 85.5066 46.6272C85.5066 46.6272 87.4629 36.9615 92.6815 39.3856C97.9001 41.8096 97.408 49.6223 97.408 49.6223C97.408 49.6223 101.582 46.6394 104.285 48.1278C106.989 49.6162 107.882 55.2115 106.053 56.1228Z" fill="#F5F5F5"/>
<path d="M149.072 224C214.127 224 266.864 220.921 266.864 217.123C266.864 213.325 214.127 210.246 149.072 210.246C84.0166 210.246 31.2791 213.325 31.2791 217.123C31.2791 220.921 84.0166 224 149.072 224Z" fill="#F5F5F5"/>
<path d="M64.0306 147.392C70.1204 147.392 75.0571 143.217 75.0571 138.066C75.0571 132.916 70.1204 128.741 64.0306 128.741C57.9408 128.741 53.004 132.916 53.004 138.066C53.004 143.217 57.9408 147.392 64.0306 147.392Z" fill="#2161D5"/>
<path d="M63.18 129.36C63.18 129.36 64.875 122.89 66.4667 123.528C68.0584 124.166 64.875 125.752 64.8264 129.36C64.8264 129.36 68.3743 126.177 70.7072 128.085C70.7072 128.085 67.3172 127.981 65.9382 130.205C65.9382 130.205 69.0122 132.112 71.7643 131.687C71.7643 131.687 70.0693 133.4 64.9843 131.754C64.9843 131.754 66.2541 136.462 63.1618 135.715C63.4067 135.506 63.6034 135.246 63.7382 134.953C63.8731 134.661 63.9429 134.342 63.9429 134.02C63.9429 133.698 63.8731 133.38 63.7382 133.087C63.6034 132.794 63.4067 132.534 63.1618 132.325C63.1618 132.325 56.6977 135.715 56.2725 131.687C57.2198 132.081 58.2588 132.201 59.2708 132.032C60.2828 131.863 61.227 131.413 61.9953 130.733C61.9953 130.733 59.9844 127.24 57.3296 127.447C57.3478 127.447 60.0027 125.223 63.18 129.36Z" fill="#263238"/>
<path opacity="0.2" d="M74.644 135.266C75.0875 139.069 73.2285 144.877 64.6442 144.877C56.5277 144.877 54.2434 142.598 54.0065 142.337C55.744 145.654 59.5714 147.392 64.0306 147.392C70.1058 147.392 75.0511 144.154 75.0511 138.066C75.0554 137.118 74.9182 136.174 74.644 135.266Z" fill="black"/>
<path opacity="0.2" d="M59.2373 142.331C59.2373 142.331 53.5934 140.065 55.1061 136.396C56.6188 132.726 56.5702 139.883 59.2373 142.331Z" fill="white"/>
<path d="M64.2189 76.6025L63.2287 74.78L59.942 82.2586L56.9044 72.9331L55.6468 76.5782H50.1791C50.4039 76.8395 50.6469 77.0946 50.902 77.3498L60.0939 86.4991L69.2796 77.3498C69.5408 77.0946 69.7839 76.8395 70.0026 76.5782L64.2189 76.6025Z" fill="#2161D5"/>
<path d="M54.6443 75.2232L56.9226 68.6133L60.1303 78.4127L63.1011 71.6874L65.0391 75.2475H71.0232C71.8568 73.9678 72.3137 72.4793 72.3415 70.9523C72.3415 67.4469 70.0025 65.1079 66.4607 65.1079C63.1558 65.1079 62.0258 66.6389 60.0938 68.8503C58.1558 66.6389 57.0562 65.1079 53.727 65.1079C50.179 65.1079 47.8401 67.4469 47.8401 70.9523C47.8671 72.4804 48.3263 73.9695 49.1645 75.2475L54.6443 75.2232Z" fill="#2161D5"/>
<g opacity="0.3">
<path opacity="0.3" d="M64.2189 76.6021L63.2287 74.7795L59.942 82.2581L56.9044 72.9326L55.6468 76.5778H50.1791C50.4039 76.839 50.6469 77.0942 50.902 77.3493L60.0939 86.4986L69.2796 77.3493C69.5408 77.0942 69.7839 76.839 70.0026 76.5778L64.2189 76.6021Z" fill="white"/>
<path opacity="0.3" d="M54.6443 75.2232L56.9226 68.6133L60.1303 78.4127L63.1011 71.6874L65.0391 75.2475H71.0232C71.8568 73.9678 72.3137 72.4793 72.3415 70.9523C72.3415 67.4469 70.0025 65.1079 66.4607 65.1079C63.1558 65.1079 62.0258 66.6389 60.0938 68.8503C58.1558 66.6389 57.0562 65.1079 53.727 65.1079C50.179 65.1079 47.8401 67.4469 47.8401 70.9523C47.8671 72.4804 48.3263 73.9695 49.1645 75.2475L54.6443 75.2232Z" fill="white"/>
</g>
<path d="M93.0702 28.8026L94.4371 29.2886C94.4371 29.2886 105.609 32.6786 111.964 26.6033C118.319 20.5281 120.184 13.3654 122.505 13.5719C124.825 13.7785 125.937 24.1428 115.366 32.7697C104.795 41.3965 95.318 36.6153 92.9244 30.9471L91.9949 29.9265L93.0702 28.8026Z" fill="#2161D5"/>
<path opacity="0.6" d="M122.505 13.572C120.184 13.3897 118.331 20.5281 111.982 26.6033C105.907 32.4052 95.4395 29.5741 94.5282 29.3129L92.9243 30.9168C95.2876 36.6153 104.795 41.3905 115.366 32.7393C125.937 24.0882 124.819 13.7603 122.505 13.572Z" fill="white"/>
<path d="M115.372 31.2932C115.372 31.2932 119.491 33.1157 117.59 35.2725C115.688 37.4292 112.954 39.0755 113.465 39.9565C113.975 40.8374 123.847 35.5944 116.764 30.9833L115.372 31.2932Z" fill="#2161D5"/>
<path opacity="0.3" d="M115.372 31.2932C115.372 31.2932 119.491 33.1157 117.59 35.2725C115.688 37.4292 112.954 39.0755 113.465 39.9565C113.975 40.8374 123.847 35.5944 116.764 30.9833L115.372 31.2932Z" fill="white"/>
<path d="M110.822 24.702C106.284 19.6231 98.629 23.4505 98.7627 22.5696C98.8964 21.6887 107.578 19.532 111.745 24.2403C115.913 28.9486 110.913 31.9315 104.935 32.9097C98.9571 33.8878 93.7567 30.0786 93.7567 30.0786L94.4554 29.2888C94.4554 29.2888 104.176 32.2414 110.646 27.6971C111.038 27.4258 111.311 27.014 111.409 26.547C111.506 26.08 111.42 25.5934 111.168 25.188C111.064 25.0183 110.948 24.856 110.822 24.702Z" fill="#2161D5"/>
<path opacity="0.3" d="M110.822 24.702C106.284 19.6231 98.629 23.4505 98.7627 22.5696C98.8964 21.6887 107.578 19.532 111.745 24.2403C115.913 28.9486 110.913 31.9315 104.935 32.9097C98.9571 33.8878 93.7567 30.0786 93.7567 30.0786L94.4554 29.2888C94.4554 29.2888 104.176 32.2414 110.646 27.6971C111.038 27.4258 111.311 27.014 111.409 26.547C111.506 26.08 111.42 25.5934 111.168 25.188C111.064 25.0183 110.948 24.856 110.822 24.702Z" fill="white"/>
<path d="M107.73 36.9189C100.488 38.948 94.6983 35.1935 92.9243 30.9165L93.7566 30.0781C93.7566 30.0781 98.951 33.8812 104.935 32.9092C108.161 32.3807 111.101 31.275 112.474 29.6225C113.75 29.7197 116.15 30.2725 116.757 32.9517C117.444 35.9893 110.336 39.2031 107.353 39.0756C106.824 39.0756 104.71 38.5531 107.578 36.9614L107.73 36.9189Z" fill="#2161D5"/>
<path opacity="0.3" d="M107.73 36.9189L107.462 37.0221C104.771 38.5652 106.855 39.0513 107.353 39.0756C110.336 39.2031 117.444 36.0379 116.758 32.9517C116.15 30.2725 113.72 29.7197 112.475 29.6225C116.211 30.4548 107.73 36.9189 107.73 36.9189Z" fill="white"/>
<path d="M210.097 35.37C212.368 35.37 214.545 34.4681 216.15 32.8628C217.756 31.2575 218.657 29.0802 218.657 26.8099C218.657 24.5397 217.756 22.3624 216.15 20.7571C214.545 19.1518 212.368 18.2499 210.097 18.2499H207.522C205.251 18.2499 203.074 19.1518 201.469 20.7571C199.863 22.3624 198.962 24.5397 198.962 26.8099C198.962 29.0802 199.863 31.2575 201.469 32.8628C203.074 34.4681 205.251 35.37 207.522 35.37H210.097Z" fill="#2161D5"/>
<path opacity="0.5" d="M210.097 35.37C212.368 35.37 214.545 34.4681 216.15 32.8628C217.756 31.2575 218.657 29.0802 218.657 26.8099C218.657 24.5397 217.756 22.3624 216.15 20.7571C214.545 19.1518 212.368 18.2499 210.097 18.2499H207.522C205.251 18.2499 203.074 19.1518 201.469 20.7571C199.863 22.3624 198.962 24.5397 198.962 26.8099C198.962 29.0802 199.863 31.2575 201.469 32.8628C203.074 34.4681 205.251 35.37 207.522 35.37H210.097Z" fill="white"/>
<path d="M215.976 28.1838C216.734 23.5173 213.565 19.1203 208.898 18.3628C204.232 17.6053 199.835 20.7742 199.078 25.4407C198.32 30.1072 201.489 34.5042 206.155 35.2617C210.822 36.0191 215.219 32.8503 215.976 28.1838Z" fill="#2161D5"/>
<path d="M206.677 28.9725C207.251 28.9725 207.801 28.7446 208.206 28.339C208.612 27.9334 208.84 27.3833 208.84 26.8097C208.84 26.2361 208.612 25.686 208.206 25.2804C207.801 24.8748 207.251 24.6469 206.677 24.6469H195.608C195.034 24.6469 194.484 24.8748 194.079 25.2804C193.673 25.686 193.445 26.2361 193.445 26.8097C193.445 27.3833 193.673 27.9334 194.079 28.339C194.484 28.7446 195.034 28.9725 195.608 28.9725H206.677Z" fill="#263238"/>
<path d="M188.154 35.37C190.424 35.37 192.601 34.4681 194.207 32.8628C195.812 31.2575 196.714 29.0802 196.714 26.8099C196.714 24.5397 195.812 22.3624 194.207 20.7571C192.601 19.1518 190.424 18.2499 188.154 18.2499H185.572C183.302 18.2499 181.124 19.1518 179.519 20.7571C177.914 22.3624 177.012 24.5397 177.012 26.8099C177.012 29.0802 177.914 31.2575 179.519 32.8628C181.124 34.4681 183.302 35.37 185.572 35.37H188.154Z" fill="#2161D5"/>
<path opacity="0.5" d="M188.154 35.37C190.424 35.37 192.601 34.4681 194.207 32.8628C195.812 31.2575 196.714 29.0802 196.714 26.8099C196.714 24.5397 195.812 22.3624 194.207 20.7571C192.601 19.1518 190.424 18.2499 188.154 18.2499H185.572C183.302 18.2499 181.124 19.1518 179.519 20.7571C177.914 22.3624 177.012 24.5397 177.012 26.8099C177.012 29.0802 177.914 31.2575 179.519 32.8628C181.124 34.4681 183.302 35.37 185.572 35.37H188.154Z" fill="white"/>
<path d="M191.623 32.8652C194.966 29.5223 194.966 24.1024 191.623 20.7595C188.28 17.4166 182.86 17.4167 179.517 20.7595C176.174 24.1024 176.174 29.5223 179.517 32.8652C182.86 36.2081 188.28 36.2081 191.623 32.8652Z" fill="#2161D5"/>
<path opacity="0.3" d="M190.845 27.5388C190.91 27.055 190.91 26.5646 190.845 26.0807L189.934 25.8134C189.876 25.5515 189.794 25.2953 189.691 25.0479L190.274 24.3007C190.04 23.871 189.75 23.4746 189.411 23.1221L188.518 23.438C188.307 23.2619 188.081 23.1035 187.844 22.9641L187.874 22.0164C187.434 21.8015 186.966 21.6502 186.483 21.5668L185.948 22.3445C185.815 22.3445 185.681 22.3445 185.547 22.3445C185.414 22.3445 185.28 22.3445 185.146 22.3445L184.612 21.5668C184.129 21.6493 183.66 21.8007 183.221 22.0164V22.9641C182.993 23.1041 182.776 23.2604 182.571 23.4319L181.678 23.116C181.355 23.4734 181.082 23.8717 180.863 24.3007L181.441 25.054C181.332 25.3002 181.249 25.5567 181.192 25.8195L180.286 26.0868C180.213 26.5701 180.213 27.0616 180.286 27.5449L181.192 27.8183C181.251 28.0806 181.334 28.3369 181.441 28.5837L180.863 29.331C181.094 29.7613 181.382 30.1578 181.72 30.5096L182.613 30.1937C182.815 30.369 183.033 30.5256 183.263 30.6615V31.6153C183.703 31.831 184.172 31.9824 184.654 32.0648L185.189 31.2811C185.317 31.2811 185.45 31.2811 185.59 31.2811C185.73 31.2811 185.857 31.2811 185.991 31.2811L186.526 32.0648C187.008 31.9815 187.477 31.8301 187.917 31.6153L187.886 30.6615C188.118 30.5271 188.336 30.3704 188.536 30.1937L189.43 30.5096C189.77 30.158 190.06 29.7615 190.292 29.331L189.666 28.5534C189.768 28.3053 189.85 28.0493 189.909 27.7879L190.845 27.5388Z" fill="white"/>
<path d="M185.335 28.9725C185.908 28.9725 186.459 28.7446 186.864 28.339C187.27 27.9334 187.498 27.3833 187.498 26.8097C187.498 26.2361 187.27 25.686 186.864 25.2804C186.459 24.8748 185.908 24.6469 185.335 24.6469H183.591C183.018 24.6469 182.468 24.8748 182.062 25.2804C181.656 25.686 181.428 26.2361 181.428 26.8097C181.428 27.3833 181.656 27.9334 182.062 28.339C182.468 28.7446 183.018 28.9725 183.591 28.9725H185.335Z" fill="#263238"/>
<path opacity="0.4" d="M185.742 26.8097C185.742 27.238 185.615 27.6566 185.377 28.0126C185.138 28.3685 184.8 28.6457 184.404 28.809C184.008 28.9724 183.573 29.0145 183.153 28.93C182.733 28.8456 182.348 28.6384 182.046 28.3347C181.744 28.031 181.539 27.6445 181.456 27.2242C181.374 26.8038 181.419 26.3686 181.585 25.9736C181.75 25.5786 182.029 25.2417 182.386 25.0055C182.744 24.7693 183.163 24.6445 183.591 24.6469C184.163 24.6502 184.71 24.8794 185.113 25.2847C185.516 25.6899 185.742 26.2382 185.742 26.8097Z" fill="white"/>
<path d="M244.18 66.7369C247.278 67.5692 252.49 67.794 253.177 63.6628C254.307 56.8585 243.098 60.1574 239.751 59.8901C239.582 59.8756 239.415 59.9286 239.286 60.0374C239.156 60.1462 239.076 60.3019 239.061 60.4703C239.047 60.6386 239.1 60.8059 239.208 60.9352C239.317 61.0645 239.473 61.1453 239.641 61.1598C242.436 61.3785 251.944 58.7783 251.968 63.0188C251.968 66.6275 246.968 66.178 244.623 65.5461C243.839 65.3335 243.408 66.5242 244.18 66.7612V66.7369Z" fill="#263238"/>
<path d="M245.559 66.7614L245.71 65.03L231.98 63.8149L231.835 65.5464C231.492 65.6611 231.191 65.8735 230.967 66.1574C230.744 66.4413 230.608 66.7843 230.577 67.1442L228.147 95.0903C228.125 95.3344 228.152 95.5805 228.225 95.8143C228.299 96.0482 228.418 96.2652 228.575 96.4531C228.733 96.641 228.925 96.796 229.143 96.9093C229.36 97.0226 229.598 97.0919 229.842 97.1133L242.065 98.1826C242.557 98.223 243.045 98.0676 243.423 97.7502C243.8 97.4328 244.038 96.979 244.082 96.4876L246.512 68.5415C246.547 68.1838 246.474 67.824 246.305 67.5073C246.135 67.1906 245.875 66.9311 245.559 66.7614Z" fill="#2161D5"/>
<path opacity="0.2" d="M245.559 66.7614L245.71 65.03L231.98 63.8149L231.835 65.5464C231.492 65.6611 231.191 65.8735 230.967 66.1574C230.744 66.4413 230.608 66.7843 230.577 67.1442L228.147 95.0903C228.125 95.3344 228.152 95.5805 228.225 95.8143C228.299 96.0482 228.418 96.2652 228.575 96.4531C228.733 96.641 228.925 96.796 229.143 96.9093C229.36 97.0226 229.598 97.0919 229.842 97.1133L242.065 98.1826C242.557 98.223 243.045 98.0676 243.423 97.7502C243.8 97.4328 244.038 96.979 244.082 96.4876L246.512 68.5415C246.547 68.1838 246.474 67.824 246.305 67.5073C246.135 67.1906 245.875 66.9311 245.559 66.7614Z" fill="white"/>
<path d="M245.885 61.5942L232.455 60.4192C231.763 60.3587 231.153 60.8705 231.093 61.5624L230.967 63.0028C230.906 63.6947 231.418 64.3047 232.11 64.3652L245.539 65.5402C246.231 65.6007 246.841 65.0889 246.902 64.397L247.028 62.9566C247.088 62.2647 246.576 61.6547 245.885 61.5942Z" fill="#2161D5"/>
<path opacity="0.3" d="M245.885 61.5942L232.455 60.4192C231.763 60.3587 231.153 60.8705 231.093 61.5624L230.967 63.0028C230.906 63.6947 231.418 64.3047 232.11 64.3652L245.539 65.5402C246.231 65.6007 246.841 65.0889 246.902 64.397L247.028 62.9566C247.088 62.2647 246.576 61.6547 245.885 61.5942Z" fill="black"/>
<path opacity="0.9" d="M240.182 72.2227C237.455 71.4565 234.565 71.4839 231.853 72.3017L229.848 95.2539C229.846 95.276 229.847 95.2983 229.854 95.3195C229.86 95.3408 229.871 95.3605 229.885 95.3776C229.899 95.3946 229.917 95.4086 229.936 95.4187C229.956 95.4287 229.978 95.4347 230 95.4362L242.223 96.5055C242.267 96.5089 242.311 96.4949 242.345 96.4665C242.379 96.4382 242.401 96.3976 242.406 96.3536L244.483 72.6602C243.035 72.7964 241.573 72.6478 240.182 72.2227Z" fill="white"/>
<path d="M240.091 78.0246C240.024 78.7848 239.734 79.5081 239.256 80.103C238.778 80.698 238.135 81.138 237.407 81.3673C236.679 81.5966 235.9 81.6049 235.167 81.3913C234.435 81.1776 233.782 80.7515 233.292 80.1668C232.802 79.5822 232.496 78.8653 232.413 78.1067C232.33 77.3482 232.474 76.5822 232.827 75.9055C233.179 75.2288 233.724 74.6718 234.393 74.305C235.063 73.9382 235.825 73.7781 236.585 73.8449C237.604 73.936 238.545 74.427 239.202 75.2105C239.859 75.9939 240.179 77.0059 240.091 78.0246Z" fill="#2161D5"/>
<path opacity="0.4" d="M240.091 78.0246C240.024 78.7848 239.734 79.5081 239.256 80.103C238.778 80.698 238.135 81.138 237.407 81.3673C236.679 81.5966 235.9 81.6049 235.167 81.3913C234.435 81.1776 233.782 80.7515 233.292 80.1668C232.802 79.5822 232.496 78.8653 232.413 78.1067C232.33 77.3482 232.474 76.5822 232.827 75.9055C233.179 75.2288 233.724 74.6718 234.393 74.305C235.063 73.9382 235.825 73.7781 236.585 73.8449C237.604 73.936 238.545 74.427 239.202 75.2105C239.859 75.9939 240.179 77.0059 240.091 78.0246Z" fill="white"/>
<g opacity="0.9">
<path opacity="0.9" d="M235.838 74.7562C235.509 74.7988 235.19 74.8996 234.897 75.0539C234.851 75.0787 234.811 75.1134 234.78 75.1554C234.75 75.1974 234.728 75.2457 234.719 75.2968C234.709 75.3479 234.71 75.4006 234.723 75.451C234.736 75.5015 234.76 75.5484 234.793 75.5885L236.063 77.0951L236.233 75.1328C236.237 75.0808 236.229 75.0285 236.211 74.9797C236.192 74.9309 236.163 74.8869 236.125 74.8509C236.087 74.8148 236.042 74.7876 235.992 74.7712C235.943 74.7549 235.89 74.7497 235.838 74.7562Z" fill="white"/>
<path opacity="0.9" d="M235.686 77.3988L234.423 75.8922C234.39 75.8516 234.349 75.8189 234.302 75.7964C234.255 75.7739 234.204 75.7623 234.152 75.7623C234.1 75.7623 234.049 75.7739 234.002 75.7964C233.956 75.8189 233.914 75.8516 233.882 75.8922C233.68 76.1574 233.526 76.4554 233.426 76.7731C233.411 76.8228 233.406 76.8755 233.414 76.9271C233.421 76.9787 233.44 77.028 233.47 77.0712C233.499 77.1145 233.537 77.1505 233.582 77.1768C233.628 77.203 233.678 77.2187 233.73 77.2226L235.686 77.3988Z" fill="white"/>
<path opacity="0.9" d="M235.65 77.8789L233.688 77.7028C233.635 77.6988 233.583 77.7064 233.534 77.7251C233.486 77.7438 233.442 77.7731 233.406 77.8109C233.37 77.8487 233.342 77.894 233.326 77.9436C233.31 77.9932 233.304 78.0458 233.311 78.0977C233.354 78.4267 233.454 78.7455 233.609 79.0393C233.633 79.0849 233.667 79.1246 233.708 79.1554C233.75 79.1861 233.798 79.2072 233.848 79.2171C233.899 79.227 233.951 79.2255 234.001 79.2126C234.051 79.1997 234.098 79.1758 234.137 79.1426L235.65 77.8789Z" fill="white"/>
<path opacity="0.9" d="M236.701 75.1754L236.531 77.1376L238.037 75.8679C238.078 75.8355 238.111 75.7943 238.133 75.7475C238.156 75.7007 238.167 75.6495 238.167 75.5976C238.167 75.5457 238.156 75.4944 238.133 75.4476C238.111 75.4008 238.078 75.3597 238.037 75.3272C237.772 75.1258 237.474 74.9716 237.157 74.8716C237.106 74.8548 237.053 74.8496 237.001 74.8566C236.948 74.8635 236.898 74.8824 236.854 74.9117C236.81 74.9411 236.774 74.9801 236.747 75.0258C236.72 75.0714 236.705 75.1226 236.701 75.1754Z" fill="white"/>
<path opacity="0.9" d="M236.798 77.9761L238.062 79.4827C238.094 79.5233 238.135 79.556 238.182 79.5785C238.229 79.6009 238.28 79.6126 238.332 79.6126C238.384 79.6126 238.435 79.6009 238.482 79.5785C238.529 79.556 238.57 79.5233 238.602 79.4827C238.803 79.219 238.957 78.9232 239.058 78.6079C239.074 78.5578 239.078 78.5048 239.07 78.4529C239.063 78.4009 239.044 78.3513 239.015 78.3076C238.986 78.264 238.947 78.2274 238.902 78.2005C238.857 78.1736 238.807 78.1571 238.754 78.1523L236.798 77.9761Z" fill="white"/>
<path opacity="0.9" d="M236.835 77.5021L238.797 77.6722C238.849 77.6772 238.901 77.6705 238.95 77.6525C238.998 77.6345 239.043 77.6058 239.079 77.5685C239.115 77.5311 239.142 77.4861 239.159 77.4367C239.175 77.3874 239.18 77.335 239.173 77.2834C239.131 76.9524 239.03 76.6316 238.876 76.3357C238.852 76.29 238.818 76.2504 238.776 76.2196C238.735 76.1889 238.687 76.1678 238.636 76.1579C238.586 76.148 238.533 76.1495 238.483 76.1624C238.433 76.1753 238.387 76.1992 238.347 76.2324L236.835 77.5021Z" fill="white"/>
<path opacity="0.9" d="M235.954 78.2433L234.447 79.5069C234.406 79.5394 234.374 79.5805 234.351 79.6273C234.329 79.6741 234.317 79.7254 234.317 79.7773C234.317 79.8292 234.329 79.8805 234.351 79.9273C234.374 79.974 234.406 80.0152 234.447 80.0476C234.712 80.2491 235.01 80.4033 235.328 80.5033C235.378 80.519 235.43 80.5233 235.482 80.5158C235.533 80.5083 235.583 80.4892 235.626 80.46C235.669 80.4308 235.705 80.3922 235.731 80.3471C235.758 80.302 235.773 80.2515 235.777 80.1995L235.954 78.2433Z" fill="white"/>
<path opacity="0.9" d="M236.446 78.2857L236.276 80.2419C236.27 80.2943 236.277 80.3471 236.296 80.3964C236.314 80.4457 236.343 80.4902 236.381 80.5266C236.419 80.5629 236.465 80.59 236.515 80.606C236.565 80.6219 236.619 80.6262 236.671 80.6186C237 80.5759 237.318 80.4751 237.612 80.3209C237.658 80.2968 237.697 80.2627 237.728 80.2212C237.759 80.1798 237.78 80.132 237.79 80.0813C237.8 80.0306 237.798 79.9784 237.785 79.9284C237.773 79.8784 237.749 79.8319 237.715 79.7924L236.446 78.2857Z" fill="white"/>
</g>
<path d="M242.198 90.7354C242.727 88.6715 241.482 86.5697 239.418 86.0409C237.354 85.5121 235.253 86.7566 234.724 88.8205C234.195 90.8845 235.44 92.9863 237.503 93.5151C239.567 94.0438 241.669 92.7993 242.198 90.7354Z" fill="#2161D5"/>
<path opacity="0.4" d="M242.198 90.7354C242.727 88.6715 241.482 86.5697 239.418 86.0409C237.354 85.5121 235.253 86.7566 234.724 88.8205C234.195 90.8845 235.44 92.9863 237.503 93.5151C239.567 94.0438 241.669 92.7993 242.198 90.7354Z" fill="white"/>
<g opacity="0.9">
<path opacity="0.9" d="M238.068 86.8765C237.74 86.9247 237.422 87.0253 237.126 87.1742C237.08 87.1982 237.039 87.2325 237.008 87.2744C236.976 87.3164 236.955 87.3649 236.945 87.4164C236.935 87.4679 236.937 87.521 236.95 87.5716C236.964 87.6223 236.989 87.6692 237.023 87.7088L238.287 89.2155L238.457 87.2592C238.463 87.207 238.457 87.1541 238.439 87.1045C238.422 87.0549 238.393 87.01 238.356 86.9731C238.318 86.9362 238.273 86.9083 238.223 86.8916C238.173 86.8749 238.12 86.8697 238.068 86.8765Z" fill="white"/>
<path opacity="0.9" d="M237.922 89.5073L236.658 88.0007C236.625 87.96 236.584 87.9273 236.536 87.9048C236.489 87.8823 236.437 87.8706 236.385 87.8706C236.333 87.8706 236.281 87.8823 236.234 87.9048C236.186 87.9273 236.145 87.96 236.112 88.0007C235.912 88.2652 235.759 88.5607 235.656 88.8755C235.641 88.9256 235.638 88.9782 235.646 89.0298C235.654 89.0813 235.673 89.1304 235.702 89.1738C235.731 89.2172 235.769 89.2538 235.813 89.2809C235.858 89.3081 235.908 89.3252 235.96 89.3311L237.922 89.5073Z" fill="white"/>
<path opacity="0.9" d="M237.879 89.9808L235.917 89.8107C235.865 89.8057 235.813 89.8124 235.764 89.8304C235.716 89.8483 235.671 89.8771 235.635 89.9144C235.599 89.9518 235.572 89.9968 235.555 90.0461C235.539 90.0955 235.534 90.1479 235.541 90.1995C235.589 90.5233 235.69 90.8372 235.838 91.129C235.862 91.1756 235.896 91.2162 235.938 91.2476C235.98 91.2791 236.029 91.3006 236.08 91.3105C236.132 91.3205 236.185 91.3186 236.236 91.3051C236.286 91.2915 236.333 91.2666 236.373 91.2323L237.879 89.9808Z" fill="white"/>
<path opacity="0.9" d="M238.937 87.2775L238.76 89.2398L240.273 87.9761C240.314 87.9437 240.346 87.9026 240.369 87.8558C240.391 87.809 240.403 87.7577 240.403 87.7058C240.403 87.6539 240.391 87.6026 240.369 87.5558C240.346 87.509 240.314 87.4679 240.273 87.4355C240.01 87.2321 239.714 87.0759 239.398 86.9737C239.348 86.9558 239.294 86.9498 239.241 86.9562C239.188 86.9626 239.137 86.9812 239.092 87.0107C239.047 87.0401 239.01 87.0795 238.983 87.1258C238.956 87.1721 238.94 87.224 238.937 87.2775Z" fill="white"/>
<path opacity="0.9" d="M239.028 90.0845L240.291 91.5911C240.324 91.6318 240.366 91.6645 240.413 91.687C240.461 91.7095 240.512 91.7212 240.565 91.7212C240.617 91.7212 240.669 91.7095 240.716 91.687C240.763 91.6645 240.805 91.6318 240.838 91.5911C241.038 91.3274 241.193 91.0316 241.294 90.7163C241.309 90.6666 241.314 90.6139 241.306 90.5623C241.299 90.5106 241.28 90.4614 241.25 90.4181C241.221 90.3749 241.183 90.3388 241.138 90.3126C241.092 90.2864 241.042 90.2707 240.99 90.2667L239.028 90.0845Z" fill="white"/>
<path opacity="0.9" d="M239.07 89.6045L241.032 89.7807C241.085 89.7847 241.137 89.7771 241.186 89.7584C241.234 89.7397 241.278 89.7104 241.314 89.6726C241.351 89.6348 241.378 89.5894 241.394 89.5398C241.41 89.4902 241.416 89.4376 241.409 89.3858C241.361 89.058 241.26 88.7401 241.111 88.4441C241.087 88.3984 241.052 88.3587 241.01 88.3279C240.968 88.2971 240.92 88.276 240.869 88.2662C240.817 88.2563 240.765 88.2579 240.714 88.2708C240.664 88.2837 240.617 88.3076 240.577 88.3409L239.07 89.6045Z" fill="white"/>
<path opacity="0.9" d="M238.189 90.3457L236.677 91.6154C236.636 91.6479 236.603 91.689 236.581 91.7358C236.558 91.7826 236.547 91.8339 236.547 91.8858C236.547 91.9377 236.558 91.9889 236.581 92.0357C236.603 92.0825 236.636 92.1237 236.677 92.1561C236.941 92.3552 237.237 92.5092 237.551 92.6118C237.601 92.6275 237.654 92.6317 237.706 92.6242C237.757 92.6168 237.806 92.5977 237.85 92.5685C237.893 92.5393 237.929 92.5007 237.955 92.4556C237.981 92.4105 237.997 92.36 238.001 92.308L238.189 90.3457Z" fill="white"/>
<path opacity="0.9" d="M238.663 90.3882L238.493 92.3505C238.488 92.4022 238.495 92.4545 238.513 92.5033C238.531 92.5521 238.559 92.5962 238.597 92.6324C238.634 92.6686 238.679 92.6959 238.729 92.7123C238.778 92.7287 238.83 92.7338 238.882 92.7272C239.21 92.6817 239.529 92.5811 239.824 92.4295C239.87 92.4055 239.911 92.3712 239.942 92.3292C239.974 92.2873 239.995 92.2387 240.005 92.1872C240.015 92.1358 240.013 92.0827 240 92.032C239.986 91.9814 239.961 91.9345 239.927 91.8948L238.663 90.3882Z" fill="white"/>
</g>
<path d="M244.811 129.147L245.024 126.748C245.042 126.538 245.019 126.327 244.956 126.127C244.892 125.926 244.79 125.74 244.654 125.579C244.519 125.418 244.353 125.286 244.166 125.189C243.98 125.093 243.775 125.034 243.566 125.016L235.838 124.336C235.628 124.317 235.417 124.34 235.216 124.404C235.015 124.467 234.829 124.569 234.667 124.705C234.506 124.84 234.373 125.006 234.276 125.193C234.179 125.38 234.119 125.584 234.101 125.794L233.894 128.187C233.837 128.961 233.607 129.712 233.221 130.385C232.836 131.058 232.303 131.636 231.665 132.076C230.872 132.596 230.207 133.29 229.721 134.104C229.235 134.919 228.94 135.833 228.858 136.778L227.892 147.628C227.809 148.572 227.941 149.523 228.278 150.409C228.614 151.294 229.147 152.093 229.836 152.743C230.391 153.286 230.816 153.948 231.08 154.677C231.344 155.407 231.44 156.188 231.361 156.96L231.148 159.359C231.13 159.569 231.153 159.78 231.216 159.98C231.28 160.181 231.382 160.367 231.518 160.528C231.653 160.689 231.819 160.821 232.006 160.918C232.193 161.014 232.397 161.073 232.606 161.091L240.352 161.771C240.562 161.79 240.773 161.766 240.974 161.703C241.175 161.64 241.362 161.538 241.523 161.402C241.684 161.267 241.817 161.101 241.915 160.914C242.012 160.727 242.071 160.523 242.09 160.313L242.296 157.92C242.353 157.146 242.583 156.395 242.969 155.722C243.355 155.049 243.887 154.471 244.526 154.031C245.319 153.511 245.984 152.818 246.47 152.003C246.957 151.189 247.251 150.274 247.333 149.329L248.28 138.497C248.363 137.553 248.231 136.602 247.895 135.717C247.558 134.831 247.025 134.032 246.336 133.382C245.779 132.837 245.352 132.173 245.088 131.439C244.824 130.706 244.729 129.922 244.811 129.147Z" fill="#2161D5"/>
<path opacity="0.4" d="M244.811 129.147L245.024 126.748C245.042 126.538 245.019 126.327 244.956 126.127C244.892 125.926 244.79 125.74 244.654 125.579C244.519 125.418 244.353 125.286 244.166 125.189C243.98 125.093 243.775 125.034 243.566 125.016L235.838 124.336C235.628 124.317 235.417 124.34 235.216 124.404C235.015 124.467 234.829 124.569 234.667 124.705C234.506 124.84 234.373 125.006 234.276 125.193C234.179 125.38 234.119 125.584 234.101 125.794L233.894 128.187C233.837 128.961 233.607 129.712 233.221 130.385C232.836 131.058 232.303 131.636 231.665 132.076C230.872 132.596 230.207 133.29 229.721 134.104C229.235 134.919 228.94 135.833 228.858 136.778L227.892 147.628C227.809 148.572 227.941 149.523 228.278 150.409C228.614 151.294 229.147 152.093 229.836 152.743C230.391 153.286 230.816 153.948 231.08 154.677C231.344 155.407 231.44 156.188 231.361 156.96L231.148 159.359C231.13 159.569 231.153 159.78 231.216 159.98C231.28 160.181 231.382 160.367 231.518 160.528C231.653 160.689 231.819 160.821 232.006 160.918C232.193 161.014 232.397 161.073 232.606 161.091L240.352 161.771C240.562 161.79 240.773 161.766 240.974 161.703C241.175 161.64 241.362 161.538 241.523 161.402C241.684 161.267 241.817 161.101 241.915 160.914C242.012 160.727 242.071 160.523 242.09 160.313L242.296 157.92C242.353 157.146 242.583 156.395 242.969 155.722C243.355 155.049 243.887 154.471 244.526 154.031C245.319 153.511 245.984 152.818 246.47 152.003C246.957 151.189 247.251 150.274 247.333 149.329L248.28 138.497C248.363 137.553 248.231 136.602 247.895 135.717C247.558 134.831 247.025 134.032 246.336 133.382C245.779 132.837 245.352 132.173 245.088 131.439C244.824 130.706 244.729 129.922 244.811 129.147Z" fill="white"/>
<path d="M242.043 134.443L235.689 133.887C233.623 133.707 231.802 135.235 231.621 137.3L230.722 147.583C230.541 149.648 232.069 151.47 234.135 151.65L240.489 152.206C242.555 152.387 244.376 150.859 244.557 148.793L245.456 138.511C245.637 136.445 244.109 134.624 242.043 134.443Z" fill="#263238"/>
<path d="M250.088 140.155L249.171 140.073C248.919 140.05 248.697 140.236 248.674 140.487L248.421 143.306C248.398 143.558 248.583 143.78 248.835 143.803L249.753 143.885C250.004 143.908 250.227 143.723 250.249 143.471L250.503 140.652C250.526 140.4 250.34 140.178 250.088 140.155Z" fill="#2161D5"/>
<path d="M233.469 140.338C233.469 140.338 232.6 138.06 233.682 137.847C234.763 137.634 234.672 140.016 234.672 140.016L233.469 140.338Z" fill="white"/>
<path d="M233.7 140.66L234.763 140.508C234.763 140.508 235.006 141.316 234.362 141.395C233.718 141.474 233.7 140.66 233.7 140.66Z" fill="white"/>
<path d="M236.883 139.998C236.883 139.998 238.135 137.902 237.102 137.507C236.069 137.112 235.753 139.469 235.753 139.469L236.883 139.998Z" fill="white"/>
<path d="M236.671 140.295L235.65 139.955C235.65 139.955 235.194 140.702 235.82 140.891C236.446 141.079 236.671 140.295 236.671 140.295Z" fill="white"/>
<path d="M234.253 147.993C233.505 147.926 231.944 147.713 232.898 145.374C232.898 145.374 233.08 146.28 233.505 146.328C233.505 146.328 232.734 144.354 234.909 143.054C234.909 143.054 234.508 144.439 235.267 145.125C235.674 145.49 235.37 146.207 235.37 146.207C235.66 145.746 235.796 145.206 235.759 144.664C235.759 144.664 237.351 148.266 234.253 147.993Z" fill="white"/>
<path d="M242.94 140.945L238.572 140.562C238.485 140.558 238.399 140.536 238.321 140.497C238.242 140.458 238.172 140.404 238.116 140.338C238.059 140.271 238.016 140.194 237.99 140.11C237.964 140.027 237.955 139.939 237.965 139.852C237.971 139.765 237.994 139.68 238.033 139.602C238.072 139.525 238.127 139.456 238.193 139.399C238.259 139.343 238.336 139.3 238.419 139.273C238.501 139.246 238.589 139.237 238.675 139.244L243.044 139.627C243.131 139.631 243.216 139.654 243.295 139.692C243.374 139.731 243.443 139.785 243.5 139.852C243.557 139.918 243.6 139.996 243.626 140.079C243.652 140.163 243.66 140.251 243.651 140.338C243.645 140.424 243.622 140.509 243.582 140.587C243.543 140.665 243.489 140.734 243.423 140.79C243.357 140.847 243.28 140.89 243.197 140.916C243.114 140.943 243.027 140.953 242.94 140.945Z" fill="white"/>
<path d="M240.698 147.373L238.013 147.136C237.926 147.132 237.84 147.109 237.762 147.071C237.683 147.032 237.613 146.978 237.557 146.911C237.5 146.845 237.457 146.767 237.431 146.684C237.405 146.6 237.396 146.512 237.406 146.425C237.412 146.339 237.435 146.254 237.474 146.176C237.513 146.098 237.568 146.029 237.634 145.973C237.7 145.916 237.777 145.873 237.86 145.847C237.942 145.82 238.03 145.81 238.116 145.818L240.802 146.055C240.889 146.061 240.973 146.084 241.051 146.123C241.129 146.163 241.198 146.217 241.254 146.283C241.311 146.349 241.354 146.426 241.38 146.509C241.407 146.592 241.417 146.679 241.409 146.766C241.395 146.94 241.313 147.102 241.179 147.216C241.046 147.33 240.873 147.386 240.698 147.373Z" fill="white"/>
<path d="M192.704 104.038C192.704 104.038 197.801 112.094 201.914 113.728C206.027 115.363 215.626 108.51 215.626 108.51L219.429 107.453C219.67 107.361 219.883 107.211 220.051 107.016C220.219 106.82 220.335 106.586 220.389 106.335L220.936 103.838C220.975 103.656 220.976 103.468 220.938 103.286C220.901 103.104 220.825 102.932 220.717 102.781L220.28 102.173C220.167 102.014 220.02 101.881 219.85 101.784C219.68 101.688 219.491 101.63 219.296 101.615C219.101 101.6 218.905 101.628 218.723 101.697C218.54 101.766 218.374 101.875 218.238 102.015L214.745 105.612C214.745 105.612 205.754 109.864 203.943 108.005C202.133 106.146 202.151 106.152 198.348 101.037L192.704 104.038Z" fill="#FFB573"/>
<path d="M189.509 91.6205C187.789 92.6472 185.578 97.6046 192.868 105.94L199.223 101.08C199.223 101.08 194.879 88.3946 189.509 91.6205Z" fill="#2161D5"/>
<path opacity="0.1" d="M197.358 102.513C195.954 96.9484 193.98 94.8281 193.98 94.8281L192.704 96.596L190.402 99.8402L191.009 103.583C191.55 104.336 192.17 105.12 192.88 105.934L197.358 102.513Z" fill="black"/>
<path d="M170.718 158.867C170.423 161.444 169.882 163.987 169.102 166.461C161.866 169.432 144.23 194.912 144.23 194.912L147.091 197.627C147.091 197.627 171.016 179.116 177.297 171.321C179.12 169.043 180.402 164.147 181.732 161.048C177.929 161.359 174.115 160.604 170.718 158.867Z" fill="#FFB573"/>
<path d="M147.747 196.868L144.455 193.83C144.386 193.765 144.297 193.726 144.203 193.719C144.109 193.713 144.015 193.739 143.938 193.794L140.409 196.224C140.333 196.275 140.268 196.34 140.218 196.416C140.168 196.491 140.134 196.576 140.117 196.666C140.1 196.755 140.101 196.847 140.12 196.936C140.138 197.025 140.175 197.109 140.226 197.184C140.254 197.224 140.286 197.261 140.323 197.293C141.709 198.508 142.997 199.577 144.698 201.151C146.709 203.004 145.973 202.773 148.306 204.984C149.716 206.315 151.465 204.936 150.937 204.298C148.507 201.406 148.507 199.826 148.318 197.858C148.251 197.471 148.049 197.12 147.747 196.868Z" fill="#263238"/>
<path opacity="0.1" d="M170.718 158.867C170.631 159.871 170.485 160.869 170.28 161.856C173.574 163.264 177.149 163.887 180.724 163.679C181.064 162.731 181.392 161.856 181.732 161.048C177.929 161.359 174.115 160.604 170.718 158.867Z" fill="black"/>
<path d="M171.307 139.779C171.404 145.799 170.329 154.062 169.922 159.171C171.975 160.179 177.006 162.312 182.2 161.886C184.757 156.002 186.887 149.942 188.573 143.752C190.827 135.587 190.396 123.941 190.396 123.941L169.861 122.659C169.041 135.186 171.307 139.779 171.307 139.779Z" fill="#263238"/>
<path opacity="0.5" d="M190.377 123.935L169.843 122.653C169.041 135.18 171.307 139.773 171.307 139.773C171.338 141.832 171.234 144.153 171.064 146.516C172.316 149.809 174.837 156.358 177.176 161.589C178.831 161.902 180.52 162 182.2 161.881C184.757 155.997 186.887 149.936 188.573 143.746C190.827 135.587 190.377 123.935 190.377 123.935Z" fill="black"/>
<path d="M193.342 167.834C192.99 165.331 190.475 156.243 190.475 156.243C185.444 158.928 181.969 159.791 180.062 160.034C180.973 162.172 182.765 166.528 183.603 168.405C183.603 168.405 182.82 177.33 193.512 212.275L197.807 211.594C197.807 211.594 194.873 178.703 193.342 167.834Z" fill="#FFB573"/>
<path d="M197.406 210.701L193.044 211.655C192.952 211.673 192.868 211.723 192.808 211.797C192.748 211.87 192.716 211.962 192.716 212.056V216.357C192.715 216.448 192.731 216.538 192.764 216.622C192.798 216.707 192.848 216.784 192.911 216.848C192.974 216.913 193.05 216.965 193.133 217.001C193.216 217.036 193.306 217.055 193.397 217.056H193.543C195.365 216.631 196.951 216.181 199.217 215.701C201.89 215.124 201.282 215.592 204.429 214.96C206.331 214.577 206.209 212.348 205.389 212.415C201.617 212.743 200.31 211.85 198.615 210.841C198.244 210.645 197.813 210.595 197.406 210.701Z" fill="#263238"/>
<path opacity="0.1" d="M190.475 156.243C185.444 158.928 181.969 159.791 180.062 160.034C180.311 160.641 180.633 161.382 180.979 162.215C184.562 161.569 187.972 160.185 190.991 158.15C190.687 157.002 190.475 156.243 190.475 156.243Z" fill="black"/>
<path d="M191.1 156.905C191.1 156.905 186.945 141.024 187.048 135.642C187.109 132.464 189.545 123.169 189.545 123.169L170.414 120.897C170.414 120.897 164.734 131.45 170.414 139.937C170.414 139.937 175.129 151.133 179.527 160.915C183.592 160.273 187.51 158.915 191.1 156.905Z" fill="#263238"/>
<path d="M180.687 77.0582C180.754 79.2027 180.28 81.9184 178.427 83.2063C177.54 83.8138 176.459 84.148 175.73 84.9803C175.001 85.8126 174.685 86.8818 174.254 87.8235C174.108 88.1394 174.582 88.431 174.734 88.1029C175.341 86.7968 175.742 85.4845 176.981 84.6583C178.081 83.9293 179.175 83.5951 179.946 82.4469C180.909 80.8215 181.36 78.9436 181.24 77.0582C181.24 76.7058 180.675 76.7058 180.687 77.0582Z" fill="#1A2E35"/>
<path d="M180.973 74.3062C180.973 74.3062 181.459 69.8469 175.019 72.2953C168.853 74.6403 171.198 78.0667 165.39 81.2076C159.582 84.3485 168.701 86.7179 166.605 89.4821C164.509 92.2463 171.55 92.5197 173.482 87.5502C175.414 82.5806 178.099 84.0873 179.904 81.6147C180.967 80.1505 181.428 77.0582 181.428 77.0582L180.973 74.3062Z" fill="#1A2E35"/>
<path d="M184.557 81.2076C184.557 81.2076 184.095 83.0909 182.315 82.4226C180.535 81.7544 183.707 82.2282 184.557 81.2076Z" fill="#1A2E35"/>
<path d="M182.856 77.5989C182.518 77.5219 182.169 77.4993 181.823 77.532C181.713 77.5911 181.615 77.6693 181.532 77.7629C181.48 77.8171 181.416 77.8573 181.345 77.8796C181.274 77.9019 181.198 77.9057 181.125 77.8904C181.052 77.8752 180.984 77.8416 180.927 77.7926C180.871 77.7437 180.828 77.6812 180.803 77.611C180.563 76.972 180.463 76.2893 180.508 75.6084C180.553 74.9275 180.743 74.264 181.064 73.6621C181.064 73.6621 181.398 74.2696 181.605 74.3122C181.915 74.3851 182.753 73.7958 182.753 73.7958L182.856 77.5989Z" fill="#2161D5"/>
<path d="M168.798 121.553C168.798 121.553 184.089 123.983 191.787 124.166C191.627 120.544 191.992 116.918 192.868 113.4C194.296 108.328 198.336 104.045 193.421 93.5587C190.748 87.8237 175.28 87.0339 172.929 92.3862C170.493 97.9268 177.012 101.056 168.798 121.553Z" fill="#2161D5"/>
<path d="M189.812 87.1856L185.675 82.4165C185.73 83.6473 185.482 84.8729 184.953 85.9852C184.423 87.0976 183.628 88.0627 182.637 88.7955C182.637 88.7955 183.057 91.7906 189.454 97.2158C193.433 94.3179 190.608 90.7882 190.608 90.7882C190.608 90.7882 188.281 89.3058 189.812 87.1856Z" fill="#FFB573"/>
<path opacity="0.1" d="M189.484 89.482C189.318 89.107 189.261 88.6928 189.319 88.2867C189.377 87.8806 189.548 87.4991 189.812 87.1856L185.675 82.4165C185.702 83.0004 185.661 83.5855 185.554 84.1601C185.817 85.2658 186.302 86.307 186.977 87.2214C187.652 88.1358 188.505 88.9046 189.484 89.482Z" fill="black"/>
<path d="M184.417 75.5394C184.114 80.2234 183.889 82.2222 185.936 84.8771C189.01 88.911 194.83 88.2549 196.531 83.7592C198.056 79.7131 198.299 72.7083 193.974 70.3086C193.024 69.7714 191.953 69.4854 190.863 69.4777C189.772 69.47 188.697 69.7409 187.74 70.2647C186.783 70.7885 185.976 71.5478 185.394 72.4709C184.813 73.3939 184.477 74.4501 184.417 75.5394Z" fill="#FFB573"/>
<path d="M191.671 77.6901C191.629 78.0729 191.793 78.407 192.036 78.4374C192.279 78.4678 192.522 78.1822 192.576 77.8299C192.631 77.4775 192.455 77.1191 192.212 77.0887C191.969 77.0583 191.738 77.3378 191.671 77.6901Z" fill="#263238"/>
<path d="M195.948 78.2431C195.9 78.6258 196.064 78.9539 196.307 78.9903C196.55 79.0268 196.793 78.7352 196.847 78.3828C196.902 78.0304 196.726 77.672 196.483 77.6416C196.24 77.6112 195.997 77.8664 195.948 78.2431Z" fill="#263238"/>
<path d="M196.349 77.6233L197.291 77.4775C197.291 77.4775 196.756 78.1276 196.349 77.6233Z" fill="#263238"/>
<path d="M194.527 78.7592C194.757 79.666 195.11 80.5368 195.578 81.3473C195.366 81.458 195.133 81.5228 194.894 81.5375C194.656 81.5521 194.416 81.5163 194.193 81.4323L194.527 78.7592Z" fill="#ED893E"/>
<path d="M191.957 82.6231C192.138 82.6767 192.323 82.7153 192.51 82.7385C192.538 82.7408 192.567 82.733 192.59 82.7163C192.614 82.6996 192.63 82.6752 192.637 82.6474C192.639 82.6177 192.629 82.5886 192.61 82.5659C192.591 82.5433 192.564 82.529 192.534 82.5259C192.063 82.4745 191.611 82.3137 191.213 82.0563C190.815 81.7989 190.483 81.4521 190.244 81.0435C190.228 81.0205 190.205 81.0039 190.179 80.9965C190.152 80.9891 190.124 80.9915 190.099 81.0032C190.074 81.015 190.054 81.0353 190.042 81.0606C190.031 81.0858 190.029 81.1142 190.037 81.1407C190.242 81.5032 190.518 81.821 190.848 82.0755C191.177 82.33 191.554 82.5162 191.957 82.6231Z" fill="#263238"/>
<path d="M190.061 76.6148C190.107 76.6296 190.155 76.6293 190.2 76.6139C190.245 76.5986 190.284 76.569 190.31 76.5298C190.552 76.2556 190.848 76.0343 191.18 75.8796C191.511 75.7249 191.871 75.6401 192.236 75.6306C192.269 75.636 192.302 75.6342 192.333 75.6256C192.364 75.6169 192.394 75.6014 192.419 75.5803C192.443 75.5592 192.463 75.533 192.477 75.5034C192.491 75.4737 192.498 75.4415 192.498 75.4089C192.498 75.3762 192.491 75.344 192.477 75.3144C192.463 75.2848 192.443 75.2585 192.419 75.2374C192.394 75.2163 192.364 75.2009 192.333 75.1922C192.302 75.1835 192.269 75.1818 192.236 75.1871C191.798 75.1935 191.367 75.2945 190.971 75.4832C190.576 75.672 190.226 75.944 189.946 76.2807C189.93 76.3046 189.919 76.3314 189.913 76.3597C189.908 76.3879 189.908 76.4169 189.913 76.4452C189.919 76.4734 189.93 76.5002 189.946 76.5241C189.962 76.548 189.983 76.5685 190.007 76.5844C190.02 76.6011 190.04 76.612 190.061 76.6148Z" fill="#263238"/>
<path d="M197.479 76.4322C197.527 76.4478 197.579 76.447 197.626 76.4298C197.673 76.4126 197.713 76.3801 197.74 76.3374C197.767 76.2947 197.778 76.2443 197.773 76.1943C197.767 76.1443 197.745 76.0976 197.71 76.0616C197.471 75.7914 197.169 75.5841 196.831 75.458C196.493 75.332 196.13 75.291 195.772 75.3386C195.716 75.3476 195.666 75.378 195.632 75.4233C195.598 75.4687 195.583 75.5254 195.59 75.5816C195.594 75.6105 195.604 75.6383 195.62 75.6632C195.635 75.6881 195.655 75.7097 195.679 75.7267C195.703 75.7436 195.73 75.7557 195.758 75.7621C195.787 75.7685 195.816 75.7691 195.845 75.7639C196.127 75.7408 196.41 75.7837 196.673 75.8891C196.936 75.9945 197.17 76.1597 197.358 76.3714C197.392 76.4028 197.434 76.4239 197.479 76.4322Z" fill="#263238"/>
<path d="M192.097 77.1068L193.032 76.961C193.032 76.961 192.485 77.5868 192.097 77.1068Z" fill="#263238"/>
<path d="M185.554 78.9781C186.514 77.9398 187.067 76.5889 187.109 75.175C187.17 72.8178 190.869 70.2783 195.614 71.627C195.614 71.627 196.975 67.3744 193.609 69.1544C193.609 69.1544 188.239 65.5093 183.628 70.9102C180.42 74.6829 182.158 78.7654 183.512 80.9039C183.604 81.0494 183.735 81.165 183.891 81.2365C184.048 81.308 184.221 81.3324 184.391 81.3066C184.561 81.2808 184.719 81.2059 184.847 81.0912C184.975 80.9765 185.066 80.8269 185.11 80.6609L185.554 78.9781Z" fill="#263238"/>
<path d="M182.704 78.9781C182.795 79.4087 182.97 79.8172 183.219 80.18C183.468 80.5428 183.787 80.8529 184.156 81.0923C185.153 81.6998 185.979 80.9161 186.009 79.7922C186.009 78.7776 185.499 77.2284 184.363 77.034C184.11 76.9964 183.852 77.0236 183.613 77.1133C183.373 77.2029 183.161 77.3519 182.995 77.5464C182.829 77.7408 182.715 77.9742 182.664 78.2247C182.614 78.4751 182.627 78.7344 182.704 78.9781Z" fill="#FFB573"/>
<path d="M195.189 71.5295C195.189 71.5295 196.975 70.764 197.497 72.5987C198.02 74.4334 196.519 71.6024 195.189 71.5295Z" fill="#1A2E35"/>
<path d="M192.905 71.1953C192.905 71.1953 190.973 71.3958 191.41 73.2487C191.847 75.1017 191.775 71.9 192.905 71.1953Z" fill="#1A2E35"/>
<path d="M184.138 78.8989C184.264 78.9229 184.383 78.9716 184.49 79.0421C184.597 79.1127 184.688 79.2038 184.76 79.31C184.831 79.4163 184.88 79.5356 184.905 79.6611C184.93 79.7866 184.929 79.9157 184.904 80.0411C184.855 80.3542 184.891 80.6745 185.008 80.9691C185.124 81.2638 185.317 81.5222 185.566 81.7178C185.511 81.805 185.438 81.8784 185.35 81.9322C185.263 81.986 185.164 82.0187 185.062 82.0277C185.062 82.0277 182.413 79.4092 184.138 78.8989Z" fill="#2161D5"/>
<path opacity="0.5" d="M184.138 78.8989C184.264 78.9229 184.383 78.9716 184.49 79.0421C184.597 79.1127 184.688 79.2038 184.76 79.31C184.831 79.4163 184.88 79.5356 184.905 79.6611C184.93 79.7866 184.929 79.9157 184.904 80.0411C184.855 80.3542 184.891 80.6745 185.008 80.9691C185.124 81.2638 185.317 81.5222 185.566 81.7178C185.511 81.805 185.438 81.8784 185.35 81.9322C185.263 81.986 185.164 82.0187 185.062 82.0277C185.062 82.0277 182.413 79.4092 184.138 78.8989Z" fill="white"/>
<path opacity="0.1" d="M179.624 96.6508L177.735 95.6484L172.431 97.5621L172.261 98.0056C172.382 101.171 172.783 105.223 172.03 110.812C179.09 102.027 179.624 96.6508 179.624 96.6508Z" fill="black"/>
<path d="M175.499 101.128C175.499 101.128 171.799 109.907 168.014 112.203C164.229 114.5 153.634 109.354 153.634 109.354L149.71 108.941C149.457 108.891 149.22 108.779 149.022 108.615C148.823 108.45 148.669 108.239 148.574 107.999L147.626 105.618C147.556 105.446 147.524 105.262 147.53 105.076C147.536 104.891 147.581 104.709 147.662 104.543L147.996 103.868C148.082 103.692 148.204 103.537 148.356 103.414C148.508 103.291 148.685 103.203 148.874 103.156C149.064 103.109 149.262 103.104 149.453 103.143C149.645 103.181 149.826 103.26 149.983 103.376L154.023 106.341C154.023 106.341 163.598 109.069 165.074 106.918C166.55 104.767 166.532 104.798 169.436 99.1235L175.499 101.128Z" fill="#FFB573"/>
<path d="M178.306 90.1261C180.025 91.1589 182.23 96.1163 174.94 104.445L168.585 99.5853C168.585 99.5853 172.935 86.8759 178.306 90.1261Z" fill="#2161D5"/>
<path d="M150.275 105.831L149.54 105.77C152.425 70.746 147.48 69.4945 141.223 67.9089C138.009 67.0948 134.37 66.1774 131.405 60.6186C128.647 55.4668 130.725 49.8715 136.952 45.6553C144.206 40.7526 155.603 38.5716 166.72 39.975C180.28 41.6538 192.676 48.4762 201.349 59.033C209.709 68.9842 212.321 77.4713 214.423 84.2877L214.994 86.1103C218.639 97.7444 218.269 104.044 218.25 104.306L217.515 104.257C217.515 104.196 217.904 97.8173 214.289 86.329L213.718 84.5064C211.635 77.7508 209.046 69.3183 200.784 59.5068C181.428 36.4574 151.004 37.0285 137.371 46.2689C131.399 50.3089 129.473 55.4121 132.061 60.2723C134.874 65.5335 138.197 66.3779 141.411 67.192C144.625 68.0061 147.638 68.7716 149.43 73.8748C151.344 79.4275 151.617 89.5671 150.275 105.831Z" fill="#2161D5"/>
<g opacity="0.3">
<path opacity="0.3" d="M150.275 105.831L149.54 105.77C152.425 70.746 147.48 69.4945 141.223 67.9089C138.009 67.0948 134.37 66.1774 131.405 60.6186C128.647 55.4668 130.725 49.8715 136.952 45.6553C144.206 40.7526 155.603 38.5716 166.72 39.975C180.28 41.6538 192.676 48.4762 201.349 59.033C209.709 68.9842 212.321 77.4713 214.423 84.2877L214.994 86.1103C218.639 97.7444 218.269 104.044 218.25 104.306L217.515 104.257C217.515 104.196 217.904 97.8173 214.289 86.329L213.718 84.5064C211.635 77.7508 209.046 69.3183 200.784 59.5068C181.428 36.4574 151.004 37.0285 137.371 46.2689C131.399 50.3089 129.473 55.4121 132.061 60.2723C134.874 65.5335 138.197 66.3779 141.411 67.192C144.625 68.0061 147.638 68.7716 149.43 73.8748C151.344 79.4275 151.617 89.5671 150.275 105.831Z" fill="white"/>
</g>
<path d="M151.137 101.493H148.683V110.101H151.137V101.493Z" fill="#2161D5"/>
<path opacity="0.1" d="M151.137 101.493H148.683V102.963H151.137V101.493Z" fill="black"/>
<path opacity="0.1" d="M151.137 109.117H148.683V110.101H151.137V109.117Z" fill="black"/>
<path d="M151.143 102.173H148.671C148.49 102.173 148.317 102.101 148.19 101.974C148.062 101.846 147.99 101.673 147.99 101.493C147.992 101.313 148.064 101.142 148.192 101.015C148.319 100.889 148.491 100.818 148.671 100.818H151.143C151.323 100.818 151.495 100.889 151.622 101.015C151.75 101.142 151.822 101.313 151.824 101.493C151.824 101.673 151.752 101.846 151.625 101.974C151.497 102.101 151.324 102.173 151.143 102.173Z" fill="#2161D5"/>
<path d="M151.143 111.061H148.671C148.491 111.061 148.319 110.99 148.192 110.864C148.064 110.738 147.992 110.566 147.99 110.387C147.99 110.207 148.062 110.033 148.19 109.906C148.317 109.778 148.49 109.707 148.671 109.707H151.143C151.324 109.707 151.497 109.778 151.625 109.906C151.752 110.033 151.824 110.207 151.824 110.387C151.822 110.566 151.75 110.738 151.622 110.864C151.495 110.99 151.323 111.061 151.143 111.061Z" fill="#2161D5"/>
<path d="M219.101 100.004H216.647V108.613H219.101V100.004Z" fill="#2161D5"/>
<path opacity="0.1" d="M219.101 100.004H216.647V101.474H219.101V100.004Z" fill="black"/>
<path opacity="0.1" d="M219.101 107.623H216.647V108.607H219.101V107.623Z" fill="black"/>
<path d="M219.113 100.685H216.641C216.46 100.685 216.287 100.613 216.159 100.486C216.032 100.358 215.96 100.185 215.96 100.005C215.96 99.8242 216.032 99.6511 216.159 99.5235C216.287 99.3959 216.46 99.3242 216.641 99.3242H219.113C219.294 99.3242 219.467 99.3959 219.594 99.5235C219.722 99.6511 219.794 99.8242 219.794 100.005C219.794 100.185 219.722 100.358 219.594 100.486C219.467 100.613 219.294 100.685 219.113 100.685Z" fill="#2161D5"/>
<path d="M219.113 109.573H216.641C216.46 109.573 216.287 109.501 216.159 109.374C216.032 109.246 215.96 109.073 215.96 108.892C215.96 108.712 216.032 108.539 216.159 108.411C216.287 108.284 216.46 108.212 216.641 108.212H219.113C219.294 108.212 219.467 108.284 219.594 108.411C219.722 108.539 219.794 108.712 219.794 108.892C219.794 109.073 219.722 109.246 219.594 109.374C219.467 109.501 219.294 109.573 219.113 109.573Z" fill="#2161D5"/>
<path d="M108.149 95.3812C108.149 95.3812 99.9413 99.0567 95.9256 97.544C91.9099 96.0312 87.6876 83.8079 87.6876 83.8079L85.0813 80.3632C84.9054 80.1317 84.8102 79.849 84.8102 79.5582C84.8102 79.2675 84.9054 78.9848 85.0813 78.7533L87.238 75.9465C87.3918 75.7507 87.5858 75.5903 87.807 75.4761C88.0281 75.3618 88.2713 75.2964 88.5199 75.2843H88.6596C88.8914 75.2743 89.1227 75.3119 89.3393 75.3949C89.5559 75.4779 89.7532 75.6044 89.919 75.7667C90.0847 75.9291 90.2153 76.1237 90.3028 76.3385C90.3903 76.5533 90.4327 76.7838 90.4275 77.0157L90.3364 81.2684C90.3364 81.2684 96.8065 91.6388 99.3338 91.4748C101.861 91.3108 105.98 89.5854 105.98 89.5854L108.149 95.3812Z" fill="#FFC3BD"/>
<path d="M116.193 89.0325C116.484 90.855 115.585 95.6059 104.972 97.313L103.337 90.1078C103.337 90.1078 115.154 82.5259 116.193 89.0325Z" fill="#263238"/>
<path d="M90.7739 76.2865C91.8431 77.6473 93.5138 78.109 94.498 77.3435C95.4822 76.5781 95.4093 74.8345 94.334 73.4736C93.2586 72.1128 91.6001 71.6511 90.6159 72.4165C89.6317 73.182 89.6986 74.9256 90.7739 76.2865Z" fill="#2161D5"/>
<path opacity="0.2" d="M90.7739 76.2867C90.3815 75.8482 90.1172 75.3102 90.01 74.7316C89.9029 74.1529 89.957 73.556 90.1664 73.006C91.0048 72.5626 92.396 73.1579 93.3984 74.4276C94.2428 75.4969 94.5466 76.7241 94.2489 77.5078C93.2344 78.0303 91.7581 77.5321 90.7739 76.2867Z" fill="black"/>
<path d="M83.8542 81.7422C84.3159 82.3498 86.5334 81.3474 88.8055 79.5491C91.0776 77.7508 92.5539 75.825 92.0922 75.2417C91.6305 74.6585 89.413 75.6427 87.1409 77.4349C84.8688 79.2271 83.3925 81.159 83.8542 81.7422Z" fill="#2161D5"/>
<path opacity="0.2" d="M86.6792 81.0072C85.2819 81.8152 84.1641 82.1372 83.8542 81.7423C83.5444 81.3474 84.1398 80.2964 85.288 79.0995C85.5657 79.3093 85.8149 79.5543 86.0292 79.8286C86.3056 80.1854 86.5249 80.583 86.6792 81.0072Z" fill="black"/>
<path d="M81.5274 83.5709C82.5966 84.9318 84.2612 85.3935 85.2454 84.628C86.2296 83.8625 86.1628 82.125 85.0874 80.7642C84.0121 79.4033 82.3475 78.9416 81.3633 79.7071C80.3791 80.4725 80.4581 82.2161 81.5274 83.5709Z" fill="#2161D5"/>
<path opacity="0.6" d="M114.115 93.747C112.618 94.9797 110.877 95.8805 109.006 96.3897C109.103 89.0994 112.651 89.0204 112.651 89.0204L113.325 89.4032L114.115 93.747Z" fill="black"/>
<path d="M124.084 150.216L119.959 163.083C120.527 166.696 120.527 170.376 119.959 173.988C119.024 180.106 113.726 212.311 113.726 212.311L109.747 212.785C109.747 212.785 110.354 171.51 111.168 162.579C111.983 153.648 112.991 147.269 112.991 147.269L124.084 150.216Z" fill="#FFC3BD"/>
<path opacity="0.1" d="M112.985 147.269L124.084 150.216L121.429 158.509L111.758 156.832C112.408 151.036 112.985 147.269 112.985 147.269Z" fill="black"/>
<path d="M132.043 150.708C132.043 150.708 136.593 169.985 153.306 211.795L157.115 210.841C157.115 210.841 149.643 167.403 145.074 162.591L142.766 147.956L132.043 150.708Z" fill="#FFC3BD"/>
<path opacity="0.1" d="M142.748 147.956L144.102 156.364L134.121 158.187C132.62 153.132 132.067 150.726 132.067 150.726L142.748 147.956Z" fill="black"/>
<path d="M131.344 136.486C131.344 136.486 128.124 139.457 127.292 141.863C126.46 144.269 122.432 157.239 122.432 157.239L111.496 155.277C111.496 155.277 112.626 143.126 113.86 134.451C115.093 125.776 116.047 120.684 115.895 119.943L136.551 118.2C136.551 118.2 140.688 133.321 131.344 136.486Z" fill="#2161D5"/>
<path opacity="0.1" d="M127.869 127.938L131.29 136.523C130.925 136.869 128.058 139.615 127.28 141.863C127.061 142.47 126.642 143.789 126.132 145.392C124.589 136.693 125.433 127.13 125.433 127.13L127.869 127.938Z" fill="black"/>
<path d="M125.178 120.01C125.178 120.01 123.179 126.936 128.714 141.668C130.239 145.733 132.693 156.601 132.693 156.601L144.515 154.244L141.958 139.834C141.958 139.834 142.48 125.545 138.452 118.667L125.178 120.01Z" fill="#2161D5"/>
<path d="M109.795 211.868L113.933 211.795C114.02 211.793 114.106 211.822 114.175 211.876C114.243 211.93 114.291 212.007 114.309 212.093L115.804 216.054C115.84 216.219 115.81 216.392 115.721 216.535C115.631 216.678 115.488 216.78 115.324 216.819H115.19C113.465 216.789 111.94 216.698 109.795 216.698C107.268 216.698 107.912 217.001 104.935 217.044C103.143 217.044 102.815 215.033 103.574 214.936C107.049 214.498 107.408 213.447 108.751 212.202C109.047 211.968 109.418 211.85 109.795 211.868Z" fill="#263238"/>
<path d="M153.009 210.914L157.042 209.978C157.127 209.958 157.216 209.968 157.294 210.007C157.371 210.046 157.433 210.111 157.468 210.191L159.758 213.751C159.829 213.904 159.835 214.079 159.777 214.237C159.719 214.395 159.601 214.524 159.448 214.595C159.408 214.617 159.365 214.633 159.321 214.644C157.632 214.972 156.113 215.197 154.023 215.652C151.55 216.181 152.243 216.339 149.345 217.001C147.602 217.402 146.854 215.476 147.577 215.221C150.882 214.067 151.016 212.967 152.067 211.473C152.301 211.177 152.636 210.978 153.009 210.914Z" fill="#263238"/>
<path d="M113.793 65.4787C113.793 65.4787 110.986 65.2479 112.487 69.379L114.309 67.6597L115.524 65.3633L113.793 65.4787Z" fill="#263238"/>
<path opacity="0.6" d="M113.793 65.4787C113.793 65.4787 110.986 65.2479 112.487 69.379L114.309 67.6597L115.524 65.3633L113.793 65.4787Z" fill="black"/>
<path d="M139.187 119.439C139.187 119.439 134.491 119.858 115.445 120.97C115.445 120.97 114.382 116.061 113.015 107.653C111.478 98.0721 109.723 89.2509 111.989 86.8694C114.564 84.1659 126.818 84.5425 132.45 84.5608C133.324 84.5612 134.166 84.8868 134.813 85.4741C135.46 86.0614 135.865 86.8685 135.949 87.7381L139.187 119.439Z" fill="#263238"/>
<path d="M128.203 84.531C128.173 85.825 127.031 88.5467 120.658 93.5041C120.658 93.5041 115.798 88.808 116.278 85.2175C119.686 84.61 124.346 84.5249 128.203 84.531Z" fill="#2161D5"/>
<path d="M120.634 91.9121C120.634 91.9121 116.909 86.9547 117.924 84.9742C120.713 84.6773 123.516 84.5313 126.32 84.5368C126.314 85.4724 125.706 87.9267 120.634 91.9121Z" fill="#FFC3BD"/>
<path d="M120.524 90.4844L118.094 86.2317C119.917 84.9073 119.498 83.7044 118.52 81.894L122.815 75.8188C122.991 78.826 123.513 83.1759 126.016 84.5793C126.061 85.0681 125.97 85.5597 125.755 86.0009L120.524 90.4844Z" fill="#FFC3BD"/>
<path opacity="0.2" d="M119.194 83.3947C119.006 82.8847 118.776 82.391 118.507 81.9184L121.205 78.0849C121.764 78.2732 122.699 78.0545 123.027 78.3704C123.027 78.5648 123.082 78.7593 123.118 78.978C122.888 80.436 121.016 82.6231 119.194 83.3947Z" fill="black"/>
<path d="M124.728 70.7338C124.905 75.3266 125.075 77.2646 123.003 79.8466C119.886 83.7165 114.206 82.9207 112.675 78.4797C111.29 74.47 111.235 67.6111 115.53 65.3754C116.258 64.9844 117.056 64.741 117.878 64.6592C118.699 64.5774 119.529 64.6588 120.32 64.8987C121.11 65.1386 121.845 65.5324 122.483 66.0573C123.121 66.5822 123.648 67.2279 124.036 67.9574C124.48 68.8161 124.718 69.7669 124.728 70.7338Z" fill="#FFC3BD"/>
<path d="M117.572 72.6534C117.608 73.024 117.438 73.346 117.201 73.3703C116.964 73.3946 116.727 73.109 116.691 72.7628C116.654 72.4165 116.824 72.0702 117.061 72.0459C117.298 72.0216 117.517 72.295 117.572 72.6534Z" fill="#1A2E35"/>
<path d="M113.374 73.0789C113.41 73.4555 113.24 73.7715 113.003 73.7958C112.766 73.8201 112.529 73.5345 112.493 73.1882C112.456 72.842 112.626 72.4957 112.863 72.4774C113.1 72.4592 113.337 72.7083 113.374 73.0789Z" fill="#1A2E35"/>
<path d="M114.741 73.6196C114.49 74.5023 114.12 75.3465 113.641 76.1286C113.846 76.2429 114.072 76.3123 114.306 76.3322C114.54 76.3521 114.775 76.322 114.996 76.2441L114.741 73.6196Z" fill="#FF8935"/>
<path d="M117.165 77.4954C116.986 77.5436 116.803 77.5761 116.618 77.5926C116.589 77.5945 116.561 77.5856 116.538 77.5676C116.516 77.5496 116.501 77.5239 116.496 77.4954C116.496 77.4661 116.506 77.4377 116.525 77.4154C116.544 77.393 116.571 77.3783 116.6 77.3739C117.063 77.3387 117.512 77.1942 117.909 76.9524C118.306 76.7106 118.64 76.3784 118.884 75.9827C118.899 75.9577 118.923 75.9394 118.952 75.9315C118.98 75.9236 119.01 75.9267 119.036 75.9402C119.062 75.9532 119.081 75.9758 119.09 76.0031C119.099 76.0304 119.097 76.0602 119.085 76.086C118.874 76.4366 118.596 76.7418 118.266 76.9838C117.937 77.2258 117.562 77.3997 117.165 77.4954Z" fill="#1A2E35"/>
<path d="M119.194 71.6391C119.149 71.6509 119.101 71.6485 119.058 71.6321C119.014 71.6158 118.977 71.5864 118.951 71.548C118.727 71.2765 118.449 71.0539 118.136 70.894C117.822 70.7341 117.479 70.6403 117.128 70.6184C117.099 70.6185 117.07 70.6126 117.043 70.6012C117.016 70.5899 116.992 70.5732 116.971 70.5523C116.951 70.5313 116.935 70.5065 116.924 70.4792C116.914 70.452 116.909 70.4229 116.91 70.3937C116.913 70.3362 116.938 70.2821 116.979 70.2425C117.021 70.2029 117.077 70.1809 117.134 70.181C117.564 70.199 117.985 70.3098 118.368 70.5059C118.75 70.702 119.086 70.9788 119.352 71.3171C119.38 71.366 119.389 71.4238 119.377 71.479C119.364 71.5342 119.331 71.5827 119.285 71.6148C119.259 71.6342 119.226 71.6429 119.194 71.6391Z" fill="#1A2E35"/>
<path d="M111.904 71.2687C111.866 71.2777 111.827 71.2769 111.789 71.2663C111.752 71.2556 111.718 71.2355 111.691 71.2079C111.671 71.1876 111.654 71.1635 111.643 71.1369C111.632 71.1103 111.627 71.0818 111.627 71.053C111.627 71.0242 111.632 70.9957 111.643 70.9691C111.654 70.9425 111.671 70.9184 111.691 70.8981C111.931 70.6391 112.231 70.4431 112.565 70.3276C112.899 70.2122 113.256 70.1806 113.605 70.2359C113.659 70.2462 113.707 70.2774 113.739 70.3228C113.771 70.3682 113.784 70.4242 113.775 70.4789C113.763 70.535 113.73 70.5843 113.682 70.6162C113.634 70.648 113.576 70.6598 113.52 70.649C113.246 70.6157 112.967 70.6473 112.708 70.7413C112.448 70.8352 112.214 70.9888 112.025 71.1897C111.992 71.2265 111.95 71.2538 111.904 71.2687Z" fill="#1A2E35"/>
<path d="M123.374 74.7739L121.885 74.4944C121.885 74.4944 122.863 71.0862 122.165 70.2114C121.466 69.3366 119.862 68.6379 119.34 67.0098C118.817 65.3816 110.834 68.5832 112.128 61.8762C112.128 61.8762 112.736 63.6988 113.641 64.361C113.641 64.361 112.311 59.762 117.377 60.2723C122.444 60.7826 125.634 66.0802 125.634 66.0802C125.634 66.0802 132.183 70.3754 125.403 76.6633C125.285 76.7742 125.143 76.8551 124.988 76.8991C124.832 76.9431 124.669 76.949 124.511 76.9162C124.353 76.8834 124.205 76.8128 124.08 76.7106C123.955 76.6084 123.856 76.4776 123.793 76.3292L123.374 74.7739Z" fill="#263238"/>
<path d="M126.32 74.1178C126.219 74.5364 126.037 74.9312 125.784 75.2793C125.531 75.6275 125.211 75.9223 124.844 76.1469C123.847 76.7544 123.021 75.9282 123.064 74.8225C123.064 73.8322 123.629 72.3256 124.747 72.1676C125.138 72.1231 125.531 72.2356 125.84 72.4805C126.148 72.7253 126.347 73.0825 126.393 73.4738C126.417 73.6912 126.392 73.9112 126.32 74.1178Z" fill="#FFC3BD"/>
<path d="M125.397 66.4265C125.397 66.4265 127.189 63.7473 128.768 65.904C130.348 68.0607 126.648 65.6549 125.397 66.4265Z" fill="#263238"/>
<path d="M124.558 73.8017C124.409 73.8293 124.267 73.8863 124.141 73.9693C124.014 74.0523 123.905 74.1597 123.82 74.2852C123.735 74.4108 123.676 74.5519 123.647 74.7004C123.617 74.849 123.617 75.0019 123.647 75.1504C123.647 75.1504 123.933 76.0799 122.863 77.1431C122.929 77.2469 123.018 77.334 123.124 77.3973C123.229 77.4606 123.348 77.4983 123.471 77.5076C123.471 77.5076 126.606 74.4031 124.558 73.8017Z" fill="#2161D5"/>
<path opacity="0.8" d="M124.558 73.8017C124.409 73.8293 124.267 73.8863 124.141 73.9693C124.014 74.0523 123.905 74.1597 123.82 74.2852C123.735 74.4108 123.676 74.5519 123.647 74.7004C123.617 74.849 123.617 75.0019 123.647 75.1504C123.647 75.1504 123.933 76.0799 122.863 77.1431C122.929 77.2469 123.018 77.334 123.124 77.3973C123.229 77.4606 123.348 77.4983 123.471 77.5076C123.471 77.5076 126.606 74.4031 124.558 73.8017Z" fill="white"/>
<path opacity="0.6" d="M136.271 90.9948L136.982 98.607C134.505 96.7054 132.782 93.9864 132.122 90.934L133.89 90.4844L136.271 90.9948Z" fill="black"/>
<path d="M137.547 92.8174C137.547 92.8174 147.024 93.7894 150.852 91.5659C154.679 89.3424 156.471 76.7909 156.471 76.7909L158.379 72.0097C158.537 71.6118 158.55 71.1709 158.416 70.7643C158.281 70.3577 158.008 70.0114 157.644 69.7862L155.9 68.7169C155.537 68.4944 155.107 68.4063 154.685 68.4679L154.035 68.5651C153.578 68.6344 153.164 68.875 152.877 69.2383C152.591 69.6016 152.453 70.0603 152.492 70.5213L152.96 75.989C152.96 75.989 150.208 86.1589 147.614 86.4202C145.02 86.6814 145.05 86.6814 138.677 86.5113L137.547 92.8174Z" fill="#FFC3BD"/>
<path d="M130.129 88.4186C130.056 90.4842 131.569 94.2265 142.626 93.6433L142.748 85.6544C142.748 85.6544 130.342 81.4685 130.129 88.4186Z" fill="#263238"/>
<path d="M152.753 69.865C152.006 71.4263 150.487 72.2586 149.357 71.7179C148.227 71.1772 147.918 69.4701 148.665 67.9087C149.412 66.3474 150.931 65.5212 152.061 66.0862C153.191 66.6512 153.501 68.3036 152.753 69.865Z" fill="#2161D5"/>
<path opacity="0.2" d="M152.753 69.8653C153.042 69.3522 153.184 68.7697 153.164 68.1814C153.143 67.5931 152.961 67.0218 152.638 66.53C151.721 66.2809 150.493 67.1679 149.795 68.6259C149.187 69.841 149.187 71.1228 149.643 71.8215C150.736 72.1131 152.067 71.299 152.753 69.8653Z" fill="black"/>
<path d="M160.7 73.6744C160.384 74.3427 158.002 73.8749 155.39 72.6234C152.778 71.3719 150.913 69.8106 151.235 69.1423C151.557 68.474 153.938 68.9418 156.55 70.1933C159.163 71.4448 161.022 73.0001 160.7 73.6744Z" fill="#2161D5"/>
<path opacity="0.2" d="M157.784 73.5771C159.327 74.057 160.487 74.1299 160.7 73.6743C160.912 73.2186 160.092 72.3256 158.725 71.4082C158.5 71.674 158.31 71.9681 158.16 72.283C157.967 72.6916 157.84 73.1284 157.784 73.5771Z" fill="black"/>
<path d="M163.373 74.9501C162.626 76.5115 161.101 77.3377 159.971 76.7727C158.841 76.2077 158.531 74.5309 159.278 72.9696C160.025 71.4083 161.55 70.576 162.68 71.1166C163.81 71.6573 164.151 73.3888 163.373 74.9501Z" fill="#2161D5"/>
</svg>
