<svg width="302" height="224" viewBox="0 0 302 224" fill="none" xmlns="http://www.w3.org/2000/svg">
<path d="M301.311 196.848H0.688477V196.998H301.311V196.848Z" fill="#EBEBEB"/>
<path d="M271.189 206.522H251.276V206.672H271.189V206.522Z" fill="#EBEBEB"/>
<path d="M181.928 206.6H176.703V206.75H181.928V206.6Z" fill="#EBEBEB"/>
<path d="M250.668 200.942H213.728V201.093H250.668V200.942Z" fill="#EBEBEB"/>
<path d="M136.053 204.49H128.423V204.64H136.053V204.49Z" fill="#EBEBEB"/>
<path d="M123.072 204.49H100.928V204.64H123.072V204.49Z" fill="#EBEBEB"/>
<path d="M47.5195 201.952H32.2299V202.103H47.5195V201.952Z" fill="#EBEBEB"/>
<path d="M96.1543 201.952H51.127V202.103H96.1543V201.952Z" fill="#EBEBEB"/>
<path d="M143.184 170.032H27.0892C26.1797 170.031 25.3081 169.668 24.6655 169.025C24.023 168.381 23.6621 167.509 23.6621 166.599V3.40305C23.67 2.49879 24.0344 1.63417 24.6761 0.996997C25.3178 0.359821 26.1849 0.00154904 27.0892 0H143.184C144.094 0 144.968 0.361702 145.611 1.00554C146.255 1.64937 146.617 2.5226 146.617 3.43311V166.599C146.617 167.51 146.255 168.383 145.611 169.027C144.968 169.671 144.094 170.032 143.184 170.032ZM27.0892 0.12025C26.2196 0.121842 25.3862 0.46841 24.7718 1.08388C24.1575 1.69935 23.8124 2.53344 23.8124 3.40305V166.599C23.8124 167.469 24.1575 168.303 24.7718 168.918C25.3862 169.534 26.2196 169.88 27.0892 169.882H143.184C144.054 169.88 144.888 169.534 145.503 168.919C146.119 168.303 146.465 167.469 146.467 166.599V3.40305C146.465 2.53289 146.119 1.69882 145.503 1.08352C144.888 0.468214 144.054 0.121839 143.184 0.12025H27.0892Z" fill="#EBEBEB"/>
<path d="M273.239 170.032H157.139C156.229 170.031 155.356 169.669 154.713 169.025C154.069 168.382 153.707 167.509 153.706 166.599V3.40305C153.715 2.49825 154.081 1.63363 154.723 0.996621C155.366 0.35961 156.234 0.00153215 157.139 0H273.239C274.143 0.00312918 275.008 0.3621 275.649 0.999107C276.289 1.63611 276.653 2.49983 276.66 3.40305V166.599C276.66 167.508 276.3 168.379 275.659 169.023C275.018 169.666 274.148 170.029 273.239 170.032ZM157.139 0.12025C156.269 0.121839 155.435 0.468214 154.819 1.08352C154.204 1.69882 153.858 2.53289 153.856 3.40305V166.599C153.858 167.469 154.204 168.303 154.819 168.919C155.435 169.534 156.269 169.88 157.139 169.882H273.239C274.11 169.88 274.944 169.534 275.559 168.919C276.174 168.303 276.521 167.469 276.522 166.599V3.40305C276.521 2.53289 276.174 1.69882 275.559 1.08352C274.944 0.468214 274.11 0.121839 273.239 0.12025H157.139Z" fill="#EBEBEB"/>
<path d="M215.189 125.708H56.4059V131.456H215.189V125.708Z" fill="#F5F5F5"/>
<path d="M156.88 125.709C156.88 125.709 155.371 121.861 161.023 121.115C169.705 119.973 172.176 125.709 172.176 125.709H156.88Z" fill="#E6E6E6"/>
<path d="M246.857 131.456H225.753V196.848H246.857V131.456Z" fill="#F5F5F5"/>
<path d="M83.4079 131.456H62.3042V196.848H83.4079V131.456Z" fill="#F5F5F5"/>
<path d="M246.857 139.291L225.753 135.371V131.456H246.857V139.291Z" fill="#E6E6E6"/>
<path d="M83.4019 139.291L62.3042 135.371V131.456H83.4019V139.291Z" fill="#E6E6E6"/>
<path d="M215.189 131.456H247.891V125.709H215.189V131.456Z" fill="#E6E6E6"/>
<path d="M232.09 114.237H166.777L170.697 76.1597H236.01L232.09 114.237Z" fill="#F0F0F0"/>
<path d="M208.888 114.237H196.388L199.238 125.709H211.744L208.888 114.237Z" fill="#EBEBEB"/>
<path d="M181.501 124.248H218.502L219.247 125.709H177.461L181.501 124.248Z" fill="#E0E0E0"/>
<path d="M229.871 112.379H169.374L172.909 78.0176H233.413L229.871 112.379Z" fill="#E6E6E6"/>
<path d="M65.4727 125.709H72.5133L80.2333 85.5754H73.1987L65.4727 125.709Z" fill="#E6E6E6"/>
<path d="M73.7519 125.709H150.844L146.214 80.7654H69.1223L73.7519 125.709Z" fill="#F0F0F0"/>
<path d="M76.3673 123.514H147.771L143.599 82.9658H72.1886L76.3673 123.514Z" fill="#F5F5F5"/>
<path d="M257.553 18.8369H165.935V58.5192H257.553V18.8369Z" fill="#F5F5F5"/>
<path d="M257.553 58.5252H259.729V18.8429H257.553V58.5252Z" fill="#F0F0F0"/>
<path d="M253.945 54.9118V22.4445L169.542 22.4445V54.9118L253.945 54.9118Z" fill="#FAFAFA"/>
<path d="M253.945 38.6782C226.114 35.4735 198.276 41.8888 170.444 38.6782V37.0789C198.276 40.2835 226.114 33.8682 253.945 37.0789V38.6782Z" fill="#F0F0F0"/>
<path d="M170.444 54.9177V22.4504H169.542V54.9177H170.444Z" fill="#F0F0F0"/>
<path d="M73.7859 62.0638C88.093 58.687 96.9538 44.3513 93.577 30.0442C90.2003 15.737 75.8646 6.87623 61.5574 10.253C47.2503 13.6298 38.3895 27.9655 41.7663 42.2726C45.1431 56.5798 59.4787 65.4406 73.7859 62.0638Z" fill="#F0F0F0"/>
<path d="M73.3482 60.2088C86.6309 57.0738 94.8572 43.7646 91.7222 30.482C88.5872 17.1993 75.278 8.97298 61.9954 12.108C48.7127 15.243 40.4864 28.5521 43.6214 41.8348C46.7564 55.1175 60.0655 63.3438 73.3482 60.2088Z" fill="white"/>
<path d="M52.8707 44.6544L52.576 44.1313C63.5969 37.9806 66.5129 36.4053 67.3186 35.9965C66.7174 34.4032 62.0938 24.2601 58.9613 17.46L59.5084 17.2075C68.1423 35.9423 68.0401 36.1227 67.9259 36.2971L67.7515 36.4113C67.3366 36.6097 58.6246 41.4437 52.8707 44.6544Z" fill="#F5F5F5"/>
<path d="M188.915 159.186H138.753C138.922 160.618 139.603 161.94 140.67 162.909C141.738 163.878 143.119 164.428 144.561 164.459H184.177C184.849 164.472 185.517 164.34 186.134 164.072C186.751 163.804 187.303 163.407 187.752 162.906C188.202 162.406 188.538 161.815 188.739 161.173C188.939 160.531 188.999 159.853 188.915 159.186Z" fill="#E0E0E0"/>
<path d="M162.357 164.459H122.741C121.301 164.428 119.92 163.877 118.854 162.908C117.787 161.939 117.107 160.617 116.939 159.186L111.318 103.607C111.232 102.94 111.291 102.262 111.491 101.62C111.692 100.978 112.028 100.386 112.478 99.8862C112.928 99.3861 113.48 98.989 114.098 98.7222C114.715 98.4553 115.383 98.3249 116.056 98.34H155.672C157.112 98.3693 158.492 98.9188 159.559 99.8869C160.625 100.855 161.306 102.176 161.474 103.607L167.107 159.186C167.193 159.855 167.134 160.534 166.933 161.177C166.732 161.82 166.394 162.413 165.943 162.913C165.492 163.414 164.938 163.811 164.319 164.078C163.7 164.345 163.031 164.475 162.357 164.459Z" fill="#E0E0E0"/>
<path d="M159.898 164.459H120.288C118.847 164.429 117.464 163.879 116.397 162.91C115.329 161.941 114.648 160.618 114.48 159.186L108.847 103.607C108.762 102.94 108.822 102.262 109.022 101.621C109.223 100.979 109.56 100.388 110.009 99.8882C110.459 99.3883 111.011 98.9912 111.628 98.724C112.245 98.4569 112.912 98.3258 113.584 98.3398H153.201C154.641 98.369 156.023 98.9183 157.09 99.8863C158.158 100.854 158.839 102.176 159.009 103.607L164.636 159.186C164.722 159.853 164.663 160.531 164.463 161.174C164.262 161.816 163.926 162.408 163.476 162.909C163.026 163.409 162.474 163.807 161.857 164.074C161.239 164.342 160.571 164.473 159.898 164.459Z" fill="#E6E6E6"/>
<path d="M153.639 164.459H145.258V196.848H153.639V164.459Z" fill="#E0E0E0"/>
<path d="M156.459 191.677H142.438L137.893 196.848H161.005L156.459 191.677Z" fill="#E0E0E0"/>
<path d="M147.994 224C212.377 224 264.569 220.953 264.569 217.194C264.569 213.435 212.377 210.388 147.994 210.388C83.6108 210.388 31.4182 213.435 31.4182 217.194C31.4182 220.953 83.6108 224 147.994 224Z" fill="#F5F5F5"/>
<path d="M135.849 209.071L131.201 207.773L132.981 196.662L137.628 197.966L135.849 209.071Z" fill="#CF7A64"/>
<path d="M167.907 212.264H163.079L162.748 201.087H167.576L167.907 212.264Z" fill="#CF7A64"/>
<path d="M162.592 211.705H168.214C168.308 211.705 168.399 211.738 168.472 211.798C168.545 211.859 168.594 211.943 168.61 212.036L169.386 216.328C169.403 216.435 169.396 216.543 169.366 216.647C169.337 216.75 169.285 216.846 169.214 216.927C169.144 217.008 169.057 217.073 168.959 217.117C168.861 217.161 168.754 217.184 168.646 217.182C166.753 217.152 165.64 217.038 163.235 217.038C161.768 217.038 157.337 217.194 155.311 217.194C153.285 217.194 153.104 215.192 153.94 215.006C157.692 214.194 160.554 213.076 161.756 211.999C161.987 211.798 162.286 211.693 162.592 211.705Z" fill="#263238"/>
<path d="M131.051 207.165L136.173 208.416C136.266 208.439 136.349 208.494 136.407 208.57C136.465 208.647 136.495 208.741 136.492 208.837L136.402 213.226C136.4 213.332 136.375 213.437 136.327 213.533C136.28 213.628 136.211 213.711 136.126 213.776C136.042 213.841 135.944 213.886 135.839 213.907C135.735 213.928 135.627 213.926 135.524 213.899C133.684 213.412 131.039 212.655 128.718 212.096C126.006 211.428 125.91 211.308 122.705 210.532C120.781 210.063 120.721 207.983 121.569 208.007C125.435 208.097 126.168 208.44 129.818 207.262C130.212 207.116 130.639 207.082 131.051 207.165Z" fill="#263238"/>
<path d="M155.84 69.7445C152.774 71.6384 149.713 73.352 146.521 74.9273C144.933 75.7269 143.316 76.4785 141.681 77.206C140.863 77.5727 140.027 77.9215 139.192 78.2582C138.777 78.4325 138.344 78.5888 137.923 78.7512L137.286 78.9977C136.913 79.1391 136.532 79.2537 136.143 79.3404C135.307 79.5209 134.443 79.5372 133.6 79.3885C132.833 79.2426 132.094 78.9747 131.411 78.5949C130.338 77.9691 129.387 77.1543 128.604 76.1899C127.359 74.6227 126.337 72.8907 125.567 71.0432C124.137 67.674 123.116 64.1456 122.525 60.5334L126.018 59.5895C126.668 61.1106 127.347 62.6979 128.092 64.195C128.838 65.6921 129.59 67.2012 130.425 68.548C131.172 69.8388 132.072 71.034 133.107 72.1074C133.448 72.4698 133.856 72.762 134.309 72.9672C134.393 73.0075 134.488 73.0221 134.58 73.0093C134.616 73.0093 134.58 72.9792 134.628 72.9552C134.659 72.9335 134.691 72.9135 134.724 72.8951L135.289 72.6245C135.662 72.4441 136.041 72.2698 136.414 72.0774L138.662 70.935C140.162 70.1333 141.655 69.3317 143.142 68.53C146.106 66.8826 149.118 65.1751 152.028 63.4976L155.84 69.7445Z" fill="#CF7A64"/>
<path d="M158.816 68.3436C156.964 72.5523 148.661 74.7228 148.661 74.7228L143.851 67.1171C143.851 67.1171 147.489 63.3172 152.329 62.0966C158.215 60.5995 160.806 63.732 158.816 68.3436Z" fill="#2161D5"/>
<path opacity="0.2" d="M154.144 67.3395C152.619 67.9115 151.289 68.9086 150.311 70.2128C149.334 71.5169 148.751 73.0736 148.631 74.6987C148.631 74.6987 155.143 73.0092 157.914 69.6904C157.677 68.9083 157.164 68.239 156.471 67.8066C155.778 67.3742 154.951 67.2082 154.144 67.3395Z" fill="black"/>
<path d="M124.214 62.8121L120.336 60.4853L122.777 56.4088C122.777 56.4088 127.359 57.7316 126.547 61.1527L124.214 62.8121Z" fill="#CF7A64"/>
<path d="M118.485 57.431L118.948 54.4128L122.753 56.4089L120.312 60.4853L118.485 57.431Z" fill="#CF7A64"/>
<path opacity="0.2" d="M132.981 196.668L132.067 202.392L136.714 203.696L137.628 197.967L132.981 196.668Z" fill="black"/>
<path opacity="0.2" d="M167.576 201.093H162.748L162.923 206.853H167.751L167.576 201.093Z" fill="black"/>
<path d="M179.691 67.8266C174.28 85.0403 174.184 102.837 173.517 106.547C169.765 106.054 155.636 104.142 147.934 103.132C146.4 79.1901 151.89 65.7102 153.381 62.5477C153.484 62.3231 153.645 62.1295 153.846 61.9861C154.048 61.8427 154.283 61.7544 154.529 61.73C155.233 61.6578 156.333 61.5556 157.674 61.4955C158.383 61.4654 159.147 61.4474 159.94 61.4534C160.379 61.4534 160.824 61.4534 161.275 61.4534C164.926 61.7266 168.558 62.2125 172.152 62.9084C172.831 63.0287 173.523 63.173 174.19 63.3233C174.857 63.4736 175.392 63.6179 175.994 63.7682C176.595 63.9185 177.262 64.1109 177.797 64.2672C178.16 64.37 178.497 64.5449 178.79 64.7814C179.083 65.0179 179.326 65.3112 179.502 65.6436C179.679 65.976 179.787 66.3407 179.82 66.7158C179.852 67.0909 179.809 67.4687 179.691 67.8266Z" fill="#2161D5"/>
<path d="M160.74 83.2122L158.6 82.9838C158.369 82.9716 158.141 83.0482 157.965 83.198C157.788 83.3478 157.675 83.5593 157.65 83.7894L157.59 84.1802C157.568 84.2902 157.569 84.4035 157.592 84.5131C157.616 84.6227 157.661 84.7264 157.726 84.818C157.791 84.9096 157.873 84.9872 157.968 85.046C158.064 85.1048 158.17 85.1437 158.281 85.1603L160.428 85.3888C160.659 85.4009 160.886 85.3243 161.062 85.1745C161.239 85.0248 161.352 84.8132 161.377 84.5831L161.432 84.1983C161.454 84.0878 161.454 83.974 161.431 83.8637C161.408 83.7534 161.363 83.6489 161.298 83.5566C161.233 83.4644 161.15 83.3862 161.054 83.327C160.959 83.2678 160.852 83.2288 160.74 83.2122Z" fill="white"/>
<path d="M162.718 78.8054C161.798 76.7131 161.516 72.6907 161.516 72.6907L160.86 72.6186C160.86 72.6186 159.435 76.4606 157.944 78.2944C157.868 78.3906 157.816 78.5042 157.794 78.625L157.584 80.0801C157.566 80.1748 157.572 80.2723 157.6 80.3644C157.629 80.4565 157.679 80.5404 157.746 80.6092C158.167 81.0048 158.473 81.5079 158.63 82.0642C158.643 82.1865 158.696 82.3011 158.781 82.3902C158.865 82.4794 158.977 82.538 159.099 82.5572L159.742 82.6293L160.391 82.6955C160.519 82.7044 160.646 82.6725 160.754 82.6044C160.862 82.5363 160.946 82.4355 160.993 82.3167C161.307 81.8147 161.743 81.4008 162.261 81.1142C162.343 81.0614 162.413 80.9917 162.466 80.9098C162.519 80.8279 162.554 80.7356 162.568 80.6392L162.778 79.1842C162.797 79.0548 162.776 78.9227 162.718 78.8054Z" fill="white"/>
<path d="M169.272 71.4463C169.192 71.4417 169.112 71.4609 169.042 71.5015C168.972 71.5422 168.916 71.6024 168.881 71.6748L161.822 70.9473L161.865 70.6827L161.101 70.6045L161.065 70.8631L154.006 70.0815C153.993 70.0046 153.955 69.934 153.899 69.88C153.843 69.8259 153.771 69.7912 153.694 69.7808C153.586 69.7754 153.481 69.8109 153.398 69.88C153.316 69.9491 153.262 70.0468 153.249 70.1536C153.239 70.205 153.24 70.2578 153.251 70.3088C153.263 70.3598 153.284 70.4081 153.314 70.4507C153.345 70.4933 153.383 70.5294 153.428 70.5569C153.472 70.5843 153.522 70.6026 153.573 70.6106C153.652 70.6153 153.731 70.5968 153.799 70.5572C153.868 70.5177 153.923 70.4588 153.958 70.3881L159.538 70.9894C158.206 71.3316 157.001 72.0471 156.062 73.0516C155.124 74.056 154.492 75.3076 154.241 76.6591H153.982L153.862 77.4828L154.608 77.561L154.728 76.7312H154.511C155.173 73.4665 157.968 71.0976 161.005 71.2118L160.969 71.4523L161.732 71.5305L161.762 71.29C164.769 71.8191 166.777 74.705 166.488 78.0119H166.296L166.175 78.8416L166.933 78.9198L167.053 78.0901L166.771 78.06C166.931 76.7295 166.679 75.382 166.049 74.1993C165.419 73.0166 164.441 72.0557 163.247 71.4463L168.857 72.0475C168.872 72.1229 168.911 72.1917 168.967 72.2444C169.023 72.2972 169.094 72.3313 169.17 72.3422C169.277 72.3489 169.382 72.3138 169.464 72.2443C169.546 72.1748 169.598 72.0762 169.609 71.9694C169.631 71.9128 169.639 71.8519 169.633 71.7916C169.626 71.7312 169.606 71.6732 169.573 71.6222C169.54 71.5712 169.496 71.5287 169.444 71.4981C169.391 71.4675 169.332 71.4498 169.272 71.4463Z" fill="white"/>
<path opacity="0.2" d="M178.381 72.3903C177.647 75.1981 177.034 77.9879 176.535 80.6935C173.312 78.3306 174.13 72.1979 174.13 72.1979L178.381 72.3903Z" fill="black"/>
<path d="M172.645 50.619C171.49 54.0281 169.945 60.3471 172.086 63.0107C169.927 64.6461 167.15 66.4979 162.977 66.089C158.804 65.6802 159.911 62.9205 161.209 61.5617C165.238 61.1468 165.52 58.2428 165.207 55.429L172.645 50.619Z" fill="#CF7A64"/>
<path opacity="0.2" d="M169.639 52.5851L165.237 55.429C165.323 56.0826 165.349 56.7427 165.316 57.4011C166.837 57.4011 169.104 56.0242 169.47 54.485C169.64 53.8669 169.697 53.2234 169.639 52.5851Z" fill="black"/>
<path d="M163.776 37.945C161.371 39.5142 162.015 46.0377 163.776 46.5247C165.538 47.0118 167.835 35.2634 163.776 37.945Z" fill="#263238"/>
<path d="M175.224 46.6148C173.511 51.0881 172.729 53.7877 169.693 55.405C165.117 57.81 160.145 53.974 160.494 49.0799C160.806 44.6728 163.56 38.1012 168.592 37.6923C169.702 37.5974 170.818 37.7876 171.833 38.2449C172.849 38.7023 173.73 39.4115 174.395 40.3054C175.059 41.1993 175.484 42.2481 175.629 43.3523C175.774 44.4566 175.635 45.5796 175.224 46.6148Z" fill="#CF7A64"/>
<path d="M173.956 50.0417C172.068 50.7572 169.807 50.0958 170.643 49.1278C172.543 46.9092 171.911 44.39 174.449 43.7166C172.41 43.7166 170.937 42.929 168.406 40.6202C166.35 38.7443 162.213 41.2936 161.558 38.0649C161.459 37.573 161.252 37.1094 160.952 36.7079C160.651 36.3064 160.264 35.9771 159.82 35.7441C160.32 35.4518 160.913 35.3662 161.475 35.5054C162.037 35.6447 162.522 35.9979 162.826 36.4896C163.374 37.3254 164.979 35.4374 166.807 34.758C168.899 33.9884 170.883 34.3191 172.068 35.8403C173.619 37.8184 175.513 39.2914 177.431 39.093C180.112 38.8164 181.964 40.7464 180.233 42.8328C183.04 44.8409 178.369 50.4506 173.956 50.0417Z" fill="#263238"/>
<path d="M179.391 42.8989C179.391 42.8989 183.365 43.0673 182.163 39.5921C183.335 41.6964 183.636 43.5302 179.391 42.8989Z" fill="#263238"/>
<path d="M175.813 51.2383C175.087 52.0684 174.063 52.5801 172.963 52.6633C171.526 52.7535 171.16 51.3586 171.869 50.138C172.47 49.0317 173.998 47.6609 175.29 48.1479C176.583 48.6349 176.715 50.2042 175.813 51.2383Z" fill="#CF7A64"/>
<path d="M130.624 200.816L138.494 203.023C138.494 203.023 145.138 174.704 147.513 159.848C148.228 155.332 150.483 149.494 152.419 142.814C154.866 134.397 157.83 125.318 160.235 118.217C162.784 110.738 164.666 105.357 164.666 105.357L147.934 103.12C147.934 103.12 137.171 140.325 135.578 154.971C133.931 170.195 130.624 200.816 130.624 200.816Z" fill="#263238"/>
<path opacity="0.2" d="M152.395 142.826C154.842 134.409 157.806 125.33 160.211 118.229L158.696 114.339C154.217 119.047 152.112 134.397 152.395 142.826Z" fill="black"/>
<path d="M155.906 104.202C155.906 104.202 156.171 145.778 157.319 159.871C158.582 175.305 160.704 205.734 160.704 205.734H169.542C169.542 205.734 170.276 177.662 169.879 162.565C169.422 145.375 173.517 106.547 173.517 106.547L155.906 104.202Z" fill="#263238"/>
<path d="M160.193 205.927H170.601L170.961 202.818L159.345 202.62L160.193 205.927Z" fill="#2161D5"/>
<path d="M129.584 200.738L138.963 203.366L139.811 200.335L129.373 197.239L129.584 200.738Z" fill="#2161D5"/>
<path d="M167.907 45.6948C167.787 46.0615 167.498 46.296 167.258 46.2239C167.017 46.1517 166.909 45.785 167.029 45.4182C167.149 45.0514 167.438 44.817 167.678 44.8831C167.919 44.9492 168.021 45.34 167.907 45.6948Z" fill="#263238"/>
<path d="M163.71 44.3903C163.59 44.7631 163.301 44.9915 163.061 44.9254C162.82 44.8593 162.712 44.4805 162.832 44.1137C162.953 43.747 163.241 43.5125 163.482 43.5786C163.722 43.6448 163.825 44.0175 163.71 44.3903Z" fill="#263238"/>
<path d="M164.985 44.9915C164.185 45.9881 163.253 46.8701 162.213 47.613C162.409 47.8735 162.66 48.088 162.948 48.2417C163.235 48.3954 163.553 48.4845 163.879 48.5028L164.985 44.9915Z" fill="#BA4D3C"/>
<path d="M165.135 49.9877C165.564 50.0683 166.005 50.0609 166.431 49.9658C166.857 49.8707 167.259 49.6899 167.612 49.4345C167.636 49.4154 167.652 49.3876 167.655 49.3571C167.658 49.3267 167.65 49.2961 167.63 49.2722C167.611 49.2483 167.583 49.2329 167.553 49.2296C167.523 49.2262 167.492 49.235 167.468 49.2542C167.072 49.5324 166.615 49.7133 166.136 49.7822C165.656 49.8511 165.167 49.8062 164.708 49.651C164.68 49.6415 164.648 49.6437 164.621 49.6572C164.594 49.6708 164.574 49.6945 164.564 49.7231C164.556 49.7526 164.56 49.7839 164.575 49.8107C164.589 49.8375 164.613 49.8578 164.642 49.8674C164.803 49.9209 164.968 49.9612 165.135 49.9877Z" fill="#263238"/>
<path d="M169.927 44.6126C169.964 44.6246 170.004 44.6246 170.042 44.6126C170.07 44.6032 170.096 44.5882 170.118 44.5684C170.141 44.5487 170.159 44.5246 170.172 44.4977C170.185 44.4708 170.192 44.4415 170.193 44.4117C170.195 44.3818 170.19 44.352 170.18 44.3241C170.066 43.9791 169.871 43.6664 169.612 43.4122C169.352 43.158 169.036 42.9697 168.689 42.863C168.659 42.8559 168.629 42.8546 168.599 42.8592C168.57 42.8639 168.541 42.8743 168.516 42.8899C168.49 42.9056 168.468 42.9261 168.45 42.9504C168.432 42.9746 168.419 43.0022 168.412 43.0314C168.405 43.0606 168.404 43.0909 168.408 43.1206C168.413 43.1503 168.423 43.1788 168.439 43.2045C168.455 43.2302 168.475 43.2526 168.499 43.2703C168.524 43.288 168.551 43.3008 168.58 43.3079C168.855 43.3948 169.104 43.546 169.308 43.7489C169.512 43.9518 169.665 44.2005 169.753 44.4744C169.767 44.5107 169.791 44.5426 169.822 44.5669C169.852 44.5912 169.889 44.6069 169.927 44.6126Z" fill="#263238"/>
<path d="M162.357 42.3762C162.394 42.3818 162.432 42.3787 162.467 42.3672C162.503 42.3557 162.535 42.3362 162.562 42.31C162.752 42.0944 162.991 41.9274 163.259 41.8228C163.526 41.7182 163.815 41.6791 164.101 41.7088C164.131 41.714 164.161 41.7133 164.19 41.7067C164.22 41.7001 164.247 41.6878 164.272 41.6705C164.297 41.6532 164.318 41.6312 164.334 41.6058C164.35 41.5804 164.361 41.552 164.366 41.5224C164.371 41.4928 164.37 41.4624 164.364 41.4331C164.357 41.4038 164.345 41.376 164.327 41.3514C164.31 41.3269 164.288 41.3059 164.263 41.2899C164.237 41.2738 164.209 41.2629 164.179 41.2579C163.82 41.2166 163.455 41.2616 163.117 41.3892C162.778 41.5167 162.474 41.7232 162.231 41.9914C162.21 42.0126 162.193 42.0379 162.181 42.0658C162.17 42.0936 162.164 42.1235 162.164 42.1537C162.164 42.1839 162.17 42.2138 162.181 42.2417C162.193 42.2695 162.21 42.2948 162.231 42.316C162.267 42.3476 162.311 42.3684 162.357 42.3762Z" fill="#263238"/>
<path d="M160.963 212.552C161.391 212.54 161.816 212.482 162.231 212.378C162.254 212.373 162.276 212.362 162.292 212.344C162.308 212.327 162.318 212.305 162.321 212.282C162.327 212.26 162.325 212.237 162.317 212.217C162.308 212.196 162.293 212.179 162.273 212.168C162.105 212.059 160.584 211.103 160.043 211.374C159.983 211.405 159.931 211.452 159.895 211.509C159.858 211.565 159.836 211.631 159.832 211.699C159.815 211.809 159.825 211.921 159.862 212.026C159.899 212.131 159.961 212.225 160.043 212.3C160.312 212.486 160.636 212.576 160.963 212.552ZM161.907 212.216C161.083 212.378 160.452 212.348 160.199 212.126C160.142 212.076 160.1 212.011 160.075 211.94C160.051 211.868 160.046 211.791 160.061 211.717C160.06 211.689 160.066 211.661 160.08 211.636C160.094 211.612 160.114 211.592 160.139 211.578C160.422 211.434 161.293 211.849 161.907 212.24V212.216Z" fill="#2161D5"/>
<path d="M162.207 212.378C162.227 212.384 162.248 212.384 162.267 212.378C162.285 212.367 162.3 212.352 162.31 212.335C162.321 212.317 162.327 212.297 162.327 212.276C162.327 212.216 162.267 210.821 161.726 210.364C161.661 210.307 161.584 210.264 161.501 210.239C161.418 210.214 161.331 210.208 161.245 210.22C161.159 210.221 161.076 210.251 161.009 210.304C160.942 210.357 160.894 210.431 160.872 210.514C160.746 211.055 161.672 212.114 162.159 212.384L162.207 212.378ZM161.311 210.436C161.359 210.435 161.406 210.444 161.451 210.461C161.495 210.479 161.536 210.505 161.57 210.538C161.892 210.977 162.07 211.504 162.081 212.048C161.6 211.669 161.017 210.845 161.089 210.556C161.089 210.526 161.089 210.454 161.263 210.436H161.311Z" fill="#2161D5"/>
<path d="M130.431 207.701C130.452 207.698 130.472 207.69 130.489 207.677C130.506 207.665 130.519 207.648 130.528 207.628C130.54 207.61 130.547 207.588 130.547 207.565C130.547 207.543 130.54 207.521 130.528 207.502C130.341 207.34 128.688 205.921 128.044 206.101C127.983 206.117 127.927 206.149 127.882 206.193C127.837 206.238 127.803 206.293 127.786 206.354C127.748 206.453 127.735 206.559 127.749 206.664C127.762 206.769 127.802 206.869 127.864 206.955C128.267 207.556 129.668 207.682 130.449 207.713L130.431 207.701ZM128.117 206.312C128.501 206.276 129.427 206.913 130.083 207.454C129.006 207.37 128.249 207.141 128.02 206.811C127.982 206.755 127.957 206.691 127.949 206.624C127.94 206.557 127.948 206.489 127.972 206.426C127.977 206.4 127.989 206.377 128.007 206.359C128.026 206.34 128.049 206.328 128.074 206.324L128.117 206.312Z" fill="#2161D5"/>
<path d="M130.431 207.701H130.461C130.481 207.694 130.498 207.682 130.51 207.666C130.523 207.65 130.531 207.631 130.534 207.61C130.534 207.556 130.726 206.264 130.245 205.626C130.178 205.535 130.094 205.457 129.997 205.398C129.9 205.339 129.792 205.3 129.68 205.284C129.367 205.242 129.241 205.374 129.187 205.494C128.976 206.005 129.848 207.298 130.353 207.683C130.364 207.691 130.377 207.697 130.39 207.7C130.404 207.703 130.418 207.703 130.431 207.701ZM129.529 205.5H129.65C129.733 205.511 129.812 205.539 129.884 205.583C129.955 205.626 130.017 205.684 130.065 205.753C130.315 206.244 130.407 206.8 130.329 207.346C129.836 206.859 129.271 205.879 129.397 205.572C129.41 205.549 129.43 205.53 129.453 205.518C129.476 205.505 129.503 205.499 129.529 205.5Z" fill="#2161D5"/>
<path d="M183.209 73.8451C184.008 76.4184 184.634 78.9556 185.193 81.5771C185.457 82.8878 185.722 84.2045 185.914 85.5694C186.145 86.9937 186.28 88.4319 186.317 89.8743C186.317 90.2771 186.317 90.704 186.287 91.173C186.287 91.4255 186.239 91.678 186.191 91.9726C186.135 92.2899 186.059 92.6033 185.962 92.9106C185.582 94.0525 184.904 95.0718 183.996 95.8627C182.652 96.995 181.053 97.785 179.337 98.1655C177.922 98.5138 176.476 98.7153 175.02 98.7667C173.614 98.8286 172.206 98.7702 170.811 98.5923L170.733 94.9849C173.058 94.5 175.33 93.7871 177.515 92.8565C178.308 92.5328 179.021 92.038 179.601 91.4075C179.74 91.197 179.709 91.1008 179.679 91.0948C179.679 91.0948 179.679 90.9986 179.679 90.9265C179.679 90.7461 179.679 90.5236 179.625 90.2771C179.499 89.273 179.271 88.0585 179.024 86.8801C178.778 85.7016 178.465 84.4751 178.152 83.2726L176.24 75.9374L183.209 73.8451Z" fill="#CF7A64"/>
<path d="M178.802 64.8263C181.243 66.2813 183.996 74.9693 183.996 74.9693L176.252 78.8714C176.252 78.8714 174.665 74.9693 173.523 71.7706C171.322 65.65 174.004 61.9583 178.802 64.8263Z" fill="#2161D5"/>
<path d="M172.074 95.2132L167.654 94.3955L168.069 98.472C168.069 98.472 172.482 99.7226 172.639 97.4559L172.074 95.2132Z" fill="#CF7A64"/>
<path d="M163.927 96.3436L165.767 99.3077L168.069 98.472L167.655 94.3955L163.927 96.3436Z" fill="#CF7A64"/>
<g opacity="0.3">
<path opacity="0.3" d="M62.3282 92.6879H62.2741C62.2351 92.6814 62.1978 92.6672 62.1644 92.646C62.131 92.6248 62.1023 92.5971 62.0799 92.5646C62.0574 92.532 62.0418 92.4953 62.0338 92.4566C62.0258 92.4179 62.0258 92.3779 62.0336 92.3392C62.1658 91.6417 62.3041 90.9563 62.4544 90.2649C62.4712 90.1852 62.5189 90.1154 62.5871 90.0708C62.6553 90.0263 62.7385 90.0107 62.8182 90.0274C62.8979 90.0441 62.9677 90.0919 63.0123 90.1601C63.0568 90.2283 63.0724 90.3114 63.0557 90.3912C62.9114 91.0766 62.7731 91.762 62.6408 92.4474C62.6264 92.5185 62.5869 92.5819 62.5294 92.6261C62.472 92.6703 62.4005 92.6923 62.3282 92.6879Z" fill="#2161D5"/>
<path opacity="0.3" d="M63.7351 86.4949H63.663C63.6247 86.4851 63.5886 86.4678 63.557 86.444C63.5254 86.4203 63.4987 86.3905 63.4786 86.3564C63.4585 86.3223 63.4453 86.2846 63.4398 86.2455C63.4343 86.2063 63.4366 86.1664 63.4465 86.1281C63.8073 84.7573 64.2101 83.3804 64.649 82.0276C64.6729 81.9479 64.7276 81.8809 64.8008 81.8414C64.8741 81.802 64.9601 81.7933 65.0398 81.8172C65.1196 81.8411 65.1865 81.8957 65.226 81.969C65.2655 82.0423 65.2742 82.1282 65.2503 82.208C64.8234 83.5488 64.4266 84.9196 64.0478 86.2844C64.0275 86.3499 63.9854 86.4064 63.9285 86.4447C63.8717 86.483 63.8034 86.5007 63.7351 86.4949ZM66.3085 78.384C66.2729 78.3925 66.2358 78.3925 66.2002 78.384C66.1632 78.3707 66.1292 78.3501 66.1003 78.3233C66.0713 78.2966 66.048 78.2644 66.0318 78.2285C66.0155 78.1926 66.0066 78.1538 66.0056 78.1145C66.0046 78.0751 66.0115 78.0359 66.0259 77.9993C66.5129 76.6705 67.042 75.3357 67.6011 74.031C67.6162 73.9948 67.6384 73.962 67.6663 73.9345C67.6942 73.907 67.7273 73.8853 67.7637 73.8708C67.8001 73.8562 67.839 73.849 67.8782 73.8497C67.9174 73.8504 67.9561 73.8589 67.992 73.8747C68.0651 73.9053 68.1231 73.9635 68.1535 74.0367C68.1839 74.1099 68.1842 74.1921 68.1543 74.2655C67.6011 75.5642 67.0781 76.893 66.585 78.2097C66.5613 78.2628 66.5224 78.3077 66.4732 78.3388C66.4239 78.3698 66.3666 78.3855 66.3085 78.384ZM69.6273 70.5679C69.5833 70.5693 69.5397 70.5589 69.5011 70.5378C69.4651 70.5217 69.4329 70.4985 69.4062 70.4695C69.3796 70.4405 69.3592 70.4064 69.3462 70.3692C69.3333 70.3321 69.3281 70.2927 69.3309 70.2534C69.3338 70.2141 69.3446 70.1759 69.3628 70.141C69.964 68.8663 70.6254 67.5857 71.3048 66.3411C71.3231 66.3065 71.3481 66.2759 71.3784 66.251C71.4086 66.2262 71.4435 66.2077 71.481 66.1965C71.5185 66.1853 71.5579 66.1817 71.5968 66.1858C71.6357 66.19 71.6734 66.2019 71.7077 66.2208C71.7431 66.2391 71.7744 66.2644 71.7998 66.2951C71.8251 66.3258 71.844 66.3613 71.8552 66.3995C71.8665 66.4378 71.8698 66.4779 71.8651 66.5174C71.8605 66.557 71.8478 66.5952 71.8279 66.6297C71.1605 67.8623 70.5112 69.1309 69.9039 70.3995C69.8757 70.4472 69.8351 70.4864 69.7864 70.5129C69.7377 70.5393 69.6827 70.5521 69.6273 70.5498V70.5679ZM226.757 60.5331C226.707 60.5324 226.658 60.5195 226.613 60.4954C226.569 60.4713 226.532 60.4367 226.504 60.3948C225.741 59.1923 224.935 58.0439 224.099 56.9015C224.077 56.8697 224.06 56.8336 224.051 56.7954C224.043 56.7572 224.042 56.7176 224.048 56.6789C224.055 56.6403 224.069 56.6034 224.091 56.5704C224.112 56.5374 224.139 56.5089 224.172 56.4867C224.237 56.441 224.317 56.4224 224.395 56.4347C224.474 56.4471 224.545 56.4894 224.592 56.5528C225.416 57.7012 226.228 58.8796 226.997 60.0701C227.04 60.1371 227.055 60.2184 227.038 60.2962C227.021 60.3739 226.974 60.4418 226.907 60.485C226.862 60.5133 226.81 60.5299 226.757 60.5331ZM89.739 43.3855C89.657 43.3831 89.5793 43.3485 89.5226 43.2893C89.4944 43.2614 89.472 43.2281 89.4568 43.1915C89.4415 43.1549 89.4336 43.1156 89.4336 43.0759C89.4336 43.0362 89.4415 42.9969 89.4568 42.9603C89.472 42.9236 89.4944 42.8904 89.5226 42.8624C90.5627 41.9065 91.639 40.9565 92.7212 40.0426C92.7516 40.0173 92.7867 39.9983 92.8244 39.9866C92.8622 39.9749 92.9019 39.9707 92.9412 39.9743C92.9806 39.978 93.0189 39.9893 93.0538 40.0077C93.0888 40.0262 93.1198 40.0513 93.1451 40.0817C93.1703 40.1121 93.1894 40.1472 93.2011 40.1849C93.2128 40.2227 93.2169 40.2623 93.2133 40.3017C93.2097 40.3411 93.1984 40.3793 93.1799 40.4143C93.1615 40.4493 93.1364 40.4803 93.106 40.5056C92.0298 41.4074 90.9656 42.3514 89.9314 43.3013C89.8801 43.3526 89.8114 43.3826 89.739 43.3855ZM96.2385 37.9202C96.1754 37.9202 96.1139 37.9003 96.0627 37.8635C96.0115 37.8266 95.9732 37.7745 95.9533 37.7146C95.9333 37.6548 95.9327 37.5902 95.9515 37.5299C95.9704 37.4697 96.0076 37.4169 96.0581 37.3791C97.1824 36.5133 98.3429 35.6715 99.5033 34.8719C99.5353 34.8439 99.5728 34.8231 99.6134 34.8107C99.6541 34.7984 99.6969 34.7948 99.739 34.8001C99.7812 34.8055 99.8217 34.8197 99.8579 34.8419C99.8942 34.8641 99.9253 34.8937 99.9492 34.9288C99.9732 34.9639 99.9894 35.0036 99.9969 35.0454C100.004 35.0873 100.003 35.1302 99.9926 35.1714C99.9823 35.2126 99.9633 35.2512 99.937 35.2845C99.9107 35.3179 99.8776 35.3453 99.84 35.3649C98.6916 36.1646 97.5432 37.0003 96.4189 37.8541C96.3681 37.8961 96.3044 37.9194 96.2385 37.9202ZM103.219 33.1102C103.167 33.1105 103.116 33.0974 103.071 33.0721C103.025 33.0468 102.987 33.0102 102.96 32.9659C102.92 32.8978 102.907 32.8165 102.925 32.7391C102.943 32.6617 102.99 32.5943 103.057 32.5511C104.259 31.8055 105.492 31.072 106.724 30.3806C106.759 30.3586 106.797 30.3439 106.838 30.3373C106.878 30.3308 106.919 30.3325 106.959 30.3424C106.998 30.3523 107.036 30.3702 107.068 30.395C107.101 30.4198 107.128 30.4509 107.148 30.4865C107.168 30.5221 107.18 30.5614 107.185 30.6021C107.189 30.6427 107.185 30.6838 107.173 30.7228C107.161 30.7619 107.141 30.798 107.115 30.8291C107.088 30.8602 107.055 30.8856 107.019 30.9037C105.816 31.5951 104.566 32.3166 103.375 33.0621C103.325 33.0779 103.271 33.08 103.219 33.0681V33.1102ZM196.208 31.559C196.155 31.5601 196.102 31.5454 196.057 31.5169C194.855 30.8135 193.592 30.128 192.342 29.4847C192.271 29.4465 192.219 29.3823 192.195 29.306C192.172 29.2296 192.179 29.147 192.215 29.0759C192.252 29.0061 192.316 28.9538 192.391 28.9301C192.466 28.9065 192.548 28.9135 192.618 28.9496C193.875 29.599 195.137 30.2904 196.358 30.9999C196.414 31.0333 196.458 31.0843 196.483 31.1451C196.508 31.2059 196.512 31.2731 196.495 31.3364C196.478 31.3998 196.441 31.4559 196.389 31.496C196.337 31.5362 196.273 31.5583 196.208 31.559ZM188.662 27.6569C188.62 27.6652 188.577 27.6652 188.536 27.6569C187.261 27.0557 185.95 26.5085 184.646 25.9795C184.609 25.9649 184.575 25.9432 184.547 25.9157C184.519 25.8881 184.496 25.8553 184.48 25.819C184.465 25.7827 184.457 25.7436 184.456 25.7041C184.455 25.6646 184.463 25.6254 184.477 25.5886C184.508 25.514 184.567 25.4545 184.641 25.423C184.715 25.3915 184.799 25.3905 184.874 25.4203C186.185 25.9554 187.502 26.5206 188.788 27.1098C188.824 27.1266 188.857 27.1503 188.884 27.1797C188.91 27.2091 188.931 27.2436 188.945 27.2811C188.958 27.3185 188.964 27.3583 188.962 27.398C188.96 27.4378 188.95 27.4768 188.933 27.5126C188.905 27.5592 188.865 27.5973 188.818 27.6228C188.77 27.6482 188.716 27.66 188.662 27.6569ZM180.78 24.4763C180.748 24.4821 180.715 24.4821 180.683 24.4763C179.361 24.0134 178.002 23.5745 176.649 23.1716C176.611 23.1613 176.575 23.1433 176.544 23.1188C176.512 23.0942 176.487 23.0636 176.467 23.0288C176.448 22.994 176.436 22.9557 176.433 22.9162C176.429 22.8766 176.433 22.8367 176.445 22.7989C176.468 22.7232 176.52 22.6597 176.59 22.6216C176.659 22.5834 176.741 22.5737 176.817 22.5944C178.182 23.0033 179.547 23.4422 180.882 23.9112C180.962 23.9247 181.033 23.9694 181.079 24.0354C181.126 24.1013 181.145 24.1832 181.131 24.2629C181.118 24.3426 181.073 24.4137 181.007 24.4605C180.941 24.5073 180.859 24.526 180.78 24.5124V24.4763ZM172.627 22.0714H172.555C171.196 21.7347 169.801 21.428 168.418 21.1575C168.379 21.1496 168.343 21.1341 168.31 21.112C168.277 21.0899 168.249 21.0616 168.227 21.0287C168.206 20.9957 168.19 20.9588 168.183 20.92C168.175 20.8813 168.176 20.8414 168.184 20.8027C168.191 20.7643 168.206 20.7276 168.227 20.695C168.249 20.6623 168.276 20.6342 168.309 20.6124C168.341 20.5905 168.378 20.5754 168.416 20.5678C168.454 20.5602 168.494 20.5604 168.532 20.5682C169.927 20.8388 171.328 21.1695 172.699 21.4881C172.738 21.4966 172.774 21.5127 172.806 21.5356C172.839 21.5585 172.866 21.5876 172.887 21.6213C172.907 21.655 172.921 21.6925 172.927 21.7316C172.933 21.7707 172.931 21.8106 172.921 21.8489C172.897 21.9015 172.858 21.946 172.809 21.977C172.76 22.0079 172.703 22.024 172.645 22.0233L172.627 22.0714ZM134.688 20.935C134.608 20.9422 134.529 20.9174 134.468 20.8661C134.406 20.8148 134.368 20.7412 134.36 20.6614C134.353 20.5817 134.378 20.5024 134.429 20.4409C134.481 20.3795 134.554 20.3409 134.634 20.3338C136.023 20.0812 137.436 19.8528 138.843 19.6664C138.882 19.6596 138.922 19.661 138.961 19.6705C139 19.6801 139.036 19.6975 139.068 19.7218C139.099 19.7461 139.126 19.7767 139.145 19.8117C139.164 19.8466 139.176 19.8852 139.179 19.9249C139.19 20.0029 139.169 20.0819 139.122 20.1448C139.075 20.2078 139.005 20.2497 138.927 20.2616C137.526 20.448 136.119 20.6705 134.718 20.923L134.688 20.935ZM164.288 20.436H164.227C162.845 20.2315 161.432 20.0572 160.019 19.9129C159.979 19.9089 159.941 19.8972 159.906 19.8785C159.871 19.8597 159.84 19.8343 159.815 19.8036C159.79 19.7729 159.771 19.7375 159.759 19.6995C159.748 19.6615 159.744 19.6217 159.748 19.5822C159.752 19.5427 159.764 19.5044 159.782 19.4694C159.801 19.4345 159.827 19.4036 159.857 19.3784C159.888 19.3533 159.923 19.3345 159.961 19.323C159.999 19.3116 160.039 19.3077 160.079 19.3116C161.492 19.4499 162.917 19.6243 164.288 19.8347C164.365 19.8466 164.435 19.8886 164.483 19.9515C164.53 20.0145 164.55 20.0934 164.54 20.1714C164.523 20.228 164.49 20.2785 164.446 20.3169C164.401 20.3552 164.346 20.3799 164.288 20.3879V20.436ZM143.106 19.8347C143.026 19.8347 142.949 19.803 142.893 19.7467C142.837 19.6903 142.805 19.6138 142.805 19.5341C142.805 19.4544 142.837 19.3779 142.893 19.3215C142.949 19.2651 143.026 19.2335 143.106 19.2335C144.507 19.1132 145.937 19.023 147.356 18.9689C147.435 18.9687 147.511 18.9983 147.569 19.0518C147.627 19.1054 147.663 19.1788 147.669 19.2575C147.671 19.3368 147.642 19.4137 147.588 19.472C147.534 19.5304 147.46 19.5655 147.38 19.5702C145.968 19.6243 144.549 19.7145 143.172 19.8347H143.106ZM155.84 19.6243C154.439 19.5461 153.014 19.504 151.631 19.498C151.552 19.498 151.475 19.4663 151.419 19.41C151.362 19.3536 151.331 19.2771 151.331 19.1974C151.331 19.1177 151.362 19.0412 151.419 18.9848C151.475 18.9284 151.552 18.8968 151.631 18.8968C153.044 18.8968 154.475 18.9449 155.888 19.023C155.928 19.0246 155.966 19.0339 156.002 19.0505C156.038 19.067 156.07 19.0905 156.097 19.1195C156.124 19.1486 156.145 19.1826 156.158 19.2197C156.172 19.2568 156.178 19.2962 156.177 19.3357C156.155 19.405 156.109 19.4642 156.047 19.5028C155.985 19.5413 155.912 19.5567 155.84 19.5461V19.6243Z" fill="#2161D5"/>
<path opacity="0.3" d="M230.016 65.9982C229.962 65.999 229.91 65.9854 229.863 65.959C229.817 65.9326 229.778 65.8942 229.751 65.8479C229.414 65.2467 229.066 64.6454 228.711 64.0442C228.67 63.9748 228.659 63.8921 228.679 63.8143C228.699 63.7365 228.75 63.67 228.819 63.6293C228.889 63.5887 228.971 63.5772 229.049 63.5975C229.127 63.6178 229.193 63.6682 229.234 63.7375C229.589 64.3388 229.938 64.94 230.274 65.5713C230.294 65.6055 230.307 65.6434 230.312 65.6827C230.318 65.722 230.315 65.7619 230.304 65.8001C230.293 65.8382 230.275 65.8739 230.25 65.9048C230.226 65.9358 230.195 65.9614 230.16 65.9802C230.114 65.9972 230.065 66.0034 230.016 65.9982Z" fill="#2161D5"/>
</g>
<path d="M115.881 22.9797C116.35 23.4667 116.807 24.4407 117.084 26.3166C115.605 25.7154 114.078 24.0078 114.023 23.0579C114.023 22.8354 114.066 22.5288 114.679 22.4867H114.793C114.999 22.4879 115.202 22.5325 115.39 22.6174C115.577 22.7023 115.745 22.8258 115.881 22.9797Z" fill="#2161D5"/>
<path d="M119.344 25.685C119.096 25.2257 118.935 24.7241 118.869 24.2059C118.647 22.5405 119.164 20.9051 119.405 20.8089C119.405 20.8089 119.687 20.9832 119.765 22.6487C119.875 23.68 119.73 24.7223 119.344 25.685Z" fill="#2161D5"/>
<path d="M121.797 38.4076H117.18V38.2573C117.727 33.3932 117.859 29.6053 117.577 26.9178C117.761 26.9535 117.949 26.9656 118.136 26.9538C118.59 26.9432 119.021 26.7555 119.338 26.4308C119.82 26.9352 120.481 27.2309 121.178 27.2545C121.378 27.274 121.579 27.274 121.779 27.2545C120.974 31.1445 120.805 36.1709 121.797 38.4076Z" fill="#2161D5"/>
<path d="M124.491 24.4046C124.389 24.9561 124.132 25.4673 123.751 25.8791C123.37 26.2909 122.881 26.5864 122.339 26.7314C122.571 25.5406 122.976 24.3901 123.541 23.3163C123.83 22.8173 124.07 22.6489 124.209 22.6489H124.263C124.491 22.7511 124.702 23.4847 124.491 24.4046Z" fill="#2161D5"/>
<path d="M131.496 20.2197C131.378 23.7587 130.215 27.1836 128.153 30.0621C126.72 32.1003 125.733 34.4172 125.255 36.8622C125.163 37.3002 124.922 37.6929 124.574 37.9735C124.225 38.2541 123.79 38.4053 123.343 38.4014H122.29C121.232 36.3812 121.425 31.1323 122.242 27.1942C122.909 27.0666 123.523 26.7416 124.003 26.2613C124.483 25.7811 124.808 25.1677 124.936 24.5006C125.17 23.4244 124.936 22.4564 124.425 22.2399C124.142 22.1317 123.691 22.1858 123.162 23.0816C122.549 24.249 122.113 25.5014 121.87 26.7973C121.654 26.8188 121.436 26.8188 121.22 26.7973C120.92 26.7883 120.625 26.7187 120.352 26.5926C120.079 26.4666 119.835 26.2867 119.633 26.0638C120.042 25.4265 120.3 24.3563 120.234 22.6067C120.162 21.0675 119.916 20.352 119.447 20.352C118.779 20.352 118.43 22.0295 118.406 23.1538C118.332 24.1719 118.573 25.1882 119.098 26.0638C118.978 26.1944 118.833 26.2999 118.672 26.3742C118.511 26.4485 118.337 26.4902 118.16 26.4967C117.958 26.503 117.756 26.4849 117.559 26.4426C117.324 24.6088 116.873 23.3402 116.218 22.6548C116.02 22.4421 115.777 22.2774 115.506 22.1732C115.235 22.069 114.944 22.0281 114.655 22.0535C113.645 22.1197 113.572 22.8051 113.59 23.0877C113.663 24.2541 115.394 26.2442 117.156 26.8094C117.414 29.1542 117.39 32.7437 116.777 38.233V38.4315H115.887C115.439 38.4368 115.002 38.2862 114.652 38.0055C114.303 37.7248 114.061 37.3313 113.969 36.8923C113.486 34.4344 112.488 32.1066 111.041 30.0621C108.983 27.1822 107.824 23.7574 107.71 20.2197C107.78 17.1095 109.065 14.1502 111.289 11.9753C113.514 9.80037 116.501 8.58257 119.612 8.58257C122.723 8.58257 125.71 9.80037 127.935 11.9753C130.159 14.1502 131.444 17.1095 131.514 20.2197H131.496Z" fill="#2161D5"/>
<path opacity="0.6" d="M123.283 39.0927H115.899C115.634 39.0927 115.418 39.3081 115.418 39.5737V40.9506C115.418 41.2162 115.634 41.4316 115.899 41.4316H123.283C123.548 41.4316 123.764 41.2162 123.764 40.9506V39.5737C123.764 39.3081 123.548 39.0927 123.283 39.0927Z" fill="#2161D5"/>
<path opacity="0.3" d="M123.283 42.2251H115.899C115.634 42.2251 115.418 42.4405 115.418 42.7061V44.083C115.418 44.3486 115.634 44.564 115.899 44.564H123.283C123.548 44.564 123.764 44.3486 123.764 44.083V42.7061C123.764 42.4405 123.548 42.2251 123.283 42.2251Z" fill="#2161D5"/>
<path d="M222.538 33.8446L201.046 31.1258C199.784 30.9661 198.632 31.8596 198.472 33.1213L196.228 50.861C196.069 52.1227 196.962 53.2749 198.224 53.4346L219.715 56.1534C220.977 56.313 222.129 55.4196 222.289 54.1578L224.533 36.4182C224.693 35.1564 223.799 34.0042 222.538 33.8446Z" fill="#2161D5"/>
<path opacity="0.8" d="M222.946 33.5314L201.455 30.8126C200.193 30.653 199.041 31.5464 198.881 32.8081L196.637 50.5478C196.477 51.8095 197.371 52.9618 198.633 53.1214L220.124 55.8402C221.386 55.9998 222.538 55.1064 222.698 53.8447L224.942 36.105C225.102 34.8433 224.208 33.691 222.946 33.5314Z" fill="white"/>
<path d="M222.945 33.5436L201.451 30.8199C201.151 30.782 200.846 30.8036 200.554 30.8834C200.263 30.9632 199.989 31.0996 199.751 31.285C199.512 31.4704 199.311 31.701 199.162 31.9637C199.012 32.2264 198.915 32.516 198.877 32.8161L198.565 35.2872C198.547 35.4422 198.591 35.5978 198.686 35.7212C198.782 35.8446 198.921 35.9261 199.076 35.9486L223.967 39.0991C224.122 39.1163 224.278 39.0726 224.401 38.9773C224.525 38.8819 224.606 38.7423 224.629 38.588L224.941 36.1169C224.979 35.8169 224.958 35.5123 224.878 35.2206C224.798 34.9289 224.662 34.6558 224.476 34.4168C224.291 34.1778 224.06 33.9777 223.798 33.8279C223.535 33.6781 223.245 33.5815 222.945 33.5436Z" fill="#2161D5"/>
<path opacity="0.6" d="M208.103 39.2776L204.941 38.8776L204.541 42.039L207.703 42.439L208.103 39.2776Z" fill="#2161D5"/>
<path opacity="0.6" d="M211.884 40.6554L208.729 40.2412L208.315 43.3959L211.47 43.8102L211.884 40.6554Z" fill="#2161D5"/>
<path opacity="0.6" d="M217.2 40.4282L214.039 40.0283L213.639 43.1897L216.8 43.5896L217.2 40.4282Z" fill="#2161D5"/>
<path opacity="0.6" d="M221.751 41.0069L218.59 40.607L218.19 43.7684L221.351 44.1683L221.751 41.0069Z" fill="#2161D5"/>
<path opacity="0.6" d="M203.005 43.0452L199.844 42.6452L199.444 45.8067L202.605 46.2066L203.005 43.0452Z" fill="#2161D5"/>
<path opacity="0.6" d="M207.556 43.6238L204.395 43.2238L203.995 46.3853L207.156 46.7852L207.556 43.6238Z" fill="#2161D5"/>
<path opacity="0.6" d="M212.102 44.1955L208.94 43.7955L208.54 46.9569L211.702 47.3569L212.102 44.1955Z" fill="#2161D5"/>
<path opacity="0.6" d="M216.653 44.7682L213.492 44.3683L213.092 47.5297L216.254 47.9296L216.653 44.7682Z" fill="#2161D5"/>
<path opacity="0.6" d="M221.205 45.3468L218.043 44.9469L217.643 48.1083L220.805 48.5082L221.205 45.3468Z" fill="#2161D5"/>
<path opacity="0.6" d="M201.676 48.1228L198.521 47.7086L198.107 50.8633L201.262 51.2776L201.676 48.1228Z" fill="#2161D5"/>
<path opacity="0.6" d="M207.004 47.9631L203.842 47.5631L203.442 50.7245L206.604 51.1245L207.004 47.9631Z" fill="#2161D5"/>
<path opacity="0.6" d="M211.549 48.5417L208.388 48.1417L207.988 51.3031L211.149 51.7031L211.549 48.5417Z" fill="#2161D5"/>
<path d="M221.442 36.0747C221.265 36.0452 221.105 35.9506 220.994 35.8094C220.882 35.6681 220.828 35.4904 220.841 35.3111L220.991 33.309C220.995 33.2202 221.018 33.1333 221.058 33.0537C221.097 32.9742 221.153 32.9039 221.222 32.8473C221.29 32.7907 221.37 32.749 221.455 32.725C221.541 32.7009 221.631 32.6951 221.719 32.7077C221.895 32.7385 222.055 32.8335 222.166 32.9744C222.276 33.1153 222.331 33.2923 222.32 33.4713L222.17 35.4735C222.165 35.5619 222.141 35.6484 222.101 35.7275C222.061 35.8066 222.005 35.8765 221.937 35.933C221.869 35.9894 221.79 36.0311 221.704 36.0555C221.619 36.0799 221.53 36.0865 221.442 36.0747Z" fill="white"/>
<path d="M217.822 35.6058C217.646 35.575 217.487 35.48 217.376 35.3391C217.265 35.1982 217.21 35.0212 217.221 34.8422L217.372 32.84C217.377 32.7516 217.4 32.6651 217.44 32.586C217.48 32.5069 217.536 32.437 217.604 32.3805C217.672 32.3241 217.752 32.2824 217.837 32.258C217.922 32.2336 218.011 32.227 218.099 32.2388C218.276 32.2683 218.436 32.3629 218.548 32.5041C218.659 32.6454 218.713 32.8231 218.7 33.0024L218.55 35.0045C218.545 35.093 218.522 35.1795 218.482 35.2585C218.442 35.3376 218.386 35.4075 218.318 35.464C218.249 35.5204 218.17 35.5622 218.085 35.5866C218 35.611 217.91 35.6175 217.822 35.6058Z" fill="white"/>
<path d="M214.209 35.1487C214.026 35.1233 213.86 35.03 213.743 34.8874C213.626 34.7447 213.567 34.5633 213.578 34.3791L213.728 32.377C213.734 32.2888 213.758 32.2028 213.798 32.1241C213.838 32.0455 213.894 31.9759 213.962 31.9196C214.03 31.8633 214.109 31.8215 214.194 31.7968C214.279 31.7721 214.368 31.7649 214.456 31.7757C214.632 31.809 214.791 31.9055 214.901 32.0471C215.012 32.1888 215.067 32.3659 215.057 32.5453L214.907 34.5475C214.9 34.6328 214.878 34.7161 214.839 34.7926C214.801 34.8691 214.748 34.9372 214.683 34.9931C214.618 35.049 214.543 35.0915 214.461 35.1182C214.38 35.1449 214.294 35.1553 214.209 35.1487Z" fill="white"/>
<path d="M210.59 34.6919C210.412 34.6611 210.252 34.5652 210.141 34.423C210.03 34.2808 209.975 34.1023 209.988 33.9223L210.139 31.9202C210.144 31.8317 210.167 31.7452 210.207 31.6662C210.247 31.5871 210.303 31.5171 210.371 31.4607C210.439 31.4043 210.519 31.3625 210.604 31.3381C210.689 31.3137 210.778 31.3072 210.866 31.3189C211.044 31.3498 211.204 31.4456 211.315 31.5879C211.426 31.7301 211.48 31.9085 211.467 32.0885L211.317 34.0907C211.312 34.1791 211.289 34.2656 211.249 34.3447C211.209 34.4238 211.153 34.4937 211.085 34.5502C211.016 34.6066 210.937 34.6483 210.852 34.6727C210.767 34.6971 210.677 34.7037 210.59 34.6919Z" fill="white"/>
<path d="M206.97 34.2347C206.792 34.2039 206.632 34.108 206.521 33.9658C206.41 33.8236 206.356 33.6451 206.369 33.4651L206.519 31.463C206.524 31.3745 206.547 31.288 206.587 31.209C206.627 31.1299 206.683 31.06 206.752 31.0035C206.82 30.9471 206.899 30.9053 206.984 30.8809C207.07 30.8565 207.159 30.85 207.247 30.8617C207.424 30.8926 207.584 30.9884 207.696 31.1307C207.807 31.2729 207.861 31.4513 207.848 31.6313L207.698 33.6696C207.688 33.7549 207.661 33.8374 207.619 33.9123C207.577 33.9871 207.521 34.0529 207.453 34.1055C207.385 34.1582 207.308 34.1968 207.225 34.219C207.142 34.2411 207.055 34.2465 206.97 34.2347Z" fill="white"/>
<path d="M203.356 33.7779C203.171 33.7553 203.001 33.6634 202.881 33.5207C202.76 33.3779 202.698 33.1948 202.707 33.0083L202.857 31.0061C202.863 30.918 202.887 30.8319 202.927 30.7533C202.968 30.6747 203.024 30.6051 203.092 30.5488C203.16 30.4925 203.239 30.4507 203.323 30.426C203.408 30.4012 203.497 30.394 203.585 30.4049C203.768 30.4303 203.934 30.5236 204.051 30.6662C204.168 30.8088 204.227 30.9903 204.216 31.1745L204.066 33.1706C204.061 33.2576 204.038 33.3426 203.999 33.4206C203.96 33.4987 203.906 33.5681 203.84 33.6247C203.774 33.6814 203.697 33.7242 203.614 33.7505C203.531 33.7768 203.443 33.7861 203.356 33.7779Z" fill="white"/>
<path d="M244.055 103.547L242.239 103.27L242.347 102.543L243.436 102.711L243.604 101.617L244.331 101.731L244.055 103.547Z" fill="#2161D5"/>
<path d="M239.546 102.855L236.858 102.446L236.972 101.719L239.66 102.134L239.546 102.855ZM234.17 102.038L231.477 101.623L231.591 100.895L234.279 101.31L234.17 102.038ZM228.789 101.214L226.102 100.799L226.21 100.077L228.897 100.486L228.789 101.214ZM223.408 100.408L220.721 99.9933L220.829 99.2718L223.522 99.6806L223.408 100.408Z" fill="#2161D5"/>
<path d="M218.033 99.5663L216.211 99.2897L216.494 97.4739L217.215 97.5821L217.053 98.6764L218.141 98.8387L218.033 99.5663Z" fill="#2161D5"/>
<path d="M217.63 94.8945L216.903 94.7802L217.318 92.0927L218.039 92.2069L217.63 94.8945ZM218.454 89.4833L217.738 89.4051L218.147 86.7115L218.875 86.8258L218.454 89.4833ZM219.278 84.1021L218.55 83.9939L218.959 81.3063L219.686 81.4146L219.278 84.1021ZM220.095 78.727L219.374 78.6127L219.783 75.9252L220.51 76.0334L220.095 78.727Z" fill="#2161D5"/>
<path d="M220.919 73.3761L220.197 73.2619L220.474 71.4521L222.29 71.7287L222.176 72.4562L221.087 72.2878L220.919 73.3761Z" fill="#2161D5"/>
<path d="M243.694 75.7567L241.007 75.3478L241.115 74.6203L243.808 75.0291L243.694 75.7567ZM238.313 74.933L235.625 74.5241L235.74 73.7966L238.427 74.2054L238.313 74.933ZM232.938 74.1092L230.244 73.7004L230.358 72.9729L233.046 73.3878L232.938 74.1092ZM227.557 73.2915L224.869 72.8767L224.953 72.1492L227.641 72.564L227.557 73.2915Z" fill="#2161D5"/>
<path d="M248.035 77.5246L247.308 77.4103L247.476 76.3221L246.382 76.1537L246.496 75.4323L248.312 75.7088L248.035 77.5246Z" fill="#2161D5"/>
<path d="M244.74 99.0433L244.019 98.929L244.428 96.2415L245.155 96.3497L244.74 99.0433ZM245.564 93.6621L244.837 93.5479L245.251 90.8603L245.979 90.9746L245.564 93.6621ZM246.388 88.281L245.66 88.1728L246.075 85.4792L246.797 85.5934L246.388 88.281ZM247.211 82.9058L246.484 82.7916L246.899 80.104L247.62 80.2123L247.211 82.9058Z" fill="#2161D5"/>
<path d="M222.536 70.5815L219.469 70.1123L219 73.179L222.067 73.6483L222.536 70.5815Z" fill="white"/>
<path d="M222.386 74.0555L218.592 73.4542L219.193 69.6664L222.987 70.2676L222.386 74.0555ZM219.434 72.853L221.773 73.2137L222.128 70.8689L219.789 70.5141L219.434 72.853Z" fill="#2161D5"/>
<path d="M249.651 74.7309L246.584 74.2616L246.114 77.3283L249.181 77.7976L249.651 74.7309Z" fill="white"/>
<path d="M249.496 78.204L245.708 77.6028L246.31 73.8089L250.103 74.4101L249.496 78.204ZM246.544 77.0015L248.883 77.3562L249.244 75.0174L246.899 74.6627L246.544 77.0015Z" fill="#2161D5"/>
<path d="M218.386 97.6964L215.319 97.2271L214.85 100.294L217.916 100.763L218.386 97.6964Z" fill="white"/>
<path d="M218.237 101.165L214.45 100.564L215.051 96.7702L218.845 97.3715L218.237 101.165ZM215.285 99.9629L217.624 100.324L217.985 97.9848L215.64 97.624L215.285 99.9629Z" fill="#2161D5"/>
<path d="M245.507 101.84L242.44 101.371L241.971 104.438L245.038 104.907L245.507 101.84Z" fill="white"/>
<path d="M245.354 105.314L241.56 104.713L242.161 100.919L245.955 101.52L245.354 105.314ZM242.395 104.112L244.734 104.473L245.095 102.134L242.756 101.773L242.395 104.112Z" fill="#2161D5"/>
<path d="M220.467 84.1389L217.4 83.6697L216.931 86.7364L219.997 87.2057L220.467 84.1389Z" fill="#2161D5"/>
<path d="M247.569 88.2941L244.503 87.8248L244.033 90.8916L247.1 91.3608L247.569 88.2941Z" fill="#2161D5"/>
<path d="M235.617 75.7015L236.086 72.6348L233.02 72.1655L232.55 75.2323L235.617 75.7015Z" fill="#2161D5"/>
<path d="M231.47 102.81L231.939 99.7434L228.873 99.2742L228.403 102.341L231.47 102.81Z" fill="#2161D5"/>
<path d="M232.397 83.7594L225.092 89.1285C224.559 89.5184 224.175 90.0773 224.001 90.714C223.827 91.3507 223.875 92.0275 224.136 92.6338L223.492 93.1027C223.421 93.1552 223.36 93.2213 223.314 93.2971C223.269 93.373 223.238 93.4572 223.225 93.5448C223.211 93.6325 223.215 93.7219 223.236 93.808C223.258 93.8941 223.295 93.9752 223.348 94.0467C223.4 94.1181 223.467 94.1785 223.542 94.2245C223.618 94.2704 223.702 94.3009 223.79 94.3143C223.878 94.3277 223.967 94.3237 224.053 94.3026C224.139 94.2814 224.22 94.2435 224.292 94.191L224.935 93.722C225.434 94.1459 226.062 94.3895 226.716 94.4135C227.37 94.4375 228.014 94.2405 228.543 93.8543L235.854 88.4851L232.397 83.7594Z" fill="#2161D5"/>
<path opacity="0.6" d="M232.397 83.7594L225.092 89.1285C224.559 89.5184 224.175 90.0773 224.001 90.714C223.827 91.3507 223.875 92.0275 224.136 92.6338L223.492 93.1027C223.421 93.1552 223.36 93.2213 223.314 93.2971C223.269 93.373 223.238 93.4572 223.225 93.5448C223.211 93.6325 223.215 93.7219 223.236 93.808C223.258 93.8941 223.295 93.9752 223.348 94.0467C223.4 94.1181 223.467 94.1785 223.542 94.2245C223.618 94.2704 223.702 94.3009 223.79 94.3143C223.878 94.3277 223.967 94.3237 224.053 94.3026C224.139 94.2814 224.22 94.2435 224.292 94.191L224.935 93.722C225.434 94.1459 226.062 94.3895 226.716 94.4135C227.37 94.4375 228.014 94.2405 228.543 93.8543L235.854 88.4851L232.397 83.7594Z" fill="white"/>
<path d="M237.213 87.9502L236.996 87.6556L239.87 85.5512C240.498 85.0904 240.916 84.3992 241.034 83.6296C241.152 82.86 240.959 82.0752 240.498 81.4477C240.038 80.8202 239.346 80.4015 238.577 80.2837C237.807 80.1659 237.022 80.3586 236.395 80.8194L233.527 82.9298L233.311 82.6412C233.126 82.4232 232.866 82.2836 232.582 82.2506C232.298 82.2176 232.013 82.2937 231.783 82.4636C231.554 82.6334 231.398 82.8842 231.346 83.1651C231.295 83.446 231.352 83.7359 231.507 83.976L235.403 89.285C235.593 89.4852 235.849 89.609 236.124 89.6331C236.399 89.6572 236.673 89.5798 236.895 89.4157C237.117 89.2515 237.271 89.0119 237.329 88.7419C237.386 88.472 237.343 88.1904 237.207 87.9502H237.213Z" fill="#2161D5"/>
<path d="M87.0876 70.2677C86.5842 70.9298 85.8386 71.3651 85.0145 71.4778C84.1904 71.5906 83.3552 71.3716 82.6925 70.8689L59.4664 53.3727L63.2482 48.3583L86.4683 65.8726C86.7982 66.12 87.076 66.4301 87.2858 66.7852C87.4956 67.1402 87.6332 67.5332 87.6907 67.9415C87.7482 68.3499 87.7246 68.7656 87.6211 69.1647C87.5176 69.5639 87.3363 69.9387 87.0876 70.2677Z" fill="#2161D5"/>
<path opacity="0.8" d="M87.0876 70.2677C86.5842 70.9298 85.8386 71.3651 85.0145 71.4778C84.1904 71.5906 83.3552 71.3716 82.6925 70.8689L59.4664 53.3727L63.2482 48.3583L86.4683 65.8726C86.7982 66.12 87.076 66.4301 87.2858 66.7852C87.4956 67.1402 87.6332 67.5332 87.6907 67.9415C87.7482 68.3499 87.7246 68.7656 87.6211 69.1647C87.5176 69.5639 87.3363 69.9387 87.0876 70.2677Z" fill="white"/>
<path d="M64.5668 49.3548L60.7874 54.3665L64.359 57.0598L68.1383 52.0481L64.5668 49.3548Z" fill="#2161D5"/>
<path opacity="0.3" d="M64.5668 49.3548L60.7874 54.3665L64.359 57.0598L68.1383 52.0481L64.5668 49.3548Z" fill="white"/>
<path opacity="0.8" d="M68.6468 52.4342L64.8675 57.4459L68.4391 60.1392L72.2184 55.1275L68.6468 52.4342Z" fill="#2161D5"/>
<path opacity="0.3" d="M68.6468 52.4342L64.8675 57.4459L68.4391 60.1392L72.2184 55.1275L68.6468 52.4342Z" fill="white"/>
<path opacity="0.6" d="M72.727 55.5134L68.9477 60.5252L72.5193 63.2185L76.2986 58.2068L72.727 55.5134Z" fill="#2161D5"/>
<path opacity="0.3" d="M72.727 55.5134L68.9477 60.5252L72.5193 63.2185L76.2986 58.2068L72.727 55.5134Z" fill="white"/>
<path opacity="0.4" d="M76.8132 58.5865L73.0338 63.5982L76.6054 66.2916L80.3847 61.2798L76.8132 58.5865Z" fill="#2161D5"/>
<path opacity="0.3" d="M76.8132 58.5865L73.0338 63.5982L76.6054 66.2916L80.3847 61.2798L76.8132 58.5865Z" fill="white"/>
<path d="M86.4803 65.9686C85.7826 66.422 84.9334 66.5798 84.1194 66.4073C83.3053 66.2348 82.5931 65.7461 82.1393 65.0487L66.3025 40.6441L71.5694 37.229L87.4062 61.6276C87.6305 61.9734 87.7844 62.36 87.8592 62.7653C87.9341 63.1706 87.9283 63.5867 87.8423 63.9898C87.7564 64.3929 87.5918 64.7752 87.3581 65.1147C87.1244 65.4542 86.8261 65.7443 86.4803 65.9686Z" fill="#2161D5"/>
<path opacity="0.7" d="M86.4803 65.9686C85.7826 66.422 84.9334 66.5798 84.1194 66.4073C83.3053 66.2348 82.5931 65.7461 82.1393 65.0487L66.3025 40.6441L71.5694 37.229L87.4062 61.6276C87.6305 61.9734 87.7844 62.36 87.8592 62.7653C87.9341 63.1706 87.9283 63.5867 87.8423 63.9898C87.7564 64.3929 87.5918 64.7752 87.3581 65.1147C87.1244 65.4542 86.8261 65.7443 86.4803 65.9686Z" fill="white"/>
<path d="M72.4668 38.6181L67.2012 42.0349L69.6362 45.7874L74.9018 42.3705L72.4668 38.6181Z" fill="#2161D5"/>
<path opacity="0.8" d="M75.2476 42.9052L69.9821 46.3221L72.4171 50.0745L77.6826 46.6577L75.2476 42.9052Z" fill="#2161D5"/>
<path opacity="0.6" d="M78.0378 47.1979L72.7723 50.6148L75.2073 54.3672L80.4728 50.9504L78.0378 47.1979Z" fill="#2161D5"/>
<path opacity="0.4" d="M80.8185 51.485L75.553 54.9018L77.988 58.6543L83.2535 55.2374L80.8185 51.485Z" fill="#2161D5"/>
<path d="M88.26 64.5017C87.4484 64.6871 86.5965 64.543 85.8909 64.1012C85.1854 63.6594 84.6838 62.9559 84.4962 62.1448L77.9667 33.8021L84.0813 32.3891L90.6169 60.7259C90.7105 61.1286 90.7237 61.5458 90.6558 61.9536C90.588 62.3614 90.4404 62.7518 90.2214 63.1025C90.0025 63.4532 89.7166 63.7573 89.38 63.9974C89.0435 64.2375 88.6629 64.4089 88.26 64.5017Z" fill="#2161D5"/>
<path opacity="0.6" d="M88.26 64.5017C87.4484 64.6871 86.5965 64.543 85.8909 64.1012C85.1854 63.6594 84.6838 62.9559 84.4962 62.1448L77.9667 33.8021L84.0813 32.3891L90.6169 60.7259C90.7105 61.1286 90.7237 61.5458 90.6558 61.9536C90.588 62.3614 90.4404 62.7518 90.2214 63.1025C90.0025 63.4532 89.7166 63.7573 89.38 63.9974C89.0435 64.2375 88.6629 64.4089 88.26 64.5017Z" fill="white"/>
<path d="M84.4562 34.0013L78.3395 35.4112L79.3443 39.7702L85.4609 38.3603L84.4562 34.0013Z" fill="#2161D5"/>
<path opacity="0.4" d="M84.4562 34.0013L78.3395 35.4112L79.3443 39.7702L85.4609 38.3603L84.4562 34.0013Z" fill="#263238"/>
<path opacity="0.8" d="M85.6004 38.9852L79.4838 40.3951L80.4885 44.754L86.6051 43.3441L85.6004 38.9852Z" fill="#2161D5"/>
<path opacity="0.4" d="M85.6004 38.9852L79.4838 40.3951L80.4885 44.754L86.6051 43.3441L85.6004 38.9852Z" fill="#263238"/>
<path opacity="0.6" d="M86.7507 43.969L80.6341 45.3789L81.6388 49.7379L87.7555 48.328L86.7507 43.969Z" fill="#2161D5"/>
<path opacity="0.4" d="M86.7507 43.969L80.6341 45.3789L81.6388 49.7379L87.7555 48.328L86.7507 43.969Z" fill="#263238"/>
<path opacity="0.4" d="M87.8997 48.947L81.7831 50.3569L82.7878 54.7159L88.9044 53.306L87.8997 48.947Z" fill="#2161D5"/>
<path opacity="0.4" d="M87.8997 48.947L81.7831 50.3569L82.7878 54.7159L88.9044 53.306L87.8997 48.947Z" fill="#263238"/>
<path d="M53.8207 98.8026L51.1271 99.0972C50.8812 99.1245 50.6559 99.2478 50.5005 99.4404C50.3451 99.633 50.2721 99.8792 50.2974 100.125C50.3261 100.37 50.4501 100.594 50.6425 100.748C50.8349 100.902 51.0803 100.974 51.3255 100.949L54.0251 100.66C54.2693 100.63 54.4921 100.506 54.646 100.314C54.7998 100.122 54.8726 99.8773 54.8488 99.6323C54.8216 99.3864 54.6982 99.1611 54.5056 99.0057C54.3131 98.8503 54.0669 98.7773 53.8207 98.8026Z" fill="#263238"/>
<path d="M65.6232 96.2775L58.8291 97.017C58.6545 97.0349 58.4908 97.11 58.3636 97.2308C58.2363 97.3515 58.1526 97.511 58.1256 97.6844L57.7228 100.408L67.4028 99.3559L66.4228 96.7705C66.3578 96.615 66.2457 96.4838 66.1023 96.3954C65.9588 96.3069 65.7913 96.2657 65.6232 96.2775Z" fill="#2161D5"/>
<path d="M69.218 98.1823L49.0327 100.375C47.4383 100.548 46.2861 101.981 46.4593 103.576L47.6775 114.789C47.8507 116.384 49.2837 117.536 50.8782 117.363L71.0635 115.17C72.6579 114.997 73.8101 113.564 73.6369 111.969L72.4187 100.756C72.2455 99.1613 70.8125 98.0091 69.218 98.1823Z" fill="#2161D5"/>
<path opacity="0.1" d="M53.0803 102.861L48.9494 103.32L50.044 113.171L54.1749 112.712L53.0803 102.861Z" fill="black"/>
<g opacity="0.8">
<path opacity="0.8" d="M69.2305 98.1896L49.0287 100.408C48.2631 100.494 47.5626 100.88 47.0795 101.48C46.5965 102.08 46.37 102.846 46.4493 103.613L72.4111 100.793C72.3321 100.027 71.9534 99.3234 71.3575 98.8356C70.7616 98.3479 69.997 98.1156 69.2305 98.1896Z" fill="white"/>
<path opacity="0.8" d="M50.8745 117.369L71.0343 115.181C71.7994 115.095 72.4994 114.709 72.9815 114.109C73.4636 113.509 73.6887 112.742 73.6076 111.976L47.6519 114.796C47.6945 115.177 47.8116 115.545 47.9967 115.88C48.1817 116.216 48.431 116.511 48.7302 116.75C49.0295 116.989 49.3729 117.167 49.7408 117.273C50.1087 117.379 50.494 117.412 50.8745 117.369Z" fill="white"/>
</g>
<path d="M69.8318 106.715C69.9661 107.956 69.7292 109.209 69.1512 110.316C68.5732 111.423 67.68 112.333 66.5846 112.932C65.4892 113.532 64.2407 113.792 62.997 113.682C61.7533 113.572 60.5703 113.095 59.5976 112.312C58.6249 111.529 57.9061 110.476 57.5321 109.284C57.1581 108.093 57.1458 106.818 57.4966 105.62C57.8475 104.421 58.5457 103.354 59.5031 102.553C60.4606 101.751 61.6341 101.252 62.8754 101.117C63.6999 101.027 64.534 101.1 65.3301 101.333C66.1261 101.566 66.8685 101.953 67.5146 102.473C68.1608 102.993 68.698 103.635 69.0957 104.363C69.4933 105.091 69.7434 105.89 69.8318 106.715Z" fill="#263238"/>
<path opacity="0.4" d="M69.2787 106.775C69.4017 107.904 69.1871 109.045 68.662 110.052C68.1369 111.059 67.3248 111.888 66.3286 112.433C65.3324 112.979 64.1967 113.217 63.0652 113.117C61.9338 113.017 60.8574 112.584 59.9722 111.872C59.0871 111.16 58.4329 110.202 58.0926 109.118C57.7522 108.034 57.7408 106.874 58.06 105.784C58.3791 104.694 59.0144 103.723 59.8855 102.994C60.7566 102.265 61.8243 101.811 62.9536 101.689C64.4667 101.525 65.9829 101.969 67.1689 102.923C68.3549 103.876 69.1138 105.262 69.2787 106.775Z" fill="white"/>
<path d="M67.6494 106.955C67.7421 107.762 67.5934 108.578 67.2219 109.3C66.8505 110.022 66.2731 110.617 65.5629 111.011C64.8527 111.404 64.0417 111.578 63.2327 111.51C62.4236 111.442 61.653 111.136 61.0183 110.629C60.3837 110.123 59.9136 109.439 59.6678 108.666C59.4219 107.892 59.4113 107.063 59.6372 106.283C59.8632 105.503 60.3155 104.808 60.937 104.285C61.5584 103.763 62.321 103.437 63.128 103.348C64.2051 103.231 65.2847 103.545 66.1316 104.221C66.9785 104.896 67.524 105.879 67.6494 106.955Z" fill="#263238"/>
<path d="M65.7915 105.657C65.8107 105.835 65.7765 106.016 65.6933 106.175C65.61 106.334 65.4814 106.465 65.3237 106.551C65.166 106.637 64.9863 106.674 64.8074 106.658C64.6285 106.642 64.4584 106.573 64.3186 106.46C64.1788 106.348 64.0756 106.196 64.0221 106.024C63.9687 105.853 63.9672 105.669 64.0181 105.497C64.0689 105.325 64.1697 105.171 64.3077 105.056C64.4458 104.941 64.6148 104.87 64.7934 104.851C64.912 104.838 65.032 104.848 65.1465 104.881C65.2611 104.915 65.3678 104.971 65.4607 105.046C65.5535 105.12 65.6305 105.213 65.6873 105.318C65.7441 105.423 65.7795 105.538 65.7915 105.657Z" fill="white"/>
<path d="M66.8256 104.015C66.8434 104.135 66.8248 104.257 66.7722 104.366C66.7195 104.475 66.6353 104.565 66.5305 104.625C66.4256 104.685 66.3051 104.713 66.1846 104.703C66.064 104.694 65.9491 104.649 65.8548 104.573C65.7605 104.497 65.6912 104.395 65.6559 104.279C65.6206 104.164 65.621 104.04 65.657 103.925C65.693 103.809 65.763 103.708 65.8577 103.633C65.9525 103.557 66.0677 103.513 66.1883 103.504C66.3394 103.493 66.4889 103.54 66.6071 103.635C66.7252 103.73 66.8033 103.865 66.8256 104.015Z" fill="white"/>
</svg>
