<svg width="304" height="224" viewBox="0 0 304 224" fill="none" xmlns="http://www.w3.org/2000/svg">
<path d="M273.444 208.678H253.323V208.83H273.444V208.678Z" fill="#EBEBEB"/>
<path d="M201.343 210.331H196.064V210.482H201.343V210.331Z" fill="#EBEBEB"/>
<path d="M252.715 203.04H241.057V203.192H252.715V203.04Z" fill="#EBEBEB"/>
<path d="M58.2287 204.061H31.9897V204.213H58.2287V204.061Z" fill="#EBEBEB"/>
<path d="M67.4873 204.061H63.6417V204.213H67.4873V204.061Z" fill="#EBEBEB"/>
<path d="M136.903 206.625H79.9902V206.777H136.903V206.625Z" fill="#EBEBEB"/>
<path d="M144.102 171.808H26.8015C25.8815 171.808 24.9991 171.442 24.3486 170.792C23.698 170.141 23.3325 169.259 23.3325 168.339V3.43858C23.3405 2.52383 23.7095 1.64927 24.3592 1.00527C25.0089 0.361271 25.8867 -3.50699e-05 26.8015 2.55315e-09H144.102C145.022 2.55316e-09 145.904 0.365479 146.555 1.01603C147.206 1.66659 147.571 2.54893 147.571 3.46896V168.339C147.571 169.259 147.206 170.141 146.555 170.792C145.904 171.442 145.022 171.808 144.102 171.808ZM26.8015 0.121505C25.9222 0.123111 25.0795 0.473103 24.4577 1.09483C23.836 1.71655 23.486 2.55933 23.4844 3.43858V168.339C23.486 169.218 23.836 170.061 24.4577 170.682C25.0795 171.304 25.9222 171.654 26.8015 171.656H144.102C144.981 171.654 145.824 171.304 146.446 170.682C147.068 170.061 147.418 169.218 147.419 168.339V3.43858C147.418 2.55933 147.068 1.71655 146.446 1.09483C145.824 0.473103 144.981 0.123111 144.102 0.121505H26.8015Z" fill="#EBEBEB"/>
<path d="M275.516 171.808H158.203C157.283 171.806 156.402 171.44 155.752 170.79C155.101 170.14 154.735 169.258 154.734 168.339V3.43858C154.743 2.52433 155.113 1.65069 155.762 1.00703C156.412 0.363365 157.288 0.00154815 158.203 0H275.516C276.428 0.00316185 277.303 0.365881 277.95 1.00954C278.597 1.6532 278.964 2.52593 278.972 3.43858V168.339C278.972 169.257 278.609 170.137 277.961 170.787C277.313 171.438 276.434 171.804 275.516 171.808ZM158.203 0.121505C157.324 0.123111 156.481 0.473103 155.859 1.09483C155.237 1.71655 154.887 2.55933 154.886 3.43858V168.339C154.887 169.218 155.237 170.061 155.859 170.682C156.481 171.304 157.324 171.654 158.203 171.656H275.516C276.395 171.654 277.238 171.304 277.859 170.682C278.481 170.061 278.831 169.218 278.833 168.339V3.43858C278.831 2.55933 278.481 1.71655 277.859 1.09483C277.238 0.473103 276.395 0.123111 275.516 0.121505H158.203Z" fill="#EBEBEB"/>
<path d="M303.881 198.903H0.119141V199.055H303.881V198.903Z" fill="#EBEBEB"/>
<path d="M44.1525 198.958H55.4403L55.4403 136.444H44.1525L44.1525 198.958Z" fill="#E6E6E6"/>
<path d="M52.3541 198.958H113.258L113.258 136.444H52.3541L52.3541 198.958Z" fill="#F5F5F5"/>
<path d="M41.5098 137.811H55.5375V135.071H41.5098V137.811Z" fill="#E0E0E0"/>
<path d="M51.2968 137.811H115.348V135.071H51.2968V137.811Z" fill="#EBEBEB"/>
<path d="M87.08 177.251C87.2193 177.252 87.3574 177.225 87.4864 177.172C87.6153 177.119 87.7326 177.042 87.8314 176.943C87.9302 176.845 88.0086 176.728 88.0621 176.6C88.1156 176.471 88.1432 176.333 88.1432 176.194V171.431C88.1432 171.292 88.1156 171.154 88.0621 171.025C88.0086 170.896 87.9302 170.779 87.8314 170.681C87.7326 170.583 87.6153 170.505 87.4864 170.453C87.3574 170.4 87.2193 170.373 87.08 170.374C86.7996 170.374 86.5308 170.485 86.3325 170.683C86.1343 170.882 86.0229 171.151 86.0229 171.431V176.182C86.0213 176.322 86.0475 176.46 86.0999 176.59C86.1523 176.72 86.2299 176.838 86.3282 176.937C86.4265 177.037 86.5436 177.115 86.6726 177.169C86.8017 177.223 86.9401 177.251 87.08 177.251Z" fill="#E6E6E6"/>
<path d="M79.9356 177.251C80.2159 177.251 80.4848 177.14 80.6831 176.941C80.8813 176.743 80.9927 176.474 80.9927 176.194V171.431C80.9927 171.151 80.8813 170.882 80.6831 170.683C80.4848 170.485 80.2159 170.374 79.9356 170.374C79.6552 170.374 79.3863 170.485 79.1881 170.683C78.9899 170.882 78.8785 171.151 78.8785 171.431V176.182C78.8769 176.322 78.903 176.46 78.9554 176.59C79.0078 176.72 79.0854 176.838 79.1838 176.937C79.2821 177.036 79.3992 177.115 79.5282 177.169C79.6573 177.223 79.7957 177.251 79.9356 177.251Z" fill="#E6E6E6"/>
<path d="M113.264 149.457V150.52H84.0364V198.958H82.9793V150.52H52.3601V149.457H113.264Z" fill="#E0E0E0"/>
<path d="M234.374 111.14H249.799L237.387 40.7528H221.962L234.374 111.14Z" fill="#FAFAFA"/>
<path d="M225.395 111.14H229.556L217.145 40.7528H212.983L225.395 111.14Z" fill="#FAFAFA"/>
<path d="M180.274 112.361H184.545L171.793 40.0236H167.516L180.274 112.361Z" fill="#FAFAFA"/>
<path d="M188.785 112.361H196.841L184.089 40.0236H176.034L188.785 112.361Z" fill="#FAFAFA"/>
<path d="M210.359 39.659H260.747V112.392H210.359V39.659ZM256.761 43.6444H214.344V108.382H256.761V43.6444Z" fill="#E6E6E6"/>
<path d="M157.972 37.6662H262.739V114.36H157.972V37.6662ZM258.754 41.6516H161.957V110.375H258.754V41.6516Z" fill="#F5F5F5"/>
<path d="M117.663 111.14H133.088L120.676 40.7528H105.251L117.663 111.14Z" fill="#FAFAFA"/>
<path d="M108.69 111.14H112.845L100.433 40.7528H96.278L108.69 111.14Z" fill="#FAFAFA"/>
<path d="M63.5628 112.361H67.8337L55.0818 40.0236H50.8048L63.5628 112.361Z" fill="#FAFAFA"/>
<path d="M72.0741 112.361H80.1298L67.3779 40.0236H59.3221L72.0741 112.361Z" fill="#FAFAFA"/>
<path d="M93.6414 39.659H144.035V112.392H93.6414V39.659ZM140.05 43.6444H97.6328V108.382H140.05V43.6444Z" fill="#E6E6E6"/>
<path d="M41.2607 37.6662H146.028V114.36H41.2607V37.6662ZM142.043 41.6516H45.2461V110.375H142.043V41.6516Z" fill="#F5F5F5"/>
<path d="M236.822 176.273C237.021 169.037 235.808 161.831 233.25 155.058C235.316 151.237 234.581 137.951 230.377 138.394C228.84 138.552 229.38 142.118 228.141 141.766C225.601 141.049 224.642 134.214 221.762 133.206C219.939 132.562 221.154 137.793 219.684 138.224C218.214 138.655 212.613 137.616 211.452 139.84C210.292 142.063 215.632 142.495 216.452 143.084C217.272 143.673 213.566 144.579 215.328 145.988C217.09 147.398 220.954 143.935 221.367 145.065C221.78 146.195 217.722 147.495 218.967 149.244C220.213 150.994 225.911 147.762 226.519 149.402C227.126 151.043 221.707 152.027 223.84 154.548C225.34 156.316 229.818 156.037 232.4 155.66C232.57 155.629 232.697 155.605 232.807 155.575C235.167 162.301 236.199 169.421 235.844 176.54L236.822 176.273Z" fill="#E6E6E6"/>
<path d="M238.396 173.065C237.653 166.584 238.18 160.02 239.945 153.74C237.794 150.472 237.418 138.491 241.227 138.552C242.618 138.552 242.412 141.82 243.493 141.407C245.717 140.563 246.045 134.36 248.554 133.224C250.158 132.501 249.435 137.294 250.808 137.568C252.181 137.841 257.102 136.492 258.317 138.376C259.532 140.259 254.769 141.085 254.064 141.681C253.359 142.276 256.773 142.799 255.279 144.202C253.784 145.605 250.066 142.799 249.811 143.837C249.556 144.876 253.28 145.751 252.29 147.404C251.3 149.056 245.941 146.614 245.522 148.139C245.103 149.664 250.048 150.119 248.329 152.549C247.114 154.25 243.08 154.372 240.735 154.214C240.61 154.208 240.486 154.192 240.364 154.165C238.771 160.39 238.404 166.865 239.283 173.229L238.396 173.065Z" fill="#EBEBEB"/>
<path d="M236.835 173.065C236.714 168.678 237.449 164.31 238.998 160.204C237.746 157.883 238.196 149.834 240.741 150.101C241.677 150.198 241.349 152.355 242.096 152.142C243.639 151.711 244.216 147.567 245.966 146.954C247.084 146.565 246.318 149.736 247.223 149.992C248.129 150.247 251.512 149.639 252.217 150.97C252.922 152.3 249.684 152.58 249.18 152.938C248.675 153.296 250.929 153.843 249.86 154.7C248.791 155.556 246.446 153.485 246.215 154.135C245.984 154.785 248.432 155.623 247.673 156.668C246.914 157.713 243.463 155.769 243.092 156.765C242.722 157.762 246.014 158.357 244.714 159.888C243.809 160.957 241.069 160.787 239.526 160.562L239.283 160.508C237.859 164.588 237.24 168.907 237.46 173.223L236.835 173.065Z" fill="#F5F5F5"/>
<path d="M243.511 198.958H230.152L228.038 169.426H245.619L243.511 198.958Z" fill="#EBEBEB"/>
<path d="M149.072 224C214.127 224 266.864 220.921 266.864 217.123C266.864 213.325 214.127 210.246 149.072 210.246C84.0166 210.246 31.2791 213.325 31.2791 217.123C31.2791 220.921 84.0166 224 149.072 224Z" fill="#F5F5F5"/>
<path d="M104.401 180.192H81.0778V183.782H104.401V180.192Z" fill="#2161D5"/>
<path d="M82.0316 182.257H103.447C103.974 182.257 104.479 182.466 104.852 182.839C105.224 183.212 105.433 183.717 105.433 184.244V219.243H80.0389V184.25C80.0381 183.988 80.0891 183.728 80.189 183.486C80.2889 183.244 80.4356 183.024 80.6208 182.839C80.806 182.654 81.026 182.507 81.2681 182.407C81.5102 182.307 81.7697 182.256 82.0316 182.257Z" fill="#2161D5"/>
<path opacity="0.5" d="M82.0316 182.257H103.447C103.974 182.257 104.479 182.466 104.852 182.839C105.224 183.212 105.433 183.717 105.433 184.244V219.243H80.0389V184.25C80.0381 183.988 80.0891 183.728 80.189 183.486C80.2889 183.244 80.4356 183.024 80.6208 182.839C80.806 182.654 81.026 182.507 81.2681 182.407C81.5102 182.307 81.7697 182.256 82.0316 182.257Z" fill="white"/>
<path d="M103.24 175.775H82.2321C81.0209 175.775 80.0389 176.757 80.0389 177.968V179.104C80.0389 180.315 81.0209 181.297 82.2321 181.297H103.24C104.452 181.297 105.433 180.315 105.433 179.104V177.968C105.433 176.757 104.452 175.775 103.24 175.775Z" fill="#2161D5"/>
<path opacity="0.7" d="M103.24 175.775H82.2321C81.0209 175.775 80.0389 176.757 80.0389 177.968V179.104C80.0389 180.315 81.0209 181.297 82.2321 181.297H103.24C104.452 181.297 105.433 180.315 105.433 179.104V177.968C105.433 176.757 104.452 175.775 103.24 175.775Z" fill="white"/>
<path d="M87.3776 219.249H75.5066V217.597L87.3776 216.491V219.249Z" fill="#2161D5"/>
<path opacity="0.7" d="M87.3776 219.249H75.5066V217.597L87.3776 216.491V219.249Z" fill="white"/>
<path d="M193.646 40.546C184.46 37.9823 175.293 35.3496 166.143 32.6482C157.233 35.3334 148.323 37.966 139.412 40.546C130.745 37.966 122.096 35.3334 113.465 32.6482C104.052 35.3496 94.6235 37.9823 85.1786 40.546L63.9092 126.857C76.1852 124.269 88.4511 121.636 100.707 118.959C112.181 121.64 123.669 124.273 135.172 126.857C146.917 124.281 158.663 121.648 170.408 118.959C182.401 121.652 194.407 124.285 206.428 126.857C217.667 124.269 228.894 121.636 240.109 118.959L218.828 32.6482C210.448 35.3334 202.054 37.966 193.646 40.546Z" fill="#2161D5"/>
<path opacity="0.8" d="M193.646 40.546C184.46 37.9823 175.293 35.3496 166.143 32.6482C157.233 35.3334 148.323 37.966 139.412 40.546C130.745 37.966 122.096 35.3334 113.465 32.6482C104.052 35.3496 94.6235 37.9823 85.1786 40.546L63.9092 126.857C76.1852 124.269 88.4511 121.636 100.707 118.959C112.181 121.64 123.669 124.273 135.172 126.857C146.917 124.281 158.663 121.648 170.408 118.959C182.401 121.652 194.407 124.285 206.428 126.857C217.667 124.269 228.894 121.636 240.109 118.959L218.828 32.6482C210.448 35.3334 202.054 37.966 193.646 40.546Z" fill="white"/>
<path d="M135.408 121.845C147 119.269 158.581 116.636 170.153 113.947C181.983 116.64 193.826 119.273 205.681 121.845C215.049 119.666 224.411 117.438 233.766 115.162C227.886 89.731 222.013 64.3021 216.148 38.8752C208.919 41.1473 201.671 43.3749 194.405 45.5579C185.057 42.9942 175.726 40.3616 166.41 37.6601C157.346 40.3373 148.272 42.9699 139.187 45.5579C130.358 42.978 121.545 40.3454 112.748 37.6601C104.704 39.9242 96.6504 42.1518 88.5866 44.3429C82.7057 69.7698 76.833 95.1967 70.9684 120.624C81.1464 118.428 91.3143 116.201 101.472 113.941C112.76 116.618 124.072 119.253 135.408 121.845Z" fill="#2161D5"/>
<path opacity="0.4" d="M135.408 121.845C147 119.269 158.581 116.636 170.153 113.947C181.983 116.64 193.826 119.273 205.681 121.845C215.049 119.666 224.411 117.438 233.766 115.162C227.886 89.731 222.013 64.3021 216.148 38.8752C208.919 41.1473 201.671 43.3749 194.405 45.5579C185.057 42.9942 175.726 40.3616 166.41 37.6601C157.346 40.3373 148.272 42.9699 139.187 45.5579C130.358 42.978 121.545 40.3454 112.748 37.6601C104.704 39.9242 96.6504 42.1518 88.5866 44.3429C82.7057 69.7698 76.833 95.1967 70.9684 120.624C81.1464 118.428 91.3143 116.201 101.472 113.941C112.76 116.618 124.072 119.253 135.408 121.845Z" fill="white"/>
<path d="M161.678 99.1295C161.222 94.2694 160.852 89.8527 158.944 87.3011C154.691 81.6572 144.515 82.8601 138.124 84.0265C137.413 82.8115 135.591 79.4276 133.592 71.2685C131.685 63.4801 122.863 59.7256 116.059 57.5324C114.139 56.9249 111.764 56.1108 111.369 55.5519C110.804 52.9821 108.331 52.8606 105.901 52.7512C103.951 52.6601 101.728 52.5568 99.9536 51.3782C98.3679 50.3211 100.191 45.3333 102.566 40.5278L100.567 41.0746C100.397 41.4452 100.221 41.8158 100.051 42.1924C97.2258 48.4985 95.7677 52.5203 98.1371 54.0513C100.506 55.5823 103.125 55.6855 105.288 55.7888C107.45 55.8921 108.483 56.0075 108.617 56.688C108.969 58.5105 111.223 59.3185 114.905 60.4485C121.18 62.3744 128.811 65.3087 130.737 72.2284C133.957 83.7714 135.943 86.5052 136.32 86.8515L136.885 87.374L137.669 87.2099C143.385 86.1225 152.674 84.8224 156.374 88.9839C157.826 90.6181 158.197 94.9923 158.482 99.3422C158.804 104.755 158.61 110.885 160.256 116.256L165.056 115.15C162.668 109.664 162.134 103.965 161.678 99.1295Z" fill="#2161D5"/>
<path opacity="0.2" d="M161.678 99.1295C161.222 94.2694 160.852 89.8527 158.944 87.3011C154.691 81.6572 144.515 82.8601 138.124 84.0265C137.413 82.8115 135.591 79.4276 133.592 71.2685C131.685 63.4801 122.863 59.7256 116.059 57.5324C114.139 56.9249 111.764 56.1108 111.369 55.5519C110.804 52.9821 108.331 52.8606 105.901 52.7512C103.951 52.6601 101.728 52.5568 99.9536 51.3782C98.3679 50.3211 100.191 45.3333 102.566 40.5278L100.567 41.0746C100.397 41.4452 100.221 41.8158 100.051 42.1924C97.2258 48.4985 95.7677 52.5203 98.1371 54.0513C100.506 55.5823 103.125 55.6855 105.288 55.7888C107.45 55.8921 108.483 56.0075 108.617 56.688C108.969 58.5105 111.223 59.3185 114.905 60.4485C121.18 62.3744 128.811 65.3087 130.737 72.2284C133.957 83.7714 135.943 86.5052 136.32 86.8515L136.885 87.374L137.669 87.2099C143.385 86.1225 152.674 84.8224 156.374 88.9839C157.826 90.6181 158.197 94.9923 158.482 99.3422C158.804 104.755 158.61 110.885 160.256 116.256L165.056 115.15C162.668 109.664 162.134 103.965 161.678 99.1295Z" fill="white"/>
<g opacity="0.5">
<path opacity="0.5" d="M171.003 68.8991L191.216 70.6002C191.793 75.1931 192.078 77.4956 192.655 82.0884L179.114 80.8005L178.597 74.6281L171.307 73.7107C171.173 71.7909 171.113 70.825 171.003 68.8991Z" fill="white"/>
<path opacity="0.5" d="M170.226 75.4908L177.018 76.4142L177.534 83.097L170.62 82.5624L170.226 75.4908Z" fill="white"/>
</g>
<path opacity="0.5" d="M203.032 55.2298C200.869 56.0864 199.782 56.5116 197.564 57.3682L198.506 63.5285C200.772 62.8177 201.896 62.4654 204.138 61.7485C203.712 59.1422 203.488 57.836 203.032 55.2298Z" fill="white"/>
<path opacity="0.5" d="M101.794 93.9048C97.5416 95.2352 95.3849 95.8974 91.0411 97.2218C90.3303 101.037 89.9719 102.951 89.255 106.766C93.6778 105.66 95.8709 105.114 100.221 104.008C100.847 99.9678 101.162 97.9448 101.794 93.9048Z" fill="white"/>
<path d="M167.796 66.4813C177.723 67.2913 187.645 68.1013 197.564 68.9113H197.759C205.705 66.7648 213.639 64.5797 221.561 62.3562L220.954 59.8471C213.04 62.099 205.112 64.3023 197.169 66.457L186.349 65.576C183.389 57.3988 180.554 49.1891 177.844 40.947L174.806 40.0844C177.512 48.5411 180.335 56.9553 183.275 65.327L167.352 64.0208C163.099 65.5639 160.943 66.3415 156.581 67.8846H138.155C128.912 66.4266 119.674 64.9503 110.439 63.4558C113.975 55.7159 117.385 47.9255 120.67 40.0844L118.683 39.4768C115.269 47.4921 111.729 55.4466 108.064 63.3404C99.8259 64.5554 91.5838 65.7482 83.3377 66.9187C83.1129 67.9029 82.9975 68.395 82.7727 69.3488C91.1687 68.1337 99.5667 66.9187 107.967 65.7036C111.181 73.4556 114.735 81.0254 118.422 88.5647L104.966 87.4833C95.6299 89.9661 86.2781 92.3962 76.9101 94.7736C76.5578 96.2864 76.3816 97.0458 76.0353 98.5585C85.6301 96.1608 95.2107 93.7145 104.777 91.2196L120.087 92.4347C122.857 101.851 125.87 111.195 129.2 120.423L132.401 121.152C128.914 111.784 125.761 102.252 122.839 92.6655L136.648 93.7834C147.693 96.7116 158.764 99.5812 169.861 102.392C177.735 99.8606 185.59 97.2685 193.427 94.6157C196.629 99.409 198.287 101.803 201.677 106.596C208.392 110.484 215.158 114.289 221.975 118.011L226.993 116.796C219.399 112.645 211.851 108.415 204.35 104.105C201.313 99.8525 199.818 97.7019 196.926 93.431L201.307 91.9304C209.97 90.363 218.631 88.7774 227.29 87.1735C226.944 85.6912 226.774 84.95 226.434 83.4676C217.572 85.1282 208.708 86.7685 199.842 88.3886C189.77 91.8676 179.673 95.2657 169.551 98.5828C163.428 97.0194 157.31 95.4338 151.198 93.8259C153.543 85.9402 155.732 78.0121 157.765 70.0413C161.812 68.6501 163.816 67.9089 167.796 66.4813ZM148.786 93.1819C144.248 91.9669 141.994 91.3593 137.541 90.1808L121.46 88.8624C117.711 81.3352 114.084 73.7715 110.804 66.0256C119.803 67.4675 128.803 68.885 137.802 70.2783H155.281C153.243 77.9614 151.068 85.596 148.756 93.1819H148.786Z" fill="white"/>
<path opacity="0.1" d="M100.695 118.959C88.4389 121.64 76.173 124.273 63.897 126.857L85.1603 40.546C94.6052 37.9782 104.034 35.3456 113.447 32.6482L100.695 118.959Z" fill="black"/>
<path opacity="0.1" d="M170.402 118.959C158.656 121.652 146.911 124.285 135.166 126.857C136.583 98.1008 138.001 69.3305 139.418 40.546C148.329 37.966 157.239 35.3334 166.149 32.6482C167.563 61.4205 168.98 90.1908 170.402 118.959Z" fill="black"/>
<path opacity="0.1" d="M240.091 118.959C228.876 121.64 217.649 124.273 206.41 126.857L193.652 40.546C202.06 37.966 210.45 35.3334 218.821 32.6482L240.091 118.959Z" fill="black"/>
<path opacity="0.1" d="M205.122 62.3135C205.122 62.9878 203.433 63.5285 201.355 63.5285C199.277 63.5285 197.595 62.9878 197.595 62.3135C197.595 61.6391 199.277 61.0984 201.355 61.0984C203.433 61.0984 205.122 61.6452 205.122 62.3135Z" fill="black"/>
<path d="M201.671 61.9066C203.573 61.9066 205.122 58.1764 205.122 56.2748C205.122 55.3591 204.758 54.4808 204.112 53.8327C203.465 53.1846 202.587 52.8196 201.671 52.818H201.064C200.61 52.818 200.161 52.9075 199.742 53.0813C199.323 53.2551 198.942 53.5098 198.621 53.8309C198.301 54.152 198.047 54.5331 197.874 54.9524C197.701 55.3718 197.612 55.8212 197.613 56.2748C197.613 58.1764 199.156 61.9066 201.064 61.9066H201.671ZM200.292 56.2748C200.338 56.074 200.439 55.8902 200.585 55.7445C200.731 55.5989 200.915 55.4974 201.115 55.4516C201.316 55.4059 201.526 55.4178 201.72 55.486C201.915 55.5542 202.086 55.6759 202.214 55.8371C202.342 55.9983 202.422 56.1925 202.445 56.3972C202.468 56.6019 202.432 56.8089 202.343 56.9943C202.253 57.1797 202.113 57.336 201.938 57.4452C201.763 57.5544 201.561 57.612 201.355 57.6114C201.054 57.5404 200.785 57.37 200.592 57.1275C200.399 56.885 200.293 56.5847 200.292 56.2748Z" fill="#263238"/>
<path d="M201.045 52.818C200.592 52.818 200.142 52.9075 199.723 53.0813C199.304 53.2551 198.924 53.5098 198.603 53.8309C198.283 54.152 198.029 54.5331 197.856 54.9524C197.682 55.3718 197.594 55.8212 197.595 56.2748C197.595 58.1764 199.138 61.9066 201.045 61.9066C202.953 61.9066 204.496 58.1764 204.496 56.2748C204.497 55.8212 204.408 55.3718 204.235 54.9524C204.062 54.5331 203.808 54.152 203.488 53.8309C203.167 53.5098 202.786 53.2551 202.367 53.0813C201.948 52.9075 201.499 52.818 201.045 52.818ZM201.045 57.6478C200.772 57.6478 200.505 57.5668 200.279 57.415C200.052 57.2632 199.875 57.0475 199.771 56.7951C199.666 56.5428 199.64 56.2652 199.693 55.9975C199.747 55.7298 199.879 55.4841 200.072 55.2915C200.266 55.0988 200.512 54.968 200.78 54.9155C201.048 54.8629 201.325 54.8911 201.577 54.9964C201.829 55.1017 202.044 55.2794 202.195 55.507C202.346 55.7346 202.426 56.0018 202.424 56.2748C202.424 56.4557 202.389 56.6347 202.319 56.8017C202.25 56.9687 202.148 57.1203 202.02 57.2479C201.892 57.3754 201.74 57.4764 201.573 57.5451C201.405 57.6137 201.226 57.6486 201.045 57.6478Z" fill="#2161D5"/>
<path opacity="0.3" d="M201.045 52.818C200.592 52.818 200.142 52.9075 199.723 53.0813C199.304 53.2551 198.924 53.5098 198.603 53.8309C198.283 54.152 198.029 54.5331 197.856 54.9524C197.682 55.3718 197.594 55.8212 197.595 56.2748C197.595 58.1764 199.138 61.9066 201.045 61.9066C202.953 61.9066 204.496 58.1764 204.496 56.2748C204.497 55.8212 204.408 55.3718 204.235 54.9524C204.062 54.5331 203.808 54.152 203.488 53.8309C203.167 53.5098 202.786 53.2551 202.367 53.0813C201.948 52.9075 201.499 52.818 201.045 52.818ZM201.045 57.6478C200.772 57.6478 200.505 57.5668 200.279 57.415C200.052 57.2632 199.875 57.0475 199.771 56.7951C199.666 56.5428 199.64 56.2652 199.693 55.9975C199.747 55.7298 199.879 55.4841 200.072 55.2915C200.266 55.0988 200.512 54.968 200.78 54.9155C201.048 54.8629 201.325 54.8911 201.577 54.9964C201.829 55.1017 202.044 55.2794 202.195 55.507C202.346 55.7346 202.426 56.0018 202.424 56.2748C202.424 56.4557 202.389 56.6347 202.319 56.8017C202.25 56.9687 202.148 57.1203 202.02 57.2479C201.892 57.3754 201.74 57.4764 201.573 57.5451C201.405 57.6137 201.226 57.6486 201.045 57.6478Z" fill="black"/>
<path opacity="0.1" d="M177.619 93.6801C177.619 94.3483 175.936 94.8951 173.859 94.8951C171.781 94.8951 170.092 94.3483 170.092 93.6801C170.092 93.0118 171.781 92.465 173.859 92.465C175.936 92.465 177.619 93.0057 177.619 93.6801Z" fill="black"/>
<path d="M174.168 93.2671C176.076 93.2671 177.619 89.543 177.619 87.6353C177.619 86.7201 177.256 85.8424 176.609 85.1953C175.961 84.5482 175.084 84.1846 174.168 84.1846H173.561C173.107 84.1838 172.658 84.2725 172.239 84.4455C171.819 84.6186 171.438 84.8726 171.117 85.1931C170.796 85.5137 170.541 85.8943 170.367 86.3134C170.194 86.7325 170.104 87.1817 170.104 87.6353C170.104 89.543 171.653 93.2671 173.561 93.2671H174.168ZM172.795 87.6353C172.841 87.4345 172.943 87.2507 173.088 87.105C173.234 86.9594 173.418 86.8578 173.619 86.8121C173.82 86.7664 174.029 86.7783 174.224 86.8465C174.418 86.9147 174.589 87.0364 174.717 87.1976C174.846 87.3588 174.926 87.5529 174.949 87.7577C174.971 87.9624 174.936 88.1694 174.846 88.3548C174.756 88.5402 174.616 88.6965 174.441 88.8057C174.267 88.9148 174.065 88.9725 173.859 88.9719C173.556 88.9029 173.286 88.733 173.093 88.4901C172.899 88.2472 172.795 87.9457 172.795 87.6353Z" fill="#263238"/>
<path d="M173.549 84.1846C173.095 84.1838 172.646 84.2725 172.226 84.4455C171.807 84.6186 171.426 84.8726 171.105 85.1931C170.784 85.5137 170.529 85.8943 170.355 86.3134C170.181 86.7325 170.092 87.1817 170.092 87.6353C170.092 89.543 171.641 93.2671 173.549 93.2671C175.456 93.2671 176.999 89.543 176.999 87.6353C176.999 87.1822 176.91 86.7335 176.737 86.3148C176.563 85.8961 176.309 85.5157 175.989 85.1953C175.668 84.8749 175.288 84.6207 174.869 84.4473C174.451 84.2739 174.002 84.1846 173.549 84.1846ZM173.549 89.0448C173.276 89.046 173.008 88.9661 172.781 88.8153C172.553 88.6645 172.376 88.4496 172.27 88.1977C172.165 87.9458 172.137 87.6683 172.189 87.4004C172.242 87.1325 172.373 86.8862 172.565 86.6927C172.758 86.4993 173.004 86.3673 173.271 86.3136C173.539 86.2599 173.817 86.2868 174.069 86.391C174.321 86.4952 174.537 86.672 174.689 86.8989C174.841 87.1258 174.922 87.3927 174.922 87.6657C174.914 88.0251 174.766 88.3672 174.509 88.6192C174.253 88.8711 173.908 89.0129 173.549 89.0144V89.0448Z" fill="#2161D5"/>
<path opacity="0.3" d="M173.549 84.1846C173.095 84.1838 172.646 84.2725 172.226 84.4455C171.807 84.6186 171.426 84.8726 171.105 85.1931C170.784 85.5137 170.529 85.8943 170.355 86.3134C170.181 86.7325 170.092 87.1817 170.092 87.6353C170.092 89.543 171.641 93.2671 173.549 93.2671C175.456 93.2671 176.999 89.543 176.999 87.6353C176.999 87.1822 176.91 86.7335 176.737 86.3148C176.563 85.8961 176.309 85.5157 175.989 85.1953C175.668 84.8749 175.288 84.6207 174.869 84.4473C174.451 84.2739 174.002 84.1846 173.549 84.1846ZM173.549 89.0448C173.276 89.046 173.008 88.9661 172.781 88.8153C172.553 88.6645 172.376 88.4496 172.27 88.1977C172.165 87.9458 172.137 87.6683 172.189 87.4004C172.242 87.1325 172.373 86.8862 172.565 86.6927C172.758 86.4993 173.004 86.3673 173.271 86.3136C173.539 86.2599 173.817 86.2868 174.069 86.391C174.321 86.4952 174.537 86.672 174.689 86.8989C174.841 87.1258 174.922 87.3927 174.922 87.6657C174.914 88.0251 174.766 88.3672 174.509 88.6192C174.253 88.8711 173.908 89.0129 173.549 89.0144V89.0448Z" fill="black"/>
<path opacity="0.1" d="M120.093 96.596C120.093 97.2703 118.404 97.811 116.326 97.811C114.249 97.811 112.566 97.2703 112.566 96.596C112.566 95.9216 114.249 95.381 116.326 95.381C118.404 95.381 120.093 95.9338 120.093 96.596Z" fill="black"/>
<path d="M116.642 96.1953C118.544 96.1953 120.093 92.4651 120.093 90.5635C120.093 89.6478 119.73 88.7695 119.083 88.1214C118.436 87.4733 117.558 87.1083 116.642 87.1067H116.035C115.581 87.1067 115.132 87.1962 114.713 87.37C114.294 87.5438 113.913 87.7985 113.593 88.1196C113.272 88.4406 113.018 88.8218 112.845 89.2411C112.672 89.6605 112.583 90.1099 112.584 90.5635C112.584 92.4651 114.127 96.1953 116.035 96.1953H116.642ZM115.263 90.5635C115.309 90.3627 115.411 90.1789 115.556 90.0332C115.702 89.8876 115.886 89.7861 116.087 89.7403C116.287 89.6946 116.497 89.7065 116.691 89.7747C116.886 89.8429 117.057 89.9646 117.185 90.1258C117.313 90.287 117.393 90.4811 117.416 90.6859C117.439 90.8906 117.403 91.0976 117.314 91.283C117.224 91.4684 117.084 91.6247 116.909 91.7339C116.734 91.843 116.532 91.9007 116.326 91.9001C116.025 91.8291 115.756 91.6587 115.563 91.4162C115.37 91.1737 115.264 90.8734 115.263 90.5635Z" fill="#263238"/>
<path d="M116.017 87.1067C115.563 87.1067 115.114 87.1962 114.695 87.37C114.276 87.5438 113.895 87.7985 113.574 88.1196C113.254 88.4406 113 88.8218 112.827 89.2411C112.654 89.6605 112.565 90.1099 112.566 90.5635C112.566 92.4651 114.109 96.1953 116.017 96.1953C117.924 96.1953 119.467 92.4651 119.467 90.5635C119.468 90.1099 119.379 89.6605 119.206 89.2411C119.033 88.8218 118.779 88.4406 118.459 88.1196C118.138 87.7985 117.758 87.5438 117.338 87.37C116.919 87.1962 116.47 87.1067 116.017 87.1067ZM116.017 91.9669C115.743 91.9681 115.476 91.8881 115.248 91.737C115.02 91.586 114.843 91.3706 114.738 91.1184C114.632 90.8662 114.605 90.5884 114.658 90.3203C114.711 90.0522 114.842 89.8059 115.035 89.6127C115.229 89.4195 115.475 89.288 115.743 89.235C116.011 89.182 116.289 89.2098 116.541 89.3149C116.793 89.42 117.009 89.5977 117.16 89.8255C117.311 90.0532 117.391 90.3206 117.39 90.5939C117.382 90.9528 117.233 91.2942 116.977 91.5452C116.72 91.7962 116.375 91.9366 116.017 91.9365V91.9669Z" fill="#2161D5"/>
<path opacity="0.3" d="M116.017 87.1067C115.563 87.1067 115.114 87.1962 114.695 87.37C114.276 87.5438 113.895 87.7985 113.574 88.1196C113.254 88.4406 113 88.8218 112.827 89.2411C112.654 89.6605 112.565 90.1099 112.566 90.5635C112.566 92.4651 114.109 96.1953 116.017 96.1953C117.924 96.1953 119.467 92.4651 119.467 90.5635C119.468 90.1099 119.379 89.6605 119.206 89.2411C119.033 88.8218 118.779 88.4406 118.459 88.1196C118.138 87.7985 117.758 87.5438 117.338 87.37C116.919 87.1962 116.47 87.1067 116.017 87.1067ZM116.017 91.9669C115.743 91.9681 115.476 91.8881 115.248 91.737C115.02 91.586 114.843 91.3706 114.738 91.1184C114.632 90.8662 114.605 90.5884 114.658 90.3203C114.711 90.0522 114.842 89.8059 115.035 89.6127C115.229 89.4195 115.475 89.288 115.743 89.235C116.011 89.182 116.289 89.2098 116.541 89.3149C116.793 89.42 117.009 89.5977 117.16 89.8255C117.311 90.0532 117.391 90.3206 117.39 90.5939C117.382 90.9528 117.233 91.2942 116.977 91.5452C116.72 91.7962 116.375 91.9366 116.017 91.9365V91.9669Z" fill="black"/>
<path opacity="0.1" d="M107.736 61.4994C107.736 62.1737 106.053 62.7144 103.975 62.7144C101.898 62.7144 100.209 62.1737 100.209 61.4994C100.209 60.825 101.898 60.2843 103.975 60.2843C106.053 60.2843 107.736 60.8311 107.736 61.4994Z" fill="black"/>
<path d="M104.285 61.0925C106.193 61.0925 107.736 57.3623 107.736 55.4607C107.737 55.0071 107.648 54.5577 107.475 54.1383C107.302 53.719 107.048 53.3378 106.727 53.0168C106.407 52.6957 106.026 52.441 105.607 52.2672C105.188 52.0934 104.739 52.0039 104.285 52.0039H103.678C102.761 52.0039 101.882 52.3681 101.233 53.0164C100.585 53.6647 100.221 54.5439 100.221 55.4607C100.221 57.3623 101.77 61.0925 103.678 61.0925H104.285ZM102.912 55.4607C102.958 55.2599 103.059 55.0761 103.205 54.9304C103.351 54.7848 103.535 54.6832 103.736 54.6375C103.936 54.5918 104.146 54.6037 104.34 54.6719C104.535 54.7401 104.706 54.8618 104.834 55.023C104.962 55.1842 105.042 55.3783 105.065 55.5831C105.088 55.7878 105.052 55.9948 104.963 56.1802C104.873 56.3656 104.733 56.5219 104.558 56.6311C104.383 56.7402 104.181 56.7979 103.975 56.7973C103.673 56.7283 103.403 56.5584 103.209 56.3155C103.016 56.0726 102.911 55.7711 102.912 55.4607Z" fill="#263238"/>
<path d="M103.666 52.0039C102.749 52.0039 101.869 52.3681 101.221 53.0164C100.573 53.6647 100.209 54.5439 100.209 55.4607C100.209 57.3623 101.758 61.0925 103.666 61.0925C105.573 61.0925 107.116 57.3623 107.116 55.4607C107.116 54.545 106.753 53.6666 106.106 53.0185C105.459 52.3704 104.581 52.0055 103.666 52.0039ZM103.666 56.8641C103.392 56.8653 103.125 56.7853 102.897 56.6342C102.669 56.4831 102.492 56.2678 102.387 56.0156C102.281 55.7634 102.254 55.4856 102.307 55.2175C102.36 54.9494 102.491 54.7031 102.684 54.5099C102.878 54.3166 103.124 54.1852 103.392 54.1322C103.66 54.0791 103.938 54.107 104.19 54.2121C104.442 54.3172 104.658 54.4949 104.809 54.7226C104.96 54.9504 105.04 55.2178 105.039 55.4911C105.029 55.8495 104.88 56.19 104.624 56.4407C104.368 56.6913 104.024 56.8323 103.666 56.8337V56.8641Z" fill="#2161D5"/>
<path opacity="0.3" d="M103.666 52.0039C102.749 52.0039 101.869 52.3681 101.221 53.0164C100.573 53.6647 100.209 54.5439 100.209 55.4607C100.209 57.3623 101.758 61.0925 103.666 61.0925C105.573 61.0925 107.116 57.3623 107.116 55.4607C107.116 54.545 106.753 53.6666 106.106 53.0185C105.459 52.3704 104.581 52.0055 103.666 52.0039ZM103.666 56.8641C103.392 56.8653 103.125 56.7853 102.897 56.6342C102.669 56.4831 102.492 56.2678 102.387 56.0156C102.281 55.7634 102.254 55.4856 102.307 55.2175C102.36 54.9494 102.491 54.7031 102.684 54.5099C102.878 54.3166 103.124 54.1852 103.392 54.1322C103.66 54.0791 103.938 54.107 104.19 54.2121C104.442 54.3172 104.658 54.4949 104.809 54.7226C104.96 54.9504 105.04 55.2178 105.039 55.4911C105.029 55.8495 104.88 56.19 104.624 56.4407C104.368 56.6913 104.024 56.8323 103.666 56.8337V56.8641Z" fill="black"/>
<path opacity="0.1" d="M166.666 63.5225C166.666 64.1907 164.983 64.7375 162.905 64.7375C160.827 64.7375 159.138 64.1907 159.138 63.5225C159.138 62.8542 160.827 62.3074 162.905 62.3074C164.983 62.3074 166.666 62.8481 166.666 63.5225Z" fill="black"/>
<path d="M163.215 63.1094C165.123 63.1094 166.666 59.3852 166.666 57.4776C166.666 57.0239 166.578 56.5746 166.405 56.1552C166.232 55.7358 165.978 55.3547 165.657 55.0336C165.337 54.7126 164.956 54.4578 164.537 54.284C164.118 54.1103 163.669 54.0208 163.215 54.0208H162.607C161.691 54.0208 160.811 54.385 160.163 55.0333C159.515 55.6816 159.151 56.5608 159.151 57.4776C159.151 59.3852 160.7 63.1094 162.607 63.1094H163.215ZM161.842 57.4776C161.888 57.2768 161.989 57.0929 162.135 56.9473C162.281 56.8017 162.464 56.7001 162.665 56.6544C162.866 56.6086 163.076 56.6206 163.27 56.6888C163.465 56.757 163.636 56.8787 163.764 57.0399C163.892 57.2011 163.972 57.3952 163.995 57.5999C164.018 57.8047 163.982 58.0117 163.892 58.1971C163.803 58.3825 163.662 58.5388 163.488 58.6479C163.313 58.7571 163.111 58.8147 162.905 58.8142C162.602 58.7452 162.332 58.5753 162.139 58.3324C161.946 58.0894 161.841 57.788 161.842 57.4776Z" fill="#263238"/>
<path d="M162.595 54.0208C161.678 54.0208 160.799 54.385 160.151 55.0333C159.503 55.6816 159.138 56.5608 159.138 57.4776C159.138 59.3852 160.688 63.1094 162.595 63.1094C164.503 63.1094 166.046 59.3852 166.046 57.4776C166.046 56.5619 165.683 55.6835 165.036 55.0354C164.389 54.3873 163.511 54.0224 162.595 54.0208ZM162.595 58.881C162.322 58.8822 162.054 58.8022 161.827 58.6511C161.599 58.5 161.421 58.2847 161.316 58.0325C161.211 57.7802 161.183 57.5024 161.236 57.2344C161.289 56.9663 161.421 56.72 161.614 56.5268C161.807 56.3335 162.053 56.2021 162.322 56.149C162.59 56.096 162.867 56.1239 163.12 56.229C163.372 56.3341 163.587 56.5118 163.738 56.7395C163.889 56.9673 163.969 57.2347 163.968 57.508C163.959 57.8663 163.81 58.2069 163.554 58.4575C163.297 58.7082 162.954 58.8492 162.595 58.8506V58.881Z" fill="#2161D5"/>
<path opacity="0.3" d="M162.595 54.0208C161.678 54.0208 160.799 54.385 160.151 55.0333C159.503 55.6816 159.138 56.5608 159.138 57.4776C159.138 59.3852 160.688 63.1094 162.595 63.1094C164.503 63.1094 166.046 59.3852 166.046 57.4776C166.046 56.5619 165.683 55.6835 165.036 55.0354C164.389 54.3873 163.511 54.0224 162.595 54.0208ZM162.595 58.881C162.322 58.8822 162.054 58.8022 161.827 58.6511C161.599 58.5 161.421 58.2847 161.316 58.0325C161.211 57.7802 161.183 57.5024 161.236 57.2344C161.289 56.9663 161.421 56.72 161.614 56.5268C161.807 56.3335 162.053 56.2021 162.322 56.149C162.59 56.096 162.867 56.1239 163.12 56.229C163.372 56.3341 163.587 56.5118 163.738 56.7395C163.889 56.9673 163.969 57.2347 163.968 57.508C163.959 57.8663 163.81 58.2069 163.554 58.4575C163.297 58.7082 162.954 58.8492 162.595 58.8506V58.881Z" fill="black"/>
<path d="M101.241 34.8656C102.403 35.8862 103.906 36.4327 105.452 36.3966H200.462C201.327 36.3966 202.184 36.2261 202.984 35.8947C203.783 35.5634 204.509 35.0778 205.121 34.4656C205.733 33.8534 206.217 33.1267 206.548 32.327C206.879 31.5273 207.048 30.6703 207.048 29.805V26.9861C207.1 25.7065 206.726 24.4456 205.984 23.4017C205.073 22.3111 204.075 21.2954 203.002 20.3641C201.927 19.5435 200.598 19.1264 199.247 19.1855H104.236C102.488 19.1855 100.812 19.8799 99.5755 21.1161C98.3393 22.3523 97.6448 24.0289 97.6448 25.7771V28.596C97.5887 29.8097 97.9253 31.0091 98.6047 32.0164C99.4179 33.0248 100.299 33.9768 101.241 34.8656Z" fill="#2161D5"/>
<path opacity="0.8" d="M199.241 19.1796H104.236C100.596 19.1796 97.6448 22.1308 97.6448 25.7712V28.5901C97.6448 32.2306 100.596 35.1818 104.236 35.1818H199.241C202.881 35.1818 205.833 32.2306 205.833 28.5901V25.7712C205.833 22.1308 202.881 19.1796 199.241 19.1796Z" fill="white"/>
<path d="M187.655 33.1525C187.388 33.1525 187.131 33.0462 186.942 32.8571C186.753 32.6679 186.647 32.4114 186.647 32.144V22.217C186.647 21.9496 186.753 21.693 186.942 21.5039C187.131 21.3148 187.388 21.2085 187.655 21.2085C187.788 21.2085 187.919 21.2346 188.041 21.2853C188.164 21.336 188.275 21.4103 188.369 21.5039C188.462 21.5976 188.536 21.7087 188.587 21.8311C188.638 21.9535 188.664 22.0846 188.664 22.217V32.144C188.664 32.2764 188.638 32.4075 188.587 32.5299C188.536 32.6523 188.462 32.7634 188.369 32.8571C188.275 32.9507 188.164 33.025 188.041 33.0757C187.919 33.1264 187.788 33.1525 187.655 33.1525Z" fill="#2161D5"/>
<path d="M197.989 23.341C197.499 22.8513 196.88 22.5113 196.203 22.361C195.527 22.2108 194.822 22.2564 194.171 22.4925C193.519 22.7286 192.949 23.1455 192.526 23.6943C192.103 24.2431 191.845 24.9011 191.783 25.5912C191.72 26.2812 191.856 26.9748 192.173 27.5905C192.491 28.2063 192.978 28.7188 193.576 29.0679C194.174 29.4171 194.86 29.5884 195.552 29.5619C196.245 29.5353 196.915 29.312 197.485 28.9181C197.514 29.0442 197.577 29.1599 197.668 29.2522L200.28 31.8646C200.35 31.9352 200.434 31.9912 200.527 32.0294C200.619 32.0676 200.718 32.0873 200.818 32.0873C200.917 32.0873 201.016 32.0676 201.108 32.0294C201.201 31.9912 201.285 31.9352 201.355 31.8646C201.426 31.794 201.482 31.7102 201.52 31.6179C201.558 31.5257 201.578 31.4268 201.578 31.3269C201.578 31.2271 201.558 31.1282 201.52 31.036C201.482 30.9437 201.426 30.8599 201.355 30.7893L198.743 28.1769C198.65 28.0864 198.535 28.0233 198.409 27.9947C198.895 27.2927 199.119 26.4423 199.043 25.5919C198.966 24.7414 198.593 23.9448 197.989 23.341ZM197.072 27.5937C196.743 27.9228 196.324 28.147 195.868 28.2379C195.412 28.3288 194.939 28.2824 194.51 28.1045C194.08 27.9266 193.712 27.6253 193.454 27.2386C193.196 26.8519 193.058 26.3972 193.058 25.9321C193.058 25.467 193.196 25.0123 193.454 24.6256C193.712 24.239 194.08 23.9376 194.51 23.7597C194.939 23.5819 195.412 23.5354 195.868 23.6264C196.324 23.7173 196.743 23.9415 197.072 24.2705C197.509 24.7109 197.754 25.3059 197.754 25.9261C197.754 26.5462 197.509 27.1412 197.072 27.5816V27.5937Z" fill="#2161D5"/>
<g opacity="0.3">
<path opacity="0.3" d="M187.655 33.1525C187.388 33.1525 187.131 33.0462 186.942 32.8571C186.753 32.6679 186.647 32.4114 186.647 32.144V22.217C186.647 21.9496 186.753 21.693 186.942 21.5039C187.131 21.3148 187.388 21.2085 187.655 21.2085C187.788 21.2085 187.919 21.2346 188.041 21.2853C188.164 21.336 188.275 21.4103 188.369 21.5039C188.462 21.5976 188.536 21.7087 188.587 21.8311C188.638 21.9535 188.664 22.0846 188.664 22.217V32.144C188.664 32.2764 188.638 32.4075 188.587 32.5299C188.536 32.6523 188.462 32.7634 188.369 32.8571C188.275 32.9507 188.164 33.025 188.041 33.0757C187.919 33.1264 187.788 33.1525 187.655 33.1525Z" fill="white"/>
<path opacity="0.3" d="M197.989 23.341C197.499 22.8513 196.88 22.5113 196.203 22.361C195.527 22.2108 194.822 22.2564 194.171 22.4925C193.519 22.7286 192.949 23.1455 192.526 23.6943C192.103 24.2431 191.845 24.9011 191.783 25.5912C191.72 26.2812 191.856 26.9748 192.173 27.5905C192.491 28.2063 192.978 28.7188 193.576 29.0679C194.174 29.4171 194.86 29.5884 195.552 29.5619C196.245 29.5353 196.915 29.312 197.485 28.9181C197.514 29.0442 197.577 29.1599 197.668 29.2522L200.28 31.8646C200.35 31.9352 200.434 31.9912 200.527 32.0294C200.619 32.0676 200.718 32.0873 200.818 32.0873C200.917 32.0873 201.016 32.0676 201.108 32.0294C201.201 31.9912 201.285 31.9352 201.355 31.8646C201.426 31.794 201.482 31.7102 201.52 31.6179C201.558 31.5257 201.578 31.4268 201.578 31.3269C201.578 31.2271 201.558 31.1282 201.52 31.036C201.482 30.9437 201.426 30.8599 201.355 30.7893L198.743 28.1769C198.65 28.0864 198.535 28.0233 198.409 27.9947C198.895 27.2927 199.119 26.4423 199.043 25.5919C198.966 24.7414 198.593 23.9448 197.989 23.341ZM197.072 27.5937C196.743 27.9228 196.324 28.147 195.868 28.2379C195.412 28.3288 194.939 28.2824 194.51 28.1045C194.08 27.9266 193.712 27.6253 193.454 27.2386C193.196 26.8519 193.058 26.3972 193.058 25.9321C193.058 25.467 193.196 25.0123 193.454 24.6256C193.712 24.239 194.08 23.9376 194.51 23.7597C194.939 23.5819 195.412 23.5354 195.868 23.6264C196.324 23.7173 196.743 23.9415 197.072 24.2705C197.509 24.7109 197.754 25.3059 197.754 25.9261C197.754 26.5462 197.509 27.1412 197.072 27.5816V27.5937Z" fill="white"/>
</g>
<path d="M111.952 29.4954L110.889 27.9462H109.71V29.4832H108.435V23.9547H110.828C111.266 23.9463 111.701 24.0312 112.104 24.2038C112.45 24.3468 112.743 24.5925 112.944 24.9076C113.145 25.2228 113.244 25.5922 113.228 25.9656C113.239 26.3375 113.136 26.7038 112.933 27.0155C112.73 27.3272 112.437 27.5693 112.092 27.7092L113.307 29.4832L111.952 29.4954ZM111.63 25.2427C111.376 25.0613 111.067 24.9733 110.755 24.9936H109.71V26.9195H110.755C111.067 26.9397 111.376 26.8517 111.63 26.6704C111.726 26.578 111.803 26.4671 111.855 26.3445C111.907 26.2218 111.934 26.0898 111.934 25.9565C111.934 25.8232 111.907 25.6913 111.855 25.5686C111.803 25.4459 111.726 25.3351 111.63 25.2427Z" fill="#263238"/>
<path d="M118.519 28.4684V29.4951H114.267V23.9667H118.446V24.9934H115.536V26.2084H118.106V27.2048H115.536V28.4806L118.519 28.4684Z" fill="#263238"/>
<path d="M120.087 29.4163C119.734 29.3217 119.401 29.1654 119.103 28.9546L119.534 27.9886C119.792 28.1749 120.08 28.3166 120.385 28.4078C120.701 28.511 121.031 28.5643 121.363 28.5658C121.64 28.5855 121.917 28.5288 122.165 28.4017C122.243 28.3622 122.31 28.3014 122.356 28.2263C122.402 28.1512 122.426 28.0646 122.426 27.9765C122.428 27.9137 122.415 27.8513 122.389 27.7944C122.363 27.7374 122.323 27.6874 122.274 27.6484C122.157 27.5527 122.023 27.4804 121.879 27.4358C121.715 27.3872 121.503 27.3264 121.229 27.2657C120.877 27.1852 120.53 27.0837 120.19 26.9619C119.924 26.864 119.687 26.6987 119.504 26.482C119.3 26.2326 119.196 25.9166 119.212 25.595C119.207 25.2853 119.298 24.9817 119.473 24.7262C119.672 24.4533 119.943 24.2426 120.257 24.1187C120.665 23.9518 121.104 23.8732 121.545 23.8878C121.893 23.8876 122.24 23.9304 122.578 24.0154C122.89 24.0891 123.189 24.21 123.465 24.3739L123.07 25.3459C122.603 25.0727 122.074 24.9241 121.533 24.9146C121.259 24.894 120.984 24.9531 120.743 25.0847C120.664 25.1327 120.598 25.2004 120.552 25.2813C120.506 25.3622 120.482 25.4535 120.482 25.5464C120.483 25.6383 120.512 25.7278 120.565 25.8027C120.618 25.8777 120.693 25.9345 120.78 25.9656C121.07 26.0914 121.373 26.1831 121.685 26.239C122.035 26.3194 122.38 26.4208 122.718 26.5427C122.985 26.6399 123.223 26.8029 123.41 27.0166C123.616 27.2601 123.72 27.5732 123.702 27.8914C123.703 28.1996 123.61 28.5006 123.434 28.7541C123.233 29.0288 122.957 29.2397 122.639 29.3616C122.23 29.5285 121.791 29.6072 121.351 29.5925C120.923 29.5928 120.498 29.5335 120.087 29.4163Z" fill="#263238"/>
<path d="M125.64 25.0116H123.872V23.9667H128.689V25.0116H126.921V29.4951H125.64V25.0116Z" fill="#263238"/>
<path d="M132.742 28.3103H130.178L129.686 29.5254H128.374L130.84 23.9969H132.104L134.576 29.5254H133.234L132.742 28.3103ZM132.341 27.3444L131.46 25.2241L130.585 27.3383L132.341 27.3444Z" fill="#263238"/>
<path d="M135.646 28.9362C135.414 28.6855 135.237 28.3901 135.124 28.0684C135.011 27.7466 134.966 27.4052 134.989 27.065V23.9667H136.271V27.0043C136.271 27.9946 136.678 28.4927 137.486 28.4927C137.655 28.5034 137.824 28.4769 137.982 28.4149C138.139 28.353 138.281 28.2572 138.398 28.1343C138.635 27.8077 138.747 27.4067 138.714 27.0043V23.9667H139.977V27.065C140.015 27.4041 139.977 27.7473 139.865 28.0696C139.753 28.3919 139.57 28.685 139.33 28.9274C139.09 29.1698 138.799 29.3553 138.478 29.4704C138.156 29.5855 137.814 29.6271 137.474 29.5923C137.141 29.6111 136.807 29.5626 136.493 29.4499C136.179 29.3372 135.891 29.1625 135.646 28.9362Z" fill="#263238"/>
<path d="M144.777 29.4953L143.713 27.9461H142.535V29.4832H141.253V23.9547H143.647C144.085 23.9447 144.52 24.0297 144.922 24.2038C145.269 24.3458 145.563 24.5911 145.766 24.9063C145.968 25.2216 146.068 25.5914 146.052 25.9656C146.06 26.3415 145.956 26.7113 145.755 27.0288C145.546 27.3332 145.252 27.5698 144.91 27.7092L146.125 29.4832L144.777 29.4953ZM144.455 25.2427C144.2 25.0613 143.891 24.9733 143.58 24.9936H142.535V26.9194H143.58C143.891 26.9397 144.2 26.8517 144.455 26.6703C144.549 26.5771 144.624 26.4659 144.676 26.3434C144.727 26.2209 144.753 26.0893 144.753 25.9565C144.753 25.8237 144.727 25.6921 144.676 25.5696C144.624 25.4471 144.549 25.3359 144.455 25.2427Z" fill="#263238"/>
<path d="M150.7 28.3103H148.136L147.644 29.5254H146.332L148.799 23.9969H150.062L152.535 29.5254H151.192L150.7 28.3103ZM150.299 27.3383L149.424 25.2181L148.543 27.3383H150.299Z" fill="#263238"/>
<path d="M158.179 23.9668V29.4952H157.128L154.375 26.1235V29.477H153.112V23.9485H154.169L156.915 27.3082V23.9668H158.179Z" fill="#263238"/>
<path d="M160.639 25.0116H158.865V23.9667H163.683V25.0116H161.915V29.4951H160.639V25.0116Z" fill="#263238"/>
<path d="M204.101 158.813C199.288 159.414 194.419 159.414 189.606 158.813C184.745 158.302 181.598 154.335 182.467 150.629C182.54 150.344 182.57 150.198 182.637 149.906C183.512 146.201 187.279 143.965 191.112 144.366C194.925 144.84 198.782 144.84 202.594 144.366C206.428 143.965 210.195 146.188 211.063 149.906C211.136 150.198 211.167 150.344 211.233 150.629C212.108 154.311 208.943 158.302 204.101 158.813Z" fill="#2161D5"/>
<path d="M198.53 157.038L197.983 170.367H200.17L200.717 157.038H198.53Z" fill="#263238"/>
<path d="M190.316 170.367H192.503L193.05 157.038H190.863L190.316 170.367Z" fill="#263238"/>
<g opacity="0.6">
<path opacity="0.6" d="M198.53 157.039L197.983 170.368H200.171L200.717 157.039H198.53Z" fill="white"/>
<path opacity="0.6" d="M190.316 170.368H192.504L193.05 157.039H190.863L190.316 170.368Z" fill="white"/>
</g>
<path d="M198.937 174.432H174.01L171.823 219.377H173.622L176.902 178.022H184.715L185.778 219.377H187.169L188.233 178.022H196.045L199.326 219.377H201.124L198.937 174.432Z" fill="#263238"/>
<path opacity="0.6" d="M198.937 174.432H174.01L171.823 219.377H173.622L176.902 178.022H184.715L185.778 219.377H187.169L188.233 178.022H196.045L199.326 219.377H201.124L198.937 174.432Z" fill="white"/>
<path opacity="0.2" d="M198.937 174.432H174.01L173.834 178.022H176.902H184.715H188.232H196.045H199.113L198.937 174.432Z" fill="black"/>
<path d="M203.032 158.813C198.217 159.414 193.345 159.414 188.53 158.813C183.67 158.302 180.529 154.335 181.398 150.629C181.465 150.344 181.501 150.198 181.568 149.906C182.437 146.201 186.204 143.965 190.037 144.366C193.85 144.84 197.706 144.84 201.519 144.366C205.359 143.965 209.125 146.188 209.994 149.906C210.061 150.198 210.097 150.344 210.164 150.629C211.033 154.311 207.892 158.302 203.032 158.813Z" fill="#2161D5"/>
<g opacity="0.5">
<path opacity="0.5" d="M203.032 158.813C198.217 159.414 193.345 159.414 188.53 158.813C183.67 158.302 180.529 154.335 181.398 150.629C181.465 150.344 181.501 150.198 181.568 149.906C182.437 146.2 186.204 143.965 190.037 144.366C193.85 144.839 197.706 144.839 201.519 144.366C205.359 143.965 209.125 146.188 209.994 149.906C210.061 150.198 210.097 150.344 210.164 150.629C211.033 154.311 207.892 158.302 203.032 158.813Z" fill="white"/>
</g>
<g opacity="0.7">
<path opacity="0.7" d="M202.424 151.388C202.424 151.575 202.369 151.757 202.265 151.912C202.162 152.066 202.015 152.187 201.843 152.258C201.671 152.33 201.481 152.348 201.299 152.312C201.116 152.276 200.948 152.186 200.817 152.054C200.685 151.923 200.595 151.755 200.559 151.572C200.523 151.39 200.541 151.2 200.612 151.028C200.684 150.856 200.804 150.709 200.959 150.605C201.114 150.502 201.296 150.447 201.482 150.447C201.732 150.447 201.972 150.546 202.148 150.723C202.325 150.899 202.424 151.139 202.424 151.388Z" fill="white"/>
<path opacity="0.7" d="M191.051 151.388C191.053 151.576 190.998 151.761 190.894 151.917C190.791 152.074 190.643 152.196 190.469 152.269C190.296 152.341 190.105 152.361 189.92 152.324C189.736 152.288 189.566 152.198 189.434 152.065C189.301 151.932 189.21 151.762 189.174 151.578C189.137 151.394 189.157 151.202 189.229 151.029C189.302 150.856 189.424 150.708 189.581 150.604C189.738 150.5 189.922 150.446 190.11 150.447C190.233 150.447 190.356 150.471 190.47 150.519C190.584 150.566 190.688 150.635 190.776 150.723C190.863 150.81 190.932 150.914 190.98 151.028C191.027 151.142 191.051 151.265 191.051 151.388Z" fill="white"/>
</g>
<path d="M202.175 175.234H170.772C170.379 175.235 169.989 175.158 169.625 175.008C169.261 174.858 168.931 174.637 168.653 174.359C168.374 174.08 168.154 173.75 168.004 173.386C167.853 173.022 167.776 172.633 167.777 172.239C167.777 171.445 168.093 170.683 168.654 170.121C169.216 169.56 169.978 169.244 170.772 169.244H202.175C202.969 169.244 203.731 169.56 204.293 170.121C204.855 170.683 205.17 171.445 205.17 172.239C205.171 172.633 205.094 173.022 204.944 173.386C204.794 173.75 204.573 174.08 204.295 174.359C204.017 174.637 203.686 174.858 203.322 175.008C202.959 175.158 202.569 175.235 202.175 175.234Z" fill="#2161D5"/>
<path opacity="0.5" d="M202.175 175.234H170.772C170.379 175.235 169.989 175.158 169.625 175.008C169.261 174.858 168.931 174.637 168.653 174.359C168.374 174.08 168.154 173.75 168.004 173.386C167.853 173.022 167.776 172.633 167.777 172.239C167.777 171.445 168.093 170.683 168.654 170.121C169.216 169.56 169.978 169.244 170.772 169.244H202.175C202.969 169.244 203.731 169.56 204.293 170.121C204.855 170.683 205.17 171.445 205.17 172.239C205.171 172.633 205.094 173.022 204.944 173.386C204.794 173.75 204.573 174.08 204.295 174.359C204.017 174.637 203.686 174.858 203.322 175.008C202.959 175.158 202.569 175.235 202.175 175.234Z" fill="white"/>
<path d="M163.172 111.407C163.172 111.407 155.669 105.593 162.382 99.8645C162.382 99.8645 169.837 91.4321 174.472 97.5863C175.28 98.6555 178.798 97.5377 179.332 101.839C179.83 105.764 182.564 103.662 182.291 108.078C182.06 111.833 184.891 110.934 184.843 113.273C184.782 116.31 177.552 114.822 174.047 116.735C170.128 118.88 166.72 122.568 165.882 118.558C165.381 116.041 164.465 113.624 163.172 111.407Z" fill="#263238"/>
<path d="M170.833 132.367C170.833 132.367 170.596 142.015 167.158 144.275C163.719 146.535 154.6 131.747 154.6 131.747L154.053 124.232L157.881 122.908L159.43 128.601L158.063 131.383C158.063 131.383 163.47 138.764 164.181 137.944C164.892 137.124 165.396 130.703 165.396 130.703L170.833 132.367Z" fill="#FF8B7B"/>
<path d="M167.619 121.268C164.515 123.291 164.922 128.011 163.974 133.606L171.441 134.572C171.441 134.572 173.154 117.665 167.619 121.268Z" fill="#2161D5"/>
<path opacity="0.1" d="M167.127 124.001C167.127 124.001 164.825 128.467 167.127 136.802C167.744 138.82 168.151 140.897 168.342 142.999C169.837 140.757 170.426 136.875 170.657 134.493L171.404 134.59C171.404 134.59 172.042 128.4 171.319 124.311L169.108 123.005L167.127 124.001Z" fill="black"/>
<path d="M143.762 174.523L146.781 207.53L150.839 208.004L152.929 175.088L143.762 174.523Z" fill="#FF8B7B"/>
<path opacity="0.1" d="M143.762 174.523L146.781 207.53L150.839 208.004L152.929 175.088L143.762 174.523Z" fill="black"/>
<path d="M146.763 207.05L150.663 205.786C150.746 205.759 150.835 205.761 150.916 205.791C150.998 205.821 151.067 205.877 151.113 205.95L153.124 209.352C153.17 209.423 153.201 209.502 153.215 209.585C153.229 209.668 153.226 209.753 153.206 209.835C153.185 209.916 153.148 209.993 153.096 210.06C153.044 210.126 152.979 210.181 152.905 210.221C152.868 210.245 152.827 210.264 152.784 210.276C151.155 210.78 149.679 211.163 147.662 211.825C145.275 212.609 145.973 212.694 143.185 213.647C141.502 214.225 140.566 212.432 141.247 212.074C144.394 210.592 145.013 209.279 145.894 207.694C146.093 207.378 146.403 207.148 146.763 207.05Z" fill="#263238"/>
<path d="M154.266 177.057L149.922 212.943L153.118 213.763C157.533 203.002 160.902 191.841 163.178 180.435L154.266 177.057Z" fill="#FF8B7B"/>
<path d="M149.904 212.341L153.828 213.556C153.912 213.582 153.984 213.635 154.033 213.707C154.083 213.778 154.107 213.864 154.102 213.951L153.822 217.858C153.823 217.943 153.805 218.028 153.771 218.107C153.736 218.185 153.685 218.255 153.621 218.313C153.558 218.37 153.483 218.413 153.401 218.44C153.319 218.466 153.233 218.475 153.148 218.465C153.104 218.471 153.059 218.471 153.014 218.465C151.386 217.943 149.977 217.42 147.923 216.813C145.493 216.096 146.04 216.564 143.203 215.756C141.496 215.27 141.763 213.241 142.51 213.362C145.943 213.939 147.194 213.21 148.822 212.408C149.163 212.258 149.547 212.234 149.904 212.341Z" fill="#263238"/>
<path d="M192.898 149.779C193.02 150.659 193.272 151.517 193.646 152.324C196.355 158.624 200.328 174.195 166.04 170.811L163.865 182.457L142.948 176.321C142.948 176.321 142.109 160.143 145.67 157.014C150.056 153.162 173.275 153.314 173.275 153.314L173.154 150.526L192.898 149.779Z" fill="#2161D5"/>
<path opacity="0.1" d="M154.12 160.586C149.977 163.563 149.381 171.595 149.697 178.302L152.887 179.237C152.832 176.333 152.887 168.952 154.709 165.264C157.024 160.574 163.634 155.915 172.054 154.87C172.048 154.839 161.72 155.119 154.12 160.586Z" fill="black"/>
<path d="M179.995 151.133C183.549 151.267 194.715 152.239 194.101 149.311C193.098 144.853 192.407 140.33 192.036 135.775C191.458 127.634 191.957 119.494 189.29 116.814C186.507 114.026 169.746 117.647 167.619 121.796C165.128 126.656 167.619 132.124 169.612 139.621C170.797 144.104 171.574 148.278 172.315 150.556C172.911 152.415 178.075 151.067 179.995 151.133Z" fill="#263238"/>
<path opacity="0.1" d="M193.646 152.324C193.272 151.517 193.02 150.659 192.898 149.779L173.154 150.526L173.269 153.181C174.302 153.46 176.064 153.661 178.834 153.181C183.445 152.348 188.779 154.548 193.889 152.919L193.646 152.324Z" fill="black"/>
<path opacity="0.6" d="M181.161 146.626C181.161 146.626 189.527 145.362 193.014 143.71C192.631 141.419 192.248 138.661 192.048 135.812C191.604 129.609 191.787 123.406 190.717 119.621L184.922 120.782C184.922 120.782 184.466 124.84 190.207 138.509L188.451 142.592L181.161 146.626Z" fill="black"/>
<path opacity="0.1" d="M187.078 169.687C174.12 170.355 166.617 167.038 166.617 167.038L166.04 170.811C175.912 171.777 182.607 171.182 187.078 169.687Z" fill="black"/>
<path d="M188.129 128.327C188.129 128.327 191.337 135.715 190.79 136.802C190.243 137.889 180.815 144.183 180.815 144.183C180.815 144.183 175.195 140.356 173.701 141.996C172.714 143.103 171.824 144.292 171.04 145.55L172.255 146.097L175.323 145.131C175.323 145.131 179.393 147.701 181.167 146.626C181.167 146.626 195.748 141.583 196.112 137.762C196.477 133.941 193.026 125.611 193.026 125.611L188.129 128.327Z" fill="#FF8B7B"/>
<path d="M187.236 116.037C185.699 116.104 181.27 117.969 188.306 130.01L194.666 126.936C194.666 126.936 191.489 115.824 187.236 116.037Z" fill="#2161D5"/>
<path d="M173.622 109.785C174.533 112.471 176.088 116.134 178.707 116.778C178.707 116.778 180.031 119.439 174.721 126.018C170.232 123.904 171.179 119.202 171.179 119.202C172.127 118.595 172.589 117.805 171.258 116.383L173.622 109.785Z" fill="#FF8B7B"/>
<path opacity="0.1" d="M172.583 112.677L171.258 116.383C171.665 116.758 171.949 117.247 172.073 117.786C174.648 116.857 174.503 112.137 174.503 112.137L172.583 112.677Z" fill="black"/>
<path d="M174.399 103.832C175.614 108.412 176.185 110.32 174.666 113.364C172.382 117.944 166.489 118.394 163.956 114.263C161.684 110.539 160.116 103.643 163.956 100.454C164.793 99.7385 165.8 99.2498 166.88 99.0341C167.96 98.8185 169.077 98.8831 170.125 99.2218C171.173 99.5605 172.116 100.162 172.865 100.969C173.615 101.776 174.145 102.762 174.405 103.832H174.399Z" fill="#FF8B7B"/>
<path d="M167.297 108.139C167.449 108.497 167.383 108.862 167.152 108.965C166.921 109.069 166.611 108.85 166.459 108.497C166.307 108.145 166.38 107.774 166.605 107.677C166.83 107.58 167.139 107.835 167.297 108.139Z" fill="#263238"/>
<path d="M163.306 109.871C163.452 110.229 163.385 110.594 163.16 110.691C162.935 110.788 162.613 110.581 162.461 110.229C162.31 109.877 162.382 109.506 162.613 109.409C162.844 109.312 163.154 109.518 163.306 109.871Z" fill="#263238"/>
<path d="M162.723 109.385L161.769 109.5C161.769 109.5 162.486 109.962 162.723 109.385Z" fill="#263238"/>
<path d="M164.812 109.962C164.838 110.905 164.733 111.847 164.503 112.762C164.739 112.813 164.983 112.812 165.218 112.761C165.454 112.71 165.676 112.609 165.87 112.465L164.812 109.962Z" fill="#FF5652"/>
<path d="M168.403 113.054C168.243 113.156 168.075 113.244 167.899 113.315C167.886 113.321 167.871 113.324 167.857 113.325C167.842 113.325 167.828 113.323 167.814 113.318C167.801 113.313 167.788 113.305 167.778 113.295C167.767 113.285 167.759 113.273 167.753 113.26C167.747 113.246 167.744 113.231 167.745 113.216C167.745 113.201 167.748 113.186 167.754 113.173C167.761 113.159 167.77 113.147 167.781 113.137C167.792 113.127 167.805 113.119 167.82 113.114C168.265 112.938 168.662 112.659 168.979 112.3C169.295 111.941 169.523 111.512 169.642 111.049C169.648 111.019 169.665 110.993 169.69 110.976C169.715 110.959 169.746 110.952 169.776 110.958C169.79 110.96 169.804 110.965 169.817 110.973C169.829 110.98 169.84 110.99 169.848 111.002C169.857 111.014 169.863 111.028 169.866 111.042C169.869 111.056 169.87 111.071 169.867 111.085C169.767 111.495 169.586 111.88 169.335 112.218C169.083 112.556 168.766 112.84 168.403 113.054Z" fill="#263238"/>
<path d="M168.567 106.681C168.528 106.709 168.481 106.724 168.433 106.724C168.385 106.724 168.339 106.709 168.3 106.681C167.991 106.481 167.644 106.348 167.281 106.29C166.918 106.231 166.547 106.248 166.192 106.341C166.134 106.356 166.072 106.348 166.02 106.318C165.968 106.289 165.929 106.24 165.912 106.183C165.904 106.155 165.901 106.126 165.904 106.097C165.907 106.068 165.916 106.04 165.931 106.014C165.945 105.989 165.964 105.966 165.987 105.948C166.01 105.93 166.036 105.917 166.064 105.909C166.491 105.797 166.937 105.777 167.372 105.853C167.808 105.928 168.221 106.097 168.585 106.347C168.606 106.367 168.622 106.391 168.633 106.418C168.644 106.445 168.65 106.473 168.65 106.502C168.65 106.531 168.644 106.559 168.633 106.586C168.622 106.612 168.606 106.636 168.585 106.657C168.58 106.666 168.574 106.674 168.567 106.681Z" fill="#263238"/>
<path d="M161.319 108.534C161.284 108.555 161.244 108.566 161.204 108.566C161.163 108.566 161.123 108.555 161.088 108.534C161.062 108.52 161.038 108.502 161.019 108.479C161 108.456 160.986 108.43 160.978 108.401C160.969 108.373 160.966 108.343 160.97 108.314C160.973 108.284 160.983 108.256 160.997 108.23C161.155 107.905 161.391 107.624 161.683 107.412C161.976 107.2 162.316 107.064 162.674 107.015C162.702 107.011 162.731 107.012 162.759 107.019C162.787 107.027 162.813 107.04 162.836 107.057C162.858 107.075 162.877 107.097 162.891 107.122C162.905 107.147 162.914 107.175 162.917 107.203C162.922 107.262 162.904 107.32 162.866 107.366C162.829 107.411 162.775 107.44 162.717 107.446C162.438 107.499 162.175 107.616 161.949 107.787C161.724 107.959 161.541 108.182 161.416 108.437C161.394 108.477 161.36 108.511 161.319 108.534Z" fill="#263238"/>
<path d="M166.738 107.714L165.785 107.823C165.785 107.823 166.483 108.285 166.738 107.714Z" fill="#263238"/>
<path d="M176.75 106.888C176.728 107.784 176.352 108.636 175.705 109.257C174.837 110.071 173.883 109.427 173.628 108.315C173.433 107.313 173.628 105.685 174.733 105.278C174.977 105.194 175.238 105.174 175.492 105.218C175.746 105.263 175.985 105.37 176.186 105.532C176.387 105.693 176.544 105.902 176.643 106.14C176.741 106.378 176.778 106.637 176.75 106.894V106.888Z" fill="#FF8B7B"/>
<path d="M163.585 101.627C163.62 102.392 163.916 103.122 164.425 103.695C164.934 104.268 165.624 104.649 166.38 104.774C169.144 105.32 169.132 108.273 171.094 108.346C173.057 108.419 172.461 110.648 174.017 110.241C175.572 109.834 174.733 107.58 175.572 106.718C176.756 105.503 174.472 100.217 171.696 99.1236C168.919 98.03 163.039 98.0725 163.585 101.627Z" fill="#263238"/>
<path d="M163.956 101.037C163.956 101.037 161.775 102.933 162.243 105.193C162.711 107.453 161.082 107.823 161.635 109.986C162.188 112.149 163.792 112.416 163.962 114.239C164.132 116.061 165.882 116.505 165.177 117.507C164.472 118.51 163.215 116.231 163.124 114.47C163.033 112.708 160.888 112.611 160.615 110.284C160.341 107.957 161.574 106.863 161.222 104.816C160.87 102.769 160.615 99.8464 164.509 100.029C168.403 100.211 163.956 101.037 163.956 101.037Z" fill="#263238"/>
<path d="M163.828 99.4759C163.828 99.4759 161.331 103.929 163.828 105.739C166.325 107.55 162.759 103.449 163.828 99.4759Z" fill="#263238"/>
<path d="M163.105 99.9619C163.105 99.9619 158.421 100.381 158.3 103.893C158.178 107.404 159.223 101.317 163.105 99.9619Z" fill="#263238"/>
<path d="M156.253 124.402C156.24 124.76 156.299 125.116 156.424 125.451C156.55 125.786 156.741 126.093 156.985 126.354C157.229 126.615 157.523 126.826 157.848 126.973C158.174 127.121 158.526 127.203 158.883 127.215H159.023C159.284 128.43 160.359 128.546 161.641 128.546H162.194C163.676 128.546 164.873 128.126 164.873 126.644V121.93C164.873 121.728 164.793 121.534 164.651 121.39C164.509 121.247 164.316 121.166 164.114 121.164H159.722C159.52 121.166 159.326 121.247 159.184 121.39C159.042 121.534 158.962 121.728 158.962 121.93V122.233H158.883C157.273 122.221 156.253 123.023 156.253 124.402ZM157.225 124.512C157.225 123.612 157.875 123.09 158.938 123.09V126.365C158.472 126.346 158.033 126.143 157.715 125.802C157.398 125.461 157.228 125.008 157.243 124.542L157.225 124.512Z" fill="#2161D5"/>
<path opacity="0.2" d="M156.253 124.402C156.24 124.76 156.299 125.116 156.424 125.451C156.55 125.786 156.741 126.093 156.985 126.354C157.229 126.615 157.523 126.826 157.848 126.973C158.174 127.121 158.526 127.203 158.883 127.215H159.023C159.284 128.43 160.359 128.546 161.641 128.546H162.194C163.676 128.546 164.873 128.126 164.873 126.644V121.93C164.873 121.728 164.793 121.534 164.651 121.39C164.509 121.247 164.316 121.166 164.114 121.164H159.722C159.52 121.166 159.326 121.247 159.184 121.39C159.042 121.534 158.962 121.728 158.962 121.93V122.233H158.883C157.273 122.221 156.253 123.023 156.253 124.402ZM157.225 124.512C157.225 123.612 157.875 123.09 158.938 123.09V126.365C158.472 126.346 158.033 126.143 157.715 125.802C157.398 125.461 157.228 125.008 157.243 124.542L157.225 124.512Z" fill="black"/>
<path opacity="0.1" d="M158.956 126.365V126.656C158.957 126.848 158.978 127.039 159.017 127.227H158.877C158.651 127.228 158.426 127.197 158.209 127.136V126.201C158.442 126.31 158.698 126.366 158.956 126.365Z" fill="black"/>
<path opacity="0.1" d="M158.901 122.222H158.98V123.084C158.736 123.083 158.493 123.116 158.257 123.181V122.27C158.47 122.236 158.686 122.22 158.901 122.222Z" fill="black"/>
<path opacity="0.1" d="M158.956 126.365V126.656C158.957 126.848 158.978 127.039 159.017 127.227H158.877C158.651 127.228 158.426 127.197 158.209 127.136V126.201C158.442 126.31 158.698 126.366 158.956 126.365Z" fill="black"/>
<path opacity="0.1" d="M158.901 122.222H158.98V123.084C158.736 123.083 158.493 123.116 158.257 123.181V122.27C158.47 122.236 158.686 122.22 158.901 122.222Z" fill="black"/>
<path d="M154.57 131.747L154.023 124.232L157.85 122.908L159.399 128.607L158.033 131.383L154.57 131.747Z" fill="#FF8B7B"/>
<path d="M121.745 132.981C121.745 132.981 118.276 136.936 117.146 132.319C116.016 127.702 114.941 123.68 114.941 123.68C114.941 123.68 133.701 129.075 121.745 132.981Z" fill="#2161D5"/>
<path opacity="0.3" d="M121.745 132.981C121.745 132.981 118.276 136.936 117.146 132.319C116.016 127.702 114.941 123.68 114.941 123.68C114.941 123.68 133.701 129.075 121.745 132.981Z" fill="black"/>
<path d="M122.231 138.953C122.231 138.953 123.446 129.664 118.349 126.584C118.349 126.584 122.729 130.666 121.387 138.838L122.231 138.953Z" fill="#2161D5"/>
<path opacity="0.5" d="M122.231 138.953C122.231 138.953 123.446 129.664 118.349 126.584C118.349 126.584 122.729 130.666 121.387 138.838L122.231 138.953Z" fill="white"/>
<path d="M124.376 133.455C124.376 133.455 120.366 129.56 124.947 127.379C129.528 125.198 134.449 129.402 134.449 129.402C134.449 129.402 124.692 140.289 124.376 133.455Z" fill="#2161D5"/>
<path d="M122.76 138.516C122.76 138.516 122.839 129.7 129.522 129.403C129.522 129.403 123.914 130.569 123.368 138.516H122.76Z" fill="#2161D5"/>
<path opacity="0.5" d="M122.76 138.516C122.76 138.516 122.839 129.7 129.522 129.403C129.522 129.403 123.914 130.569 123.368 138.516H122.76Z" fill="white"/>
<path d="M119.127 134.628C119.127 134.628 122.085 130.982 118.118 130.108C114.151 129.233 110.731 134.628 110.731 134.628C110.731 134.628 120.682 138.813 119.127 134.628Z" fill="#2161D5"/>
<path opacity="0.2" d="M119.127 134.628C119.127 134.628 122.085 130.982 118.118 130.108C114.151 129.233 110.731 134.628 110.731 134.628C110.731 134.628 120.682 138.813 119.127 134.628Z" fill="white"/>
<path d="M121.187 138.516C121.187 138.516 119.546 129.014 112.918 133.388C112.918 133.388 118.659 130.587 120.366 138.516H121.187Z" fill="#2161D5"/>
<path opacity="0.5" d="M121.187 138.516C121.187 138.516 119.546 129.014 112.918 133.388C112.918 133.388 118.659 130.587 120.366 138.516H121.187Z" fill="white"/>
<path d="M127.748 137.884H116.551L116.831 140.156H117.56L118.465 147.592H125.834L126.745 140.156H127.468L127.748 137.884Z" fill="#263238"/>
<path opacity="0.4" d="M126.551 141.748L126.733 140.253H117.572L117.754 141.748H126.551Z" fill="black"/>
<path d="M201.167 153.005H199.326H173.616H171.775L165.761 219.377H167.601H168.306H170.147L177.352 156.559H195.59L202.795 219.377H204.636H205.341H207.182L201.167 153.005Z" fill="#263238"/>
<path opacity="0.2" d="M201.167 153.005H199.326H173.616H171.775L165.761 219.377H167.601H168.306H170.147L177.352 156.559H195.59L202.795 219.377H204.636H205.341H207.182L201.167 153.005Z" fill="white"/>
<path opacity="0.1" d="M177.352 156.559H197.424L204.636 219.377H207.181L201.167 153.005H173.616L167.601 219.377H170.147L177.352 156.559Z" fill="white"/>
<path d="M131.575 153.005H129.734H104.024H102.183L96.1687 219.377H98.0095H98.7142H100.555L107.76 156.559H125.998L133.203 219.377H135.044H135.749H137.59L131.575 153.005Z" fill="#263238"/>
<path opacity="0.2" d="M131.575 153.005H129.734H104.024H102.183L96.1687 219.377H98.0095H98.7142H100.555L107.76 156.559H125.998L133.203 219.377H135.044H135.749H137.59L131.575 153.005Z" fill="white"/>
<path opacity="0.1" d="M107.76 156.559H127.833L135.044 219.377H137.59L131.575 153.005H104.024L98.0095 219.377H100.555L107.76 156.559Z" fill="white"/>
<path d="M209.022 147.817H93.9816V150.52H209.022V147.817Z" fill="#2161D5"/>
<path opacity="0.5" d="M209.022 147.817H93.9816V150.52H209.022V147.817Z" fill="white"/>
<path opacity="0.2" d="M209.022 147.817H167.048V150.52H209.022V147.817Z" fill="black"/>
<path d="M206.835 150.374H96.1687V153.078H206.835V150.374Z" fill="#2161D5"/>
<path opacity="0.2" d="M206.835 150.374H96.1687V153.078H206.835V150.374Z" fill="white"/>
<path opacity="0.2" d="M206.835 150.374H167.048V153.078H206.835V150.374Z" fill="black"/>
<path d="M175.274 146.116H140.39C140.165 146.116 139.948 146.206 139.789 146.365C139.629 146.525 139.54 146.741 139.54 146.967C139.54 147.192 139.629 147.408 139.789 147.568C139.948 147.727 140.165 147.817 140.39 147.817H175.274C175.5 147.817 175.716 147.727 175.876 147.568C176.035 147.408 176.125 147.192 176.125 146.967C176.125 146.741 176.035 146.525 175.876 146.365C175.716 146.206 175.5 146.116 175.274 146.116Z" fill="#1A2E35"/>
<path opacity="0.3" d="M175.274 146.116H140.39C140.165 146.116 139.948 146.206 139.789 146.365C139.629 146.525 139.54 146.741 139.54 146.967C139.54 147.192 139.629 147.408 139.789 147.568C139.948 147.727 140.165 147.817 140.39 147.817H175.274C175.5 147.817 175.716 147.727 175.876 147.568C176.035 147.408 176.125 147.192 176.125 146.967C176.125 146.741 176.035 146.525 175.876 146.365C175.716 146.206 175.5 146.116 175.274 146.116Z" fill="white"/>
<path d="M140.852 147.294H155.299C155.363 147.294 155.426 147.279 155.483 147.249C155.539 147.22 155.588 147.177 155.625 147.124C155.662 147.072 155.686 147.012 155.695 146.948C155.703 146.885 155.697 146.82 155.675 146.76L149.855 130.132C149.777 129.908 149.631 129.714 149.437 129.576C149.243 129.439 149.011 129.366 148.774 129.366H134.333C134.269 129.366 134.205 129.381 134.147 129.41C134.09 129.439 134.04 129.481 134.002 129.534C133.965 129.586 133.941 129.647 133.931 129.711C133.922 129.775 133.929 129.84 133.95 129.901L139.777 146.529C139.853 146.753 139.998 146.948 140.191 147.085C140.384 147.222 140.615 147.296 140.852 147.294Z" fill="#1A2E35"/>
<path opacity="0.5" d="M140.852 147.294H155.299C155.363 147.294 155.426 147.279 155.483 147.249C155.539 147.22 155.588 147.177 155.625 147.124C155.662 147.072 155.686 147.012 155.695 146.948C155.703 146.885 155.697 146.82 155.675 146.76L149.855 130.132C149.777 129.908 149.631 129.714 149.437 129.576C149.243 129.439 149.011 129.366 148.774 129.366H134.333C134.269 129.366 134.205 129.381 134.147 129.41C134.09 129.439 134.04 129.481 134.002 129.534C133.965 129.586 133.941 129.647 133.931 129.711C133.922 129.775 133.929 129.84 133.95 129.901L139.777 146.529C139.853 146.753 139.998 146.948 140.191 147.085C140.384 147.222 140.615 147.296 140.852 147.294Z" fill="white"/>
<path d="M140.342 147.294H154.782C154.847 147.295 154.911 147.28 154.968 147.251C155.026 147.222 155.076 147.179 155.113 147.127C155.151 147.074 155.175 147.014 155.184 146.95C155.193 146.886 155.187 146.821 155.165 146.76L149.339 130.132C149.263 129.908 149.118 129.713 148.925 129.576C148.732 129.438 148.501 129.365 148.264 129.366H133.817C133.753 129.367 133.69 129.382 133.633 129.412C133.576 129.441 133.527 129.484 133.49 129.536C133.454 129.589 133.43 129.649 133.421 129.713C133.412 129.776 133.419 129.841 133.44 129.901L139.242 146.529C139.321 146.756 139.47 146.952 139.668 147.09C139.865 147.227 140.101 147.299 140.342 147.294Z" fill="#1A2E35"/>
<path opacity="0.7" d="M140.342 147.294H154.782C154.847 147.295 154.911 147.28 154.968 147.251C155.026 147.222 155.076 147.179 155.113 147.127C155.151 147.074 155.175 147.014 155.184 146.95C155.193 146.886 155.187 146.821 155.165 146.76L149.339 130.132C149.263 129.908 149.118 129.713 148.925 129.576C148.732 129.438 148.501 129.365 148.264 129.366H133.817C133.753 129.367 133.69 129.382 133.633 129.412C133.576 129.441 133.527 129.484 133.49 129.536C133.454 129.589 133.43 129.649 133.421 129.713C133.412 129.776 133.419 129.841 133.44 129.901L139.242 146.529C139.321 146.756 139.47 146.952 139.668 147.09C139.865 147.227 140.101 147.299 140.342 147.294Z" fill="white"/>
<path d="M145.269 138.327C145.457 139.117 145.172 139.755 144.661 139.755C144.151 139.755 143.543 139.117 143.355 138.327C143.167 137.537 143.458 136.906 143.993 136.906C144.528 136.906 145.086 137.543 145.269 138.327Z" fill="white"/>
<path opacity="0.2" d="M156.66 147.817C156.434 147.817 156.218 147.727 156.058 147.568C155.899 147.408 155.809 147.192 155.809 146.967C155.809 146.741 155.899 146.525 156.058 146.365C156.218 146.206 156.434 146.116 156.66 146.116H175.274C175.5 146.116 175.716 146.206 175.876 146.365C176.035 146.525 176.125 146.741 176.125 146.967C176.125 147.192 176.035 147.408 175.876 147.568C175.716 147.727 175.5 147.817 175.274 147.817H156.66Z" fill="white"/>
</svg>
