<svg width="599" height="450" viewBox="0 0 599 450" fill="none" xmlns="http://www.w3.org/2000/svg">
<g clip-path="url(#clip0_1_94)">
<path opacity="0.4" d="M505.318 173.007C513.241 173.007 519.664 166.584 519.664 158.661C519.664 150.738 513.241 144.315 505.318 144.315C497.395 144.315 490.972 150.738 490.972 158.661C490.972 166.584 497.395 173.007 505.318 173.007Z" fill="url(#paint0_linear_1_94)"/>
<path opacity="0.4" d="M202.841 94.0801C214.136 94.0801 223.292 84.9239 223.292 73.6292C223.292 62.3344 214.136 53.1782 202.841 53.1782C191.547 53.1782 182.39 62.3344 182.39 73.6292C182.39 84.9239 191.547 94.0801 202.841 94.0801Z" fill="url(#paint1_linear_1_94)"/>
<path opacity="0.4" d="M164.992 97.7429C172.915 97.7429 179.338 91.3199 179.338 83.3967C179.338 75.4735 172.915 69.0505 164.992 69.0505C157.069 69.0505 150.646 75.4735 150.646 83.3967C150.646 91.3199 157.069 97.7429 164.992 97.7429Z" fill="url(#paint2_linear_1_94)"/>
<path d="M517.334 319.089C505.998 331.499 505.587 349.577 505.587 349.577C505.587 349.577 523.554 347.534 534.889 335.124C546.225 322.713 546.636 304.635 546.636 304.635C546.636 304.635 528.669 306.678 517.334 319.089Z" fill="#3F3D56"/>
<path d="M523.737 322.66C520.307 339.114 505.888 350.027 505.888 350.027C505.888 350.027 497.031 334.262 500.461 317.808C503.891 301.353 518.31 290.44 518.31 290.44C518.31 290.44 527.167 306.205 523.737 322.66Z" fill="url(#paint3_linear_1_94)"/>
<path d="M509.015 152.873V349.024L443.631 403.037H109.131V197.41L206.733 152.873H509.015Z" fill="#3F3D56"/>
<path opacity="0.1" d="M509.015 152.873V153.659L485.543 169.37L443.631 197.41H109.131L206.733 152.873H509.015Z" fill="black"/>
<path opacity="0.1" d="M509.015 152.873V349.024L443.631 403.037L444.105 196.936L485.543 169.37L508.636 152.873H509.015Z" fill="black"/>
<path d="M420.888 179.879H217.156L232.318 171.351H427.522L420.888 179.879Z" fill="#2F2E41"/>
<path d="M596.724 413.706C596.724 413.706 600.673 430.223 597.083 430.941C593.492 431.659 575.899 431.427 571.59 432.145C567.281 432.863 558.305 431.659 558.305 428.427C558.305 425.196 567.64 423.042 567.64 423.042C567.64 423.042 580.925 415.86 581.284 415.501C581.643 415.142 596.724 413.706 596.724 413.706Z" fill="#2F2E41"/>
<path d="M593.492 316.402C593.492 316.402 592.415 328.61 592.415 329.687C592.415 330.764 593.492 347.64 592.415 348.358C591.338 349.076 593.133 354.103 593.133 355.898C593.133 357.693 598.878 387.495 597.442 398.985C596.006 410.474 599.596 409.397 598.519 410.474C597.442 411.552 597.442 411.552 597.442 413.706C597.442 415.86 585.952 417.655 585.952 417.655L573.385 338.304L579.848 314.607L593.492 316.402Z" fill="#575A89"/>
<path opacity="0.1" d="M593.492 316.402C593.492 316.402 592.415 328.61 592.415 329.687C592.415 330.764 593.492 347.64 592.415 348.358C591.338 349.076 593.133 354.103 593.133 355.898C593.133 357.693 598.878 387.495 597.442 398.985C596.006 410.474 599.596 409.397 598.519 410.474C597.442 411.552 597.442 411.552 597.442 413.706C597.442 415.86 585.952 417.655 585.952 417.655L573.385 338.304L579.848 314.607L593.492 316.402Z" fill="black"/>
<path d="M591.697 418.733C591.697 418.733 595.288 431.659 591.697 432.377C588.107 433.095 570.513 431.554 566.204 432.272C561.896 432.99 552.919 433.095 552.919 429.863C552.919 426.632 562.255 424.477 562.255 424.477C562.255 424.477 575.54 417.296 575.899 416.937C576.258 416.578 591.697 418.733 591.697 418.733Z" fill="#2F2E41"/>
<path d="M596.724 302.04C596.724 302.04 601.032 312.452 596.006 317.838C590.979 323.224 585.234 333.996 585.234 334.714C585.234 335.432 595.288 406.884 593.851 411.552C592.415 416.219 592.774 419.092 593.133 419.81C593.492 420.528 589.543 424.478 585.234 424.478C580.925 424.478 574.462 421.246 573.744 418.374C573.026 415.501 574.821 390.726 574.462 386.059C574.103 381.391 572.308 374.569 571.59 373.133C570.872 371.696 566.922 370.26 566.204 365.952C565.486 361.643 559.741 306.707 561.536 304.912C563.332 303.117 596.724 302.04 596.724 302.04Z" fill="#575A89"/>
<path d="M569.436 219.457C576.178 219.457 581.643 213.992 581.643 207.249C581.643 200.507 576.178 195.042 569.436 195.042C562.693 195.042 557.228 200.507 557.228 207.249C557.228 213.992 562.693 219.457 569.436 219.457Z" fill="#FFB9B9"/>
<path d="M576.976 213.353C576.976 213.353 574.462 226.638 576.258 228.074C578.053 229.511 562.614 231.665 562.614 231.665C562.614 231.665 560.818 214.071 560.459 212.276C560.1 210.481 576.976 213.353 576.976 213.353Z" fill="#FFB9B9"/>
<path d="M560.459 230.588C560.459 230.588 564.768 218.021 582.362 221.611C582.362 221.611 585.593 222.689 584.516 223.766C583.439 224.843 582.362 224.843 583.798 225.92C585.234 226.997 587.029 225.92 585.952 226.997C584.875 228.074 595.647 234.537 594.929 246.745C594.21 258.953 597.442 276.188 594.929 279.06C592.415 281.933 596.724 294.5 596.006 297.013C595.288 299.526 600.314 302.758 598.16 303.835C596.006 304.912 557.228 311.375 556.151 303.835C555.073 296.295 555.792 301.681 554.714 299.885C553.637 298.09 553.278 294.859 553.996 290.909C554.714 286.959 556.51 277.265 555.792 273.674C555.073 270.084 555.792 239.923 557.946 236.333C560.1 232.742 560.459 230.588 560.459 230.588Z" fill="url(#paint4_linear_1_94)"/>
<path d="M567.999 318.197C567.999 318.197 573.385 338.663 566.563 338.663C559.741 338.663 560.1 317.479 560.1 317.479L567.999 318.197Z" fill="#FFB9B9"/>
<path d="M564.05 207.249C564.05 208.291 565.558 208.951 567.895 209.102H567.899C568.89 209.158 569.884 209.139 570.872 209.045C572.365 208.908 572.983 210.312 573.238 212.165C573.655 215.22 573.073 219.504 573.744 220.175C574.671 221.102 581.424 220.172 583.536 218.071C583.864 217.777 584.083 217.379 584.157 216.944C584.378 215.661 585.011 214.486 585.959 213.594C587.205 212.233 588.979 210.725 590.979 208.327C594.569 204.018 590.979 203.659 589.902 200.427C588.825 197.196 587.029 196.119 587.029 193.964C587.029 191.81 578.771 190.015 571.949 190.374C565.127 190.733 566.563 199.35 566.563 199.35C566.563 199.35 566.157 200.392 565.673 201.734C565.017 203.419 564.484 205.15 564.079 206.912C564.062 207.024 564.052 207.136 564.05 207.249Z" fill="#2F2E41"/>
<path opacity="0.1" d="M565.486 235.974C565.486 235.974 577.694 235.256 578.771 253.208C579.848 271.161 579.489 288.037 579.489 288.396C579.489 288.755 574.462 322.865 569.795 322.865C565.127 322.865 561.536 322.147 560.459 320.352C559.382 318.556 563.332 292.704 563.332 292.704C563.332 292.704 565.127 265.416 562.255 256.799C559.382 248.182 559.023 237.051 565.486 235.974Z" fill="black"/>
<path d="M563.691 234.179C563.691 234.179 575.899 233.46 576.976 251.413C578.053 269.366 577.694 286.241 577.694 286.601C577.694 286.96 572.667 321.07 567.999 321.07C563.332 321.07 559.741 320.352 558.664 318.556C557.587 316.761 561.536 290.909 561.536 290.909C561.536 290.909 563.332 263.621 560.459 255.004C557.587 246.386 557.228 235.256 563.691 234.179Z" fill="url(#paint5_linear_1_94)"/>
<path d="M361.258 58.6679C361.258 58.6679 355.937 43.5938 352.095 48.3229C348.253 53.052 358.006 61.0324 358.006 61.0324L361.258 58.6679Z" fill="#A0616A"/>
<path d="M386.381 43.8894L383.181 45.0755C383.181 45.0755 381.652 51.8698 382.243 53.0521C382.834 54.2343 383.13 53.3476 382.243 55.7122C381.356 58.0767 378.696 64.2837 378.401 65.1704C378.105 66.0571 361.258 59.5546 361.258 56.3033C361.258 56.3033 357.711 60.4413 355.937 61.328C355.937 61.328 375.445 75.5153 378.105 77.2888C380.765 79.0622 382.243 78.1755 384.608 76.1065C386.972 74.0375 397.021 56.8945 397.021 56.8945L386.381 43.8894Z" fill="#575A89"/>
<path d="M377.809 148.817C377.809 148.817 378.105 152.068 378.696 152.363C379.287 152.659 383.721 160.048 378.696 161.526C373.672 163.004 370.716 162.413 369.534 163.004C368.351 163.595 347.661 164.777 347.366 161.526C347.07 158.275 357.415 157.684 357.415 157.684C357.415 157.684 366.873 151.477 368.351 148.225C369.829 144.974 377.809 148.817 377.809 148.817Z" fill="#2F2E41"/>
<path d="M437.81 154.728C437.81 154.728 444.904 166.846 443.13 168.324C441.357 169.802 424.086 175.188 421.554 175.418C418.303 175.713 415.938 173.053 418.598 171.575C421.258 170.098 426.874 163.891 426.874 161.822V156.501L437.81 154.728Z" fill="#2F2E41"/>
<path d="M444.608 75.5154C444.608 75.5154 450.815 83.2002 441.061 95.6141L424.805 116.304C424.805 116.304 434.854 132.265 435.15 140.541C435.446 148.817 437.515 147.043 438.106 150.59C438.697 154.137 441.357 152.363 439.288 155.024C437.219 157.684 429.534 160.048 427.17 157.979C426.356 157.235 425.721 156.317 425.312 155.294C424.902 154.27 424.729 153.168 424.805 152.068C424.805 150.886 420.667 144.088 420.372 142.019C420.076 139.95 409.14 123.102 409.14 123.102C409.14 123.102 405.593 113.053 409.731 107.437C413.869 101.821 416.603 93.8562 416.603 93.8562C416.603 93.8562 404.411 108.619 395.839 112.166C395.839 112.166 392.588 112.757 393.179 114.235C393.77 115.713 393.179 116.6 392.292 118.077C391.406 119.555 385.199 136.698 383.13 141.132C381.061 145.565 381.948 148.226 379.583 149.703C377.218 151.181 366.578 149.999 366.578 148.521C366.578 147.043 368.056 143.201 368.942 141.132C369.829 139.063 376.923 115.122 376.332 110.984C375.741 106.846 376.627 101.23 381.061 98.8654C385.494 96.5008 407.958 77.2888 409.14 77.2888C410.322 77.2888 444.608 75.5154 444.608 75.5154Z" fill="#2F2E41"/>
<path d="M385.199 29.111C392.055 29.111 397.613 23.5531 397.613 16.6971C397.613 9.84111 392.055 4.2832 385.199 4.2832C378.343 4.2832 372.785 9.84111 372.785 16.6971C372.785 23.5531 378.343 29.111 385.199 29.111Z" fill="#A0616A"/>
<path d="M395.248 17.8794C395.248 17.8794 399.091 24.6775 403.82 25.5642C408.549 26.451 391.406 40.0471 391.406 40.0471C391.406 40.0471 387.268 27.0421 383.721 26.4509C380.174 25.8598 395.248 17.8794 395.248 17.8794Z" fill="#A0616A"/>
<path d="M383.13 45.6628C383.13 49.5052 394.657 60.4413 394.657 60.4413L405.593 69.6039C405.593 69.6039 405.889 72.8552 407.071 73.1507C408.253 73.4463 409.731 73.4463 408.549 75.2197C407.366 76.9931 404.411 80.8355 407.071 81.4267C407.873 81.5487 408.681 81.6256 409.492 81.6572C410.201 81.6986 411.034 81.737 411.971 81.7725C414.159 81.8493 416.896 81.8996 419.86 81.8789C420.703 81.8759 421.56 81.8661 422.432 81.8494C433.607 81.6277 446.553 80.3419 445.495 76.1064C443.721 69.0128 444.904 66.6482 441.061 62.8058C437.219 58.9634 431.012 45.6628 431.012 45.6628C431.012 45.6628 418.598 24.6773 408.253 24.6773L406.104 24.1128C405.106 23.8498 404.05 23.9075 403.086 24.2777C402.122 24.648 401.299 25.312 400.734 26.1759C398.659 29.3355 395.387 34.0824 393.475 35.6134C390.519 37.978 390.058 36.2814 390.058 36.2814C390.058 36.2814 383.13 41.8204 383.13 45.6628Z" fill="#575A89"/>
<path d="M409.435 90.5894C409.435 90.5894 400.864 103.89 406.184 106.255C411.504 108.619 414.46 92.3628 414.46 92.3628L409.435 90.5894Z" fill="#A0616A"/>
<path d="M393.314 15.2949C392.838 15.2347 392.687 14.6336 392.607 14.1601C392.178 11.6246 390.288 9.22033 387.749 8.81103C386.779 8.68194 385.792 8.76146 384.855 9.04428C383.512 9.41269 382.252 10.033 381.141 10.8722C380.598 11.3691 379.969 11.7638 379.285 12.0376C378.82 12.1744 376.842 13.0537 376.38 13.2025C375.364 13.5296 374.523 14.5931 373.476 14.3825C372.475 14.181 372.095 12.9721 371.934 11.9637C371.568 9.66631 372.883 6.23838 374.19 4.31403C375.182 2.85372 376.861 2.01329 378.54 1.46654C380.506 0.869583 382.527 0.46807 384.572 0.267828C387.334 -0.0582771 390.194 -0.231293 392.84 0.622213C395.486 1.47572 397.895 3.56359 398.389 6.29977C398.492 6.86974 398.512 7.45355 398.638 8.01884C398.945 9.39786 399.858 10.557 400.39 11.8658C400.774 12.8271 400.952 13.8581 400.913 14.8925C400.874 15.9268 400.619 16.9415 400.164 17.8712C399.427 19.3534 398.145 20.7777 398.422 22.4097L396.141 20.6112C395.811 20.4239 395.556 20.1293 395.417 19.7764C395.279 19.4235 395.266 19.0338 395.38 18.6723L395.711 15.8164C395.826 15.2989 395.774 14.7585 395.563 14.2722C394.55 12.5013 394.109 15.3951 393.314 15.2949Z" fill="#2F2E41"/>
<path opacity="0.1" d="M414.756 70.1951L411.971 81.7725C414.779 81.873 418.495 81.9263 422.432 81.8494C423.425 78.8701 424.374 75.7636 425.101 72.8552C427.761 62.2147 423.327 45.9584 420.963 38.2736C418.598 30.5888 412.687 28.5198 412.687 28.5198C410.263 29.3721 407.974 30.5664 405.889 32.0666C402.046 34.7267 414.756 70.1951 414.756 70.1951Z" fill="black"/>
<path opacity="0.1" d="M412.391 69.6039L409.492 81.6572C410.201 81.6986 411.034 81.737 411.971 81.7725C414.159 81.8493 416.896 81.8996 419.86 81.8789C420.927 78.7134 421.959 75.3734 422.736 72.264C425.396 61.6235 420.963 45.3672 418.598 37.6824C416.234 29.9976 411.061 38.4213 411.061 38.4213C411.061 38.4213 413.13 33.3966 409.288 36.0567C405.445 38.7169 412.391 69.6039 412.391 69.6039Z" fill="black"/>
<path d="M411.504 27.9287C411.504 27.9287 417.416 29.9977 419.78 37.6825C422.145 45.3673 426.579 61.6236 423.918 72.2641C421.258 82.9046 415.642 96.2053 415.642 96.2053C415.642 96.2053 410.027 92.0673 407.958 92.954L413.573 69.604C413.573 69.604 400.864 34.1357 404.706 31.4755C406.792 29.9753 409.081 28.781 411.504 27.9287Z" fill="#575A89"/>
<path d="M415.911 176.184L334.136 5.77759L197.403 71.3932L247.69 176.184H415.911Z" fill="#F2F2F2"/>
<path d="M306.463 72.6661L233.84 107.517L236.003 112.025L308.627 77.1738L306.463 72.6661Z" fill="#3F3D56"/>
<path d="M325.692 112.734L253.068 147.585L255.231 152.093L327.855 117.242L325.692 112.734Z" fill="#3F3D56"/>
<path d="M338.9 49.0901L320.869 57.7427L329.521 75.7735L347.552 67.1209L338.9 49.0901Z" fill="#3F3D56"/>
<path d="M358.128 89.1584L340.097 97.811L348.749 115.842L366.78 107.189L358.128 89.1584Z" fill="#3F3D56"/>
<path d="M340.142 36.6008L332.716 57.7286L322.706 54.2101L321.336 58.1075L335.231 62.9905L344.039 37.9706L340.142 36.6008Z" fill="#57B894"/>
<path d="M359.37 76.6689L351.944 97.7967L341.935 94.2789L340.565 98.1756L354.459 103.059L363.267 78.0388L359.37 76.6689Z" fill="#57B894"/>
<path d="M7.89177 372.311L44.8369 364.419L36.9451 327.474L-1.61726e-06 335.366L7.89177 372.311Z" fill="#F2F2F2"/>
<path d="M43.8093 317.603C43.8093 317.603 30.2393 327.295 34.7627 331.173C39.286 335.05 48.3327 319.541 48.3327 319.541L43.8093 317.603Z" fill="#FFB9B9"/>
<path d="M106.49 332.465C106.49 332.465 103.905 364.775 103.259 369.298C102.613 373.821 101.967 414.531 100.674 419.055C99.3818 423.578 98.0895 434.563 98.0895 434.563H90.3352C90.3352 434.563 90.9814 414.531 89.0428 406.777C87.1042 399.023 87.7504 377.698 87.7504 377.698C87.7504 377.698 83.8733 339.573 85.8119 334.404C87.7504 329.234 106.49 332.465 106.49 332.465Z" fill="#FFB9B9"/>
<path d="M96.1508 432.625C96.1508 432.625 99.3818 434.563 99.3818 435.856C99.3818 437.148 98.7356 440.379 99.3818 441.671C100.028 442.964 104.551 448.133 101.967 449.426C99.3818 450.718 87.7504 449.426 87.7504 449.426C87.7504 449.426 88.3965 440.379 89.0427 439.733C89.6889 439.087 88.3966 432.625 88.3966 432.625H96.1508Z" fill="#2F2E41"/>
<path d="M57.0923 331.673C57.0923 331.673 56.2714 364.076 56.4393 368.642C56.6071 373.208 52.9765 413.761 53.787 418.395C54.5974 423.029 54.7296 434.089 54.7296 434.089L62.441 434.903C62.441 434.903 63.9011 414.914 66.6429 407.406C69.3847 399.898 70.9804 378.624 70.9804 378.624C70.9804 378.624 78.838 341.116 77.4528 335.772C76.0675 330.427 57.0923 331.673 57.0923 331.673Z" fill="#FFB9B9"/>
<path d="M56.8609 432.365C56.8609 432.365 53.4443 433.953 53.3087 435.239C53.173 436.524 53.4765 439.805 52.6982 441.022C51.9199 442.24 46.879 446.906 49.3138 448.462C51.7486 450.019 63.4515 449.955 63.4515 449.955C63.4515 449.955 63.7584 440.89 63.1837 440.18C62.6089 439.469 64.5724 433.179 64.5724 433.179L56.8609 432.365Z" fill="#2F2E41"/>
<path d="M97.4432 284.001C97.4432 284.001 102.613 284.647 104.551 295.632C106.49 306.617 113.598 334.404 107.782 336.342C101.967 338.281 84.5194 342.158 83.8732 340.866C83.227 339.573 81.9347 336.342 81.9347 336.342C81.9347 336.342 83.8732 342.158 81.2885 342.158C78.7037 342.158 53.5023 338.281 54.1484 336.342C54.7946 334.404 56.087 320.187 56.087 320.187C56.087 320.187 59.9641 296.278 63.8413 292.401C64.9634 291.324 65.8345 290.013 66.3929 288.561C66.9513 287.109 67.1832 285.552 67.0722 284.001H97.4432Z" fill="#2F2E41"/>
<path d="M107.136 278.831C107.136 278.831 98.7356 276.893 97.4432 279.477C96.1509 282.062 100.674 285.939 102.613 285.939C104.551 285.939 107.782 284.001 107.782 284.001L107.136 278.831Z" fill="#FFB9B9"/>
<path d="M89.6889 223.905C96.1128 223.905 101.32 218.697 101.32 212.274C101.32 205.85 96.1128 200.642 89.6889 200.642C83.2651 200.642 78.0575 205.85 78.0575 212.274C78.0575 218.697 83.2651 223.905 89.6889 223.905Z" fill="#FFB9B9"/>
<path d="M87.7504 220.674C87.7504 220.674 85.8118 229.721 87.1041 229.721C88.3965 229.721 77.4113 235.536 77.4113 235.536L69.0108 234.244L66.426 230.367C66.426 230.367 79.996 221.32 79.996 216.151C79.996 210.981 87.7504 220.674 87.7504 220.674Z" fill="#FFB9B9"/>
<path d="M81.9347 229.721C81.9347 229.721 83.8732 228.428 84.5194 228.428H89.6889C90.3351 228.428 98.7356 230.367 98.7356 230.367L103.905 259.445C103.905 259.445 94.8585 274.308 101.32 285.939C101.32 285.939 99.3818 284.647 90.3351 285.293C81.2885 285.939 65.1337 287.878 64.4875 287.878C63.8413 287.878 63.8413 282.708 64.4875 281.416C65.1337 280.123 63.8413 280.77 63.8413 277.539C63.8413 274.308 61.9028 268.492 61.9028 268.492L52.8561 235.536C52.8561 235.536 64.4875 229.074 66.4261 229.721C68.3647 230.367 74.1804 232.305 75.4728 231.659C76.7651 231.013 81.9347 229.721 81.9347 229.721Z" fill="url(#paint6_linear_1_94)"/>
<path d="M96.7971 231.013L98.7356 230.367C98.7356 230.367 102.613 229.721 107.136 233.598C111.659 237.475 128.46 249.106 128.46 249.106C128.46 249.106 134.922 254.276 132.984 260.092C131.045 265.907 127.814 280.124 118.121 279.477C118.121 279.477 112.306 287.232 109.075 285.939C105.844 284.647 103.259 279.477 105.198 278.831C107.136 278.185 112.306 271.723 112.306 271.723L105.844 259.445H103.905L96.7971 255.568L96.7971 231.013Z" fill="url(#paint7_linear_1_94)"/>
<path d="M58.0256 234.89L52.8561 235.536C52.8561 235.536 48.3327 237.475 48.9789 245.875C49.6251 254.276 45.1018 292.401 47.0404 296.925C47.0404 296.925 40.5785 318.895 41.8708 319.541C43.1632 320.187 50.9175 324.065 50.2713 321.48C49.6251 318.895 57.3794 300.802 57.3794 300.802C57.3794 300.802 66.4261 291.109 62.549 277.539V266.553L58.0256 234.89Z" fill="url(#paint8_linear_1_94)"/>
<path d="M99.3694 223.519L91.1546 225.309L90.099 221.264L90.5048 225.45L77.2527 228.337L76.6699 226.104L76.8939 228.415L68.406 230.265L66.5902 212.835C64.7235 205.682 71.5364 198.059 78.6887 196.192L81.8617 195.364C87.1148 193.993 96.6636 195.24 98.0347 200.493C95.635 209.652 91.5442 219.692 99.3694 223.519Z" fill="#2F2E41"/>
</g>
<defs>
<linearGradient id="paint0_linear_1_94" x1="506.801" y1="139.597" x2="504.291" y2="178.21" gradientUnits="userSpaceOnUse">
<stop stop-color="#2161D5"/>
<stop offset="1" stop-color="#5C92F3"/>
</linearGradient>
<linearGradient id="paint1_linear_1_94" x1="204.956" y1="46.4531" x2="201.377" y2="101.496" gradientUnits="userSpaceOnUse">
<stop stop-color="#2161D5"/>
<stop offset="1" stop-color="#5C92F3"/>
</linearGradient>
<linearGradient id="paint2_linear_1_94" x1="166.475" y1="64.3329" x2="163.964" y2="102.945" gradientUnits="userSpaceOnUse">
<stop stop-color="#2161D5"/>
<stop offset="1" stop-color="#5C92F3"/>
</linearGradient>
<linearGradient id="paint3_linear_1_94" x1="513.384" y1="280.643" x2="501.13" y2="359.26" gradientUnits="userSpaceOnUse">
<stop stop-color="#2161D5"/>
<stop offset="1" stop-color="#5C92F3"/>
</linearGradient>
<linearGradient id="paint4_linear_1_94" x1="578.492" y1="206.748" x2="564.141" y2="321.82" gradientUnits="userSpaceOnUse">
<stop stop-color="#2161D5"/>
<stop offset="1" stop-color="#5C92F3"/>
</linearGradient>
<linearGradient id="paint5_linear_1_94" x1="569.111" y1="219.887" x2="537.412" y2="328.028" gradientUnits="userSpaceOnUse">
<stop stop-color="#2161D5"/>
<stop offset="1" stop-color="#5C92F3"/>
</linearGradient>
<linearGradient id="paint6_linear_1_94" x1="81.0194" y1="218.653" x2="74.9711" y2="298.537" gradientUnits="userSpaceOnUse">
<stop stop-color="#2161D5"/>
<stop offset="1" stop-color="#5C92F3"/>
</linearGradient>
<linearGradient id="paint7_linear_1_94" x1="116.961" y1="221.159" x2="109.56" y2="295.778" gradientUnits="userSpaceOnUse">
<stop stop-color="#2161D5"/>
<stop offset="1" stop-color="#5C92F3"/>
</linearGradient>
<linearGradient id="paint8_linear_1_94" x1="53.7351" y1="220.508" x2="24.8815" y2="331.194" gradientUnits="userSpaceOnUse">
<stop stop-color="#2161D5"/>
<stop offset="1" stop-color="#5C92F3"/>
</linearGradient>
<clipPath id="clip0_1_94">
<rect width="598.724" height="450" fill="white"/>
</clipPath>
</defs>
</svg>
