<svg width="454" height="365" viewBox="0 0 454 365" fill="none" xmlns="http://www.w3.org/2000/svg">
<g clip-path="url(#clip0_3_694)">
<path d="M0.5923 321.772C2.39083 307.303 11.3538 293.047 25.1464 288.339C19.707 303.231 19.7082 319.569 25.1497 334.46C27.2691 340.196 30.2233 346.354 28.2298 352.135C26.9894 355.732 23.955 358.483 20.5631 360.204C17.171 361.925 13.4065 362.745 9.68916 363.549L8.95756 364.154C3.05626 350.823 -1.20623 336.241 0.5923 321.772Z" fill="#F0F0F0"/>
<path d="M25.283 288.612C17.2508 297.616 12.2586 308.923 11.0153 320.927C10.7019 323.507 10.7967 326.12 11.2965 328.669C11.8635 331.138 13.0809 333.409 14.822 335.247C16.4111 336.994 18.2387 338.596 19.3756 340.699C19.9417 341.784 20.272 342.977 20.3451 344.198C20.4182 345.42 20.2323 346.643 19.7997 347.788C18.7958 350.668 16.8173 353.016 14.8028 355.245C12.566 357.719 10.2035 360.254 9.25272 363.535C9.13752 363.932 8.52776 363.73 8.64279 363.333C10.297 357.626 15.8352 354.384 18.4763 349.243C19.7087 346.844 20.226 344.059 19.0706 341.527C18.0603 339.313 16.1771 337.659 14.5529 335.904C12.828 334.135 11.5623 331.971 10.8661 329.601C10.2382 327.085 10.0429 324.48 10.2885 321.898C10.7488 316.077 12.1211 310.364 14.3551 304.969C16.8706 298.798 20.4228 293.103 24.858 288.13C25.1326 287.823 25.5558 288.307 25.283 288.612V288.612Z" fill="white"/>
<path d="M11.1886 317.039C9.20377 316.556 7.45489 315.384 6.25425 313.731C5.05361 312.078 4.47939 310.052 4.63414 308.014C4.66686 307.602 5.30859 307.634 5.27582 308.047C5.12821 309.944 5.66329 311.831 6.78447 313.368C7.90565 314.905 9.53908 315.99 11.3899 316.428C11.7921 316.524 11.5884 317.134 11.1886 317.039Z" fill="white"/>
<path d="M13.8996 334.468C17.4844 332.326 20.1307 328.912 21.3109 324.905C21.4275 324.508 22.0373 324.71 21.9208 325.107C20.6849 329.274 17.9238 332.822 14.1885 335.042C13.8324 335.253 13.5454 334.678 13.8996 334.468H13.8996Z" fill="white"/>
<path d="M17.4666 299.407C18.1957 299.754 18.9994 299.914 19.8057 299.873C20.6119 299.832 21.3953 299.591 22.0856 299.173C22.4389 298.957 22.7255 299.532 22.3744 299.747C21.6096 300.206 20.7441 300.47 19.8535 300.517C18.9628 300.565 18.0742 300.393 17.2652 300.017C17.186 299.988 17.1208 299.93 17.0828 299.855C17.0449 299.779 17.0371 299.692 17.0609 299.612C17.088 299.531 17.1458 299.464 17.2218 299.426C17.2977 299.388 17.3857 299.381 17.4666 299.407Z" fill="white"/>
<path d="M67.1882 314.182C66.9714 314.323 66.7546 314.464 66.5376 314.61C63.6328 316.521 60.888 318.665 58.3303 321.021C58.1297 321.2 57.929 321.384 57.7339 321.569C51.6323 327.31 46.6491 334.134 43.0376 341.695C41.6033 344.705 40.3999 347.82 39.438 351.013C38.1097 355.422 37.0202 360.309 34.391 363.915C34.1209 364.295 33.8276 364.657 33.5127 365H9.75232C9.69832 364.973 9.64406 364.951 9.58979 364.924L8.64111 364.967C8.67923 364.799 8.72237 364.626 8.76049 364.458C8.78218 364.36 8.8092 364.262 8.8309 364.165C8.84705 364.1 8.86346 364.035 8.87431 363.975C8.8796 363.953 8.88516 363.931 8.89046 363.915C8.9013 363.856 8.91773 363.801 8.92858 363.747C9.16708 362.776 9.4128 361.805 9.66576 360.835C9.66576 360.829 9.66576 360.829 9.67106 360.824C11.6174 353.432 14.1977 346.137 17.8026 339.466C17.9111 339.266 18.0194 339.059 18.1388 338.859C19.7804 335.861 21.6641 333.002 23.7713 330.311C24.9298 328.842 26.162 327.432 27.463 326.087C30.8314 322.618 34.7243 319.7 38.9989 317.441C47.5209 312.94 57.387 311.215 66.4944 313.965C66.7273 314.036 66.9553 314.106 67.1882 314.182Z" fill="#F0F0F0"/>
<path d="M67.1347 314.484C55.3029 316.835 44.5124 322.856 36.2958 331.691C34.4932 333.562 32.9966 335.705 31.8611 338.042C30.8285 340.355 30.4336 342.901 30.7176 345.418C30.9352 347.77 31.43 350.15 31.0724 352.514C30.8714 353.721 30.4176 354.872 29.7408 355.891C29.0639 356.911 28.1793 357.776 27.145 358.429C24.61 360.124 21.6174 360.807 18.6676 361.373C15.3925 362.002 11.9808 362.603 9.24734 364.649C8.91615 364.897 8.5509 364.369 8.88159 364.121C13.6373 360.56 20.0102 361.308 25.2128 358.794C27.6404 357.621 29.7293 355.709 30.3307 352.991C30.8566 350.614 30.3484 348.159 30.1075 345.78C29.7945 343.329 30.0862 340.839 30.957 338.527C31.9699 336.139 33.3815 333.942 35.1313 332.029C39.002 327.658 43.5355 323.923 48.5658 320.962C54.2881 317.549 60.5516 315.142 67.0854 313.843C67.4898 313.763 67.5365 314.404 67.1347 314.484H67.1347Z" fill="white"/>
<path d="M38.774 328.691C37.4794 327.11 36.7884 325.121 36.8246 323.078C36.8607 321.035 37.6216 319.071 38.9713 317.537C39.2455 317.228 39.7389 317.64 39.4644 317.95C38.2049 319.375 37.4963 321.205 37.4665 323.107C37.4368 325.01 38.0878 326.86 39.302 328.325C39.5655 328.643 39.036 329.007 38.774 328.691H38.774Z" fill="white"/>
<path d="M30.4504 344.24C34.6013 344.69 38.7691 343.557 42.1226 341.069C42.4547 340.822 42.82 341.351 42.4884 341.597C38.9938 344.18 34.6542 345.35 30.3356 344.872C29.924 344.827 30.041 344.195 30.4504 344.24Z" fill="white"/>
<path d="M54.3976 318.395C54.7711 319.11 55.3166 319.722 55.9849 320.175C56.6533 320.628 57.4236 320.908 58.2267 320.989C58.6387 321.03 58.5213 321.662 58.112 321.622C57.2251 321.528 56.3747 321.218 55.6352 320.719C54.8956 320.22 54.2895 319.548 53.8696 318.76C53.8238 318.69 53.8067 318.604 53.8217 318.521C53.8368 318.438 53.8829 318.364 53.9507 318.313C54.0209 318.265 54.1072 318.247 54.1908 318.262C54.2745 318.277 54.3488 318.325 54.3976 318.395Z" fill="white"/>
<path d="M403.351 34.2856C383.726 13.4404 356.711 1.12993 328.11 0V109.56L403.351 34.2856Z" fill="#3F3D56"/>
<path d="M403.351 47.9272L328.11 123.202H433.261C433.298 95.2033 422.592 68.2587 403.351 47.9272Z" fill="#E4E4E4"/>
<path d="M433.373 131.074C433.377 137.903 432.746 144.717 431.486 151.429C431.389 151.96 431.286 152.486 431.177 153.012C428.803 164.72 424.517 175.956 418.492 186.269C418.172 186.822 417.841 187.376 417.511 187.918V187.923C411.573 197.698 404.147 206.487 395.501 213.972C395.073 214.347 394.645 214.715 394.211 215.079C375.632 230.717 352.37 239.71 328.107 240.634V131.074H433.373Z" fill="#F0F0F0"/>
<path d="M317.473 240.73C318.928 240.73 320.375 240.693 321.817 240.637V131.072L242.173 210.752C262.502 230.035 289.459 240.767 317.473 240.73Z" fill="#CACACA"/>
<path d="M317.621 13.5439C257.086 13.5439 208.013 62.6395 208.013 123.202H322.079V13.6417C320.6 13.5825 319.115 13.5439 317.621 13.5439Z" fill="url(#paint0_linear_3_694)"/>
<path d="M291.472 131.074L268.427 154.13L267.674 154.884L267.657 154.9L247.562 174.999L246.797 175.764L225.086 197.485L224.322 198.25V198.255L211.826 210.751C200.976 200.515 192.335 188.165 186.435 174.463C180.534 160.76 177.499 145.994 177.517 131.074H291.472Z" fill="url(#paint1_linear_3_694)"/>
<path d="M112.688 230.875C113.526 230.367 114.243 229.68 114.788 228.864C115.332 228.048 115.691 227.122 115.839 226.152C115.988 225.182 115.922 224.191 115.646 223.25C115.37 222.308 114.891 221.438 114.243 220.702L115.148 171.383L104.344 172.288L104.369 220.37C103.205 221.541 102.51 223.099 102.417 224.748C102.324 226.398 102.839 228.024 103.864 229.319C104.89 230.614 106.354 231.488 107.98 231.775C109.607 232.061 111.281 231.742 112.688 230.875Z" fill="#FFB6B6"/>
<path d="M116.851 183.455L102.721 182.107C102.319 182.069 101.93 181.944 101.581 181.742C101.231 181.54 100.929 181.264 100.696 180.935C100.462 180.605 100.302 180.229 100.227 179.832C100.152 179.435 100.163 179.027 100.26 178.634L103.653 164.89C103.861 162.834 104.875 160.943 106.474 159.634C108.073 158.324 110.125 157.703 112.182 157.905C114.238 158.107 116.13 159.117 117.443 160.713C118.757 162.309 119.384 164.36 119.187 166.418L119.924 180.51C119.945 180.914 119.879 181.317 119.73 181.693C119.581 182.068 119.353 182.407 119.061 182.687C118.77 182.966 118.421 183.18 118.04 183.312C117.658 183.445 117.253 183.494 116.851 183.455H116.851Z" fill="#E4E4E4"/>
<path d="M93.3507 359.193H98.833L101.441 338.037L93.3496 338.037L93.3507 359.193Z" fill="#FFB6B6"/>
<path d="M91.9521 357.402L102.749 357.402H102.75C104.574 357.402 106.324 358.127 107.615 359.418C108.905 360.709 109.63 362.46 109.63 364.286V364.509L91.9525 364.51L91.9521 357.402Z" fill="#2F2E41"/>
<path d="M143.883 359.193H149.366L151.974 338.037L143.882 338.037L143.883 359.193Z" fill="#FFB6B6"/>
<path d="M142.484 357.402L153.281 357.402H153.282C155.107 357.402 156.857 358.127 158.147 359.418C159.437 360.709 160.162 362.46 160.162 364.286V364.509L142.485 364.51L142.484 357.402Z" fill="#2F2E41"/>
<path d="M137.264 189.229L140.841 212.047L106.854 212.494L111.326 190.572L137.264 189.229Z" fill="#FFB6B6"/>
<path d="M140.101 207.137C150.886 225.931 151.806 289.655 152.268 355.473H143.1L121.188 259.461L101.064 352.966H92.1206L98.3813 247.829C98.3813 247.829 96.535 226.727 105.983 214.275L108.283 207.627L140.101 207.137Z" fill="#2F2E41"/>
<path d="M112.492 201.831C112.294 201.831 112.096 201.811 111.902 201.773C111.247 201.642 110.654 201.3 110.212 200.8C109.769 200.3 109.503 199.668 109.453 199.003C109.117 194.398 107.452 186.382 104.503 175.178C103.507 171.37 103.728 167.346 105.133 163.67C106.539 159.994 109.059 156.85 112.341 154.679C115.622 152.507 119.501 151.418 123.432 151.563C127.364 151.709 131.151 153.081 134.264 155.488C136.257 157.016 137.92 158.931 139.154 161.118C140.387 163.306 141.166 165.72 141.442 168.217C142.908 181.13 140.144 194.095 138.888 199.07C138.723 199.719 138.35 200.296 137.826 200.713C137.301 201.13 136.655 201.364 135.985 201.378L112.558 201.83C112.536 201.831 112.514 201.831 112.492 201.831Z" fill="#E4E4E4"/>
<path d="M177.945 160.406C177.804 160.722 177.689 161.049 177.599 161.383L148.274 171.352L142.608 166.399L134.02 173.978L143.199 183.721C143.941 184.508 144.918 185.033 145.983 185.217C147.048 185.402 148.145 185.236 149.107 184.743L180.487 168.708C181.622 169.404 182.941 169.738 184.271 169.666C185.6 169.594 186.876 169.118 187.928 168.303C188.981 167.487 189.76 166.371 190.163 165.101C190.566 163.832 190.572 162.47 190.183 161.196C189.793 159.923 189.024 158.798 187.98 157.972C186.936 157.146 185.665 156.658 184.336 156.572C183.008 156.486 181.685 156.807 180.543 157.492C179.401 158.177 178.495 159.194 177.945 160.406Z" fill="#FFB6B6"/>
<path d="M147.252 171.897L136.562 181.238C136.258 181.504 135.9 181.701 135.513 181.816C135.126 181.931 134.718 181.961 134.319 181.904C133.919 181.847 133.536 181.705 133.196 181.487C132.856 181.269 132.567 180.98 132.349 180.64L124.702 168.728C123.352 167.163 122.677 165.127 122.825 163.065C122.973 161.003 123.932 159.084 125.493 157.728C127.053 156.373 129.087 155.692 131.148 155.835C133.209 155.977 135.13 156.932 136.489 158.489L147.226 167.639C147.534 167.902 147.781 168.227 147.952 168.593C148.122 168.96 148.211 169.358 148.214 169.762C148.216 170.166 148.132 170.566 147.966 170.934C147.8 171.303 147.556 171.631 147.252 171.897Z" fill="#E4E4E4"/>
<path d="M132.893 141.176C136.7 134.209 134.141 125.474 127.177 121.665C120.213 117.857 111.482 120.417 107.675 127.384C103.868 134.351 106.428 143.086 113.391 146.895C120.355 150.703 129.086 148.143 132.893 141.176Z" fill="#FFB6B6"/>
<path d="M124.24 114.381H121.326C119.927 113.943 118.47 113.721 117.005 113.723C116.763 113.723 116.523 113.729 116.284 113.741C113.56 113.912 110.955 114.921 108.825 116.629C106.695 118.338 105.145 120.662 104.385 123.285C101.126 134.166 102.534 146.205 102.534 146.205C107.289 148.357 114.558 149.949 125.293 148.64L126.871 142.02L126.74 148.443C128.253 148.232 129.831 147.96 131.476 147.627V133.465H138.053C138.053 122.923 134.778 114.381 124.24 114.381Z" fill="#2F2E41"/>
<path d="M452.645 241.345H246.104C245.96 241.345 245.822 241.288 245.72 241.186C245.619 241.084 245.562 240.946 245.562 240.802C245.562 240.659 245.619 240.521 245.72 240.419C245.822 240.317 245.96 240.26 246.104 240.26H452.645C452.788 240.26 452.926 240.317 453.028 240.419C453.13 240.521 453.187 240.659 453.187 240.802C453.187 240.946 453.13 241.084 453.028 241.186C452.926 241.288 452.788 241.345 452.645 241.345Z" fill="#F0F0F0"/>
<path d="M452.916 310.494V103.859C452.916 103.716 452.973 103.578 453.075 103.476C453.176 103.374 453.314 103.317 453.458 103.317C453.602 103.317 453.74 103.374 453.841 103.476C453.943 103.578 454 103.716 454 103.859V310.494C454 310.638 453.943 310.776 453.841 310.877C453.74 310.979 453.602 311.036 453.458 311.036C453.314 311.036 453.176 310.979 453.075 310.877C452.973 310.776 452.916 310.638 452.916 310.494Z" fill="#F0F0F0"/>
<path d="M422.016 269.005C426.806 269.005 430.69 265.119 430.69 260.327C430.69 255.534 426.806 251.649 422.016 251.649C417.226 251.649 413.342 255.534 413.342 260.327C413.342 265.119 417.226 269.005 422.016 269.005Z" fill="#F0F0F0"/>
<path d="M211.138 24.4057C215.928 24.4057 219.812 20.5206 219.812 15.7281C219.812 10.9356 215.928 7.05054 211.138 7.05054C206.348 7.05054 202.464 10.9356 202.464 15.7281C202.464 20.5206 206.348 24.4057 211.138 24.4057Z" fill="#F0F0F0"/>
<path d="M207.625 364.458C207.625 364.529 207.612 364.6 207.584 364.665C207.557 364.731 207.517 364.791 207.467 364.842C207.417 364.892 207.357 364.932 207.291 364.959C207.225 364.986 207.154 365 207.083 365H0.542102C0.398328 365 0.260442 364.943 0.158778 364.841C0.0571138 364.739 0 364.601 0 364.458C0 364.314 0.0571138 364.176 0.158778 364.074C0.260442 363.972 0.398328 363.915 0.542102 363.915H207.083C207.154 363.915 207.225 363.929 207.291 363.956C207.357 363.983 207.417 364.023 207.467 364.074C207.517 364.124 207.557 364.184 207.584 364.25C207.612 364.316 207.625 364.386 207.625 364.458Z" fill="#CACACA"/>
<path d="M224.322 198.254C206.338 180.435 195.829 156.421 194.941 131.114L197.108 131.036C197.977 155.793 208.257 179.284 225.851 196.716L224.322 198.254Z" fill="#3F3D56"/>
<path d="M247.584 175.021L246.012 176.507C234.031 163.851 225.575 148.274 221.487 131.329L222.539 131.074H223.655C227.676 147.545 235.916 162.683 247.562 174.999L247.584 175.021Z" fill="#3F3D56"/>
<path d="M268.487 154.206L267.674 154.884L267.657 154.9L266.823 155.594C260.74 148.315 255.727 140.205 251.937 131.508L252.929 131.074H254.116C257.788 139.39 262.605 147.15 268.428 154.13C268.446 154.156 268.466 154.182 268.487 154.206Z" fill="#3F3D56"/>
</g>
<defs>
<linearGradient id="paint0_linear_3_694" x1="270.942" y1="-4.48614" x2="261.716" y2="143.132" gradientUnits="userSpaceOnUse">
<stop stop-color="#2161D5"/>
<stop offset="1" stop-color="#5C92F3"/>
</linearGradient>
<linearGradient id="paint1_linear_3_694" x1="240.385" y1="117.974" x2="235.5" y2="225.429" gradientUnits="userSpaceOnUse">
<stop stop-color="#2161D5"/>
<stop offset="1" stop-color="#5C92F3"/>
</linearGradient>
<clipPath id="clip0_3_694">
<rect width="454" height="365" fill="white"/>
</clipPath>
</defs>
</svg>
