<svg width="32" height="32" viewBox="0 0 32 32" fill="none" xmlns="http://www.w3.org/2000/svg">
<path fill-rule="evenodd" clip-rule="evenodd" d="M15.6082 31.6371C24.185 31.6371 31.1376 24.6117 31.1376 15.9454C31.1376 7.27909 24.185 0.253662 15.6082 0.253662C7.0316 0.253662 0.0788574 7.27909 0.0788574 15.9454C0.0788574 24.6117 7.0316 31.6371 15.6082 31.6371ZM18.0052 12.3775C19.3289 11.0399 19.3289 8.87122 18.0052 7.53358C16.6814 6.19595 14.5352 6.19595 13.2114 7.53358C11.8876 8.87122 11.8876 11.0399 13.2114 12.3775L15.6082 14.7995L18.0052 12.3775ZM19.1392 18.3674C20.463 19.705 22.6093 19.705 23.9331 18.3674C25.2568 17.0297 25.2568 14.8611 23.9331 13.5234C22.6093 12.1859 20.463 12.1859 19.1392 13.5234L16.7424 15.9454L19.1392 18.3674ZM18.0052 24.3572C19.3289 23.0196 19.3289 20.8509 18.0052 19.5133L15.6082 17.0913L13.2114 19.5133C11.8876 20.8509 11.8876 23.0196 13.2114 24.3572C14.5352 25.6949 16.6814 25.6949 18.0052 24.3572ZM7.28344 18.3674C5.95968 17.0297 5.95968 14.8611 7.28344 13.5234C8.60727 12.1859 10.7535 12.1859 12.0773 13.5234L14.4742 15.9454L12.0773 18.3674C10.7535 19.705 8.60727 19.705 7.28344 18.3674Z" fill="#2161D5"/>
</svg>
