<svg width="603" height="400" viewBox="0 0 603 400" fill="none" xmlns="http://www.w3.org/2000/svg">
<g clip-path="url(#clip0_1_30)">
<path d="M305.165 112.424C299.793 103.541 293.429 94.0557 283.461 91.155C271.918 87.7958 260.061 94.4689 250.003 101.054C219.923 120.748 190.956 142.09 163.235 164.984L163.265 165.328C184.847 163.84 206.43 162.352 228.012 160.863C243.606 159.788 259.735 158.564 273.515 151.188C278.744 148.388 283.842 144.649 289.767 144.389C297.129 144.065 303.548 149.207 308.592 154.578C338.432 186.354 347.067 234.946 380.544 262.863C359.435 210.802 334.229 160.498 305.165 112.424Z" fill="#F2F2F2"/>
<path d="M488.585 381.936C485.286 377.77 483.937 376.794 480.682 372.589C454.179 338.311 429.269 302.875 405.95 266.282C390.111 241.429 375.058 216.099 360.79 190.291C353.997 178.022 347.391 165.657 340.971 153.195C335.989 143.532 331.118 133.812 326.358 124.034C324.997 121.241 323.674 118.436 322.358 115.623C319.257 109.011 316.214 102.366 312.946 95.8426C309.223 88.408 304.69 80.6138 297.852 75.6188C294.74 73.2523 291.019 71.8205 287.124 71.4906C281.557 71.131 276.421 73.4295 271.593 75.9398C236.269 94.3596 203.198 117.453 173.286 143.732C143.297 170.069 116.492 199.823 93.4176 232.389C92.7117 233.397 91.0423 232.434 91.7549 231.42C94.5606 227.452 97.4219 223.527 100.339 219.645C136.609 171.407 181.081 129.925 231.723 97.0946C240.243 91.5732 248.923 86.3107 257.764 81.3071C262.219 78.784 266.694 76.2929 271.246 73.9559C275.709 71.6639 280.447 69.603 285.544 69.5259C302.892 69.2563 311.874 88.9023 318.044 102.122C319.983 106.282 321.945 110.429 323.931 114.564C331.436 130.262 339.231 145.816 347.314 161.227C352.302 170.742 357.4 180.201 362.607 189.604C378.812 218.887 396.035 247.577 414.277 275.674C438.443 312.893 462.417 345.771 489.947 380.575C490.704 381.538 489.35 382.912 488.585 381.936Z" fill="#E4E4E4"/>
<path d="M171.572 134.03C170.564 132.907 169.562 131.783 168.548 130.66C160.548 121.813 151.964 113.068 140.979 107.996C135.741 105.501 130.023 104.176 124.222 104.112C118.226 104.131 112.364 105.704 106.823 107.906C104.204 108.953 101.642 110.14 99.119 111.405C96.2362 112.856 93.4048 114.404 90.5865 115.964C85.296 118.891 80.0742 121.947 74.9211 125.132C64.6678 131.469 54.7356 138.289 45.1245 145.593C40.1422 149.381 35.2627 153.293 30.4861 157.33C26.0433 161.079 21.6904 164.929 17.4273 168.88C16.5157 169.721 15.1545 168.36 16.0661 167.518C17.1897 166.472 18.3261 165.432 19.4625 164.405C22.6726 161.503 25.9342 158.656 29.2472 155.866C35.2884 150.768 41.4861 145.867 47.8402 141.163C57.7211 133.844 67.9422 127.022 78.5033 120.695C83.7809 117.537 89.1312 114.511 94.554 111.617C96.1914 110.744 97.8479 109.89 99.5235 109.081C103.326 107.163 107.276 105.555 111.337 104.272C117.089 102.412 123.174 101.814 129.179 102.52C134.976 103.363 140.561 105.295 145.64 108.214C156.426 114.243 164.792 123.565 172.933 132.663C173.755 133.587 172.4 134.955 171.572 134.03Z" fill="#E4E4E4"/>
<path d="M392.572 225.71L418.418 216.257L431.251 211.563C435.43 210.035 439.599 208.294 443.92 207.2C447.675 206.127 451.661 206.178 455.387 207.346C458.71 208.576 461.752 210.461 464.331 212.89C466.966 215.317 469.419 217.936 471.667 220.725C474.461 224.082 477.214 227.475 479.979 230.857C491.39 244.813 502.727 258.829 513.989 272.906C525.252 286.983 536.438 301.12 547.55 315.316C558.688 329.547 569.75 343.838 580.736 358.188C582.082 359.946 583.426 361.705 584.77 363.465C585.512 364.437 587.186 363.479 586.433 362.493C575.366 347.998 564.223 333.563 553.002 319.187C541.754 304.777 530.428 290.428 519.024 276.14C507.62 261.852 496.14 247.627 484.582 233.463C481.702 229.934 478.818 226.409 475.929 222.889C473.493 219.919 471.083 216.917 468.41 214.152C463.504 209.078 457.375 204.594 450.037 204.472C445.723 204.401 441.548 205.77 437.54 207.22C433.219 208.783 428.909 210.375 424.594 211.954L398.567 221.473L392.06 223.853C390.906 224.275 391.404 226.137 392.572 225.71L392.572 225.71Z" fill="#E4E4E4"/>
<path d="M137.578 119.129C124.443 112.378 107.623 113.7 95.5535 122.134C118.575 126.106 141.345 131.42 163.746 138.05C154.444 132.598 147.167 124.057 137.578 119.129Z" fill="#F2F2F2"/>
<path d="M95.4243 122.111L92.8958 124.166C93.751 123.447 94.6402 122.772 95.5536 122.134C95.5104 122.126 95.4674 122.118 95.4243 122.111Z" fill="#F2F2F2"/>
<path d="M463.358 225.805C460.814 222.708 458.063 219.465 454.257 218.207L450.705 218.347C477.75 266.138 514.278 307.897 558.044 341.062C526.482 302.643 494.92 264.224 463.358 225.805Z" fill="#F2F2F2"/>
<path d="M242.424 200.257C244.068 206.23 247.772 211.43 252.881 214.935C254.856 216.28 257.192 217.57 257.868 219.862C258.224 221.323 258.005 222.864 257.256 224.169C256.509 225.456 255.601 226.643 254.552 227.699L254.456 228.058C249.555 225.153 244.892 221.479 242.185 216.466C239.477 211.453 239.099 204.883 242.424 200.257" fill="#F2F2F2"/>
<path d="M405.604 342.427C407.248 348.4 410.952 353.599 416.061 357.105C418.036 358.45 420.373 359.74 421.048 362.031C421.404 363.492 421.185 365.034 420.436 366.338C419.69 367.626 418.781 368.813 417.732 369.869L417.637 370.228C412.735 367.323 408.072 363.649 405.365 358.636C402.657 353.623 402.28 347.053 405.604 342.427" fill="#F2F2F2"/>
<path d="M79.9439 332.622C81.5881 338.595 85.2922 343.794 90.4008 347.3C92.3759 348.645 94.7127 349.935 95.3884 352.226C95.7438 353.688 95.5248 355.229 94.7765 356.534C94.0296 357.821 93.1208 359.008 92.0723 360.064L91.9766 360.423C87.0753 357.518 82.4124 353.844 79.705 348.831C76.9976 343.818 76.6196 337.248 79.9439 332.622" fill="#F2F2F2"/>
<path d="M454.697 71.4351C474.424 71.4351 490.415 55.4438 490.415 35.7175C490.415 15.9913 474.424 0 454.697 0C434.971 0 418.98 15.9913 418.98 35.7175C418.98 55.4438 434.971 71.4351 454.697 71.4351Z" fill="url(#paint0_linear_1_30)"/>
<path d="M519.154 8.31336C501.844 5.97355 482.081 15.3299 477.595 32.2116C476.464 29.21 474.408 26.6456 471.725 24.8888C469.041 23.132 465.869 22.2738 462.665 22.4382C459.462 22.6025 456.394 23.781 453.904 25.8032C451.415 27.8255 449.632 30.5868 448.815 33.6884L450.797 35.1077C487.892 43.1297 526.292 42.9561 563.313 34.599C551.272 21.9446 536.464 10.6531 519.154 8.31336Z" fill="#F0F0F0"/>
<path d="M444.917 55.9366C427.607 53.5968 407.845 62.9532 403.358 79.8349C402.227 76.8333 400.172 74.2689 397.488 72.5121C394.805 70.7553 391.632 69.8971 388.429 70.0615C385.226 70.2258 382.158 71.4043 379.668 73.4265C377.178 75.4488 375.396 78.2101 374.578 81.3117L376.56 82.731C413.656 90.753 452.055 90.5793 489.077 82.2223C477.036 69.5679 462.228 58.2764 444.917 55.9366Z" fill="#F0F0F0"/>
<path d="M596 64.9417C595.929 64.9418 595.857 64.9307 595.789 64.9088C410.613 6.34736 247.407 14.0053 143.101 30.7417C128.906 33.0186 114.673 35.6483 100.798 38.5584C97.2552 39.3004 93.5801 40.0959 89.8745 40.9241C85.4492 41.9096 81.0826 42.9246 76.8956 43.9396C75.0873 44.3677 73.3144 44.7993 71.5767 45.2342C68.9446 45.884 66.2738 46.561 63.4109 47.3051C60.2118 48.13 56.9614 48.9951 53.748 49.8767C53.7363 49.8809 53.7243 49.8843 53.7121 49.887L53.7124 49.8877C50.0828 50.8787 46.4724 51.8984 42.9809 52.9168C41.0912 53.4626 39.2665 54.0008 37.5187 54.5323C37.3234 54.5863 37.1504 54.6383 36.975 54.6916L36.5995 54.8058C36.382 54.8722 36.1673 54.9371 35.9525 54.9987L35.9388 55.0028L35.9392 55.0035L35.3708 55.18C34.6931 55.3852 34.0317 55.5855 33.3813 55.7853C16.1914 61.0843 6.74154 64.8542 6.64818 64.8911C6.56281 64.9253 6.47154 64.9424 6.37958 64.9413C6.28761 64.9403 6.19675 64.9211 6.11219 64.8849C6.02763 64.8488 5.95102 64.7963 5.88673 64.7305C5.82245 64.6648 5.77175 64.587 5.73753 64.5016C5.70331 64.4162 5.68625 64.3249 5.6873 64.233C5.68836 64.141 5.70752 64.0502 5.74368 63.9656C5.77985 63.881 5.83232 63.8044 5.89809 63.7401C5.96387 63.6759 6.04166 63.6252 6.12703 63.5909C6.22107 63.554 15.7171 59.765 32.9696 54.4461C33.6224 54.2457 34.2854 54.0453 34.9653 53.8395L35.4932 53.6753C35.5114 53.6685 35.5295 53.663 35.548 53.6575C35.7617 53.5967 35.9751 53.5317 36.1919 53.466L36.568 53.3518C36.7554 53.2951 36.9401 53.239 37.1292 53.187C38.865 52.659 40.6959 52.1194 42.5904 51.5716C46.0832 50.5525 49.6971 49.5328 53.3295 48.5404C53.3407 48.5363 53.3524 48.5335 53.3637 48.5301V48.5294C56.5884 47.6451 59.8507 46.7765 63.0601 45.949C65.9274 45.2042 68.6033 44.5257 71.2399 43.8746C72.9849 43.4403 74.7613 43.0078 76.569 42.5772C80.7608 41.5609 85.1363 40.5445 89.5695 39.557C93.2809 38.728 96.9621 37.9306 100.51 37.1878C114.407 34.2729 128.663 31.6391 142.879 29.3589C247.335 12.5985 410.775 4.92819 596.211 63.5738C596.371 63.6241 596.507 63.7299 596.595 63.8719C596.683 64.0139 596.718 64.1828 596.692 64.348C596.667 64.5133 596.583 64.664 596.456 64.7729C596.329 64.8818 596.168 64.9416 596 64.9417Z" fill="#CCCCCC"/>
<path d="M184.183 294.032C183.94 293.323 183.532 292.682 182.992 292.163C182.793 291.978 182.577 291.811 182.348 291.665C180.52 290.447 177.788 290.174 176.052 291.665C175.877 291.817 175.715 291.983 175.568 292.163C175.05 292.8 174.518 293.423 173.972 294.032C173.075 295.055 172.158 296.042 171.198 297.002C170.925 297.268 170.652 297.541 170.372 297.807C170.211 297.968 170.05 298.122 169.889 298.277C169.272 298.865 168.642 299.432 168.005 299.992C167.668 300.294 167.332 300.588 166.989 300.875C166.478 301.302 165.967 301.729 165.448 302.142C165.399 302.177 165.35 302.212 165.301 302.255C165.287 302.262 165.28 302.276 165.266 302.283C165.259 302.283 165.252 302.283 165.245 302.297C165.226 302.304 165.209 302.316 165.196 302.332C165.042 302.437 164.937 302.507 164.86 302.57C164.888 302.556 164.916 302.535 164.944 302.521C164.818 302.619 164.685 302.717 164.559 302.815C163.333 303.718 162.08 304.587 160.798 305.399C157.627 307.428 154.297 309.197 150.839 310.687C150.608 310.778 150.37 310.876 150.132 310.967C141.08 314.675 131.26 316.123 121.523 315.183C120.528 315.106 119.534 315.001 118.539 314.868C117.391 314.7 116.249 314.497 115.115 314.265C110.795 313.404 106.569 312.128 102.494 310.456C97.3974 308.121 92.5497 305.278 88.0253 301.967C87.325 301.47 86.6176 300.973 85.9103 300.49C86.7157 298.515 87.5071 296.54 88.2775 294.551C88.6626 293.591 89.0338 292.632 89.398 291.665C92.2624 284.221 94.9517 276.706 97.529 269.163C100.134 261.523 102.592 253.837 104.904 246.108C105.142 245.324 105.373 244.539 105.597 243.755C106.809 239.672 107.971 235.579 109.085 231.478C109.19 231.079 109.302 230.686 109.4 230.287C109.722 229.111 110.037 227.934 110.345 226.757C111.046 224.103 109.463 220.931 106.675 220.293C105.333 219.949 103.91 220.139 102.706 220.824C101.501 221.509 100.609 222.634 100.218 223.963C99.9172 225.098 99.616 226.225 99.3079 227.36C97.8301 232.843 96.2754 238.308 94.6436 243.755C94.4055 244.539 94.1674 245.324 93.9292 246.108C90.3295 257.972 86.3772 269.717 82.0724 281.342C81.5541 282.75 81.0289 284.153 80.4966 285.551C80.2375 286.238 79.9784 286.924 79.7122 287.61C79.201 288.962 78.6757 290.314 78.1505 291.665C77.8493 292.457 77.5411 293.248 77.233 294.032C77.0299 294.53 76.8338 295.027 76.6377 295.517C74.6409 294.8 72.5721 294.302 70.4677 294.032L70.1315 293.99C68.5 293.794 66.85 293.808 65.2221 294.032C62.7857 294.317 60.4414 295.133 58.3551 296.423C56.2687 297.713 54.4912 299.446 53.1482 301.498C49.8076 306.758 49.8496 314.279 54.5349 318.748C59.3603 323.349 66.6648 323.314 72.3446 320.435C75.3546 318.807 77.8925 316.428 79.7122 313.53C80.4094 312.479 81.05 311.392 81.6312 310.273C81.7783 310.371 81.9253 310.47 82.0724 310.575C82.6327 310.967 83.193 311.366 83.7462 311.758C86.9699 314.094 90.3671 316.18 93.9082 317.998C101.522 321.784 109.718 324.262 118.154 325.331C118.343 325.352 118.525 325.38 118.714 325.401C119.646 325.52 120.584 325.611 121.523 325.688C134.985 326.703 148.464 323.948 160.448 317.732C161.463 317.207 162.47 316.656 163.466 316.079C165.014 315.183 166.527 314.23 168.005 313.222C168.81 312.676 169.594 312.122 170.372 311.541C173.769 309.039 176.935 306.238 179.833 303.172C180.933 302.016 181.986 300.823 182.992 299.593C183.943 298.587 184.492 297.266 184.533 295.881C184.527 295.249 184.409 294.623 184.183 294.032ZM68.2126 310.715C68.3597 310.61 68.5068 310.498 68.6468 310.386C68.6048 310.491 68.4017 310.61 68.2126 310.715H68.2126ZM70.4607 308.453C70.2996 308.635 70.1525 308.817 69.9915 308.999C69.5014 309.547 68.975 310.062 68.4157 310.54C68.3387 310.61 68.2546 310.68 68.1706 310.743C68.1697 310.743 68.1687 310.743 68.1679 310.743C68.167 310.744 68.1662 310.744 68.1656 310.745C68.1649 310.745 68.1644 310.746 68.1641 310.747C68.1637 310.748 68.1636 310.749 68.1636 310.75C68.0624 310.795 67.9642 310.846 67.8694 310.904C67.5683 311.086 67.2601 311.254 66.945 311.408C66.3279 311.635 65.6931 311.811 65.0471 311.933C64.5506 311.969 64.0524 311.974 63.5553 311.947H63.5413C63.1983 311.871 62.8594 311.778 62.5258 311.667C62.3577 311.583 62.1966 311.485 62.0356 311.387C61.9725 311.331 61.9165 311.275 61.8815 311.24C61.8131 311.177 61.7499 311.11 61.6925 311.037C61.6925 311.036 61.6923 311.035 61.6919 311.034C61.6916 311.033 61.6911 311.033 61.6904 311.032C61.6898 311.031 61.689 311.031 61.6881 311.03C61.6873 311.03 61.6864 311.03 61.6854 311.03C61.6084 310.89 61.5243 310.75 61.4473 310.61C61.4433 310.606 61.4408 310.601 61.4403 310.596C61.3843 310.421 61.3353 310.238 61.2933 310.056C61.2781 309.737 61.2804 309.416 61.3002 309.097C61.3942 308.649 61.5206 308.209 61.6784 307.78C61.8202 307.476 61.9817 307.181 62.1617 306.898C62.1757 306.87 62.2457 306.758 62.3228 306.632C62.3298 306.625 62.3297 306.625 62.3297 306.618C62.4348 306.499 62.5399 306.373 62.6519 306.26C62.841 306.05 63.0441 305.868 63.2472 305.679C63.6422 305.421 64.0514 305.185 64.4728 304.972C65.1414 304.734 65.8275 304.549 66.5248 304.419C67.5531 304.337 68.5867 304.346 69.6133 304.447C70.5858 304.615 71.5452 304.852 72.4847 305.154C71.9153 306.259 71.267 307.322 70.5448 308.333C70.5167 308.376 70.4887 308.418 70.4607 308.453ZM62.6729 306.148C62.6112 306.247 62.5383 306.339 62.4558 306.422C62.5114 306.318 62.5849 306.226 62.6729 306.148Z" fill="#3F3D56"/>
<path d="M163.13 222.506C163.067 224.705 163.004 226.904 162.941 229.103C162.808 233.985 162.67 238.869 162.528 243.755C162.381 249.252 162.227 254.748 162.066 260.241C161.989 263.077 161.909 265.914 161.828 268.75C161.61 276.391 161.396 284.029 161.183 291.665C161.162 292.457 161.134 293.241 161.113 294.032C161.008 297.821 160.903 301.61 160.798 305.399C160.679 309.51 160.562 313.621 160.448 317.732C160.364 320.813 160.278 323.897 160.189 326.984C159.559 349.346 158.928 371.708 158.298 394.069C158.271 395.454 157.709 396.775 156.73 397.754C155.751 398.733 154.43 399.295 153.045 399.322C151.656 399.311 150.326 398.754 149.344 397.771C148.361 396.789 147.804 395.459 147.793 394.069C148.143 381.491 148.498 368.913 148.857 356.335C149.172 344.961 149.492 333.588 149.817 322.214C149.922 318.467 150.027 314.718 150.132 310.967C150.293 305.322 150.452 299.677 150.608 294.032C150.629 293.241 150.657 292.457 150.678 291.665C150.692 290.972 150.713 290.286 150.734 289.592C151.042 278.632 151.35 267.669 151.659 256.704C151.785 252.39 151.906 248.073 152.023 243.755C152.163 238.831 152.303 233.91 152.443 228.991C152.506 226.827 152.562 224.67 152.625 222.506C152.652 221.122 153.214 219.801 154.193 218.822C155.172 217.842 156.493 217.28 157.878 217.254C159.267 217.265 160.597 217.822 161.579 218.804C162.562 219.787 163.119 221.117 163.13 222.506Z" fill="#3F3D56"/>
<path d="M451.271 223.964C445.764 244.82 439.181 265.377 431.549 285.553C429.443 291.118 427.289 296.672 424.986 302.159L425.515 300.905C424.487 303.518 423.174 306.011 421.601 308.337C421.493 308.487 421.385 308.635 421.274 308.782C421.818 308.086 421.921 307.949 421.584 308.37C421.406 308.58 421.23 308.792 421.046 308.997C420.556 309.546 420.03 310.061 419.471 310.54C419.33 310.66 419.188 310.778 419.043 310.893L419.699 310.383C419.623 310.562 419.088 310.801 418.922 310.903C418.382 311.228 417.819 311.514 417.237 311.756L418.492 311.227C417.539 311.611 416.545 311.883 415.529 312.04L416.925 311.852C415.927 311.99 414.916 312.001 413.915 311.884L415.311 312.072C414.493 311.959 413.692 311.743 412.927 311.43L414.182 311.959C413.774 311.781 413.381 311.571 413.006 311.331C412.816 311.208 412.232 310.765 412.995 311.349C413.789 311.955 413.097 311.401 412.934 311.24C412.798 311.105 412.675 310.959 412.542 310.823C411.924 310.189 413.24 311.913 412.82 311.172C412.596 310.801 412.39 310.418 412.205 310.026L412.734 311.28C412.493 310.683 412.322 310.06 412.225 309.424L412.412 310.82C412.312 310.028 412.311 309.227 412.41 308.435L412.222 309.832C412.351 308.948 412.585 308.083 412.919 307.254L412.39 308.509C412.623 307.952 412.899 307.414 413.215 306.899C413.36 306.633 413.531 306.382 413.725 306.149C413.759 306.16 412.836 307.208 413.326 306.679C413.454 306.541 413.574 306.395 413.704 306.258C413.911 306.038 414.133 305.837 414.352 305.629C415.083 304.932 413.328 306.305 414.172 305.754C414.784 305.352 415.428 305.001 416.098 304.704L414.843 305.234C415.964 304.773 417.14 304.458 418.341 304.295L416.945 304.483C418.449 304.31 419.97 304.328 421.47 304.536L420.073 304.349C421.973 304.637 423.829 305.159 425.6 305.904L424.345 305.374C428.12 306.995 431.463 309.4 434.8 311.76C438.023 314.094 441.42 316.179 444.959 317.997C452.574 321.783 460.771 324.263 469.207 325.333C481.306 326.815 493.583 325.235 504.912 320.737C516.242 316.24 526.26 308.97 534.049 299.594C534.999 298.586 535.546 297.264 535.587 295.879C535.577 294.488 535.025 293.156 534.049 292.165C532.122 290.396 528.481 289.897 526.62 292.165C524.857 294.319 522.961 296.36 520.943 298.277C520.001 299.171 519.034 300.037 518.042 300.875C517.475 301.354 516.901 301.824 516.318 302.284C516.043 302.502 515.185 303.081 516.503 302.146C516.201 302.36 515.911 302.594 515.613 302.814C511.202 306.066 506.422 308.784 501.373 310.914L502.628 310.384C497.21 312.657 491.52 314.216 485.7 315.022L487.096 314.834C481.109 315.622 475.045 315.613 469.06 314.808L470.456 314.995C464.473 314.174 458.621 312.58 453.048 310.254L454.303 310.783C448.924 308.404 443.82 305.447 439.08 301.965C436.613 300.139 434.011 298.501 431.297 297.067C428.135 295.452 424.711 294.411 421.185 293.994C414.575 293.216 407.839 295.79 404.204 301.501C400.86 306.757 400.903 314.278 405.587 318.748C410.411 323.351 417.716 323.312 423.4 320.432C428.875 317.659 432.164 311.898 434.476 306.466C439.681 294.242 444.288 281.734 448.581 269.164C452.828 256.727 456.68 244.164 460.136 231.476C460.564 229.904 460.986 228.331 461.401 226.757C462.102 224.103 460.518 220.93 457.733 220.295C456.39 219.95 454.966 220.139 453.76 220.824C452.555 221.508 451.662 222.634 451.271 223.964L451.271 223.964Z" fill="#3F3D56"/>
<path d="M503.68 222.506L501.789 289.594L499.909 356.333L498.845 394.07C498.857 395.459 499.414 396.788 500.397 397.771C501.379 398.753 502.708 399.311 504.098 399.322C505.482 399.296 506.803 398.734 507.782 397.754C508.761 396.775 509.323 395.455 509.35 394.07L511.241 326.982L513.122 260.243L514.185 222.506C514.173 221.117 513.616 219.787 512.634 218.805C511.651 217.822 510.322 217.265 508.932 217.253C507.548 217.28 506.227 217.842 505.248 218.821C504.269 219.801 503.707 221.121 503.68 222.506Z" fill="#3F3D56"/>
<path opacity="0.2" d="M321.872 375.339H323.503V301.073H361.552V299.447H323.503V268.11H352.886C352.456 267.562 352.012 267.021 351.556 266.487H323.503V245.79C322.963 245.56 322.42 245.339 321.872 245.129V266.487H289.9V239.969C289.352 239.994 288.813 240.031 288.269 240.077V266.487H262.762V246.702C262.214 246.944 261.675 247.2 261.14 247.467V266.487H239.698V268.11H261.14V299.447H239.698V301.073H261.14V375.339H262.762V301.073C266.112 301.073 269.429 301.732 272.524 303.014C275.619 304.295 278.431 306.174 280.8 308.543C283.168 310.911 285.047 313.723 286.329 316.818C287.61 319.913 288.27 323.23 288.269 326.58V375.339H289.9V301.073H321.872V375.339ZM262.762 299.447V268.11H288.269V299.447H262.762ZM289.9 299.447V268.11H290.54C294.655 268.11 298.729 268.921 302.531 270.496C306.332 272.071 309.786 274.379 312.696 277.289C315.605 280.199 317.913 283.653 319.488 287.455C321.062 291.257 321.872 295.332 321.872 299.447H289.9Z" fill="black"/>
<path d="M311.911 353.071C309.858 362.231 304.939 370.498 297.869 376.673C297.351 377.121 296.833 377.555 296.294 377.983C294.984 378.102 293.684 378.223 292.393 378.347C291.321 378.445 290.264 378.55 289.213 378.648L289.024 378.669L288.891 377.52L288.359 372.87C286.294 369.499 285.014 365.707 284.614 361.774C284.214 357.841 284.704 353.869 286.048 350.151C287.897 345.164 291.244 340.759 294.536 336.389C299.081 330.352 303.5 324.385 303.661 317.025C305.898 319.887 307.757 323.024 309.194 326.36C307.838 326.998 306.62 327.895 305.608 329C305.321 329.316 305.034 329.757 305.23 330.135C305.398 330.457 305.818 330.534 306.183 330.576C307.058 330.667 307.94 330.758 308.816 330.849C309.516 330.926 310.217 330.996 310.917 331.074C311.764 333.855 312.339 336.711 312.633 339.604C313.105 344.103 312.861 348.648 311.911 353.071Z" fill="#3F3D56"/>
<path d="M335.163 334.715C331.031 337.72 328.615 342.041 326.738 346.803C324.814 347.419 323.084 348.524 321.716 350.011C321.429 350.326 321.142 350.767 321.338 351.146C321.506 351.468 321.926 351.545 322.29 351.587C323.166 351.678 324.048 351.769 324.924 351.86C323.047 357.491 321.324 363.317 318.004 368.073C315.797 371.212 312.919 373.822 309.579 375.714C308.669 376.232 307.729 376.698 306.764 377.107C303.206 377.38 299.716 377.672 296.294 377.983C294.984 378.102 293.684 378.223 292.393 378.347C291.321 378.445 290.264 378.55 289.213 378.648C289.206 378.263 289.206 377.878 289.213 377.492C289.435 367.231 293.21 357.365 299.894 349.577C300.209 349.213 300.531 348.855 300.86 348.498C304.246 344.881 308.228 341.873 312.633 339.604C319.573 335.995 327.351 334.308 335.163 334.715Z" fill="url(#paint1_linear_1_30)"/>
<path d="M293.604 374.754L292.799 377.135L292.393 378.347C291.321 378.445 290.264 378.55 289.213 378.648L289.024 378.669C287.861 378.788 286.706 378.907 285.55 379.026C285.249 378.676 284.948 378.319 284.654 377.955C277.344 369.102 273.835 357.716 274.894 346.285C275.953 334.854 281.494 324.306 290.306 316.948C289.381 321.787 290.46 326.423 292.232 331.024C292.043 331.101 291.86 331.179 291.685 331.263C290.33 331.901 289.112 332.798 288.1 333.903C287.812 334.218 287.525 334.659 287.721 335.037C287.889 335.36 288.31 335.437 288.674 335.479C289.549 335.57 290.432 335.661 291.307 335.752C292.007 335.829 292.708 335.899 293.408 335.976C293.737 336.011 294.067 336.046 294.396 336.081C294.445 336.186 294.487 336.284 294.536 336.389C296.532 340.717 298.682 345.066 299.893 349.576C300.197 350.708 300.436 351.856 300.608 353.015C301.147 356.932 300.798 360.92 299.585 364.683C298.373 368.447 296.329 371.889 293.604 374.754Z" fill="url(#paint2_linear_1_30)"/>
<path d="M364.1 273.176C358.071 261.416 348.73 251.521 337.744 244.25C326.723 236.988 314.077 232.566 300.932 231.377C299.209 231.221 297.482 231.129 295.75 231.102C293.704 231.072 262.928 239.949 252.618 247.198C242.314 254.358 233.838 263.841 227.873 274.88C221.919 285.98 218.99 298.451 219.381 311.041C219.891 323.707 223.422 336.067 229.678 347.092C235.849 358.081 244.611 367.396 255.201 374.228C265.943 381.081 276.734 399.255 289.416 399.896C302.195 400.543 316.768 383.4 328.422 378.195C340.077 372.946 350.152 364.735 357.644 354.379C364.925 344.231 369.635 332.468 371.37 320.099C373.173 307.435 372.333 294.374 368.008 282.269C366.898 279.159 365.593 276.122 364.1 273.176C362.853 270.722 359.2 269.818 356.913 271.292C355.735 272.018 354.882 273.169 354.531 274.508C354.18 275.846 354.358 277.268 355.029 278.479C355.761 279.92 356.441 281.386 357.071 282.875L356.541 281.62C358.922 287.346 360.541 293.359 361.357 299.506L361.169 298.109C362.037 304.778 362.021 311.532 361.123 318.197L361.311 316.801C360.403 323.465 358.624 329.981 356.02 336.182L356.549 334.927C355.21 338.091 353.648 341.157 351.877 344.101C350.979 345.588 350.026 347.041 349.019 348.458C348.577 349.08 348.121 349.691 347.661 350.301C347.061 351.096 348.478 349.262 347.859 350.042C347.753 350.175 347.648 350.308 347.542 350.441C347.224 350.838 346.902 351.232 346.575 351.623C344.391 354.228 342.008 356.659 339.448 358.895C338.81 359.451 338.161 359.996 337.502 360.527C337.174 360.792 336.849 361.069 336.507 361.315C336.52 361.306 337.613 360.475 336.966 360.957C336.763 361.109 336.561 361.263 336.357 361.414C334.999 362.42 333.604 363.375 332.173 364.279C328.879 366.355 325.423 368.161 321.839 369.681L323.094 369.152C316.911 371.755 310.413 373.533 303.767 374.44L305.163 374.253C298.52 375.151 291.787 375.163 285.141 374.288L286.537 374.476C280.497 373.665 274.588 372.068 268.962 369.724L270.217 370.254C266.958 368.878 263.816 367.241 260.821 365.358C259.339 364.424 257.895 363.433 256.49 362.383C256.29 362.234 256.091 362.082 255.891 361.931C255.25 361.447 256.352 362.288 256.361 362.294C255.988 362.027 255.629 361.74 255.286 361.436C254.607 360.884 253.939 360.318 253.282 359.74C250.651 357.424 248.195 354.917 245.933 352.24C245.367 351.57 244.812 350.891 244.27 350.201C244.035 349.903 243.607 349.298 244.553 350.572C244.429 350.404 244.3 350.24 244.174 350.073C243.872 349.673 243.574 349.269 243.281 348.863C242.252 347.44 241.274 345.982 240.348 344.489C238.253 341.109 236.426 337.571 234.881 333.908L235.411 335.162C232.883 329.149 231.155 322.83 230.27 316.367L230.458 317.764C229.659 311.806 229.648 305.77 230.424 299.81L230.236 301.206C231.032 295.434 232.584 289.792 234.855 284.426L234.325 285.681C235.753 282.322 237.438 279.078 239.364 275.977C240.328 274.425 241.35 272.912 242.43 271.435C242.675 271.1 242.923 270.767 243.174 270.435C243.401 270.136 244.025 269.39 242.96 270.708C243.065 270.578 243.165 270.445 243.268 270.315C243.86 269.564 244.467 268.826 245.089 268.098C247.44 265.346 249.987 262.766 252.711 260.38C253.399 259.777 254.098 259.187 254.808 258.609C255.13 258.346 255.455 258.087 255.782 257.83C255.913 257.727 256.045 257.626 256.175 257.522C254.776 258.636 255.787 257.825 256.104 257.587C257.567 256.491 259.07 255.449 260.611 254.463C264.038 252.272 267.642 250.372 271.387 248.785L270.132 249.314C275.567 247.032 299.645 241.646 304.025 242.234L302.628 242.046C309.065 242.945 315.356 244.683 321.341 247.216L320.087 246.687C323.12 247.975 326.067 249.455 328.911 251.12C330.332 251.953 331.725 252.831 333.09 253.755C333.736 254.192 334.376 254.639 335.008 255.096C335.324 255.324 335.638 255.555 335.951 255.788C336.124 255.918 336.297 256.049 336.47 256.179C337.198 256.725 335.468 255.389 336.231 255.992C338.784 257.999 341.209 260.163 343.492 262.473C344.613 263.614 345.695 264.792 346.739 266.006C347.274 266.629 347.799 267.261 348.312 267.902C348.567 268.221 349.436 269.374 348.371 267.962C348.632 268.307 348.895 268.65 349.152 268.997C351.365 271.993 353.33 275.164 355.029 278.479C356.285 280.928 359.922 281.842 362.215 280.363C363.394 279.638 364.248 278.486 364.599 277.148C364.95 275.809 364.771 274.387 364.1 273.176Z" fill="#3F3D56"/>
<path d="M302.897 358.895C302.354 358.92 301.818 358.778 301.359 358.487C300.9 358.197 300.542 357.773 300.333 357.272C300.123 356.771 300.073 356.218 300.188 355.688C300.304 355.157 300.58 354.675 300.978 354.307C301.045 354.042 301.093 353.851 301.159 353.586C301.136 353.528 301.112 353.47 301.087 353.413C298.65 347.601 283.099 363.801 282.427 369.263C282.131 371.677 282.256 374.124 282.796 376.495C277.759 365.507 275.143 353.564 275.126 341.476C275.125 338.443 275.293 335.412 275.631 332.398C275.91 329.926 276.296 327.473 276.791 325.037C279.491 311.819 285.288 299.43 293.705 288.887C298.519 289.156 302.739 288.423 303.146 279.093C303.218 277.433 304.449 275.996 304.721 274.361C304.261 274.422 303.794 274.459 303.334 274.489C303.191 274.497 303.04 274.504 302.897 274.512L302.843 274.514C302.338 274.537 301.837 274.413 301.401 274.158C300.965 273.902 300.611 273.526 300.384 273.075C300.156 272.623 300.064 272.116 300.118 271.613C300.172 271.11 300.371 270.634 300.689 270.241C300.888 269.997 301.086 269.753 301.285 269.509C301.586 269.132 301.895 268.763 302.197 268.387C302.231 268.351 302.264 268.313 302.295 268.274C302.641 267.844 302.988 267.422 303.334 266.993C302.702 266.011 301.851 265.188 300.848 264.589C297.375 262.555 292.583 263.964 290.074 267.106C287.558 270.248 287.083 274.655 287.957 278.58C288.816 281.921 290.238 285.09 292.161 287.953C291.973 288.194 291.777 288.428 291.588 288.669C288.145 293.096 285.144 297.851 282.628 302.863C283.34 297.304 274.636 277.225 271.27 272.972C267.227 267.864 258.937 270.093 258.224 276.569C258.217 276.632 258.211 276.694 258.204 276.757C258.704 277.039 259.193 277.339 259.672 277.655C260.274 278.057 260.74 278.631 261.01 279.303C261.279 279.974 261.34 280.711 261.183 281.418C261.027 282.124 260.661 282.766 260.133 283.261C259.605 283.756 258.94 284.079 258.225 284.19L258.151 284.201C251.459 293.756 272.913 318.626 278.283 313.042C275.755 320.205 274.17 327.666 273.566 335.238C273.225 339.705 273.245 344.193 273.627 348.656L273.604 348.498C272.411 338.776 251.942 324.321 245.964 325.525C242.521 326.218 239.129 326.061 239.652 329.534C239.66 329.589 239.669 329.645 239.677 329.7C240.605 330.078 241.509 330.514 242.382 331.004C242.882 331.286 243.371 331.585 243.85 331.902C244.452 332.304 244.918 332.878 245.188 333.549C245.457 334.221 245.518 334.958 245.361 335.664C245.205 336.37 244.839 337.013 244.311 337.508C243.783 338.002 243.118 338.326 242.403 338.436L242.329 338.448C242.277 338.455 242.231 338.463 242.179 338.47C239.132 348.952 261.724 365.868 275.458 360.485H275.465C276.826 366.4 278.798 372.157 281.349 377.663H302.37C302.445 377.43 302.513 377.189 302.581 376.955C300.635 377.077 298.682 376.961 296.764 376.609C298.324 374.695 299.883 372.766 301.443 370.852C301.478 370.817 301.511 370.779 301.541 370.739C302.332 369.76 303.131 368.788 303.922 367.809L303.922 367.807C303.964 364.805 303.62 361.81 302.897 358.896L302.897 358.895ZM278.825 311.543L278.836 311.528L278.825 311.558V311.543ZM274.169 353.516L273.988 353.109C273.996 352.815 273.996 352.522 273.988 352.22C273.988 352.137 273.973 352.054 273.973 351.972C274.041 352.491 274.101 353.011 274.177 353.531L274.169 353.516Z" fill="#3F3D56"/>
<path d="M66.707 315.155C70.9616 315.155 74.4107 311.706 74.4107 307.451C74.4107 303.196 70.9616 299.747 66.707 299.747C62.4523 299.747 59.0032 303.196 59.0032 307.451C59.0032 311.706 62.4523 315.155 66.707 315.155Z" fill="#3F3D56"/>
<path d="M159.152 399.196C163.407 399.196 166.856 395.747 166.856 391.492C166.856 387.238 163.407 383.789 159.152 383.789C154.898 383.789 151.448 387.238 151.448 391.492C151.448 395.747 154.898 399.196 159.152 399.196Z" fill="#3F3D56"/>
<path d="M510.025 399.196C514.279 399.196 517.728 395.747 517.728 391.492C517.728 387.238 514.279 383.789 510.025 383.789C505.77 383.789 502.321 387.238 502.321 391.492C502.321 395.747 505.77 399.196 510.025 399.196Z" fill="#3F3D56"/>
<path d="M528.934 301.148C533.188 301.148 536.638 297.699 536.638 293.444C536.638 289.189 533.188 285.74 528.934 285.74C524.679 285.74 521.23 289.189 521.23 293.444C521.23 297.699 524.679 301.148 528.934 301.148Z" fill="#3F3D56"/>
<path d="M506.523 229.713C510.778 229.713 514.227 226.264 514.227 222.009C514.227 217.754 510.778 214.305 506.523 214.305C502.268 214.305 498.819 217.754 498.819 222.009C498.819 226.264 502.268 229.713 506.523 229.713Z" fill="#3F3D56"/>
<path d="M185.065 293.444C185.06 295.412 184.299 297.303 182.939 298.725C181.58 300.147 179.725 300.993 177.759 301.086C175.794 301.179 173.867 300.512 172.379 299.225C170.891 297.937 169.955 296.127 169.765 294.168C169.574 292.21 170.144 290.253 171.356 288.703C172.569 287.152 174.33 286.128 176.277 285.84C178.224 285.553 180.207 286.025 181.815 287.159C183.423 288.293 184.534 290.001 184.918 291.931C185.017 292.43 185.066 292.936 185.065 293.444Z" fill="#3F3D56"/>
<path d="M339.141 252.124C343.395 252.124 346.844 248.675 346.844 244.42C346.844 240.165 343.395 236.716 339.141 236.716C334.886 236.716 331.437 240.165 331.437 244.42C331.437 248.675 334.886 252.124 339.141 252.124Z" fill="#3F3D56"/>
<path d="M262.803 244.42C262.799 246.388 262.038 248.279 260.678 249.701C259.318 251.123 257.463 251.968 255.498 252.061C253.532 252.155 251.606 251.488 250.118 250.201C248.63 248.913 247.693 247.103 247.503 245.144C247.313 243.185 247.882 241.229 249.095 239.678C250.307 238.128 252.069 237.103 254.015 236.816C255.962 236.529 257.945 237.001 259.553 238.135C261.162 239.268 262.273 240.977 262.656 242.907C262.755 243.405 262.804 243.912 262.803 244.42Z" fill="#3F3D56"/>
<path d="M163.354 222.009C163.35 223.977 162.589 225.868 161.229 227.29C159.869 228.712 158.014 229.558 156.049 229.651C154.083 229.744 152.157 229.077 150.669 227.79C149.181 226.502 148.245 224.692 148.054 222.733C147.864 220.775 148.434 218.818 149.646 217.268C150.858 215.717 152.62 214.693 154.567 214.405C156.513 214.118 158.496 214.59 160.104 215.724C161.713 216.858 162.824 218.566 163.207 220.496C163.306 220.995 163.355 221.501 163.354 222.009Z" fill="#3F3D56"/>
<path d="M419.68 317.956C423.935 317.956 427.384 314.507 427.384 310.252C427.384 305.998 423.935 302.549 419.68 302.549C415.426 302.549 411.976 305.998 411.976 310.252C411.976 314.507 415.426 317.956 419.68 317.956Z" fill="#3F3D56"/>
<path d="M298.521 247.922C304.709 247.922 309.726 242.905 309.726 236.716C309.726 230.528 304.709 225.511 298.521 225.511C292.332 225.511 287.315 230.528 287.315 236.716C287.315 242.905 292.332 247.922 298.521 247.922Z" fill="#3F3D56"/>
<path d="M601.554 399.785L0.833881 400C0.724374 400 0.615936 399.978 0.514764 399.936C0.413592 399.894 0.321671 399.833 0.244238 399.756C0.166804 399.678 0.105373 399.586 0.0634665 399.485C0.0215598 399.384 0 399.276 0 399.166C0 399.057 0.0215598 398.948 0.0634665 398.847C0.105373 398.746 0.166804 398.654 0.244238 398.576C0.321671 398.499 0.413592 398.438 0.514764 398.396C0.615936 398.354 0.724374 398.332 0.833881 398.332L601.554 398.117C601.775 398.118 601.986 398.206 602.142 398.362C602.298 398.518 602.385 398.73 602.385 398.951C602.385 399.172 602.298 399.383 602.142 399.54C601.986 399.696 601.775 399.784 601.554 399.785Z" fill="#CACACA"/>
</g>
<defs>
<linearGradient id="paint0_linear_1_30" x1="458.39" y1="-11.7454" x2="452.14" y2="84.3876" gradientUnits="userSpaceOnUse">
<stop stop-color="#2161D5"/>
<stop offset="1" stop-color="#5C92F3"/>
</linearGradient>
<linearGradient id="paint1_linear_1_30" x1="314.561" y1="327.423" x2="310.875" y2="386.645" gradientUnits="userSpaceOnUse">
<stop stop-color="#2161D5"/>
<stop offset="1" stop-color="#5C92F3"/>
</linearGradient>
<linearGradient id="paint2_linear_1_30" x1="289.133" y1="306.74" x2="276.483" y2="388.683" gradientUnits="userSpaceOnUse">
<stop stop-color="#2161D5"/>
<stop offset="1" stop-color="#5C92F3"/>
</linearGradient>
<clipPath id="clip0_1_30">
<rect width="602.388" height="400" fill="white"/>
</clipPath>
</defs>
</svg>
