<svg width="500" height="506" viewBox="0 0 500 506" fill="none" xmlns="http://www.w3.org/2000/svg">
<circle cx="255.679" cy="502.679" r="3.11194" transform="rotate(-180 255.679 502.679)" fill="white" fill-opacity="0.3"/>
<circle cx="210.037" cy="502.679" r="3.11194" transform="rotate(-180 210.037 502.679)" fill="white" fill-opacity="0.3"/>
<circle cx="164.396" cy="502.679" r="3.11194" transform="rotate(-180 164.396 502.679)" fill="white" fill-opacity="0.3"/>
<circle cx="118.754" cy="502.679" r="3.11194" transform="rotate(-180 118.754 502.679)" fill="white" fill-opacity="0.3"/>
<circle cx="73.1119" cy="502.679" r="3.11194" transform="rotate(-180 73.1119 502.679)" fill="white" fill-opacity="0.3"/>
<circle cx="255.679" cy="457.037" r="3.11194" transform="rotate(-180 255.679 457.037)" fill="white" fill-opacity="0.3"/>
<circle cx="210.037" cy="457.037" r="3.11194" transform="rotate(-180 210.037 457.037)" fill="white" fill-opacity="0.3"/>
<circle cx="164.396" cy="457.037" r="3.11194" transform="rotate(-180 164.396 457.037)" fill="white" fill-opacity="0.3"/>
<circle cx="118.754" cy="457.037" r="3.11194" transform="rotate(-180 118.754 457.037)" fill="white" fill-opacity="0.3"/>
<circle cx="73.1119" cy="457.037" r="3.11194" transform="rotate(-180 73.1119 457.037)" fill="white" fill-opacity="0.3"/>
<circle cx="255.679" cy="411.395" r="3.11194" transform="rotate(-180 255.679 411.395)" fill="white" fill-opacity="0.3"/>
<circle cx="210.037" cy="411.395" r="3.11194" transform="rotate(-180 210.037 411.395)" fill="white" fill-opacity="0.3"/>
<circle cx="164.396" cy="411.395" r="3.11194" transform="rotate(-180 164.396 411.395)" fill="white" fill-opacity="0.3"/>
<circle cx="118.754" cy="411.395" r="3.11194" transform="rotate(-180 118.754 411.395)" fill="white" fill-opacity="0.3"/>
<circle cx="73.1119" cy="411.395" r="3.11194" transform="rotate(-180 73.1119 411.395)" fill="white" fill-opacity="0.3"/>
<circle cx="255.679" cy="365.754" r="3.11194" transform="rotate(-180 255.679 365.754)" fill="white" fill-opacity="0.3"/>
<circle cx="210.037" cy="365.754" r="3.11194" transform="rotate(-180 210.037 365.754)" fill="white" fill-opacity="0.3"/>
<circle cx="164.396" cy="365.754" r="3.11194" transform="rotate(-180 164.396 365.754)" fill="white" fill-opacity="0.3"/>
<circle cx="118.754" cy="365.754" r="3.11194" transform="rotate(-180 118.754 365.754)" fill="white" fill-opacity="0.3"/>
<circle cx="73.1119" cy="365.754" r="3.11194" transform="rotate(-180 73.1119 365.754)" fill="white" fill-opacity="0.3"/>
<circle cx="255.679" cy="320.112" r="3.11194" transform="rotate(-180 255.679 320.112)" fill="white" fill-opacity="0.3"/>
<circle cx="210.037" cy="320.112" r="3.11194" transform="rotate(-180 210.037 320.112)" fill="white" fill-opacity="0.3"/>
<circle cx="164.396" cy="320.112" r="3.11194" transform="rotate(-180 164.396 320.112)" fill="white" fill-opacity="0.3"/>
<circle cx="118.754" cy="320.112" r="3.11194" transform="rotate(-180 118.754 320.112)" fill="white" fill-opacity="0.3"/>
<circle cx="73.1119" cy="320.112" r="3.11194" transform="rotate(-180 73.1119 320.112)" fill="white" fill-opacity="0.3"/>
<circle cx="255.679" cy="274.47" r="3.11194" transform="rotate(-180 255.679 274.47)" fill="white" fill-opacity="0.3"/>
<circle cx="210.037" cy="274.47" r="3.11194" transform="rotate(-180 210.037 274.47)" fill="white" fill-opacity="0.3"/>
<circle cx="164.396" cy="274.47" r="3.11194" transform="rotate(-180 164.396 274.47)" fill="white" fill-opacity="0.3"/>
<circle cx="118.754" cy="274.47" r="3.11194" transform="rotate(-180 118.754 274.47)" fill="white" fill-opacity="0.3"/>
<circle cx="73.1119" cy="274.47" r="3.11194" transform="rotate(-180 73.1119 274.47)" fill="white" fill-opacity="0.3"/>
<circle cx="255.679" cy="228.828" r="3.11194" transform="rotate(-180 255.679 228.828)" fill="white" fill-opacity="0.3"/>
<circle cx="210.037" cy="228.828" r="3.11194" transform="rotate(-180 210.037 228.828)" fill="white" fill-opacity="0.3"/>
<circle cx="164.396" cy="228.828" r="3.11194" transform="rotate(-180 164.396 228.828)" fill="white" fill-opacity="0.3"/>
<circle cx="118.754" cy="228.828" r="3.11194" transform="rotate(-180 118.754 228.828)" fill="white" fill-opacity="0.3"/>
<circle cx="73.1119" cy="228.828" r="3.11194" transform="rotate(-180 73.1119 228.828)" fill="white" fill-opacity="0.3"/>
<circle cx="255.679" cy="183.186" r="3.11194" transform="rotate(-180 255.679 183.186)" fill="white" fill-opacity="0.3"/>
<circle cx="210.037" cy="183.186" r="3.11194" transform="rotate(-180 210.037 183.186)" fill="white" fill-opacity="0.3"/>
<circle cx="164.396" cy="183.186" r="3.11194" transform="rotate(-180 164.396 183.186)" fill="white" fill-opacity="0.3"/>
<circle cx="118.754" cy="183.186" r="3.11194" transform="rotate(-180 118.754 183.186)" fill="white" fill-opacity="0.3"/>
<circle cx="73.1119" cy="183.186" r="3.11194" transform="rotate(-180 73.1119 183.186)" fill="white" fill-opacity="0.3"/>
<circle cx="255.679" cy="137.545" r="3.11194" transform="rotate(-180 255.679 137.545)" fill="white" fill-opacity="0.3"/>
<circle cx="210.037" cy="137.545" r="3.11194" transform="rotate(-180 210.037 137.545)" fill="white" fill-opacity="0.3"/>
<circle cx="164.396" cy="137.545" r="3.11194" transform="rotate(-180 164.396 137.545)" fill="white" fill-opacity="0.3"/>
<circle cx="118.754" cy="137.545" r="3.11194" transform="rotate(-180 118.754 137.545)" fill="white" fill-opacity="0.3"/>
<circle cx="73.1119" cy="137.545" r="3.11194" transform="rotate(-180 73.1119 137.545)" fill="white" fill-opacity="0.3"/>
<circle cx="255.679" cy="91.903" r="3.11194" transform="rotate(-180 255.679 91.903)" fill="white" fill-opacity="0.3"/>
<circle cx="210.037" cy="91.903" r="3.11194" transform="rotate(-180 210.037 91.903)" fill="white" fill-opacity="0.3"/>
<circle cx="164.396" cy="91.903" r="3.11194" transform="rotate(-180 164.396 91.903)" fill="white" fill-opacity="0.3"/>
<circle cx="118.754" cy="91.903" r="3.11194" transform="rotate(-180 118.754 91.903)" fill="white" fill-opacity="0.3"/>
<circle cx="73.1119" cy="91.903" r="3.11194" transform="rotate(-180 73.1119 91.903)" fill="white" fill-opacity="0.3"/>
<circle cx="239" cy="215.791" r="171.5" stroke="white" stroke-opacity="0.3" stroke-width="5"/>
<circle cx="32.5" cy="33.291" r="30" stroke="white" stroke-opacity="0.3" stroke-width="5"/>
<path d="M390.572 139.924H267.966V137.397H212.371V139.924H89.2601C87.0604 139.924 84.9508 140.798 83.3953 142.354C81.8399 143.909 80.9661 146.019 80.9661 148.218V316.102C80.9661 318.302 81.8399 320.412 83.3953 321.967C84.9508 323.523 87.0604 324.397 89.2601 324.397H390.572C392.771 324.397 394.881 323.523 396.436 321.967C397.992 320.412 398.866 318.302 398.866 316.102V148.217C398.865 146.018 397.991 143.909 396.436 142.353C394.881 140.798 392.771 139.924 390.572 139.924Z" fill="#3F3D56"/>
<path d="M387.746 154.581H92.0857V321.363H387.746V154.581Z" fill="#E6E6E6"/>
<path d="M375.308 163.401H104.624V307.563H375.308V163.401Z" fill="white"/>
<path d="M239.663 150.033C241.338 150.033 242.696 148.675 242.696 147C242.696 145.325 241.338 143.968 239.663 143.968C237.988 143.968 236.631 145.325 236.631 147C236.631 148.675 237.988 150.033 239.663 150.033Z" fill="url(#paint0_linear_0_1)"/>
<path d="M407.166 318.331H378.312V316.252C378.312 316.142 378.269 316.038 378.191 315.96C378.114 315.883 378.009 315.839 377.9 315.839H368.007C367.897 315.839 367.792 315.883 367.715 315.96C367.638 316.038 367.594 316.142 367.594 316.252V318.331H361.411V316.252C361.411 316.142 361.368 316.038 361.291 315.96C361.213 315.883 361.108 315.839 360.999 315.839H351.106C350.997 315.839 350.892 315.883 350.814 315.96C350.737 316.038 350.694 316.142 350.694 316.252V318.331H344.511V316.252C344.511 316.142 344.467 316.038 344.39 315.96C344.313 315.883 344.208 315.839 344.099 315.839H334.205C334.096 315.839 333.991 315.883 333.914 315.96C333.837 316.038 333.793 316.142 333.793 316.252V318.331H327.61V316.252C327.61 316.142 327.567 316.038 327.49 315.96C327.412 315.883 327.307 315.839 327.198 315.839H317.305C317.196 315.839 317.091 315.883 317.014 315.96C316.936 316.038 316.893 316.142 316.893 316.252V318.331H310.71V316.252C310.71 316.142 310.666 316.038 310.589 315.96C310.512 315.883 310.407 315.839 310.297 315.839H300.405C300.295 315.839 300.191 315.883 300.113 315.96C300.036 316.038 299.992 316.142 299.992 316.252V318.331H293.809V316.252C293.809 316.142 293.766 316.038 293.688 315.96C293.611 315.883 293.506 315.839 293.397 315.839H283.506C283.397 315.839 283.292 315.883 283.215 315.96C283.137 316.038 283.094 316.142 283.094 316.252V318.331H276.909V316.252C276.909 316.142 276.865 316.038 276.788 315.96C276.71 315.883 276.606 315.839 276.496 315.839H199.001C198.892 315.839 198.787 315.883 198.71 315.96C198.633 316.038 198.589 316.142 198.589 316.252V318.331H192.406V316.252C192.406 316.142 192.363 316.038 192.285 315.96C192.208 315.883 192.103 315.839 191.994 315.839H182.101C181.992 315.839 181.887 315.883 181.809 315.96C181.732 316.038 181.689 316.142 181.689 316.252V318.331H175.506V316.252C175.506 316.142 175.462 316.038 175.385 315.96C175.308 315.883 175.203 315.839 175.093 315.839H165.201C165.091 315.839 164.987 315.883 164.909 315.96C164.832 316.038 164.788 316.142 164.788 316.252V318.331H158.605V316.252C158.605 316.142 158.562 316.038 158.484 315.96C158.407 315.883 158.302 315.839 158.193 315.839H148.3C148.191 315.839 148.086 315.883 148.009 315.96C147.931 316.038 147.888 316.142 147.888 316.252V318.331H141.706V316.252C141.706 316.142 141.663 316.038 141.585 315.96C141.508 315.883 141.403 315.839 141.294 315.839H131.4C131.29 315.839 131.185 315.883 131.108 315.96C131.031 316.038 130.987 316.142 130.987 316.252V318.331H124.804V316.252C124.804 316.142 124.761 316.038 124.684 315.96C124.606 315.883 124.501 315.839 124.392 315.839H114.499C114.39 315.839 114.285 315.883 114.208 315.96C114.13 316.038 114.087 316.142 114.087 316.252V318.331H107.904V316.252C107.904 316.142 107.86 316.038 107.783 315.96C107.706 315.883 107.601 315.839 107.492 315.839H97.5966C97.4873 315.839 97.3824 315.883 97.3051 315.96C97.2277 316.038 97.1843 316.142 97.1843 316.252V318.331H78.2248C75.601 318.331 73.0847 319.373 71.2294 321.229C69.3741 323.084 68.3318 325.6 68.3318 328.224V332.697C68.3318 335.321 69.3741 337.837 71.2294 339.693C73.0847 341.548 75.601 342.59 78.2248 342.59H407.166C409.79 342.59 412.306 341.548 414.162 339.693C416.017 337.837 417.059 335.321 417.059 332.698V328.224C417.059 325.601 416.017 323.084 414.162 321.229C412.306 319.374 409.79 318.331 407.166 318.331V318.331Z" fill="#3F3D56"/>
<path d="M299.816 173.512H180.117V299.337H299.816V173.512Z" fill="#E6E6E6"/>
<path d="M451.441 309.246C458.215 316.516 458.565 327.201 458.565 327.201C458.565 327.201 447.932 326.099 441.157 318.83C434.382 311.56 434.032 300.875 434.032 300.875C434.032 300.875 444.666 301.977 451.441 309.246Z" fill="url(#paint1_linear_0_1)"/>
<path d="M472.768 320.593C465.499 327.368 454.813 327.718 454.813 327.718C454.813 327.718 455.915 317.084 463.185 310.31C470.454 303.535 481.139 303.185 481.139 303.185C481.139 303.185 480.038 313.819 472.768 320.593Z" fill="url(#paint2_linear_0_1)"/>
<path d="M470.961 342.17H444.223C443.71 342.17 443.207 342.026 442.772 341.754C442.337 341.482 441.988 341.093 441.763 340.631L435.942 328.665C435.739 328.248 435.645 327.786 435.669 327.323C435.694 326.859 435.836 326.41 436.082 326.017C436.328 325.624 436.67 325.3 437.076 325.075C437.481 324.85 437.938 324.733 438.402 324.733H476.783C477.247 324.733 477.703 324.85 478.109 325.075C478.515 325.3 478.857 325.624 479.103 326.017C479.349 326.41 479.491 326.859 479.515 327.323C479.54 327.786 479.446 328.248 479.243 328.665L473.421 340.632C473.197 341.093 472.847 341.482 472.413 341.754C471.978 342.026 471.475 342.17 470.962 342.17L470.961 342.17Z" fill="#E5E5E5"/>
<path d="M28.7262 309.246C35.5009 316.516 35.8511 327.201 35.8511 327.201C35.8511 327.201 25.2173 326.099 18.4425 318.83C11.6678 311.56 11.3176 300.875 11.3176 300.875C11.3176 300.875 21.9515 301.977 28.7262 309.246Z" fill="#E5E5E5"/>
<path d="M44.0057 342.17H17.2672C16.7542 342.17 16.2514 342.026 15.8165 341.754C15.3815 341.482 15.032 341.093 14.8077 340.631L8.98634 328.665C8.78305 328.248 8.68921 327.786 8.71363 327.323C8.73806 326.859 8.87995 326.41 9.12596 326.017C9.37196 325.624 9.71398 325.3 10.1198 325.075C10.5257 324.85 10.982 324.733 11.4458 324.733H49.8275C50.2913 324.733 50.7477 324.85 51.1535 325.075C51.5593 325.3 51.9014 325.624 52.1474 326.017C52.3934 326.41 52.5353 326.859 52.5597 327.323C52.5841 327.786 52.4903 328.248 52.287 328.665L46.4656 340.632C46.2414 341.093 45.8918 341.482 45.4568 341.754C45.0219 342.026 44.5192 342.17 44.0061 342.17L44.0057 342.17Z" fill="#E5E5E5"/>
<path d="M254.409 209.131C263.195 209.131 270.317 202.008 270.317 193.222C270.317 184.437 263.195 177.314 254.409 177.314C245.623 177.314 238.501 184.437 238.501 193.222C238.501 202.008 245.623 209.131 254.409 209.131Z" fill="#A0616A"/>
<path d="M217.807 299.596L228.08 234.922C228.626 231.484 229.899 228.201 231.812 225.292C233.726 222.384 236.237 219.916 239.178 218.053C242.12 216.191 245.424 214.976 248.872 214.489C252.319 214.003 255.831 214.257 259.173 215.233C265.016 216.923 270.019 220.731 273.205 225.912C276.391 231.094 277.531 237.277 276.402 243.254L265.658 301.01L217.807 299.596Z" fill="url(#paint3_linear_0_1)"/>
<path d="M258.801 311.167C259.596 310.643 260.265 309.95 260.763 309.139C261.261 308.327 261.575 307.416 261.683 306.47C261.791 305.524 261.69 304.566 261.388 303.663C261.085 302.76 260.588 301.935 259.932 301.245L270.552 280.68L258.592 281.956L250.341 301.289C249.26 302.469 248.647 304.005 248.62 305.605C248.593 307.206 249.153 308.761 250.194 309.977C251.236 311.192 252.686 311.985 254.272 312.204C255.857 312.424 257.468 312.055 258.801 311.168L258.801 311.167Z" fill="#A0616A"/>
<path d="M261.075 297.617C260.488 297.534 259.94 297.274 259.504 296.872L255.441 293.117C255.002 292.71 254.699 292.177 254.572 291.592C254.446 291.007 254.502 290.396 254.734 289.844L262.854 270.596L261.702 232.563C262.039 230.096 263.342 227.863 265.324 226.357C267.307 224.85 269.807 224.192 272.275 224.529C274.742 224.866 276.975 226.169 278.481 228.151C279.988 230.134 280.645 232.634 280.309 235.101L282.279 259.01C282.877 266.266 280.82 273.492 276.49 279.345L263.826 296.465C263.582 296.794 263.272 297.068 262.915 297.27C262.559 297.471 262.164 297.595 261.756 297.633C261.53 297.655 261.301 297.65 261.075 297.617Z" fill="url(#paint4_linear_0_1)"/>
<path d="M162.799 184.555C162.972 185.491 163.349 186.378 163.902 187.153C164.455 187.928 165.171 188.573 166 189.041C166.829 189.509 167.751 189.79 168.7 189.863C169.65 189.937 170.604 189.801 171.495 189.466L186.292 207.264L189.779 195.753L175.193 180.616C174.528 179.161 173.353 178 171.89 177.352C170.427 176.703 168.777 176.613 167.252 177.098C165.727 177.582 164.432 178.608 163.612 179.982C162.792 181.356 162.503 182.983 162.799 184.555H162.799Z" fill="#A0616A"/>
<path d="M174.39 191.932C174.696 191.424 175.149 191.02 175.69 190.776L180.732 188.498C181.278 188.253 181.887 188.181 182.475 188.293C183.064 188.405 183.604 188.695 184.022 189.124L198.581 204.106L234.053 217.874C235.114 218.503 236.041 219.335 236.78 220.323C237.519 221.311 238.056 222.434 238.361 223.629C238.666 224.825 238.732 226.068 238.556 227.289C238.38 228.51 237.965 229.685 237.335 230.745C236.705 231.805 235.872 232.731 234.884 233.47C233.896 234.208 232.772 234.745 231.576 235.049C230.381 235.353 229.137 235.418 227.916 235.241C226.695 235.064 225.521 234.649 224.461 234.018L201.678 226.51C194.762 224.232 188.91 219.52 185.208 213.25L174.381 194.914C174.173 194.561 174.041 194.169 173.995 193.762C173.949 193.355 173.988 192.943 174.112 192.553C174.18 192.336 174.274 192.128 174.392 191.933L174.39 191.932Z" fill="url(#paint5_linear_0_1)"/>
<path opacity="0.1" d="M267.312 248.384L266.665 269.11L254.733 289.846L264.696 266.74L267.312 248.384Z" fill="black"/>
<path d="M243.636 185.249C245.277 187.191 248.053 187.739 250.615 187.963C255.817 188.42 263.382 187.681 268.466 186.506C268.829 190.023 267.839 193.815 269.911 196.708C270.882 193.205 271.446 189.603 271.593 185.971C271.656 184.416 271.632 182.802 270.999 181.372C270.366 179.943 268.985 178.729 267.396 178.717C268.577 177.821 269.96 177.229 271.424 176.995L266.391 174.465L267.683 173.138L258.571 172.581L261.21 170.904C257.238 170.359 253.22 170.232 249.221 170.527C247.364 170.664 245.423 170.925 243.919 172.001C242.414 173.077 241.545 175.215 242.479 176.795C241.31 176.987 240.209 177.474 239.28 178.211C238.352 178.947 237.627 179.908 237.174 181.004C236.504 182.704 236.565 184.593 236.772 186.405C237.115 189.302 237.789 192.152 238.78 194.897" fill="#2F2E41"/>
<path d="M311.642 145.397L166.686 178.863C165.974 179.026 165.226 178.901 164.607 178.514C163.987 178.127 163.547 177.51 163.382 176.798L155.08 140.841C154.917 140.129 155.042 139.381 155.429 138.762C155.816 138.142 156.433 137.702 157.145 137.537L302.101 104.071C302.813 103.907 303.561 104.033 304.18 104.42C304.8 104.807 305.24 105.424 305.406 106.135L313.707 142.093C313.87 142.805 313.745 143.552 313.358 144.172C312.971 144.791 312.354 145.232 311.642 145.397Z" fill="white"/>
<path d="M311.642 145.397L166.686 178.863C165.974 179.026 165.226 178.901 164.607 178.514C163.987 178.127 163.547 177.51 163.382 176.798L155.08 140.841C154.917 140.129 155.042 139.381 155.429 138.762C155.816 138.142 156.433 137.702 157.145 137.537L302.101 104.071C302.813 103.907 303.561 104.033 304.18 104.42C304.8 104.807 305.24 105.424 305.406 106.135L313.707 142.093C313.87 142.805 313.745 143.552 313.358 144.172C312.971 144.791 312.354 145.232 311.642 145.397ZM157.393 138.611C156.966 138.71 156.596 138.974 156.363 139.346C156.131 139.717 156.056 140.166 156.154 140.593L164.455 176.551C164.554 176.978 164.819 177.348 165.19 177.58C165.562 177.813 166.011 177.888 166.438 177.79L311.395 144.324C311.822 144.225 312.192 143.96 312.424 143.589C312.656 143.217 312.732 142.768 312.633 142.341L304.332 106.383C304.233 105.956 303.969 105.586 303.597 105.354C303.225 105.121 302.776 105.046 302.349 105.144L157.393 138.611Z" fill="#E6E6E6"/>
<path d="M207.691 138.499C207.452 138.554 207.226 138.655 207.025 138.798C206.825 138.94 206.655 139.12 206.524 139.328C206.393 139.536 206.305 139.768 206.264 140.011C206.223 140.253 206.23 140.501 206.285 140.74C206.34 140.98 206.441 141.206 206.584 141.406C206.726 141.606 206.907 141.777 207.115 141.907C207.323 142.038 207.555 142.126 207.797 142.167C208.039 142.208 208.287 142.201 208.527 142.146L208.533 142.144L294.448 122.309C294.931 122.197 295.349 121.898 295.612 121.477C295.874 121.057 295.959 120.549 295.847 120.066C295.736 119.584 295.437 119.165 295.017 118.902C294.597 118.639 294.09 118.553 293.607 118.664L207.691 138.499Z" fill="#E6E6E6"/>
<path d="M210.216 149.435C209.976 149.489 209.75 149.591 209.55 149.733C209.349 149.875 209.179 150.056 209.049 150.264C208.918 150.472 208.83 150.704 208.789 150.946C208.748 151.188 208.755 151.436 208.81 151.675C208.865 151.915 208.966 152.141 209.108 152.341C209.251 152.542 209.431 152.712 209.639 152.843C209.847 152.973 210.079 153.061 210.321 153.102C210.564 153.143 210.812 153.136 211.051 153.081L211.057 153.079L248.027 144.544C248.51 144.433 248.93 144.135 249.193 143.715C249.457 143.295 249.543 142.787 249.432 142.304C249.321 141.82 249.023 141.401 248.603 141.137C248.183 140.873 247.675 140.787 247.192 140.898L247.186 140.899L210.216 149.435Z" fill="#E6E6E6"/>
<path d="M184.204 162.736C190.402 162.736 195.426 157.711 195.426 151.513C195.426 145.315 190.402 140.291 184.204 140.291C178.006 140.291 172.981 145.315 172.981 151.513C172.981 157.711 178.006 162.736 184.204 162.736Z" fill="url(#paint6_linear_0_1)"/>
<path d="M183.888 157.987C183.521 158.073 183.136 158.036 182.791 157.884L182.77 157.874L178.254 155.824C178.044 155.729 177.855 155.594 177.698 155.426C177.541 155.257 177.418 155.06 177.337 154.845C177.256 154.629 177.219 154.4 177.226 154.17C177.234 153.94 177.287 153.713 177.383 153.504C177.478 153.294 177.614 153.106 177.782 152.949C177.95 152.792 178.148 152.669 178.363 152.589C178.579 152.508 178.808 152.471 179.038 152.479C179.268 152.487 179.495 152.54 179.704 152.636L182.63 153.968L186.735 144.948C186.927 144.526 187.279 144.197 187.714 144.034C188.148 143.872 188.63 143.888 189.052 144.08L189.027 144.139L189.053 144.08C189.475 144.273 189.804 144.625 189.966 145.06C190.129 145.494 190.113 145.975 189.921 146.398L185.093 157.008C184.981 157.253 184.814 157.468 184.606 157.638C184.397 157.807 184.152 157.927 183.89 157.986L183.888 157.987Z" fill="white"/>
<defs>
<linearGradient id="paint0_linear_0_1" x1="239.977" y1="142.97" x2="239.446" y2="151.132" gradientUnits="userSpaceOnUse">
<stop stop-color="#2161D5"/>
<stop offset="1" stop-color="#5C92F3"/>
</linearGradient>
<linearGradient id="paint1_linear_0_1" x1="447.567" y1="296.546" x2="445.097" y2="331.952" gradientUnits="userSpaceOnUse">
<stop stop-color="#2161D5"/>
<stop offset="1" stop-color="#5C92F3"/>
</linearGradient>
<linearGradient id="paint2_linear_0_1" x1="469.337" y1="299.151" x2="467.336" y2="332.185" gradientUnits="userSpaceOnUse">
<stop stop-color="#2161D5"/>
<stop offset="1" stop-color="#5C92F3"/>
</linearGradient>
<linearGradient id="paint3_linear_0_1" x1="250.368" y1="199.984" x2="239.263" y2="316.174" gradientUnits="userSpaceOnUse">
<stop stop-color="#2161D5"/>
<stop offset="1" stop-color="#5C92F3"/>
</linearGradient>
<linearGradient id="paint4_linear_0_1" x1="269.884" y1="212.407" x2="253.471" y2="308.534" gradientUnits="userSpaceOnUse">
<stop stop-color="#2161D5"/>
<stop offset="1" stop-color="#5C92F3"/>
</linearGradient>
<linearGradient id="paint5_linear_0_1" x1="209.657" y1="180.498" x2="206.651" y2="244.003" gradientUnits="userSpaceOnUse">
<stop stop-color="#2161D5"/>
<stop offset="1" stop-color="#5C92F3"/>
</linearGradient>
<linearGradient id="paint6_linear_0_1" x1="185.364" y1="136.6" x2="183.4" y2="166.805" gradientUnits="userSpaceOnUse">
<stop stop-color="#2161D5"/>
<stop offset="1" stop-color="#5C92F3"/>
</linearGradient>
</defs>
</svg>
