<svg width="546" height="639" viewBox="0 0 546 639" fill="none" xmlns="http://www.w3.org/2000/svg">
<circle cx="76.1119" cy="635.679" r="3.11194" transform="rotate(-90 76.1119 635.679)" fill="white" fill-opacity="0.3"/>
<circle cx="76.1119" cy="590.037" r="3.11194" transform="rotate(-90 76.1119 590.037)" fill="white" fill-opacity="0.3"/>
<circle cx="76.1119" cy="544.396" r="3.11194" transform="rotate(-90 76.1119 544.396)" fill="white" fill-opacity="0.3"/>
<circle cx="76.1119" cy="498.754" r="3.11194" transform="rotate(-90 76.1119 498.754)" fill="white" fill-opacity="0.3"/>
<circle cx="76.1119" cy="453.112" r="3.11194" transform="rotate(-90 76.1119 453.112)" fill="white" fill-opacity="0.3"/>
<circle cx="121.754" cy="635.679" r="3.11194" transform="rotate(-90 121.754 635.679)" fill="white" fill-opacity="0.3"/>
<circle cx="121.754" cy="590.037" r="3.11194" transform="rotate(-90 121.754 590.037)" fill="white" fill-opacity="0.3"/>
<circle cx="121.754" cy="544.396" r="3.11194" transform="rotate(-90 121.754 544.396)" fill="white" fill-opacity="0.3"/>
<circle cx="121.754" cy="498.754" r="3.11194" transform="rotate(-90 121.754 498.754)" fill="white" fill-opacity="0.3"/>
<circle cx="121.754" cy="453.112" r="3.11194" transform="rotate(-90 121.754 453.112)" fill="white" fill-opacity="0.3"/>
<circle cx="167.396" cy="635.679" r="3.11194" transform="rotate(-90 167.396 635.679)" fill="white" fill-opacity="0.3"/>
<circle cx="167.396" cy="590.037" r="3.11194" transform="rotate(-90 167.396 590.037)" fill="white" fill-opacity="0.3"/>
<circle cx="167.396" cy="544.396" r="3.11194" transform="rotate(-90 167.396 544.396)" fill="white" fill-opacity="0.3"/>
<circle cx="167.396" cy="498.754" r="3.11194" transform="rotate(-90 167.396 498.754)" fill="white" fill-opacity="0.3"/>
<circle cx="167.396" cy="453.112" r="3.11194" transform="rotate(-90 167.396 453.112)" fill="white" fill-opacity="0.3"/>
<circle cx="213.037" cy="635.679" r="3.11194" transform="rotate(-90 213.037 635.679)" fill="white" fill-opacity="0.3"/>
<circle cx="213.037" cy="590.037" r="3.11194" transform="rotate(-90 213.037 590.037)" fill="white" fill-opacity="0.3"/>
<circle cx="213.037" cy="544.396" r="3.11194" transform="rotate(-90 213.037 544.396)" fill="white" fill-opacity="0.3"/>
<circle cx="213.037" cy="498.754" r="3.11194" transform="rotate(-90 213.037 498.754)" fill="white" fill-opacity="0.3"/>
<circle cx="213.037" cy="453.112" r="3.11194" transform="rotate(-90 213.037 453.112)" fill="white" fill-opacity="0.3"/>
<circle cx="258.679" cy="635.679" r="3.11194" transform="rotate(-90 258.679 635.679)" fill="white" fill-opacity="0.3"/>
<circle cx="258.679" cy="590.037" r="3.11194" transform="rotate(-90 258.679 590.037)" fill="white" fill-opacity="0.3"/>
<circle cx="258.679" cy="544.396" r="3.11194" transform="rotate(-90 258.679 544.396)" fill="white" fill-opacity="0.3"/>
<circle cx="258.679" cy="498.754" r="3.11194" transform="rotate(-90 258.679 498.754)" fill="white" fill-opacity="0.3"/>
<circle cx="258.679" cy="453.112" r="3.11194" transform="rotate(-90 258.679 453.112)" fill="white" fill-opacity="0.3"/>
<circle cx="304.321" cy="635.679" r="3.11194" transform="rotate(-90 304.321 635.679)" fill="white" fill-opacity="0.3"/>
<circle cx="304.321" cy="590.037" r="3.11194" transform="rotate(-90 304.321 590.037)" fill="white" fill-opacity="0.3"/>
<circle cx="304.321" cy="544.396" r="3.11194" transform="rotate(-90 304.321 544.396)" fill="white" fill-opacity="0.3"/>
<circle cx="304.321" cy="498.754" r="3.11194" transform="rotate(-90 304.321 498.754)" fill="white" fill-opacity="0.3"/>
<circle cx="304.321" cy="453.112" r="3.11194" transform="rotate(-90 304.321 453.112)" fill="white" fill-opacity="0.3"/>
<circle cx="349.963" cy="635.679" r="3.11194" transform="rotate(-90 349.963 635.679)" fill="white" fill-opacity="0.3"/>
<circle cx="349.963" cy="590.037" r="3.11194" transform="rotate(-90 349.963 590.037)" fill="white" fill-opacity="0.3"/>
<circle cx="349.963" cy="544.395" r="3.11194" transform="rotate(-90 349.963 544.395)" fill="white" fill-opacity="0.3"/>
<circle cx="349.963" cy="498.754" r="3.11194" transform="rotate(-90 349.963 498.754)" fill="white" fill-opacity="0.3"/>
<circle cx="349.963" cy="453.112" r="3.11194" transform="rotate(-90 349.963 453.112)" fill="white" fill-opacity="0.3"/>
<circle cx="395.605" cy="635.679" r="3.11194" transform="rotate(-90 395.605 635.679)" fill="white" fill-opacity="0.3"/>
<circle cx="395.605" cy="590.037" r="3.11194" transform="rotate(-90 395.605 590.037)" fill="white" fill-opacity="0.3"/>
<circle cx="395.604" cy="544.395" r="3.11194" transform="rotate(-90 395.604 544.395)" fill="white" fill-opacity="0.3"/>
<circle cx="395.605" cy="498.754" r="3.11194" transform="rotate(-90 395.605 498.754)" fill="white" fill-opacity="0.3"/>
<circle cx="395.605" cy="453.112" r="3.11194" transform="rotate(-90 395.605 453.112)" fill="white" fill-opacity="0.3"/>
<circle cx="441.246" cy="635.679" r="3.11194" transform="rotate(-90 441.246 635.679)" fill="white" fill-opacity="0.3"/>
<circle cx="441.246" cy="590.037" r="3.11194" transform="rotate(-90 441.246 590.037)" fill="white" fill-opacity="0.3"/>
<circle cx="441.246" cy="544.395" r="3.11194" transform="rotate(-90 441.246 544.395)" fill="white" fill-opacity="0.3"/>
<circle cx="441.246" cy="498.754" r="3.11194" transform="rotate(-90 441.246 498.754)" fill="white" fill-opacity="0.3"/>
<circle cx="441.246" cy="453.112" r="3.11194" transform="rotate(-90 441.246 453.112)" fill="white" fill-opacity="0.3"/>
<circle cx="486.888" cy="635.679" r="3.11194" transform="rotate(-90 486.888 635.679)" fill="white" fill-opacity="0.3"/>
<circle cx="486.888" cy="590.037" r="3.11194" transform="rotate(-90 486.888 590.037)" fill="white" fill-opacity="0.3"/>
<circle cx="486.888" cy="544.395" r="3.11194" transform="rotate(-90 486.888 544.395)" fill="white" fill-opacity="0.3"/>
<circle cx="486.888" cy="498.754" r="3.11194" transform="rotate(-90 486.888 498.754)" fill="white" fill-opacity="0.3"/>
<circle cx="486.888" cy="453.112" r="3.11194" transform="rotate(-90 486.888 453.112)" fill="white" fill-opacity="0.3"/>
<circle cx="385.5" cy="179.5" r="158" stroke="white" stroke-opacity="0.3" stroke-width="5"/>
<circle cx="153.5" cy="32.5" r="30" stroke="white" stroke-opacity="0.3" stroke-width="5"/>
<g clip-path="url(#clip0_0_1)">
<path d="M331.692 273.232H165.474C162.62 273.229 159.885 272.094 157.867 270.076C155.85 268.058 154.715 265.322 154.712 262.468V131.893C154.714 129.802 155.545 127.797 157.023 126.319C158.501 124.841 160.506 124.009 162.596 124.006H334.434C336.56 124.009 338.599 124.855 340.103 126.359C341.606 127.863 342.452 129.902 342.454 132.029V262.468C342.451 265.322 341.316 268.058 339.299 270.076C337.281 272.094 334.546 273.229 331.692 273.232Z" fill="#F2F2F2"/>
<path d="M175.91 262.468H321.256C324.024 262.468 326.678 261.368 328.636 259.411C330.593 257.453 331.692 254.798 331.692 252.03V151.859C331.692 149.091 330.593 146.436 328.636 144.478C326.678 142.521 324.024 141.421 321.256 141.421H175.91C173.142 141.421 170.487 142.521 168.53 144.478C166.573 146.436 165.474 149.091 165.474 151.859V252.03C165.474 254.798 166.573 257.453 168.53 259.411C170.487 261.368 173.142 262.468 175.91 262.468Z" fill="#F2F2F2"/>
<path d="M342.305 131.277H154.561V125.797C154.565 122.933 155.704 120.189 157.729 118.164C159.754 116.14 162.499 115.002 165.362 115H331.503C334.366 115.002 337.111 116.14 339.136 118.164C341.161 120.189 342.3 122.933 342.305 125.797V131.277Z" fill="url(#paint0_linear_0_1)"/>
<path d="M174.19 125.949C175.733 125.949 176.984 124.698 176.984 123.155C176.984 121.611 175.733 120.36 174.19 120.36C172.647 120.36 171.396 121.611 171.396 123.155C171.396 124.698 172.647 125.949 174.19 125.949Z" fill="#F2F2F2"/>
<path d="M184.795 125.949C186.338 125.949 187.589 124.698 187.589 123.155C187.589 121.611 186.338 120.36 184.795 120.36C183.252 120.36 182.001 121.611 182.001 123.155C182.001 124.698 183.252 125.949 184.795 125.949Z" fill="#F2F2F2"/>
<path d="M195.4 125.949C196.943 125.949 198.194 124.698 198.194 123.155C198.194 121.611 196.943 120.36 195.4 120.36C193.857 120.36 192.606 121.611 192.606 123.155C192.606 124.698 193.857 125.949 195.4 125.949Z" fill="#F2F2F2"/>
<path d="M186.606 188.363H179.407C179.017 188.363 178.643 188.208 178.367 187.932C178.091 187.656 177.935 187.281 177.935 186.891V179.691C177.935 179.301 178.091 178.926 178.367 178.65C178.643 178.374 179.017 178.219 179.407 178.219H186.606C186.996 178.219 187.37 178.374 187.646 178.65C187.922 178.926 188.077 179.301 188.078 179.691V186.891C188.077 187.281 187.922 187.656 187.646 187.932C187.37 188.208 186.996 188.363 186.606 188.363Z" fill="#F2F2F2"/>
<path d="M186.606 207.017H179.407C179.017 207.017 178.643 206.861 178.367 206.585C178.091 206.309 177.935 205.935 177.935 205.544V198.345C177.935 197.954 178.091 197.58 178.367 197.304C178.643 197.028 179.017 196.873 179.407 196.872H186.606C186.996 196.873 187.37 197.028 187.646 197.304C187.922 197.58 188.077 197.954 188.078 198.345V205.544C188.077 205.935 187.922 206.309 187.646 206.585C187.37 206.861 186.996 207.017 186.606 207.017Z" fill="#3F3D56"/>
<path d="M186.606 225.671H179.407C179.017 225.67 178.643 225.515 178.367 225.239C178.091 224.963 177.935 224.588 177.935 224.198V216.998C177.935 216.608 178.091 216.234 178.367 215.958C178.643 215.681 179.017 215.526 179.407 215.526H186.606C186.996 215.526 187.37 215.681 187.646 215.958C187.922 216.234 188.077 216.608 188.078 216.998V224.198C188.077 224.588 187.922 224.963 187.646 225.239C187.37 225.515 186.996 225.67 186.606 225.671Z" fill="#CCCCCC"/>
<path d="M233.721 184.764H199.039C198.649 184.763 198.275 184.607 198 184.331C197.724 184.055 197.57 183.681 197.57 183.291C197.57 182.901 197.724 182.527 198 182.251C198.275 181.975 198.649 181.819 199.039 181.818H233.721C233.915 181.818 234.107 181.856 234.286 181.93C234.465 182.003 234.627 182.112 234.764 182.249C234.902 182.385 235.01 182.548 235.084 182.727C235.159 182.906 235.197 183.097 235.197 183.291C235.197 183.485 235.159 183.676 235.084 183.855C235.01 184.034 234.902 184.197 234.764 184.333C234.627 184.47 234.465 184.579 234.286 184.652C234.107 184.726 233.915 184.764 233.721 184.764Z" fill="#CCCCCC"/>
<path d="M233.721 203.417H199.039C198.649 203.416 198.275 203.261 198 202.985C197.724 202.709 197.57 202.335 197.57 201.945C197.57 201.555 197.724 201.18 198 200.904C198.275 200.628 198.649 200.473 199.039 200.472H233.721C234.112 200.472 234.486 200.627 234.762 200.903C235.039 201.179 235.194 201.554 235.194 201.945C235.194 202.335 235.039 202.71 234.762 202.986C234.486 203.262 234.112 203.417 233.721 203.417Z" fill="#CCCCCC"/>
<path d="M233.721 222.071H199.039C198.649 222.07 198.275 221.914 198 221.638C197.724 221.362 197.57 220.988 197.57 220.598C197.57 220.208 197.724 219.834 198 219.558C198.275 219.282 198.649 219.126 199.039 219.125H233.721C233.915 219.125 234.107 219.163 234.286 219.237C234.465 219.311 234.627 219.419 234.764 219.556C234.902 219.693 235.01 219.855 235.084 220.034C235.159 220.213 235.197 220.404 235.197 220.598C235.197 220.792 235.159 220.984 235.084 221.162C235.01 221.341 234.902 221.504 234.764 221.641C234.627 221.777 234.465 221.886 234.286 221.96C234.107 222.033 233.915 222.071 233.721 222.071Z" fill="#CCCCCC"/>
<path d="M319.173 202.412C319.21 201.793 319.231 201.17 319.231 200.542C319.231 192.355 315.979 184.503 310.191 178.714C304.404 172.925 296.553 169.673 288.368 169.673V202.412H319.173Z" fill="#F2F2F2"/>
<path d="M286.03 205.219V172.479C280.005 172.479 274.113 174.242 269.078 177.551C264.043 180.861 260.087 185.572 257.698 191.103C255.308 196.634 254.589 202.744 255.629 208.679C256.67 214.614 259.424 220.115 263.553 224.503C267.682 228.891 273.005 231.975 278.864 233.373C284.724 234.772 290.865 234.425 296.53 232.375C302.195 230.324 307.137 226.66 310.745 221.835C314.353 217.009 316.47 211.233 316.835 205.219H286.03Z" fill="#3F3D56"/>
<path d="M329.184 384.382C329.402 384.678 329.596 384.99 329.765 385.316L362.451 388.992L367.205 382.568L377.836 388.477L368.478 404.081L328.433 393.57C327.414 394.549 326.12 395.196 324.725 395.423C323.33 395.65 321.899 395.446 320.622 394.84C319.345 394.233 318.283 393.252 317.577 392.027C316.871 390.802 316.555 389.392 316.67 387.982C316.785 386.573 317.327 385.233 318.222 384.139C319.118 383.045 320.325 382.25 321.684 381.859C323.042 381.468 324.488 381.5 325.827 381.951C327.167 382.402 328.338 383.25 329.184 384.382Z" fill="#FFB8B8"/>
<path d="M162.402 375.942C161.575 376.428 160.652 376.727 159.698 376.817C158.743 376.908 157.78 376.788 156.877 376.466C155.974 376.144 155.152 375.628 154.47 374.954C153.788 374.28 153.261 373.465 152.928 372.566L129.625 373.052L136.081 362.802L157.22 363.912C158.768 363.452 160.43 363.576 161.892 364.26C163.354 364.945 164.515 366.142 165.154 367.625C165.792 369.108 165.865 370.773 165.358 372.306C164.851 373.839 163.799 375.133 162.402 375.942V375.942Z" fill="#FFB8B8"/>
<path d="M152.16 373.008C151.975 373.626 151.592 374.166 151.07 374.544C150.548 374.923 149.916 375.12 149.272 375.104L106.623 374.021L68.0058 362.585C66.9431 362.27 65.9536 361.747 65.0948 361.047C64.2359 360.346 63.5249 359.482 63.003 358.504C62.4811 357.526 62.1588 356.454 62.0547 355.351C61.9507 354.247 62.0671 353.134 62.397 352.076C62.727 351.018 63.264 350.036 63.9768 349.187C64.6896 348.338 65.564 347.64 66.5492 347.132C67.5343 346.624 68.6105 346.318 69.7153 346.23C70.82 346.142 71.9312 346.274 72.9842 346.62L107.873 358.061L149.749 362.103C150.482 362.177 151.161 362.524 151.652 363.074C152.143 363.624 152.41 364.338 152.401 365.075L152.28 372.219C152.276 372.486 152.236 372.752 152.16 373.008Z" fill="#3F3D56"/>
<path d="M90.3112 556.398L98.3072 556.397L102.112 525.547L90.3099 525.548L90.3112 556.398Z" fill="#FFB8B8"/>
<path d="M88.2714 553.786L104.019 553.786H104.02C105.338 553.785 106.643 554.045 107.86 554.55C109.078 555.054 110.184 555.793 111.116 556.725C112.048 557.657 112.787 558.764 113.292 559.982C113.796 561.2 114.056 562.505 114.056 563.823V564.149L88.2719 564.15L88.2714 553.786Z" fill="#2F2E41"/>
<path d="M66.8302 556.398L74.8262 556.397L78.6307 525.547L66.8289 525.548L66.8302 556.398Z" fill="#FFB8B8"/>
<path d="M64.7903 553.786L80.5381 553.786H80.5387C81.8567 553.785 83.1617 554.045 84.3793 554.55C85.5969 555.054 86.7033 555.793 87.6352 556.725C88.5671 557.657 89.3063 558.764 89.8107 559.982C90.315 561.2 90.5746 562.505 90.5746 563.823V564.149L64.7908 564.15L64.7903 553.786Z" fill="#2F2E41"/>
<path d="M61.4635 431.723L63.3729 545.037C63.379 545.396 63.4589 545.75 63.6079 546.076C63.7568 546.403 63.9715 546.695 64.2385 546.935C64.5055 547.174 64.8191 547.357 65.1596 547.47C65.5002 547.583 65.8604 547.624 66.2178 547.592L75.5751 546.741C76.1889 546.685 76.7631 546.414 77.1959 545.975C77.6288 545.536 77.8924 544.958 77.9401 544.344L83.4182 473.662C83.4311 473.496 83.507 473.341 83.6303 473.229C83.7536 473.118 83.915 473.057 84.0814 473.06C84.2479 473.064 84.4068 473.13 84.5256 473.247C84.6443 473.364 84.714 473.521 84.7203 473.688L87.4584 545.988C87.484 546.662 87.7698 547.301 88.256 547.769C88.7421 548.237 89.3907 548.499 90.0656 548.499H100.101C100.765 548.499 101.405 548.245 101.889 547.79C102.372 547.334 102.664 546.712 102.705 546.048L109.73 431.071L67.986 420.633L61.4635 431.723Z" fill="#2F2E41"/>
<path d="M91.7418 325.323C100.589 325.323 107.762 318.15 107.762 309.3C107.762 300.451 100.589 293.277 91.7418 293.277C82.8942 293.277 75.7219 300.451 75.7219 309.3C75.7219 318.15 82.8942 325.323 91.7418 325.323Z" fill="#FFB8B8"/>
<path d="M109.116 435.924C109.1 435.924 109.085 435.924 109.069 435.924L71.61 435.347C70.8899 435.336 70.1991 435.061 69.6689 434.573C69.1387 434.086 68.8061 433.421 68.7345 432.704L68.3105 428.461C68.3024 428.381 68.2648 428.306 68.2048 428.252C68.1448 428.198 68.0669 428.168 67.986 428.168C67.9051 428.168 67.8271 428.198 67.7671 428.252C67.7072 428.306 67.6695 428.381 67.6614 428.461L67.2234 432.843C67.1554 433.529 66.848 434.169 66.355 434.651C65.8621 435.133 65.2152 435.426 64.5279 435.478L61.8807 435.682C61.4141 435.718 60.9457 435.641 60.5146 435.46C60.0834 435.278 59.702 434.995 59.4021 434.636C59.1023 434.277 58.8926 433.851 58.7908 433.394C58.6889 432.937 58.6977 432.463 58.8164 432.01L61.0958 423.318C65.8125 405.252 66.192 386.327 62.2031 368.087L61.0705 362.934C60.2166 359.084 60.6074 355.063 62.1865 351.449C63.7656 347.836 66.4514 344.818 69.8564 342.83L77.214 338.517L80.5522 333.508C81.1981 332.542 82.0677 331.745 83.087 331.186C84.1064 330.627 85.2455 330.322 86.4078 330.297C91.0644 330.195 99.0524 331.048 100.553 337.858C104.273 339.129 107.493 341.547 109.753 344.763C112.013 347.98 113.195 351.83 113.13 355.76L112.049 433.029C112.038 433.801 111.725 434.536 111.176 435.078C110.627 435.62 109.887 435.924 109.116 435.924Z" fill="#3F3D56"/>
<path d="M90.4887 318.536C90.423 320.801 88.8508 322.112 86.9205 323.298C84.9903 324.485 82.7339 324.999 80.5233 325.495C80.2264 325.653 79.8939 325.731 79.5578 325.723C79.2218 325.715 78.8935 325.62 78.6047 325.448C78.3159 325.276 78.0764 325.032 77.9091 324.741C77.7419 324.449 77.6527 324.119 77.65 323.783L75.6226 316.07C74.9053 313.606 74.3834 311.089 74.0617 308.543C73.5734 303.645 74.7341 298.375 78.1527 294.833C81.5713 291.291 87.5 290.033 91.5967 292.762C96.4583 286.551 118.68 300.272 113.199 304.591C112.223 305.359 110.733 304.387 109.495 304.293C108.257 304.199 106.87 304.417 106.084 305.377C105.056 306.633 105.504 308.503 105.08 310.069C104.905 310.62 104.623 311.13 104.249 311.572C103.876 312.013 103.419 312.376 102.904 312.64C102.39 312.903 101.828 313.063 101.252 313.108C100.676 313.154 100.096 313.085 99.547 312.905C98.5236 312.401 97.5608 311.782 96.6771 311.06C95.7277 310.427 94.528 309.96 93.4592 310.359C92.0504 310.885 91.5499 312.61 91.4226 314.109C91.2078 315.603 90.8959 317.082 90.4887 318.536Z" fill="#2F2E41"/>
<path opacity="0.2" d="M94.23 361.48L96.839 393.446L110.536 426.717L90.3165 394.099L94.23 361.48Z" fill="black"/>
<path d="M262.739 536.53L119.785 451.704C117.333 450.245 115.559 447.872 114.853 445.107C114.147 442.342 114.567 439.41 116.02 436.954L182.631 324.654C183.7 322.857 185.437 321.558 187.463 321.04C189.488 320.523 191.636 320.831 193.435 321.895L341.222 409.589C343.049 410.677 344.371 412.445 344.897 414.505C345.423 416.566 345.11 418.752 344.027 420.582L277.486 532.764C276.027 535.217 273.656 536.991 270.891 537.697C268.126 538.403 265.195 537.983 262.739 536.53Z" fill="#F2F2F2"/>
<path d="M134.251 447.772L259.255 521.946C261.635 523.359 264.479 523.768 267.161 523.083C269.843 522.398 272.143 520.676 273.555 518.295L324.655 432.145C326.068 429.764 326.476 426.919 325.792 424.237C325.107 421.555 323.385 419.254 321.005 417.842L196.002 343.667C193.621 342.255 190.777 341.846 188.095 342.531C185.414 343.215 183.114 344.938 181.701 347.318L130.601 433.469C129.189 435.85 128.78 438.694 129.464 441.377C130.149 444.059 131.871 446.359 134.251 447.772Z" fill="#F2F2F2"/>
<path d="M344.282 419.859L182.815 324.048L185.611 319.334C187.075 316.874 189.456 315.095 192.23 314.387C195.004 313.68 197.945 314.102 200.408 315.561L343.296 400.348C345.757 401.811 347.537 404.19 348.246 406.965C348.955 409.739 348.535 412.681 347.078 415.146L344.282 419.859Z" fill="url(#paint1_linear_0_1)"/>
<path d="M203.841 329.874C205.384 329.874 206.635 328.623 206.635 327.08C206.635 325.536 205.384 324.285 203.841 324.285C202.298 324.285 201.047 325.536 201.047 327.08C201.047 328.623 202.298 329.874 203.841 329.874Z" fill="#F2F2F2"/>
<path d="M212.962 335.286C214.505 335.286 215.756 334.035 215.756 332.492C215.756 330.948 214.505 329.697 212.962 329.697C211.419 329.697 210.168 330.948 210.168 332.492C210.168 334.035 211.419 335.286 212.962 335.286Z" fill="#F2F2F2"/>
<path d="M222.082 340.698C223.625 340.698 224.876 339.447 224.876 337.904C224.876 336.36 223.625 335.109 222.082 335.109C220.539 335.109 219.288 336.36 219.288 337.904C219.288 339.447 220.539 340.698 222.082 340.698Z" fill="#F2F2F2"/>
<path d="M308.356 436.214L308.174 436.521L310.012 437.611L310.194 437.305L308.356 436.214Z" fill="#E6E6E6"/>
<path d="M304.462 434.317L300.749 432.114L300.93 431.808L304.643 434.011L304.462 434.317ZM297.036 429.911L293.323 427.708L293.505 427.402L297.218 429.605L297.036 429.911ZM289.61 425.505L285.898 423.302L286.079 422.996L289.792 425.199L289.61 425.505ZM282.185 421.099L278.472 418.896L278.654 418.59L282.367 420.793L282.185 421.099ZM274.759 416.693L271.047 414.49L271.229 414.183L274.941 416.386L274.759 416.693ZM267.334 412.287L263.621 410.084L263.803 409.777L267.516 411.98L267.334 412.287ZM259.908 407.881L256.196 405.677L256.378 405.371L260.09 407.574L259.908 407.881ZM252.483 403.474L248.77 401.271L248.952 400.965L252.665 403.168L252.483 403.474ZM245.057 399.068L241.345 396.865L241.527 396.559L245.239 398.762L245.057 399.068ZM237.632 394.662L233.919 392.459L234.101 392.153L237.814 394.356L237.632 394.662ZM230.207 390.256L226.494 388.053L226.675 387.747L230.388 389.95L230.207 390.256ZM222.781 385.85L219.068 383.647L219.25 383.34L222.963 385.543L222.781 385.85ZM215.356 381.444L211.643 379.241L211.824 378.934L215.537 381.137L215.356 381.444ZM207.93 377.038L204.217 374.834L204.399 374.528L208.112 376.731L207.93 377.038ZM200.504 372.631L196.792 370.428L196.973 370.122L200.686 372.325L200.504 372.631ZM193.079 368.225L189.366 366.022L189.548 365.716L193.261 367.919L193.079 368.225Z" fill="#E6E6E6"/>
<path d="M183.997 362.422L183.816 362.729L185.653 363.819L185.835 363.513L183.997 362.422Z" fill="#E6E6E6"/>
<path d="M231.115 428.9L230.933 429.207L232.771 430.297L232.952 429.991L231.115 428.9Z" fill="#E6E6E6"/>
<path d="M227.275 427.036L223.618 424.866L223.799 424.559L227.457 426.73L227.275 427.036ZM219.96 422.695L216.302 420.525L216.484 420.219L220.142 422.389L219.96 422.695ZM212.645 418.355L208.987 416.184L209.169 415.878L212.827 418.048L212.645 418.355ZM205.33 414.014L201.672 411.844L201.854 411.537L205.511 413.708L205.33 414.014ZM198.014 409.673L194.357 407.503L194.538 407.197L198.196 409.367L198.014 409.673ZM190.699 405.333L187.042 403.162L187.223 402.856L190.881 405.026L190.699 405.333ZM183.384 400.992L179.726 398.821L179.908 398.515L183.566 400.685L183.384 400.992ZM176.069 396.651L172.411 394.481L172.593 394.174L176.25 396.345L176.069 396.651Z" fill="#E6E6E6"/>
<path d="M167.097 390.914L166.916 391.22L168.754 392.311L168.935 392.004L167.097 390.914Z" fill="#E6E6E6"/>
<path d="M187.282 421.115L187.1 421.421L188.938 422.512L189.119 422.205L187.282 421.115Z" fill="#E6E6E6"/>
<path d="M183.337 419.188L179.574 416.955L179.755 416.649L183.519 418.882L183.337 419.188ZM175.811 414.722L172.047 412.489L172.229 412.183L175.992 414.416L175.811 414.722ZM168.284 410.256L164.521 408.023L164.703 407.717L168.466 409.95L168.284 410.256Z" fill="#E6E6E6"/>
<path d="M159.102 404.393L158.92 404.7L160.758 405.79L160.94 405.484L159.102 404.393Z" fill="#E6E6E6"/>
<path d="M173.637 444.118L173.455 444.425L175.293 445.515L175.475 445.209L173.637 444.118Z" fill="#E6E6E6"/>
<path d="M169.692 442.192L165.929 439.959L166.111 439.653L169.874 441.886L169.692 442.192ZM162.166 437.726L158.403 435.493L158.584 435.187L162.347 437.42L162.166 437.726ZM154.64 433.26L150.876 431.027L151.058 430.721L154.821 432.954L154.64 433.26Z" fill="#E6E6E6"/>
<path d="M145.457 427.397L145.275 427.704L147.113 428.794L147.295 428.488L145.457 427.397Z" fill="#E6E6E6"/>
<path d="M155.498 434.087L261.429 496.945C263.996 498.464 267.06 498.903 269.95 498.165C272.84 497.427 275.319 495.573 276.843 493.009L307.795 440.828L307.582 440.71L237.357 458.638L231.794 436.853C231.693 436.45 231.499 436.077 231.229 435.761C230.959 435.446 230.619 435.197 230.237 435.035C229.652 434.799 229.006 434.763 228.399 434.932L191.598 444.326L187.53 428.398C187.443 428.054 187.288 427.731 187.076 427.447C186.863 427.163 186.597 426.924 186.292 426.743C185.987 426.561 185.649 426.442 185.298 426.392C184.947 426.341 184.589 426.361 184.245 426.449C183.997 426.515 160.05 432.861 155.498 434.087Z" fill="#F2F2F2"/>
<path d="M154.864 434.125L154.776 433.78L184.225 426.261C185.003 426.063 185.827 426.182 186.518 426.592C187.208 427.001 187.708 427.668 187.907 428.446L191.892 444.06L228.489 434.716C229.267 434.518 230.091 434.637 230.782 435.047C231.472 435.456 231.971 436.123 232.171 436.901L237.651 458.373L308.242 440.349L308.33 440.694L237.394 458.806L231.826 436.989C231.739 436.649 231.586 436.329 231.376 436.049C231.166 435.768 230.902 435.531 230.601 435.352C230.299 435.173 229.965 435.055 229.618 435.005C229.27 434.955 228.917 434.974 228.577 435.061L191.635 444.493L187.562 428.534C187.386 427.848 186.945 427.259 186.336 426.898C185.727 426.537 184.999 426.432 184.313 426.606L154.864 434.125Z" fill="#3F3D56"/>
<path d="M189.029 424.852C190.405 424.852 191.522 423.736 191.522 422.359C191.522 420.981 190.405 419.865 189.029 419.865C187.652 419.865 186.536 420.981 186.536 422.359C186.536 423.736 187.652 424.852 189.029 424.852Z" fill="#3F3D56"/>
<path d="M232.862 432.637C234.238 432.637 235.355 431.521 235.355 430.144C235.355 428.767 234.238 427.65 232.862 427.65C231.485 427.65 230.368 428.767 230.368 430.144C230.368 431.521 231.485 432.637 232.862 432.637Z" fill="#3F3D56"/>
<path d="M309.226 438.642C310.603 438.642 311.72 437.526 311.72 436.149C311.72 434.772 310.603 433.655 309.226 433.655C307.85 433.655 306.733 434.772 306.733 436.149C306.733 437.526 307.85 438.642 309.226 438.642Z" fill="#3F3D56"/>
<path d="M113.739 439.107C112.991 438.507 112.384 437.75 111.961 436.889C111.538 436.029 111.308 435.086 111.288 434.127C111.268 433.168 111.459 432.217 111.847 431.339C112.234 430.462 112.81 429.681 113.532 429.05L104.806 407.433L116.678 409.831L123.145 429.991C124.124 431.275 124.598 432.874 124.477 434.484C124.356 436.094 123.649 437.604 122.49 438.728C121.331 439.851 119.8 440.511 118.187 440.58C116.574 440.65 114.991 440.126 113.739 439.107Z" fill="#FFB8B8"/>
<path d="M113.594 429.741C112.951 429.787 112.311 429.621 111.771 429.267C111.232 428.914 110.824 428.393 110.61 427.784L96.4835 387.521L93.4646 347.352C93.3814 346.247 93.5187 345.136 93.8685 344.084C94.2184 343.032 94.7739 342.06 95.5026 341.225C96.2313 340.39 97.1188 339.708 98.1134 339.219C99.108 338.73 100.19 338.444 101.296 338.377C102.402 338.31 103.511 338.463 104.557 338.828C105.604 339.194 106.567 339.763 107.391 340.504C108.216 341.245 108.884 342.143 109.359 343.145C109.833 344.147 110.104 345.233 110.154 346.34L111.845 383.025L122.931 423.615C123.122 424.327 123.039 425.085 122.7 425.74C122.36 426.394 121.787 426.897 121.095 427.151L114.374 429.573C114.123 429.664 113.861 429.721 113.594 429.741Z" fill="#3F3D56"/>
<path d="M375.513 394.065C375.25 393.95 375.005 393.797 374.785 393.611L361.648 382.542C361.332 382.276 361.075 381.948 360.893 381.577C360.71 381.207 360.607 380.802 360.589 380.39C360.571 379.977 360.639 379.565 360.788 379.18C360.937 378.795 361.165 378.445 361.456 378.153L373.377 366.18C373.878 365.673 374.544 365.363 375.254 365.307C375.964 365.25 376.671 365.451 377.245 365.872L386.26 372.42C386.823 372.829 387.225 373.421 387.398 374.095C387.57 374.769 387.502 375.482 387.205 376.111L379.406 392.604C379.074 393.306 378.482 393.851 377.755 394.123C377.029 394.396 376.225 394.375 375.513 394.065L375.513 394.065Z" fill="#F2F2F2"/>
<path d="M426.752 550.61L418.906 552.746L406.938 523.493L418.518 520.342L426.752 550.61Z" fill="#FFB8B8"/>
<path d="M412.534 552.071L427.823 547.911L430.416 557.44L405.757 564.15L405.714 563.992C405.038 561.507 405.376 558.855 406.655 556.619C407.934 554.383 410.049 552.748 412.534 552.071Z" fill="#2F2E41"/>
<path d="M359.678 556.599L351.547 556.598L347.678 525.229L359.68 525.229L359.678 556.599Z" fill="#FFB8B8"/>
<path d="M345.575 554.274H361.42V564.15H335.865V563.986C335.865 561.41 336.888 558.94 338.709 557.119C340.53 555.297 343 554.274 345.575 554.274Z" fill="#2F2E41"/>
<path d="M371.927 349.482C380.924 349.482 388.217 342.187 388.217 333.189C388.217 324.19 380.924 316.896 371.927 316.896C362.93 316.896 355.637 324.19 355.637 333.189C355.637 342.187 362.93 349.482 371.927 349.482Z" fill="#FFB8B8"/>
<path d="M359.18 534.232H348.068C347.309 534.231 346.578 533.941 346.024 533.421C345.471 532.9 345.136 532.189 345.087 531.431C341.776 478.785 343.712 441.021 351.182 412.586C351.214 412.462 351.255 412.339 351.303 412.22L351.898 410.732C352.118 410.177 352.5 409.701 352.994 409.366C353.488 409.031 354.072 408.853 354.669 408.855H377.519C377.95 408.855 378.375 408.948 378.766 409.128C379.158 409.308 379.505 409.57 379.785 409.898L382.889 413.52C382.949 413.59 383.006 413.662 383.061 413.738C397.056 433.258 409.598 471.421 424.124 522.715C424.338 523.461 424.253 524.26 423.886 524.944C423.52 525.628 422.901 526.141 422.161 526.375L410.22 530.197C409.534 530.413 408.794 530.375 408.134 530.092C407.473 529.808 406.937 529.296 406.622 528.65L375.633 464.365C375.416 463.915 375.061 463.548 374.619 463.316C374.177 463.085 373.673 463.002 373.18 463.08C372.687 463.158 372.233 463.392 371.884 463.749C371.535 464.105 371.31 464.564 371.242 465.058L362.137 531.651C362.037 532.365 361.683 533.019 361.14 533.493C360.597 533.968 359.901 534.23 359.18 534.232Z" fill="#2F2E41"/>
<path d="M381.636 413.784C381.605 413.784 381.574 413.784 381.542 413.783L353.787 412.907C353.073 412.887 352.391 412.611 351.863 412.129C351.336 411.648 351 410.993 350.916 410.284C347.397 381.798 357.047 374.166 361.359 372.208C361.719 372.045 362.032 371.792 362.265 371.473C362.499 371.155 362.647 370.781 362.694 370.388L363.067 367.402C363.13 366.875 363.334 366.374 363.656 365.952C370.417 357.193 379.649 354.388 384.55 353.495C384.948 353.424 385.356 353.434 385.749 353.525C386.143 353.616 386.514 353.786 386.839 354.025C387.165 354.264 387.439 354.567 387.644 354.915C387.849 355.263 387.982 355.649 388.033 356.049L388.592 360.336C388.649 360.745 388.812 361.132 389.065 361.459C403.165 379.895 387.457 407.116 384.165 412.386C383.896 412.814 383.523 413.166 383.081 413.411C382.639 413.656 382.142 413.784 381.636 413.784Z" fill="#F2F2F2"/>
<path d="M389.85 323.056C388.64 319.387 387.747 315.622 387.181 311.801C387.003 309.576 387.572 307.182 389.192 305.647C392.223 302.775 397.374 304.143 400.544 306.862C405.125 310.791 407.41 316.829 408.274 322.803C409.138 328.777 408.758 334.852 408.965 340.884C409.173 346.917 410.036 353.12 413.111 358.314C416.186 363.508 421.892 367.494 427.911 367.052C430.34 366.921 432.647 365.943 434.431 364.289C435.307 363.455 435.97 362.424 436.365 361.282C436.76 360.139 436.875 358.919 436.702 357.723C439.778 363.232 438.218 370.699 433.63 375.03C429.041 379.362 421.983 380.586 415.951 378.737C409.919 376.888 404.954 372.251 401.988 366.681C399.023 361.111 397.936 354.677 398.094 348.368C398.215 343.524 399.038 338.639 398.219 333.863C397.401 329.087 394.412 324.237 389.7 323.112L389.85 323.056Z" fill="#2F2E41"/>
<path d="M368.686 329.335C367.883 332.02 364.81 333.675 362.045 333.221C360.669 332.935 359.395 332.281 358.36 331.33C357.325 330.378 356.567 329.164 356.166 327.817C355.407 325.086 355.718 322.169 357.036 319.66C357.762 318.156 358.778 316.81 360.025 315.699C361.271 314.588 362.725 313.734 364.302 313.186C365.889 312.66 367.578 312.523 369.228 312.787C370.878 313.051 372.441 313.707 373.784 314.701C373.927 314.098 374.228 313.544 374.656 313.096C375.085 312.648 375.625 312.322 376.221 312.152C377.421 311.829 378.687 311.848 379.878 312.206C383.307 313.184 386.278 315.346 388.264 318.308C390.224 321.261 391.52 324.605 392.064 328.107C393 333.36 392.655 339.1 389.705 343.546C386.756 347.992 380.721 350.617 375.825 348.497C375.52 346.936 376.243 345.365 377.08 344.012C377.917 342.66 378.908 341.342 379.23 339.784C379.551 338.227 378.935 336.321 377.428 335.812C376.143 335.377 374.773 336.081 373.419 336.167C372.65 336.215 371.882 336.06 371.192 335.718C370.502 335.375 369.914 334.857 369.487 334.216C369.06 333.575 368.809 332.832 368.76 332.063C368.71 331.294 368.864 330.526 369.205 329.835L368.686 329.335Z" fill="#2F2E41"/>
<path d="M327.401 396.456C327.67 396.706 327.92 396.976 328.147 397.264L360.94 394.711L364.398 387.506L375.952 391.304L369.703 408.393L328.394 405.621C327.578 406.775 326.43 407.654 325.102 408.139C323.775 408.625 322.331 408.695 320.963 408.341C319.594 407.986 318.367 407.223 317.442 406.153C316.518 405.083 315.942 403.757 315.789 402.351C315.637 400.946 315.916 399.527 316.59 398.284C317.263 397.041 318.299 396.032 319.559 395.392C320.82 394.752 322.245 394.511 323.646 394.702C325.047 394.892 326.356 395.504 327.401 396.456V396.456Z" fill="#FFB8B8"/>
<path d="M375.774 402.687C375.498 402.608 375.234 402.49 374.991 402.336L360.468 393.161C360.119 392.941 359.82 392.65 359.589 392.308C359.358 391.966 359.2 391.58 359.126 391.173C359.052 390.767 359.063 390.35 359.158 389.948C359.254 389.546 359.431 389.169 359.68 388.839L369.859 375.353C370.286 374.783 370.903 374.385 371.599 374.232C372.295 374.079 373.022 374.182 373.649 374.521L383.472 379.779C384.085 380.107 384.564 380.639 384.827 381.283C385.09 381.927 385.119 382.643 384.911 383.307L379.432 400.709C379.198 401.449 378.686 402.07 378.003 402.439C377.321 402.808 376.521 402.897 375.774 402.687Z" fill="#F2F2F2"/>
</g>
<defs>
<linearGradient id="paint0_linear_0_1" x1="258.137" y1="112.324" x2="258.013" y2="134.32" gradientUnits="userSpaceOnUse">
<stop stop-color="#2161D5"/>
<stop offset="1" stop-color="#5C92F3"/>
</linearGradient>
<linearGradient id="paint1_linear_0_1" x1="274.268" y1="296.655" x2="268.344" y2="439.4" gradientUnits="userSpaceOnUse">
<stop stop-color="#2161D5"/>
<stop offset="1" stop-color="#5C92F3"/>
</linearGradient>
<clipPath id="clip0_0_1">
<rect width="497.015" height="450" fill="white" transform="translate(0 115)"/>
</clipPath>
</defs>
</svg>
