<svg width="147" height="166" viewBox="0 0 147 166" fill="none" xmlns="http://www.w3.org/2000/svg">
<path fill-rule="evenodd" clip-rule="evenodd" d="M52.4768 40.1383C53.1336 38.7124 53.903 37.6048 54.4114 37.0208C54.4214 38.3983 54.209 39.6339 53.8803 40.7077C54.8917 41.1956 55.9427 41.8788 56.947 42.8215C56.1731 42.7981 54.8377 42.6106 53.3451 42.1245C52.6571 43.6415 51.7875 44.689 51.2173 45.1767C51.2559 43.9 51.5246 42.6764 51.9019 41.5726C50.8353 41.1 49.7546 40.4662 48.7911 39.6274C49.5363 39.5401 50.8959 39.6131 52.4768 40.1383Z" fill="url(#paint0_linear_1_1647)"/>
<path fill-rule="evenodd" clip-rule="evenodd" d="M47.2854 25.8554C47.7225 24.9064 48.2346 24.1692 48.5729 23.7805C48.5796 24.6973 48.4383 25.5197 48.2195 26.2344C48.8927 26.5592 49.5924 27.0139 50.2609 27.6414C49.7458 27.6259 48.8569 27.5011 47.8633 27.1775C47.4054 28.1874 46.8264 28.8847 46.4469 29.2093C46.4726 28.3594 46.6514 27.5449 46.9026 26.8101C46.1927 26.4955 45.4734 26.0737 44.8321 25.5154C45.3281 25.4572 46.2331 25.5058 47.2854 25.8554Z" fill="url(#paint1_linear_1_1647)"/>
<path fill-rule="evenodd" clip-rule="evenodd" d="M33.2349 11.658C33.8916 10.2323 34.6609 9.12478 35.1692 8.54084C35.1792 9.91817 34.9669 11.1536 34.6382 12.2274C35.6496 12.7153 36.7006 13.3984 37.7049 14.3411C36.931 14.3177 35.5957 14.1302 34.1032 13.6441C33.4151 15.1614 32.5454 16.209 31.9752 16.6967C32.0138 15.4199 32.2825 14.1961 32.6599 13.0922C31.5933 12.6196 30.5125 11.9858 29.549 11.147C30.2942 11.0597 31.6539 11.1327 33.2349 11.658Z" fill="url(#paint2_linear_1_1647)"/>
<path fill-rule="evenodd" clip-rule="evenodd" d="M31.0084 43.6234C31.9747 41.5257 33.1065 39.8961 33.8545 39.0369C33.8691 41.0635 33.5568 42.8813 33.0731 44.4611C34.5612 45.1789 36.1076 46.1841 37.5852 47.571C36.4466 47.5366 34.4818 47.2608 32.2859 46.5455C31.2736 48.7775 29.9941 50.3186 29.1553 51.0361C29.2121 49.1577 29.6073 47.3575 30.1625 45.7335C28.5934 45.0382 27.0034 44.1058 25.5859 42.8718C26.6823 42.7433 28.6825 42.8507 31.0084 43.6234Z" fill="url(#paint3_linear_1_1647)"/>
<circle cx="36.8215" cy="29.2667" r="0.846528" transform="rotate(21.3865 36.8215 29.2667)" fill="#2F235A"/>
<circle cx="57.7817" cy="18.6228" r="0.846528" transform="rotate(21.3865 57.7817 18.6228)" fill="#FE9076"/>
<circle cx="17.5467" cy="23.2473" r="0.846528" transform="rotate(21.3865 17.5467 23.2473)" fill="#FFA400"/>
<circle cx="35.7247" cy="57.3323" r="0.846528" transform="rotate(21.3865 35.7247 57.3323)" fill="#23BB86"/>
<path d="M57.1387 14.5768C56.3151 11.4313 53.3425 4.23746 48.0405 0.625932" stroke="#FE9076" stroke-width="0.736823" stroke-linecap="round"/>
<path d="M15.0483 19.832C12.999 17.3076 7.32032 11.984 1.00003 10.8849" stroke="#FFA400" stroke-width="0.736823" stroke-linecap="round"/>
<path d="M32.1226 58.5625C30.3065 59.2248 25.7347 61.3353 21.9763 64.4786" stroke="#23BB86" stroke-width="0.736823" stroke-linecap="round"/>
<path fill-rule="evenodd" clip-rule="evenodd" d="M94.4275 40.1383C93.7707 38.7124 93.0014 37.6048 92.493 37.0208C92.483 38.3983 92.6953 39.6339 93.0241 40.7077C92.0127 41.1956 90.9616 41.8788 89.9573 42.8215C90.7312 42.7981 92.0666 42.6106 93.5592 42.1245C94.2472 43.6415 95.1169 44.689 95.687 45.1767C95.6484 43.9 95.3798 42.6764 95.0025 41.5726C96.069 41.1 97.1498 40.4662 98.1132 39.6274C97.368 39.5401 96.0084 39.6131 94.4275 40.1383Z" fill="url(#paint4_linear_1_1647)"/>
<path fill-rule="evenodd" clip-rule="evenodd" d="M99.619 25.8554C99.1818 24.9064 98.6698 24.1692 98.3314 23.7805C98.3248 24.6973 98.4661 25.5197 98.6849 26.2344C98.0116 26.5592 97.312 27.0139 96.6435 27.6414C97.1586 27.6259 98.0475 27.5011 99.041 27.1775C99.499 28.1874 100.078 28.8847 100.457 29.2093C100.432 28.3594 100.253 27.5449 100.002 26.8101C100.712 26.4955 101.431 26.0737 102.072 25.5154C101.576 25.4572 100.671 25.5058 99.619 25.8554Z" fill="url(#paint5_linear_1_1647)"/>
<path fill-rule="evenodd" clip-rule="evenodd" d="M113.669 11.658C113.013 10.2323 112.243 9.12478 111.735 8.54084C111.725 9.91817 111.937 11.1536 112.266 12.2274C111.255 12.7153 110.204 13.3984 109.199 14.3411C109.973 14.3177 111.309 14.1302 112.801 13.6441C113.489 15.1614 114.359 16.209 114.929 16.6967C114.891 15.4199 114.622 14.1961 114.244 13.0922C115.311 12.6196 116.392 11.9858 117.355 11.147C116.61 11.0597 115.25 11.1327 113.669 11.658Z" fill="url(#paint6_linear_1_1647)"/>
<path fill-rule="evenodd" clip-rule="evenodd" d="M115.896 43.6234C114.93 41.5257 113.798 39.8961 113.05 39.0369C113.035 41.0635 113.348 42.8813 113.831 44.4611C112.343 45.1789 110.797 46.1841 109.319 47.571C110.458 47.5366 112.423 47.2608 114.618 46.5455C115.631 48.7775 116.91 50.3186 117.749 51.0361C117.692 49.1577 117.297 47.3575 116.742 45.7335C118.311 45.0382 119.901 44.1058 121.318 42.8718C120.222 42.7433 118.222 42.8507 115.896 43.6234Z" fill="url(#paint7_linear_1_1647)"/>
<circle cx="0.846528" cy="0.846528" r="0.846528" transform="matrix(-0.931142 0.364658 0.364658 0.931142 110.562 28.1698)" fill="#2F235A"/>
<circle cx="0.846528" cy="0.846528" r="0.846528" transform="matrix(-0.931142 0.364658 0.364658 0.931142 89.6022 17.5259)" fill="#FE9076"/>
<circle cx="0.846528" cy="0.846528" r="0.846528" transform="matrix(-0.931142 0.364658 0.364658 0.931142 129.837 22.1504)" fill="#FFA400"/>
<circle cx="0.846528" cy="0.846528" r="0.846528" transform="matrix(-0.931142 0.364658 0.364658 0.931142 111.659 56.2354)" fill="#23BB86"/>
<path d="M89.7657 14.5768C90.5893 11.4313 93.5619 4.23746 98.8638 0.625932" stroke="#FE9076" stroke-width="0.736823" stroke-linecap="round"/>
<path d="M131.856 19.832C133.905 17.3076 139.584 11.984 145.904 10.8849" stroke="#FFA400" stroke-width="0.736823" stroke-linecap="round"/>
<path d="M114.782 58.5625C116.598 59.2248 121.17 61.3353 124.928 64.4786" stroke="#23BB86" stroke-width="0.736823" stroke-linecap="round"/>
<rect x="28.5269" y="103.89" width="89.8505" height="62.1103" fill="url(#paint8_linear_1_1647)"/>
<mask id="mask0_1_1647" style="mask-type:alpha" maskUnits="userSpaceOnUse" x="28" y="103" width="91" height="64">
<rect x="28.5269" y="103.89" width="89.8505" height="62.1103" fill="#C4C4C4"/>
</mask>
<g mask="url(#mask0_1_1647)">
<path d="M32.7783 102.309L93.9603 102.309L80.1317 126.32L18.9497 126.32L32.7783 102.309Z" fill="black" fill-opacity="0.07"/>
<rect x="89.6288" y="103.89" width="89.8505" height="62.1103" fill="url(#paint9_linear_1_1647)"/>
</g>
<path d="M28.4474 103.89L89.6294 103.89L77.8109 123.613L16.6289 123.613L28.4474 103.89Z" fill="url(#paint10_linear_1_1647)"/>
<mask id="mask1_1_1647" style="mask-type:alpha" maskUnits="userSpaceOnUse" x="89" y="103" width="30" height="64">
<rect x="89.6294" y="103.89" width="28.7479" height="62.1103" fill="#C4C4C4"/>
</mask>
<g mask="url(#mask1_1_1647)">
<path d="M114.878 103.787L86.0846 103.787L99.6139 126.494L128.407 126.494L114.878 103.787Z" fill="black" fill-opacity="0.07"/>
</g>
<path d="M118.422 103.89L89.6294 103.89L101.448 123.613L130.241 123.613L118.422 103.89Z" fill="url(#paint11_linear_1_1647)"/>
<circle cx="58.378" cy="88.0699" r="8.49082" fill="url(#paint12_linear_1_1647)"/>
<circle cx="91.5792" cy="71.3747" r="8.20473" fill="url(#paint13_linear_1_1647)"/>
<circle cx="60.2525" cy="56.5538" r="6.61631" fill="url(#paint14_linear_1_1647)"/>
<circle cx="85.594" cy="41.4144" r="5.98519" fill="url(#paint15_linear_1_1647)"/>
<circle cx="75.8539" cy="63.837" r="1.65" fill="#FFA800" fill-opacity="0.23"/>
<circle cx="101.434" cy="51.5875" r="1.65" fill="#FFA800" fill-opacity="0.23"/>
<circle cx="61.9024" cy="31.8785" r="1.65" fill="#FFA800" fill-opacity="0.23"/>
<circle cx="83.9439" cy="91.735" r="1.65" fill="#FFA800" fill-opacity="0.23"/>
<circle cx="45.7938" cy="65.4869" r="1.65" fill="#FFA800" fill-opacity="0.23"/>
<path opacity="0.1" d="M118.59 104.184H28.4559L14.6135 18.8359H135.212L118.59 104.184Z" fill="url(#paint16_linear_1_1647)"/>
<defs>
<linearGradient id="paint0_linear_1_1647" x1="54.1615" y1="37.9241" x2="51.1625" y2="45.582" gradientUnits="userSpaceOnUse">
<stop stop-color="#FFE89E"/>
<stop offset="1" stop-color="#FFBF1A"/>
</linearGradient>
<linearGradient id="paint1_linear_1_1647" x1="48.4067" y1="24.3819" x2="46.4105" y2="29.4792" gradientUnits="userSpaceOnUse">
<stop stop-color="#FFE89E"/>
<stop offset="1" stop-color="#FFBF1A"/>
</linearGradient>
<linearGradient id="paint2_linear_1_1647" x1="34.9192" y1="9.44416" x2="31.9202" y2="17.102" gradientUnits="userSpaceOnUse">
<stop stop-color="#FFE89E"/>
<stop offset="1" stop-color="#FFBF1A"/>
</linearGradient>
<linearGradient id="paint3_linear_1_1647" x1="33.487" y1="40.366" x2="29.0748" y2="51.6326" gradientUnits="userSpaceOnUse">
<stop stop-color="#FFE89E"/>
<stop offset="1" stop-color="#FFBF1A"/>
</linearGradient>
<linearGradient id="paint4_linear_1_1647" x1="92.7428" y1="37.9241" x2="95.7418" y2="45.582" gradientUnits="userSpaceOnUse">
<stop stop-color="#FFE89E"/>
<stop offset="1" stop-color="#FFBF1A"/>
</linearGradient>
<linearGradient id="paint5_linear_1_1647" x1="98.4976" y1="24.3819" x2="100.494" y2="29.4792" gradientUnits="userSpaceOnUse">
<stop stop-color="#FFE89E"/>
<stop offset="1" stop-color="#FFBF1A"/>
</linearGradient>
<linearGradient id="paint6_linear_1_1647" x1="111.985" y1="9.44416" x2="114.984" y2="17.102" gradientUnits="userSpaceOnUse">
<stop stop-color="#FFE89E"/>
<stop offset="1" stop-color="#FFBF1A"/>
</linearGradient>
<linearGradient id="paint7_linear_1_1647" x1="113.417" y1="40.366" x2="117.83" y2="51.6326" gradientUnits="userSpaceOnUse">
<stop stop-color="#FFE89E"/>
<stop offset="1" stop-color="#FFBF1A"/>
</linearGradient>
<linearGradient id="paint8_linear_1_1647" x1="58.5411" y1="92.3911" x2="22.7308" y2="191.023" gradientUnits="userSpaceOnUse">
<stop stop-color="#FFD481"/>
<stop offset="1" stop-color="#FA620C"/>
</linearGradient>
<linearGradient id="paint9_linear_1_1647" x1="43.8566" y1="99.9507" x2="152.537" y2="216.09" gradientUnits="userSpaceOnUse">
<stop stop-color="#FFD481"/>
<stop offset="0.83311" stop-color="#FA620C"/>
</linearGradient>
<linearGradient id="paint10_linear_1_1647" x1="29.7065" y1="96.8412" x2="26.7988" y2="138.864" gradientUnits="userSpaceOnUse">
<stop stop-color="#FFD481"/>
<stop offset="1" stop-color="#FA620C"/>
</linearGradient>
<linearGradient id="paint11_linear_1_1647" x1="122.966" y1="96.8412" x2="128.137" y2="138.422" gradientUnits="userSpaceOnUse">
<stop stop-color="#FFD481"/>
<stop offset="1" stop-color="#FA620C"/>
</linearGradient>
<linearGradient id="paint12_linear_1_1647" x1="59.2558" y1="76.787" x2="57.7701" y2="99.6398" gradientUnits="userSpaceOnUse">
<stop stop-color="#2161D5"/>
<stop offset="1" stop-color="#5C92F3"/>
</linearGradient>
<linearGradient id="paint13_linear_1_1647" x1="92.4274" y1="60.4719" x2="90.9917" y2="82.5547" gradientUnits="userSpaceOnUse">
<stop stop-color="#2161D5"/>
<stop offset="1" stop-color="#5C92F3"/>
</linearGradient>
<linearGradient id="paint14_linear_1_1647" x1="60.9365" y1="47.7618" x2="59.7788" y2="65.5694" gradientUnits="userSpaceOnUse">
<stop stop-color="#2161D5"/>
<stop offset="1" stop-color="#5C92F3"/>
</linearGradient>
<linearGradient id="paint15_linear_1_1647" x1="86.2128" y1="33.461" x2="85.1655" y2="49.57" gradientUnits="userSpaceOnUse">
<stop stop-color="#2161D5"/>
<stop offset="1" stop-color="#5C92F3"/>
</linearGradient>
<linearGradient id="paint16_linear_1_1647" x1="81.1464" y1="4.80292" x2="75.8506" y2="119.901" gradientUnits="userSpaceOnUse">
<stop stop-color="#2161D5"/>
<stop offset="1" stop-color="#5C92F3"/>
</linearGradient>
</defs>
</svg>
